<svg xmlns="http://www.w3.org/2000/svg" xmlns:xlink="http://www.w3.org/1999/xlink" width="500" zoomAndPan="magnify" viewBox="0 0 375 374.999991" height="500" preserveAspectRatio="xMidYMid meet" version="1.0"><defs><clipPath id="id1"><path d="M 11.550781 7.03125 L 363.300781 7.03125 L 363.300781 358.78125 L 11.550781 358.78125 Z M 11.550781 7.03125 " clip-rule="nonzero"/></clipPath><clipPath id="id2"><path d="M 94.078125 86.652344 L 280.828125 86.652344 L 280.828125 226 L 94.078125 226 Z M 94.078125 86.652344 " clip-rule="nonzero"/></clipPath><clipPath id="id3"><path d="M 94.078125 232.394531 L 187 232.394531 L 187 316.394531 L 94.078125 316.394531 Z M 94.078125 232.394531 " clip-rule="nonzero"/></clipPath><clipPath id="id4"><path d="M 187.5 232.394531 L 285 232.394531 L 285 316.394531 L 187.5 316.394531 Z M 187.5 232.394531 " clip-rule="nonzero"/></clipPath></defs><rect x="-37.5" width="450" fill="#ffffff" y="-37.499999" height="449.999989" fill-opacity="1"/><rect x="-37.5" width="450" fill="#ffffff" y="-37.499999" height="449.999989" fill-opacity="1"/><rect x="-37.5" width="450" fill="#ffffff" y="-37.499999" height="449.999989" fill-opacity="1"/><g clip-path="url(#id1)"><path fill="#008037" d="M 187.425781 7.03125 C 90.292969 7.03125 11.550781 85.773438 11.550781 182.90625 C 11.550781 280.039062 90.292969 358.78125 187.425781 358.78125 C 284.558594 358.78125 363.300781 280.039062 363.300781 182.90625 C 363.300781 85.773438 284.558594 7.03125 187.425781 7.03125 " fill-opacity="1" fill-rule="nonzero"/></g><g clip-path="url(#id2)"><path fill="#ffffff" d="M 105.371094 87.191406 C 101.003906 88.246094 97.203125 91.367188 95.132812 95.621094 L 94.078125 97.769531 L 94.078125 214.835938 L 95.097656 216.980469 C 96.265625 219.539062 98.972656 222.511719 101.230469 223.867188 C 105.035156 226.089844 99.953125 225.9375 188.222656 225.863281 L 269.113281 225.75 L 271.257812 224.882812 C 273.78125 223.867188 277.167969 220.933594 278.523438 218.636719 C 280.820312 214.683594 280.667969 218.9375 280.746094 158.746094 C 280.78125 128.519531 280.707031 102.359375 280.519531 100.628906 C 280.027344 94.832031 277.015625 90.578125 271.636719 88.054688 L 269.113281 86.851562 L 188.183594 86.777344 C 125.507812 86.738281 106.839844 86.8125 105.371094 87.191406 Z M 238.207031 96.601562 C 238.886719 96.902344 239.941406 97.769531 240.542969 98.558594 L 241.632812 99.953125 L 241.746094 109.136719 L 241.859375 118.285156 L 103.074219 118.285156 L 103 111.207031 C 102.890625 100.105469 103.300781 98.257812 106.3125 96.753906 C 107.554688 96.113281 111.46875 96.074219 172.300781 96.074219 C 226.726562 96.074219 237.15625 96.148438 238.207031 96.601562 Z M 263.503906 97.84375 C 265.988281 98.671875 268.960938 101.644531 269.789062 104.128906 C 271.179688 108.195312 270.277344 112.074219 267.265625 115.121094 C 262.976562 119.375 256.800781 119.375 252.511719 115.121094 C 248.257812 110.828125 248.257812 104.65625 252.550781 100.363281 C 255.5625 97.355469 259.4375 96.449219 263.503906 97.84375 Z M 271.484375 171.132812 C 271.371094 212.652344 271.371094 212.726562 270.582031 213.78125 C 270.167969 214.34375 269.222656 215.210938 268.546875 215.664062 L 267.304688 216.527344 L 107.179688 216.527344 L 105.9375 215.664062 C 105.222656 215.210938 104.316406 214.234375 103.902344 213.519531 C 103.113281 212.199219 103.113281 211.859375 103.074219 170.871094 L 103.039062 129.578125 L 271.558594 129.578125 Z M 271.484375 171.132812 " fill-opacity="1" fill-rule="nonzero"/></g><path fill="#ffffff" d="M 185.359375 140.867188 C 184.644531 141.582031 184.609375 142.109375 184.609375 150.089844 C 184.609375 158.070312 184.644531 158.597656 185.359375 159.3125 C 185.851562 159.800781 186.601562 160.0625 187.621094 160.0625 C 188.636719 160.0625 189.390625 159.800781 189.878906 159.3125 C 190.59375 158.597656 190.632812 158.070312 190.632812 150.089844 C 190.632812 142.109375 190.59375 141.582031 189.878906 140.867188 C 189.390625 140.378906 188.636719 140.117188 187.621094 140.117188 C 186.601562 140.117188 185.847656 140.378906 185.359375 140.867188 Z M 185.359375 140.867188 " fill-opacity="1" fill-rule="nonzero"/><path fill="#ffffff" d="M 162.023438 143.804688 C 161.121094 144.257812 160.667969 144.746094 160.59375 145.386719 C 160.480469 146.214844 165.070312 159.539062 166.164062 161.535156 C 166.691406 162.585938 167.707031 162.777344 169.398438 162.210938 C 171.734375 161.382812 171.960938 160.519531 170.679688 156.90625 C 167.855469 148.925781 165.785156 143.730469 165.335938 143.464844 C 164.582031 142.976562 163.453125 143.089844 162.023438 143.804688 Z M 162.023438 143.804688 " fill-opacity="1" fill-rule="nonzero"/><path fill="#ffffff" d="M 208.996094 143.769531 C 207.980469 144.972656 202.9375 159.578125 203.199219 160.554688 C 203.429688 161.457031 205.648438 162.699219 206.964844 162.699219 C 207.980469 162.699219 208.734375 161.15625 211.519531 153.554688 C 214.644531 144.933594 214.644531 144.667969 212.273438 143.652344 C 210.578125 142.9375 209.675781 142.976562 208.996094 143.769531 Z M 208.996094 143.769531 " fill-opacity="1" fill-rule="nonzero"/><path fill="#ffffff" d="M 142.410156 154.609375 C 141.054688 155.511719 140.566406 156.226562 140.566406 157.320312 C 140.566406 158.148438 151.445312 170.984375 152.160156 171.019531 C 154.042969 171.171875 156 169.589844 156 167.972656 C 156 166.503906 145.121094 153.667969 143.878906 153.667969 C 143.800781 153.667969 143.125 154.082031 142.410156 154.609375 Z M 142.410156 154.609375 " fill-opacity="1" fill-rule="nonzero"/><path fill="#ffffff" d="M 230.078125 153.929688 C 229.136719 154.15625 218.484375 167.066406 218.484375 168.007812 C 218.484375 168.875 220.328125 170.792969 221.457031 171.09375 C 222.589844 171.394531 223.378906 170.644531 228.835938 164.128906 C 234.40625 157.507812 234.707031 156.828125 232.902344 155.097656 C 231.734375 154.042969 231.019531 153.742188 230.078125 153.929688 Z M 230.078125 153.929688 " fill-opacity="1" fill-rule="nonzero"/><path fill="#ffffff" d="M 128.632812 170.269531 C 127.695312 170.605469 126.640625 172.414062 126.640625 173.730469 C 126.640625 174.933594 126.980469 175.199219 134.621094 179.605469 C 142.109375 183.933594 142.789062 184.082031 144.21875 181.9375 C 145.496094 180.054688 145.347656 179.078125 143.691406 177.984375 C 141.621094 176.667969 130.703125 170.378906 130.027344 170.15625 C 129.726562 170.042969 129.085938 170.078125 128.632812 170.269531 Z M 128.632812 170.269531 " fill-opacity="1" fill-rule="nonzero"/><path fill="#ffffff" d="M 239.335938 173.089844 C 236.25 174.859375 232.863281 176.816406 231.808594 177.421875 C 229.4375 178.773438 229.136719 179.640625 230.265625 181.710938 C 231.660156 184.195312 232.261719 184.046875 240.578125 179.265625 C 248.410156 174.75 248.824219 174.335938 247.695312 172.191406 C 247.167969 171.136719 245.773438 169.855469 245.210938 169.855469 C 245.097656 169.851562 242.460938 171.320312 239.335938 173.089844 Z M 239.335938 173.089844 " fill-opacity="1" fill-rule="nonzero"/><path fill="#ffffff" d="M 199.664062 180.996094 C 194.242188 182.800781 183.027344 189.957031 180.578125 193.117188 C 174.933594 200.53125 183.328125 210.695312 191.683594 206.519531 C 193.867188 205.425781 195.523438 203.582031 198.988281 198.425781 C 205.011719 189.425781 207.53125 182.199219 205.234375 180.621094 C 204.066406 179.789062 202.976562 179.867188 199.664062 180.996094 Z M 199.664062 180.996094 " fill-opacity="1" fill-rule="nonzero"/><g clip-path="url(#id3)"><path fill="#ffffff" d="M 183.203125 241.828125 C 183.207031 241.828125 183.210938 241.835938 183.214844 241.847656 C 183.226562 241.910156 183.230469 242.003906 183.21875 242.058594 C 183.210938 242.074219 183.207031 242.082031 183.203125 242.082031 C 183.195312 242.082031 183.1875 242.035156 183.1875 241.957031 C 183.1875 241.875 183.191406 241.828125 183.203125 241.828125 Z M 125.472656 232.398438 C 125.335938 232.398438 125.238281 232.433594 125.132812 232.519531 C 125.007812 232.621094 124.980469 232.691406 124.980469 232.910156 C 124.980469 233.148438 125.011719 233.207031 125.207031 233.398438 C 125.332031 233.515625 125.570312 233.742188 125.738281 233.894531 C 125.898438 234.046875 126.140625 234.320312 126.265625 234.496094 C 126.390625 234.675781 126.558594 234.847656 126.632812 234.886719 C 126.707031 234.929688 126.765625 234.996094 126.765625 235.03125 C 126.765625 235.070312 126.820312 235.171875 126.890625 235.253906 L 127.011719 235.410156 L 126.878906 235.585938 C 126.816406 235.679688 126.742188 235.75 126.71875 235.75 C 126.71875 235.75 126.714844 235.75 126.714844 235.75 C 126.453125 235.605469 125.761719 235.367188 125.40625 235.300781 C 125.257812 235.273438 125 235.226562 124.835938 235.191406 C 124.398438 235.109375 123.976562 234.980469 123.695312 234.839844 C 123.5625 234.769531 123.347656 234.71875 123.21875 234.71875 C 123.019531 234.71875 122.960938 234.75 122.851562 234.902344 C 122.683594 235.140625 122.632812 235.5625 122.757812 235.746094 C 122.859375 235.902344 123.699219 236.257812 123.96875 236.257812 C 124.058594 236.257812 124.296875 236.339844 124.484375 236.433594 C 124.675781 236.535156 124.875 236.609375 124.925781 236.609375 C 124.972656 236.609375 125.148438 236.644531 125.316406 236.691406 C 125.480469 236.738281 125.730469 236.808594 125.871094 236.84375 C 126.09375 236.902344 126.121094 236.921875 126.058594 236.996094 C 126.019531 237.046875 125.972656 237.066406 125.898438 237.066406 C 125.863281 237.066406 125.820312 237.0625 125.773438 237.050781 C 125.511719 237.011719 123.355469 236.945312 122.410156 236.945312 C 122.199219 236.945312 122.046875 236.945312 121.992188 236.953125 C 121.679688 236.996094 121.621094 237.09375 121.625 237.554688 C 121.632812 238.109375 121.714844 238.171875 122.460938 238.230469 C 122.796875 238.257812 123.355469 238.304688 123.699219 238.332031 C 124.042969 238.367188 124.675781 238.386719 125.113281 238.390625 L 125.902344 238.386719 L 125.820312 238.519531 C 125.773438 238.589844 125.695312 238.667969 125.648438 238.691406 C 125.519531 238.75 125.011719 238.878906 124.679688 238.925781 C 124.519531 238.953125 124.234375 239.023438 124.050781 239.09375 C 123.867188 239.160156 123.429688 239.246094 123.074219 239.289062 C 122.179688 239.386719 122.140625 239.410156 122.117188 239.863281 C 122.109375 240.160156 122.125 240.242188 122.226562 240.363281 C 122.332031 240.480469 122.355469 240.503906 122.851562 240.503906 C 122.980469 240.503906 123.140625 240.5 123.339844 240.5 C 124.382812 240.484375 125.292969 240.359375 125.660156 240.1875 C 125.808594 240.113281 126 240.089844 126.429688 240.089844 C 126.460938 240.089844 126.492188 240.089844 126.523438 240.089844 C 127.105469 240.09375 127.21875 240.109375 127.484375 240.246094 C 127.652344 240.328125 127.800781 240.417969 127.816406 240.445312 C 127.855469 240.503906 127.726562 240.972656 127.613281 241.183594 C 127.578125 241.261719 127.464844 241.386719 127.371094 241.46875 C 127.101562 241.714844 127.015625 242.300781 127.140625 243.074219 C 127.253906 243.753906 127.320312 243.894531 127.710938 243.894531 C 127.765625 243.894531 127.832031 243.894531 127.902344 243.886719 L 128.191406 243.871094 L 128.203125 243.453125 C 128.207031 243.027344 128.265625 242.644531 128.328125 242.59375 C 128.402344 242.53125 128.75 242.0625 128.75 242.019531 C 128.746094 241.921875 129.597656 241.28125 129.734375 241.28125 C 129.757812 241.28125 129.863281 241.210938 129.957031 241.125 C 130.160156 240.945312 130.300781 240.886719 130.691406 240.796875 C 130.839844 240.765625 131.074219 240.683594 131.210938 240.621094 C 131.355469 240.554688 131.496094 240.503906 131.539062 240.503906 C 131.578125 240.5 131.707031 240.394531 131.820312 240.257812 C 132.050781 239.988281 132.167969 239.960938 133.625 239.757812 C 134.714844 239.609375 134.988281 239.589844 136.675781 239.578125 C 136.835938 239.578125 136.988281 239.578125 137.128906 239.578125 C 138.550781 239.578125 138.980469 239.613281 139.578125 239.769531 C 140.035156 239.890625 140.230469 239.925781 141.117188 240.082031 C 141.398438 240.128906 141.835938 240.207031 142.097656 240.25 C 142.785156 240.382812 143.449219 240.4375 144.355469 240.4375 C 144.625 240.4375 144.917969 240.433594 145.234375 240.421875 L 146.597656 240.382812 L 146.746094 240.519531 C 146.828125 240.59375 147.085938 240.808594 147.3125 240.996094 C 147.542969 241.183594 147.953125 241.570312 148.238281 241.855469 C 148.742188 242.363281 149.378906 242.929688 149.511719 242.980469 C 149.546875 243 149.640625 243.070312 149.722656 243.140625 C 149.984375 243.382812 150.277344 243.609375 150.613281 243.828125 C 150.800781 243.945312 150.996094 244.097656 151.054688 244.164062 C 151.113281 244.226562 151.207031 244.28125 151.269531 244.28125 C 151.328125 244.28125 151.386719 244.335938 151.410156 244.394531 C 151.429688 244.457031 151.484375 244.523438 151.53125 244.542969 C 151.695312 244.601562 151.632812 244.921875 151.390625 245.25 C 151.265625 245.421875 151.113281 245.652344 151.054688 245.765625 C 150.996094 245.878906 150.867188 246.074219 150.765625 246.195312 C 150.671875 246.3125 150.523438 246.5 150.441406 246.605469 C 150.238281 246.875 150.09375 247.015625 149.824219 247.25 C 149.1875 247.78125 148.636719 248.300781 148.289062 248.699219 C 148.195312 248.8125 147.882812 249.15625 147.597656 249.472656 C 147.3125 249.78125 147.082031 250.0625 147.082031 250.085938 C 147.082031 250.132812 146.851562 250.4375 146.609375 250.707031 C 146.527344 250.792969 146.332031 251.027344 146.179688 251.222656 C 146.027344 251.414062 145.613281 251.867188 145.265625 252.230469 C 144.917969 252.589844 144.488281 253.058594 144.308594 253.273438 C 144.132812 253.488281 143.960938 253.671875 143.9375 253.679688 C 143.914062 253.691406 143.828125 253.832031 143.75 253.992188 C 143.667969 254.15625 143.578125 254.285156 143.550781 254.285156 C 143.527344 254.285156 143.414062 254.441406 143.316406 254.625 C 142.984375 255.21875 142.863281 255.417969 142.703125 255.582031 C 142.613281 255.679688 142.542969 255.773438 142.542969 255.808594 C 142.542969 255.863281 142.078125 256.417969 141.765625 256.734375 C 141.675781 256.820312 141.589844 256.964844 141.566406 257.054688 C 141.546875 257.136719 141.484375 257.230469 141.425781 257.261719 C 141.363281 257.296875 141.300781 257.371094 141.277344 257.433594 C 141.257812 257.496094 141.171875 257.558594 141.082031 257.578125 C 140.746094 257.652344 140.230469 258.179688 140.125 258.566406 C 140.0625 258.8125 139.472656 259.464844 139.320312 259.46875 C 139.265625 259.46875 139.058594 259.5625 138.851562 259.675781 C 138.5625 259.84375 138.457031 259.941406 138.355469 260.148438 C 138.226562 260.421875 138.074219 260.558594 137.820312 260.617188 C 137.722656 260.644531 137.625 260.738281 137.554688 260.882812 C 137.496094 261 137.351562 261.183594 137.242188 261.28125 C 137.128906 261.382812 137.003906 261.496094 136.96875 261.53125 C 136.835938 261.667969 136.289062 261.914062 136.117188 261.914062 C 136.023438 261.914062 135.921875 261.9375 135.90625 261.972656 C 135.886719 262.003906 135.703125 262.125 135.503906 262.242188 C 135.296875 262.355469 135.066406 262.519531 134.988281 262.59375 C 134.917969 262.679688 134.710938 262.785156 134.535156 262.839844 C 134.304688 262.914062 134.199219 262.976562 134.152344 263.085938 C 134.117188 263.164062 134.015625 263.246094 133.933594 263.269531 C 133.851562 263.289062 133.738281 263.335938 133.691406 263.378906 C 133.644531 263.425781 133.453125 263.523438 133.269531 263.605469 C 133.09375 263.683594 132.890625 263.816406 132.828125 263.898438 C 132.761719 263.980469 132.679688 264.058594 132.640625 264.070312 C 132.542969 264.105469 132.148438 264.445312 131.765625 264.839844 C 131.246094 265.363281 131.167969 265.453125 131.070312 265.65625 C 131.015625 265.761719 130.953125 265.851562 130.921875 265.851562 C 130.894531 265.851562 130.839844 265.9375 130.792969 266.042969 C 130.75 266.144531 130.628906 266.359375 130.523438 266.511719 C 130.417969 266.675781 130.328125 266.816406 130.328125 266.839844 C 130.328125 266.859375 130.226562 267.078125 130.105469 267.328125 C 129.980469 267.585938 129.835938 267.957031 129.777344 268.171875 C 129.71875 268.386719 129.648438 268.613281 129.625 268.679688 C 129.53125 268.910156 129.390625 269.597656 129.390625 269.820312 C 129.394531 269.941406 129.351562 270.121094 129.304688 270.214844 C 129.257812 270.304688 129.21875 270.476562 129.21875 270.589844 C 129.21875 270.703125 129.1875 270.851562 129.148438 270.921875 C 129.070312 271.0625 128.992188 271.488281 128.960938 271.890625 C 128.933594 272.25 128.882812 272.363281 128.722656 272.453125 C 128.632812 272.5 128.574219 272.582031 128.574219 272.664062 C 128.574219 272.738281 128.511719 272.839844 128.425781 272.890625 C 128.351562 272.945312 128.261719 273.066406 128.238281 273.160156 C 128.1875 273.335938 127.886719 273.738281 127.609375 273.992188 C 127.515625 274.078125 127.285156 274.304688 127.101562 274.488281 C 126.914062 274.679688 126.746094 274.832031 126.730469 274.832031 C 126.695312 274.832031 125.46875 276.0625 125.089844 276.480469 C 124.972656 276.605469 124.84375 276.777344 124.800781 276.847656 C 124.765625 276.925781 124.648438 277.085938 124.546875 277.207031 C 124.441406 277.332031 124.335938 277.46875 124.300781 277.519531 C 124.269531 277.574219 124.09375 277.820312 123.910156 278.0625 C 123.515625 278.59375 123.300781 278.90625 123.0625 279.332031 C 122.96875 279.496094 122.828125 279.722656 122.757812 279.820312 C 122.679688 279.917969 122.621094 280.03125 122.621094 280.0625 C 122.621094 280.097656 122.558594 280.199219 122.480469 280.292969 C 122.40625 280.382812 122.289062 280.582031 122.210938 280.722656 C 122.140625 280.871094 122.039062 281.03125 121.988281 281.082031 C 121.941406 281.128906 121.863281 281.257812 121.816406 281.367188 C 121.777344 281.472656 121.714844 281.5625 121.691406 281.5625 C 121.667969 281.5625 121.527344 281.742188 121.386719 281.960938 C 121.246094 282.1875 121.09375 282.402344 121.050781 282.445312 C 121.007812 282.484375 120.972656 282.574219 120.976562 282.640625 C 120.976562 282.699219 120.953125 282.753906 120.921875 282.753906 C 120.890625 282.753906 120.769531 282.914062 120.652344 283.109375 C 120.535156 283.304688 120.390625 283.496094 120.332031 283.539062 C 120.28125 283.582031 120.171875 283.707031 120.101562 283.808594 C 120.027344 283.914062 119.886719 284.046875 119.777344 284.09375 C 119.671875 284.148438 119.3125 284.449219 118.976562 284.777344 C 118.230469 285.5 118.0625 285.636719 117.558594 285.894531 C 117.347656 286.003906 117.128906 286.117188 117.078125 286.144531 C 116.75 286.324219 116.082031 286.628906 115.957031 286.667969 C 115.753906 286.714844 115.4375 286.863281 115.394531 286.925781 C 115.378906 286.953125 115.1875 287.066406 114.976562 287.175781 C 114.757812 287.289062 114.566406 287.410156 114.554688 287.449219 C 114.539062 287.492188 114.492188 287.527344 114.445312 287.527344 C 114.378906 287.527344 114.105469 287.660156 113.742188 287.875 C 113.675781 287.910156 113.476562 288.011719 113.296875 288.097656 C 113.121094 288.1875 112.789062 288.359375 112.558594 288.492188 C 112.335938 288.617188 112.03125 288.777344 111.902344 288.84375 C 111.765625 288.914062 111.496094 289.117188 111.300781 289.296875 C 111.105469 289.476562 110.921875 289.621094 110.894531 289.621094 C 110.820312 289.621094 109.945312 290.5625 109.726562 290.871094 C 109.632812 291.007812 109.449219 291.230469 109.332031 291.367188 C 108.835938 291.929688 108.695312 292.109375 108.695312 292.164062 C 108.695312 292.21875 108.328125 292.585938 107.425781 293.4375 C 107.230469 293.625 106.757812 294.105469 106.382812 294.511719 C 106.003906 294.917969 105.53125 295.421875 105.332031 295.636719 C 105.132812 295.851562 104.894531 296.113281 104.8125 296.226562 C 104.621094 296.484375 104.207031 296.90625 103.839844 297.230469 C 103.6875 297.359375 103.5625 297.492188 103.5625 297.507812 C 103.5625 297.609375 102.367188 298.726562 102.125 298.855469 C 101.96875 298.941406 101.773438 299.042969 101.699219 299.082031 C 101.617188 299.132812 101.519531 299.226562 101.492188 299.296875 C 101.4375 299.410156 101.148438 299.625 100.664062 299.90625 C 100.605469 299.941406 100.503906 300.015625 100.445312 300.070312 C 100.386719 300.128906 100.25 300.171875 100.144531 300.171875 C 100.042969 300.171875 99.890625 300.214844 99.8125 300.265625 C 99.707031 300.339844 99.378906 300.375 99.070312 300.375 C 98.785156 300.375 98.515625 300.34375 98.453125 300.277344 C 98.398438 300.21875 98.320312 300.179688 98.273438 300.179688 C 98.230469 300.179688 98.125 300.144531 98.035156 300.097656 C 97.945312 300.050781 97.691406 299.996094 97.46875 299.972656 C 97.242188 299.949219 97.058594 299.910156 97.058594 299.878906 C 97.058594 299.851562 96.914062 299.691406 96.75 299.53125 C 96.496094 299.296875 96.394531 299.238281 96.230469 299.238281 C 96.226562 299.238281 96.226562 299.238281 96.226562 299.238281 C 96.109375 299.238281 95.960938 299.273438 95.894531 299.320312 C 95.828125 299.367188 95.71875 299.417969 95.640625 299.429688 C 95.535156 299.441406 95.445312 299.542969 95.304688 299.832031 C 95.144531 300.144531 95.082031 300.386719 94.984375 301.050781 C 94.878906 301.757812 94.859375 302.199219 94.847656 303.980469 C 94.839844 305.132812 94.796875 306.542969 94.753906 307.125 C 94.707031 307.703125 94.652344 308.503906 94.636719 308.90625 C 94.621094 309.304688 94.582031 309.691406 94.558594 309.769531 C 94.527344 309.839844 94.476562 310.046875 94.445312 310.226562 C 94.09375 312.132812 94.128906 313.609375 94.546875 314.765625 C 94.632812 314.992188 94.722656 315.265625 94.75 315.371094 C 94.804688 315.597656 94.964844 315.796875 95.363281 316.148438 C 95.621094 316.375 95.65625 316.394531 95.984375 316.394531 C 96.003906 316.394531 96.023438 316.394531 96.046875 316.394531 C 96.621094 316.390625 97.003906 316.195312 97.179688 315.808594 C 97.320312 315.515625 97.460938 315.035156 97.53125 314.636719 C 97.550781 314.503906 97.636719 314.25 97.71875 314.070312 C 97.808594 313.894531 97.917969 313.613281 97.972656 313.453125 C 98.019531 313.292969 98.128906 313.085938 98.207031 312.988281 C 98.289062 312.894531 98.351562 312.761719 98.351562 312.699219 C 98.351562 312.636719 98.375 312.585938 98.410156 312.585938 C 98.472656 312.585938 98.707031 312.261719 98.902344 311.90625 C 98.960938 311.800781 99 311.609375 98.992188 311.453125 C 98.992188 311.304688 99.039062 311.015625 99.097656 310.800781 C 99.191406 310.457031 99.21875 310.414062 99.375 310.382812 C 99.515625 310.359375 99.558594 310.304688 99.621094 310.085938 C 99.667969 309.933594 99.78125 309.746094 99.910156 309.632812 C 100.023438 309.527344 100.117188 309.414062 100.117188 309.382812 C 100.117188 309.308594 100.511719 308.710938 100.652344 308.582031 C 100.710938 308.519531 100.765625 308.425781 100.765625 308.367188 C 100.765625 308.308594 100.804688 308.222656 100.851562 308.183594 C 100.898438 308.140625 100.941406 308.074219 100.941406 308.03125 C 100.941406 307.957031 101.234375 307.792969 101.441406 307.753906 C 101.507812 307.738281 101.566406 307.675781 101.578125 307.601562 C 101.589844 307.53125 101.660156 307.429688 101.742188 307.382812 C 101.902344 307.273438 101.9375 306.992188 101.8125 306.722656 C 101.75 306.59375 101.761719 306.550781 101.894531 306.410156 C 101.976562 306.320312 102.085938 306.171875 102.148438 306.082031 C 102.207031 305.992188 102.335938 305.824219 102.433594 305.71875 C 102.535156 305.609375 102.664062 305.449219 102.722656 305.367188 C 102.78125 305.277344 102.882812 305.207031 102.941406 305.207031 C 103.007812 305.203125 103.0625 305.175781 103.0625 305.140625 C 103.0625 305.097656 103.113281 305.019531 103.183594 304.960938 C 103.253906 304.902344 103.355469 304.765625 103.414062 304.65625 C 103.472656 304.542969 103.574219 304.453125 103.644531 304.441406 C 103.714844 304.429688 103.808594 304.347656 103.855469 304.25 C 103.902344 304.15625 103.992188 304.066406 104.050781 304.042969 C 104.175781 304.007812 104.710938 303.496094 104.710938 303.417969 C 104.710938 303.359375 105.046875 302.941406 105.359375 302.601562 C 105.488281 302.464844 105.597656 302.320312 105.597656 302.285156 C 105.59375 302.179688 106.328125 301.46875 106.945312 300.972656 C 107.253906 300.730469 107.566406 300.46875 107.644531 300.390625 C 107.71875 300.316406 107.804688 300.257812 107.820312 300.257812 C 107.84375 300.257812 108.117188 300.0625 108.433594 299.816406 C 108.746094 299.570312 109.066406 299.339844 109.144531 299.296875 C 109.21875 299.253906 109.328125 299.179688 109.375 299.125 C 109.421875 299.070312 109.558594 298.976562 109.667969 298.914062 C 109.78125 298.855469 109.96875 298.734375 110.082031 298.644531 C 110.195312 298.5625 110.390625 298.445312 110.515625 298.382812 C 110.632812 298.328125 110.730469 298.265625 110.730469 298.234375 C 110.730469 298.210938 110.832031 298.144531 110.957031 298.085938 C 111.074219 298.023438 111.28125 297.898438 111.410156 297.804688 C 111.800781 297.515625 112.261719 297.214844 112.308594 297.210938 C 112.339844 297.210938 112.488281 297.105469 112.644531 296.972656 C 112.800781 296.84375 112.964844 296.734375 113.007812 296.734375 C 113.054688 296.734375 113.140625 296.652344 113.214844 296.554688 C 113.285156 296.453125 113.371094 296.378906 113.417969 296.378906 C 113.460938 296.378906 113.636719 296.257812 113.816406 296.109375 C 113.992188 295.960938 114.164062 295.839844 114.199219 295.839844 C 114.230469 295.839844 114.316406 295.773438 114.394531 295.691406 C 114.46875 295.605469 114.566406 295.542969 114.601562 295.542969 C 114.640625 295.542969 114.796875 295.433594 114.941406 295.300781 C 115.089844 295.171875 115.234375 295.0625 115.261719 295.0625 C 115.292969 295.0625 115.410156 294.96875 115.523438 294.847656 C 115.628906 294.730469 115.824219 294.585938 115.945312 294.519531 C 116.066406 294.453125 116.164062 294.378906 116.164062 294.347656 C 116.164062 294.316406 116.277344 294.242188 116.417969 294.167969 C 116.746094 294.007812 116.925781 293.898438 117.011719 293.816406 C 117.046875 293.78125 117.109375 293.75 117.152344 293.75 C 117.195312 293.75 117.328125 293.691406 117.453125 293.613281 C 117.570312 293.535156 117.785156 293.425781 117.925781 293.371094 C 118.066406 293.3125 118.347656 293.164062 118.546875 293.03125 C 118.742188 292.902344 118.9375 292.792969 118.976562 292.792969 C 119.015625 292.792969 119.078125 292.757812 119.113281 292.714844 C 119.148438 292.667969 119.332031 292.582031 119.515625 292.523438 C 119.707031 292.457031 119.902344 292.375 119.953125 292.332031 C 120 292.289062 120.078125 292.253906 120.113281 292.253906 C 120.15625 292.253906 120.230469 292.230469 120.289062 292.195312 C 120.34375 292.164062 120.5625 292.054688 120.773438 291.953125 C 121.441406 291.632812 121.527344 291.578125 121.996094 291.136719 C 122.660156 290.523438 122.792969 290.410156 122.964844 290.3125 C 123.054688 290.265625 123.191406 290.144531 123.273438 290.046875 C 123.355469 289.949219 123.449219 289.867188 123.480469 289.867188 C 123.507812 289.867188 123.734375 289.679688 123.96875 289.449219 C 124.210938 289.222656 124.429688 289.03125 124.460938 289.03125 C 124.488281 289.03125 124.558594 288.988281 124.617188 288.933594 C 124.714844 288.851562 124.921875 288.730469 125.867188 288.230469 C 126.085938 288.109375 126.277344 287.980469 126.308594 287.9375 C 126.332031 287.894531 126.457031 287.8125 126.574219 287.757812 C 126.691406 287.699219 126.800781 287.632812 126.8125 287.609375 C 126.824219 287.585938 126.976562 287.472656 127.152344 287.359375 C 127.332031 287.246094 127.574219 287.082031 127.683594 286.988281 C 127.796875 286.898438 127.957031 286.773438 128.039062 286.707031 C 128.121094 286.640625 128.347656 286.457031 128.539062 286.300781 C 128.996094 285.9375 129.261719 285.699219 129.785156 285.179688 C 130.335938 284.636719 130.539062 284.453125 130.753906 284.328125 C 130.84375 284.269531 130.996094 284.148438 131.089844 284.058594 C 131.457031 283.695312 132.253906 283.027344 132.453125 282.914062 C 132.566406 282.847656 132.824219 282.640625 133.019531 282.453125 C 133.488281 282.011719 133.546875 281.953125 133.621094 281.859375 C 133.773438 281.679688 134.152344 281.351562 134.253906 281.316406 C 134.320312 281.292969 134.378906 281.21875 134.394531 281.15625 C 134.414062 281.082031 134.507812 280.988281 134.601562 280.941406 C 134.695312 280.890625 134.800781 280.785156 134.835938 280.707031 C 134.871094 280.625 134.925781 280.558594 134.960938 280.558594 C 134.992188 280.558594 135.136719 280.433594 135.292969 280.273438 C 136.199219 279.347656 137.136719 278.492188 137.71875 278.054688 C 137.824219 277.972656 138.023438 277.804688 138.160156 277.679688 C 138.296875 277.558594 138.429688 277.457031 138.453125 277.457031 C 138.480469 277.457031 138.585938 277.386719 138.691406 277.289062 C 139.035156 277.003906 139.605469 276.621094 139.6875 276.621094 C 139.738281 276.621094 139.796875 276.589844 139.8125 276.554688 C 139.835938 276.519531 139.960938 276.417969 140.089844 276.324219 C 140.21875 276.230469 140.289062 276.1875 140.378906 276.1875 C 140.445312 276.1875 140.523438 276.210938 140.640625 276.261719 C 140.992188 276.410156 141.730469 276.613281 141.902344 276.613281 L 141.90625 276.613281 C 142.011719 276.613281 142.378906 276.707031 142.722656 276.816406 C 143.058594 276.929688 143.441406 277.035156 143.5625 277.050781 C 143.683594 277.070312 144.039062 277.164062 144.347656 277.257812 C 144.65625 277.351562 145.027344 277.460938 145.175781 277.496094 C 145.324219 277.539062 145.632812 277.625 145.859375 277.703125 C 146.089844 277.773438 146.582031 277.859375 146.957031 277.894531 C 147.328125 277.925781 147.878906 277.996094 148.171875 278.042969 C 148.464844 278.09375 149.25 278.199219 149.917969 278.273438 C 150.585938 278.351562 151.347656 278.457031 151.605469 278.503906 C 151.867188 278.554688 152.390625 278.628906 152.761719 278.675781 C 153.726562 278.792969 153.972656 278.832031 154.035156 278.878906 C 154.074219 278.902344 154.234375 278.949219 154.390625 278.984375 C 154.558594 279.019531 154.765625 279.078125 154.859375 279.109375 L 155.027344 279.171875 L 154.355469 279.84375 C 153.597656 280.609375 153.339844 280.894531 152.957031 281.40625 C 152.808594 281.601562 152.628906 281.8125 152.554688 281.871094 C 152.484375 281.929688 152.410156 282.03125 152.386719 282.101562 C 152.367188 282.175781 152.296875 282.277344 152.238281 282.324219 C 152.179688 282.378906 152.066406 282.554688 151.984375 282.722656 C 151.902344 282.882812 151.785156 283.066406 151.71875 283.128906 C 151.65625 283.1875 151.585938 283.3125 151.566406 283.402344 C 151.550781 283.488281 151.457031 283.6875 151.367188 283.828125 C 151.273438 283.976562 151.179688 284.164062 151.15625 284.238281 C 151.125 284.316406 151.050781 284.476562 150.972656 284.597656 C 150.902344 284.714844 150.796875 284.910156 150.75 285.035156 C 150.699219 285.15625 150.582031 285.351562 150.484375 285.472656 C 150.398438 285.597656 150.261719 285.796875 150.191406 285.929688 C 149.945312 286.386719 149.757812 286.703125 149.5625 286.976562 C 149.449219 287.132812 149.363281 287.28125 149.363281 287.308594 C 149.363281 287.339844 149.285156 287.46875 149.1875 287.601562 C 149.089844 287.726562 149.007812 287.859375 149.007812 287.886719 C 149.007812 287.917969 148.925781 288.046875 148.832031 288.183594 C 148.734375 288.320312 148.527344 288.644531 148.367188 288.90625 C 148.214844 289.167969 148.019531 289.457031 147.933594 289.554688 C 147.847656 289.644531 147.761719 289.78125 147.738281 289.84375 C 147.714844 289.917969 147.597656 290.113281 147.472656 290.28125 C 147.34375 290.445312 147.242188 290.625 147.242188 290.679688 C 147.242188 290.738281 147.21875 290.78125 147.183594 290.78125 C 147.15625 290.78125 147.0625 290.898438 146.980469 291.042969 C 146.894531 291.191406 146.714844 291.410156 146.578125 291.535156 C 146.441406 291.660156 146.234375 291.90625 146.125 292.070312 C 146.011719 292.246094 145.886719 292.386719 145.847656 292.386719 C 145.734375 292.386719 145.59375 292.566406 145.59375 292.710938 C 145.59375 292.785156 145.5 292.949219 145.386719 293.066406 C 145.277344 293.191406 145.179688 293.339844 145.183594 293.40625 C 145.183594 293.464844 145.160156 293.519531 145.132812 293.519531 C 145.105469 293.519531 145.011719 293.625 144.910156 293.761719 C 144.816406 293.894531 144.679688 294.074219 144.609375 294.15625 C 144.535156 294.238281 144.476562 294.351562 144.476562 294.40625 C 144.476562 294.550781 143.796875 295.265625 143.671875 295.265625 C 143.664062 295.265625 143.660156 295.261719 143.65625 295.257812 C 143.613281 295.1875 143.4375 295.144531 143.277344 295.144531 C 143.195312 295.144531 143.117188 295.15625 143.0625 295.183594 C 142.996094 295.226562 142.84375 295.453125 142.734375 295.6875 C 142.535156 296.125 142.164062 296.710938 142.03125 296.824219 C 141.890625 296.9375 141.457031 297.867188 141.421875 298.117188 C 141.398438 298.292969 141.339844 298.417969 141.203125 298.550781 C 141.097656 298.644531 141 298.800781 140.980469 298.890625 C 140.941406 299.039062 140.472656 299.414062 140.3125 299.414062 C 140.21875 299.414062 140.054688 299.675781 140.054688 299.824219 C 140.054688 300.058594 140.28125 300.460938 140.542969 300.691406 C 141.019531 301.105469 141.148438 301.203125 141.304688 301.269531 C 141.386719 301.296875 141.535156 301.363281 141.640625 301.40625 C 141.742188 301.453125 141.855469 301.488281 141.898438 301.488281 C 141.933594 301.488281 142.050781 301.550781 142.160156 301.632812 C 142.265625 301.714844 142.371094 301.78125 142.390625 301.78125 C 142.414062 301.78125 142.566406 301.847656 142.742188 301.929688 C 142.90625 302.003906 143.136719 302.085938 143.257812 302.105469 C 143.453125 302.140625 144.105469 302.367188 144.328125 302.484375 C 144.382812 302.507812 144.539062 302.550781 144.671875 302.574219 C 144.808594 302.597656 145.035156 302.667969 145.171875 302.730469 C 145.46875 302.871094 146.035156 303.070312 146.144531 303.070312 C 146.1875 303.070312 146.394531 303.15625 146.601562 303.25 C 146.8125 303.347656 147.027344 303.425781 147.074219 303.425781 C 147.125 303.425781 147.332031 303.519531 147.53125 303.628906 C 147.734375 303.742188 147.972656 303.855469 148.058594 303.878906 C 148.144531 303.894531 148.292969 303.964844 148.382812 304.03125 C 148.476562 304.097656 148.671875 304.183594 148.820312 304.226562 C 148.96875 304.273438 149.210938 304.382812 149.367188 304.472656 C 149.515625 304.566406 149.722656 304.660156 149.816406 304.683594 C 149.917969 304.707031 150.125 304.789062 150.28125 304.871094 C 150.445312 304.953125 150.6875 305.023438 150.84375 305.03125 C 150.996094 305.035156 151.132812 305.058594 151.15625 305.082031 C 151.234375 305.1875 151.863281 305.25 153.09375 305.28125 C 153.410156 305.289062 153.660156 305.292969 153.855469 305.292969 C 154.25 305.292969 154.410156 305.277344 154.410156 305.242188 C 154.410156 305.207031 154.515625 305.175781 154.679688 305.175781 C 155.277344 305.171875 156.324219 304.824219 156.527344 304.5625 C 156.566406 304.507812 156.632812 304.425781 156.675781 304.382812 C 156.914062 304.140625 156.957031 303.996094 156.917969 303.550781 C 156.875 303.128906 156.75 302.734375 156.65625 302.734375 C 156.632812 302.734375 156.578125 302.675781 156.535156 302.597656 C 156.417969 302.371094 156.089844 302.238281 155.402344 302.113281 C 155.160156 302.066406 154.734375 301.992188 154.453125 301.945312 C 154.175781 301.894531 153.863281 301.84375 153.761719 301.824219 C 153.621094 301.800781 153.566406 301.761719 153.566406 301.675781 C 153.566406 301.613281 153.492188 301.527344 153.40625 301.488281 C 153.316406 301.445312 153.234375 301.359375 153.21875 301.292969 C 153.183594 301.101562 153.101562 301.039062 152.835938 300.996094 C 152.699219 300.972656 152.441406 300.886719 152.269531 300.804688 C 152.015625 300.679688 151.933594 300.601562 151.835938 300.394531 C 151.769531 300.253906 151.683594 300.140625 151.632812 300.140625 C 151.585938 300.140625 151.546875 300.105469 151.546875 300.066406 C 151.546875 300.015625 151.4375 299.898438 151.308594 299.792969 C 151.175781 299.691406 151.027344 299.527344 150.980469 299.429688 C 150.925781 299.335938 150.820312 299.234375 150.742188 299.21875 C 150.648438 299.195312 150.59375 299.140625 150.59375 299.070312 C 150.59375 299.003906 150.550781 298.941406 150.503906 298.921875 C 150.457031 298.898438 150.414062 298.847656 150.414062 298.796875 C 150.414062 298.75 150.285156 298.585938 150.117188 298.425781 C 149.800781 298.125 149.742188 297.953125 149.9375 297.953125 C 149.996094 297.953125 150.078125 297.898438 150.113281 297.828125 C 150.191406 297.691406 150.148438 297.417969 150.054688 297.417969 C 150.019531 297.417969 149.996094 297.328125 149.996094 297.214844 C 149.992188 297.109375 149.941406 296.949219 149.875 296.867188 C 149.738281 296.699219 149.753906 296.472656 149.925781 296.082031 C 150.175781 295.515625 150.222656 295.390625 150.222656 295.316406 C 150.222656 295.265625 150.265625 295.21875 150.3125 295.195312 C 150.363281 295.175781 150.398438 295.089844 150.398438 294.988281 C 150.398438 294.890625 150.417969 294.804688 150.445312 294.792969 C 150.546875 294.75 150.8125 294.328125 150.8125 294.214844 C 150.8125 294.144531 150.839844 294.089844 150.871094 294.089844 C 150.90625 294.089844 150.929688 294.023438 150.929688 293.945312 C 150.929688 293.875 150.992188 293.738281 151.074219 293.648438 C 151.152344 293.566406 151.382812 293.273438 151.582031 293 C 151.78125 292.730469 152.023438 292.429688 152.113281 292.332031 C 152.460938 291.953125 152.695312 291.660156 152.695312 291.613281 C 152.703125 291.582031 152.785156 291.503906 152.890625 291.4375 C 152.996094 291.375 153.101562 291.265625 153.132812 291.195312 C 153.160156 291.128906 153.261719 291.027344 153.355469 290.972656 C 153.445312 290.921875 153.523438 290.84375 153.523438 290.800781 C 153.527344 290.761719 153.632812 290.652344 153.757812 290.5625 C 153.886719 290.472656 153.992188 290.355469 153.992188 290.308594 C 153.992188 290.257812 154.027344 290.21875 154.070312 290.21875 C 154.117188 290.21875 154.246094 290.117188 154.367188 289.992188 C 154.476562 289.871094 154.695312 289.675781 154.847656 289.5625 C 154.996094 289.449219 155.210938 289.269531 155.308594 289.167969 C 155.417969 289.066406 155.722656 288.78125 156 288.542969 C 156.878906 287.765625 159.898438 284.683594 160.511719 283.933594 C 160.925781 283.429688 161.097656 283.230469 161.265625 283.070312 C 161.953125 282.433594 163.667969 280.578125 163.667969 280.472656 C 163.667969 280.40625 164.125 279.730469 164.308594 279.519531 C 164.5625 279.242188 164.949219 278.53125 165.015625 278.242188 C 165.050781 278.09375 165.078125 277.628906 165.074219 277.214844 C 165.074219 276.527344 165.058594 276.429688 164.921875 276.175781 C 164.84375 276.023438 164.714844 275.832031 164.625 275.753906 C 164.542969 275.679688 164.476562 275.597656 164.476562 275.566406 C 164.476562 275.535156 164.417969 275.5 164.339844 275.484375 C 164.261719 275.460938 164.101562 275.34375 163.976562 275.210938 C 163.835938 275.070312 163.496094 274.859375 163.085938 274.65625 C 162.726562 274.480469 162.386719 274.308594 162.339844 274.28125 C 162.292969 274.25 162.011719 274.117188 161.722656 273.972656 C 161.425781 273.832031 161.027344 273.609375 160.824219 273.480469 C 160.625 273.351562 160.351562 273.179688 160.214844 273.097656 C 160.078125 273.011719 159.785156 272.835938 159.566406 272.695312 C 159.347656 272.558594 159.117188 272.429688 159.0625 272.410156 C 159.003906 272.394531 158.957031 272.351562 158.957031 272.324219 C 158.957031 272.292969 158.925781 272.269531 158.890625 272.269531 C 158.855469 272.269531 158.742188 272.207031 158.636719 272.121094 C 158.527344 272.039062 158.414062 271.976562 158.378906 271.976562 C 158.351562 271.976562 158.273438 271.921875 158.21875 271.863281 C 158.160156 271.796875 158.03125 271.714844 157.929688 271.675781 C 157.820312 271.632812 157.621094 271.515625 157.472656 271.410156 C 157.324219 271.308594 157.140625 271.203125 157.054688 271.179688 C 156.972656 271.15625 156.855469 271.085938 156.789062 271.027344 C 156.722656 270.96875 156.550781 270.878906 156.410156 270.824219 C 156.273438 270.777344 156.082031 270.679688 155.988281 270.601562 C 155.898438 270.523438 155.730469 270.429688 155.625 270.390625 C 155.511719 270.347656 155.382812 270.289062 155.335938 270.261719 C 155.289062 270.238281 155.152344 270.167969 155.039062 270.113281 C 154.925781 270.058594 154.574219 269.902344 154.265625 269.753906 C 153.957031 269.605469 153.625 269.449219 153.523438 269.402344 C 153.429688 269.347656 153.214844 269.242188 153.050781 269.160156 C 152.890625 269.082031 152.683594 268.953125 152.59375 268.871094 C 152.503906 268.789062 152.378906 268.6875 152.320312 268.652344 C 152.253906 268.617188 152.078125 268.5 151.921875 268.390625 C 151.773438 268.292969 151.613281 268.203125 151.566406 268.203125 C 151.519531 268.203125 151.472656 268.179688 151.453125 268.15625 C 151.433594 268.128906 151.226562 268.03125 150.988281 267.945312 C 150.753906 267.855469 150.515625 267.761719 150.46875 267.734375 C 150.207031 267.574219 149.855469 267.449219 149.519531 267.394531 C 149.3125 267.351562 149.117188 267.300781 149.082031 267.265625 C 149.050781 267.234375 148.941406 267.207031 148.839844 267.207031 C 148.839844 267.207031 148.839844 267.207031 148.835938 267.207031 C 148.722656 267.207031 148.605469 267.160156 148.539062 267.089844 C 148.476562 267.015625 148.359375 266.96875 148.234375 266.96875 C 148.234375 266.96875 148.234375 266.96875 148.230469 266.96875 C 148.125 266.96875 148.035156 266.941406 148.035156 266.90625 C 148.035156 266.824219 148.347656 266.558594 148.6875 266.363281 C 148.832031 266.28125 149.023438 266.136719 149.105469 266.054688 C 149.183594 265.96875 149.277344 265.898438 149.3125 265.898438 C 149.339844 265.898438 149.449219 265.8125 149.542969 265.71875 C 149.636719 265.625 149.742188 265.539062 149.777344 265.539062 C 149.8125 265.539062 149.96875 265.4375 150.121094 265.3125 C 150.570312 264.953125 150.929688 264.699219 151.101562 264.625 C 151.183594 264.585938 151.308594 264.5 151.371094 264.433594 C 151.4375 264.371094 151.597656 264.261719 151.726562 264.195312 C 151.851562 264.128906 152.027344 264.015625 152.109375 263.949219 C 152.195312 263.878906 152.324219 263.800781 152.40625 263.777344 C 152.484375 263.753906 152.585938 263.699219 152.625 263.65625 C 152.667969 263.617188 152.828125 263.53125 152.980469 263.472656 C 153.140625 263.414062 153.398438 263.28125 153.558594 263.179688 C 153.726562 263.082031 153.925781 262.957031 154.007812 262.910156 C 154.328125 262.726562 154.699219 262.414062 154.777344 262.277344 C 154.816406 262.199219 154.882812 262.136719 154.917969 262.136719 C 154.953125 262.136719 155.082031 262.027344 155.199219 261.894531 C 155.3125 261.765625 155.429688 261.65625 155.449219 261.65625 C 155.472656 261.65625 155.589844 261.582031 155.707031 261.484375 C 155.832031 261.382812 156.003906 261.277344 156.105469 261.226562 C 156.199219 261.1875 156.359375 261.097656 156.453125 261.023438 C 156.554688 260.953125 156.773438 260.832031 156.941406 260.761719 C 157.109375 260.691406 157.25 260.605469 157.25 260.582031 C 157.25 260.558594 157.320312 260.515625 157.410156 260.492188 C 157.5 260.472656 157.769531 260.359375 158.011719 260.242188 C 158.261719 260.128906 158.632812 259.976562 158.839844 259.910156 C 159.054688 259.84375 159.277344 259.753906 159.34375 259.714844 C 159.414062 259.671875 159.574219 259.605469 159.703125 259.5625 C 159.835938 259.519531 160.023438 259.4375 160.117188 259.378906 C 160.21875 259.316406 160.449219 259.1875 160.632812 259.078125 C 160.816406 258.976562 160.980469 258.859375 161 258.808594 C 161.015625 258.761719 161.070312 258.726562 161.117188 258.726562 C 161.164062 258.726562 161.316406 258.617188 161.453125 258.488281 C 161.59375 258.355469 161.730469 258.25 161.753906 258.25 C 161.800781 258.25 162.859375 257.378906 162.921875 257.28125 C 162.949219 257.246094 163.015625 257.230469 163.109375 257.230469 C 163.40625 257.230469 163.960938 257.394531 164.238281 257.597656 C 164.476562 257.773438 165.066406 258.347656 165.179688 258.519531 C 165.261719 258.648438 165.5 258.75 165.660156 258.75 C 165.714844 258.75 165.761719 258.738281 165.789062 258.714844 C 165.824219 258.683594 165.875 258.671875 165.9375 258.671875 C 166.078125 258.671875 166.261719 258.742188 166.371094 258.859375 C 166.441406 258.9375 166.542969 259 166.582031 259 C 166.625 259 166.839844 259.105469 167.050781 259.238281 C 167.265625 259.367188 167.457031 259.472656 167.460938 259.472656 C 167.472656 259.472656 167.710938 259.578125 167.988281 259.707031 C 168.269531 259.835938 168.511719 259.941406 168.542969 259.941406 C 168.566406 259.941406 168.714844 260.007812 168.867188 260.089844 C 169.1875 260.261719 170.367188 260.691406 170.726562 260.765625 C 170.96875 260.816406 171.40625 260.957031 171.613281 261.058594 C 171.679688 261.089844 171.933594 261.164062 172.175781 261.226562 C 172.617188 261.339844 173.222656 261.53125 173.570312 261.679688 C 173.925781 261.828125 174.230469 261.933594 174.429688 261.984375 C 174.542969 262.019531 174.90625 262.121094 175.230469 262.21875 C 175.945312 262.429688 176.332031 262.519531 176.613281 262.519531 C 176.765625 262.519531 176.886719 262.492188 177.015625 262.445312 C 177.210938 262.367188 177.6875 261.988281 177.6875 261.90625 C 177.6875 261.835938 178.5 260.738281 178.761719 260.464844 C 178.882812 260.335938 178.984375 260.191406 178.984375 260.144531 C 178.984375 260.097656 179.058594 259.972656 179.148438 259.871094 C 179.34375 259.660156 179.808594 258.9375 179.808594 258.847656 C 179.808594 258.816406 179.859375 258.738281 179.933594 258.675781 C 180.003906 258.613281 180.109375 258.460938 180.171875 258.328125 C 180.238281 258.203125 180.367188 257.988281 180.460938 257.859375 C 180.554688 257.726562 180.632812 257.589844 180.632812 257.5625 C 180.632812 257.527344 180.679688 257.441406 180.742188 257.375 C 180.800781 257.304688 180.945312 257.078125 181.054688 256.863281 C 181.167969 256.652344 181.300781 256.394531 181.355469 256.300781 C 181.410156 256.199219 181.492188 256.027344 181.542969 255.914062 C 181.597656 255.800781 181.703125 255.585938 181.785156 255.4375 C 181.859375 255.289062 181.925781 255.121094 181.925781 255.058594 C 181.925781 254.996094 182.03125 254.734375 182.160156 254.472656 C 182.289062 254.210938 182.394531 253.945312 182.394531 253.886719 C 182.394531 253.820312 182.457031 253.636719 182.539062 253.464844 C 182.621094 253.296875 182.6875 253.125 182.6875 253.078125 C 182.6875 252.976562 182.851562 252.464844 182.945312 252.285156 C 183.019531 252.136719 183.085938 251.910156 183.328125 250.980469 C 183.40625 250.699219 183.488281 250.449219 183.511719 250.414062 C 183.539062 250.382812 183.5625 250.289062 183.5625 250.199219 C 183.5625 250.109375 183.664062 249.886719 183.785156 249.695312 C 184 249.367188 184.269531 248.925781 184.429688 248.636719 C 184.46875 248.570312 184.558594 248.460938 184.628906 248.402344 C 184.800781 248.265625 185.269531 247.585938 185.269531 247.488281 C 185.269531 247.4375 185.375 247.199219 185.503906 246.957031 C 185.632812 246.707031 185.738281 246.445312 185.738281 246.367188 C 185.738281 246.296875 185.804688 246.082031 185.886719 245.894531 C 186.042969 245.542969 186.175781 244.746094 186.125 244.53125 C 186.105469 244.449219 186.175781 244.230469 186.320312 243.9375 C 186.453125 243.675781 186.558594 243.414062 186.558594 243.355469 C 186.554688 243.289062 186.621094 243.101562 186.695312 242.933594 C 186.945312 242.378906 187.046875 241.667969 186.902344 241.414062 C 186.851562 241.316406 186.667969 241.253906 186.492188 241.253906 C 186.421875 241.253906 186.355469 241.261719 186.300781 241.285156 C 186.140625 241.34375 186.015625 241.601562 185.871094 242.195312 C 185.820312 242.414062 185.738281 242.621094 185.6875 242.664062 C 185.640625 242.699219 185.605469 242.757812 185.605469 242.789062 C 185.605469 242.820312 185.566406 242.882812 185.519531 242.933594 C 185.472656 242.984375 185.429688 243.082031 185.429688 243.152344 C 185.425781 243.222656 185.390625 243.347656 185.347656 243.425781 L 185.273438 243.566406 L 185.195312 243.433594 C 185.117188 243.289062 185.132812 243.207031 185.351562 242.515625 C 185.402344 242.351562 185.449219 242.023438 185.460938 241.792969 C 185.464844 241.554688 185.488281 241.328125 185.511719 241.292969 C 185.570312 241.191406 185.660156 240.148438 185.621094 239.96875 C 185.582031 239.792969 185.335938 239.632812 185.097656 239.632812 C 185.09375 239.632812 185.085938 239.632812 185.082031 239.632812 C 184.953125 239.632812 184.957031 239.621094 185.035156 239.46875 C 185.15625 239.234375 185.136719 239.050781 184.96875 238.890625 C 184.875 238.792969 184.695312 238.742188 184.523438 238.742188 C 184.417969 238.742188 184.3125 238.761719 184.230469 238.804688 C 184.082031 238.882812 183.824219 239.460938 183.722656 239.9375 C 183.683594 240.148438 183.578125 240.453125 183.496094 240.605469 C 183.414062 240.769531 183.34375 240.964844 183.34375 241.054688 C 183.335938 241.132812 183.335938 241.171875 183.332031 241.171875 C 183.324219 241.171875 183.320312 241.136719 183.308594 241.066406 C 183.289062 240.988281 183.320312 240.773438 183.367188 240.589844 C 183.695312 239.371094 183.644531 239.046875 183.121094 239.046875 C 183.121094 239.046875 183.117188 239.046875 183.117188 239.046875 C 182.628906 239.050781 182.523438 239.179688 182.339844 240 C 182.296875 240.179688 182.214844 240.480469 182.15625 240.679688 C 182.09375 240.867188 182.046875 241.199219 182.046875 241.421875 C 182.042969 241.664062 182.003906 241.929688 181.925781 242.140625 C 181.855469 242.316406 181.746094 242.632812 181.675781 242.835938 C 181.597656 243.035156 181.464844 243.292969 181.367188 243.40625 C 181.273438 243.519531 181.175781 243.648438 181.140625 243.710938 C 181.113281 243.753906 181.097656 243.773438 181.0625 243.773438 C 181.027344 243.773438 180.972656 243.75 180.871094 243.699219 C 180.605469 243.550781 180.21875 243.214844 180.21875 243.121094 C 180.21875 243.011719 179.855469 242.765625 179.546875 242.660156 C 179.363281 242.597656 179.078125 242.566406 178.679688 242.566406 C 178.667969 242.566406 178.660156 242.566406 178.648438 242.566406 C 177.9375 242.570312 177.828125 242.625 177.859375 242.976562 C 177.878906 243.175781 177.898438 243.195312 178.175781 243.28125 C 178.519531 243.382812 178.734375 243.53125 179.175781 243.972656 C 179.691406 244.488281 179.785156 244.617188 179.902344 244.980469 C 179.960938 245.167969 180.074219 245.417969 180.152344 245.53125 C 180.222656 245.644531 180.289062 245.789062 180.289062 245.855469 C 180.289062 246.105469 180.523438 246.859375 180.65625 247.035156 C 180.769531 247.183594 180.785156 247.285156 180.78125 247.628906 C 180.78125 247.855469 180.746094 248.070312 180.710938 248.105469 C 180.683594 248.132812 180.652344 248.199219 180.652344 248.246094 C 180.652344 248.292969 180.617188 248.414062 180.570312 248.515625 C 180.425781 248.859375 180.300781 249.210938 180.300781 249.300781 C 180.304688 249.351562 180.238281 249.488281 180.167969 249.613281 C 180.089844 249.734375 180.007812 249.910156 179.984375 250.011719 C 179.960938 250.109375 179.902344 250.234375 179.863281 250.28125 C 179.773438 250.382812 179.433594 251.011719 179.167969 251.558594 C 179.074219 251.75 178.941406 251.992188 178.863281 252.09375 C 178.792969 252.191406 178.6875 252.367188 178.632812 252.480469 C 178.582031 252.59375 178.480469 252.753906 178.402344 252.839844 C 178.332031 252.921875 178.246094 253.054688 178.210938 253.136719 C 178.175781 253.21875 177.683594 253.773438 177.128906 254.371094 C 176.578125 254.964844 176.121094 255.476562 176.121094 255.5 C 176.121094 255.527344 176.023438 255.644531 175.90625 255.765625 C 175.78125 255.882812 175.65625 256.015625 175.621094 256.050781 C 175.273438 256.449219 174.914062 256.652344 174.546875 256.652344 C 174.542969 256.652344 174.539062 256.652344 174.535156 256.652344 C 174.289062 256.652344 174.191406 256.621094 173.96875 256.449219 C 173.820312 256.335938 173.601562 256.195312 173.472656 256.128906 C 173.347656 256.066406 173.152344 255.910156 173.039062 255.789062 C 172.753906 255.480469 172.421875 255.226562 172.035156 255.019531 C 171.855469 254.925781 171.65625 254.820312 171.589844 254.785156 C 171.203125 254.570312 170.617188 254.300781 170.449219 254.273438 C 170.320312 254.242188 170.253906 254.191406 170.242188 254.105469 C 170.230469 254.035156 170.183594 253.964844 170.132812 253.941406 C 170.085938 253.917969 169.960938 253.851562 169.855469 253.800781 C 169.753906 253.746094 169.625 253.707031 169.558594 253.707031 C 169.5 253.707031 169.417969 253.683594 169.371094 253.652344 C 169.238281 253.570312 169.503906 253.230469 169.699219 253.230469 C 170.03125 253.230469 170.320312 253.089844 170.414062 252.890625 C 170.46875 252.777344 170.550781 252.691406 170.609375 252.691406 C 170.667969 252.691406 170.75 252.65625 170.792969 252.613281 C 170.832031 252.574219 170.917969 252.519531 170.96875 252.496094 C 171.023438 252.476562 171.128906 252.320312 171.207031 252.15625 C 171.304688 251.933594 171.339844 251.875 171.425781 251.875 C 171.449219 251.875 171.480469 251.878906 171.519531 251.886719 C 171.789062 251.9375 172 251.964844 172.15625 251.964844 C 172.484375 251.964844 172.605469 251.851562 172.640625 251.59375 C 172.664062 251.460938 172.746094 251.0625 172.824219 250.710938 C 172.910156 250.320312 172.960938 249.886719 172.960938 249.578125 C 172.957031 249.027344 172.953125 249.03125 173.449219 248.882812 C 173.691406 248.804688 173.785156 248.65625 173.785156 248.328125 C 173.789062 248.222656 173.824219 248.074219 173.871094 247.988281 C 173.917969 247.90625 173.953125 247.78125 173.960938 247.703125 C 173.960938 247.632812 173.988281 247.574219 174.019531 247.574219 C 174.054688 247.574219 174.078125 247.539062 174.078125 247.496094 C 174.078125 247.347656 174.1875 247.019531 174.230469 247.019531 C 174.234375 247.019531 174.238281 247.023438 174.242188 247.027344 C 174.265625 247.0625 174.554688 247.097656 174.894531 247.113281 C 175.230469 247.125 175.539062 247.167969 175.574219 247.203125 C 175.613281 247.246094 175.699219 247.261719 175.800781 247.261719 C 176.066406 247.261719 176.445312 247.148438 176.445312 247.023438 C 176.445312 246.964844 176.472656 246.910156 176.503906 246.910156 C 176.539062 246.910156 176.5625 246.851562 176.5625 246.78125 C 176.5625 246.707031 176.609375 246.601562 176.660156 246.542969 C 176.777344 246.410156 176.839844 245.757812 176.746094 245.644531 C 176.703125 245.597656 176.699219 245.492188 176.734375 245.335938 C 176.761719 245.207031 176.792969 245.003906 176.789062 244.890625 C 176.789062 244.6875 176.527344 243.699219 176.425781 243.527344 C 176.398438 243.480469 176.328125 243.347656 176.273438 243.242188 C 176.222656 243.140625 176.136719 243.054688 176.097656 243.054688 C 176.050781 243.054688 175.964844 242.957031 175.910156 242.847656 C 175.816406 242.644531 175.277344 242.253906 174.808594 242.042969 C 174.695312 241.992188 174.621094 241.902344 174.574219 241.730469 C 174.539062 241.59375 174.449219 241.402344 174.378906 241.308594 C 174.304688 241.207031 174.234375 241.082031 174.210938 241.023438 C 174.1875 240.960938 174.109375 240.925781 173.976562 240.925781 C 173.976562 240.925781 173.972656 240.925781 173.972656 240.925781 C 173.972656 240.925781 173.96875 240.925781 173.96875 240.925781 C 173.675781 240.925781 173.421875 240.820312 173.351562 240.664062 C 173.285156 240.519531 173.078125 240.453125 172.671875 240.453125 C 172.667969 240.453125 172.664062 240.453125 172.65625 240.457031 C 172.65625 240.457031 172.652344 240.457031 172.652344 240.457031 C 172.488281 240.457031 172.378906 240.417969 172.308594 240.34375 C 172.253906 240.285156 172.105469 240.191406 171.972656 240.132812 C 171.824219 240.066406 171.738281 239.984375 171.738281 239.917969 C 171.734375 239.722656 171.492188 239.550781 170.828125 239.28125 C 170.738281 239.246094 170.546875 239.21875 170.40625 239.21875 C 170.402344 239.21875 170.402344 239.21875 170.402344 239.21875 C 170.398438 239.21875 170.398438 239.21875 170.398438 239.21875 C 170.253906 239.21875 169.867188 239.179688 169.542969 239.125 C 169.257812 239.082031 168.992188 239.058594 168.730469 239.058594 C 168.617188 239.058594 168.507812 239.0625 168.398438 239.070312 C 166.816406 239.179688 166.757812 239.183594 166.757812 239.261719 C 166.757812 239.316406 166.640625 239.355469 166.421875 239.382812 C 166.234375 239.402344 165.984375 239.453125 165.871094 239.503906 C 165.757812 239.550781 165.558594 239.617188 165.429688 239.660156 C 165.0625 239.773438 164.707031 239.964844 164.476562 240.179688 C 164.363281 240.285156 164.164062 240.425781 164.035156 240.488281 C 163.910156 240.554688 163.769531 240.6875 163.722656 240.777344 C 163.609375 240.988281 163.304688 241.328125 163.136719 241.414062 C 163.074219 241.445312 162.972656 241.542969 162.925781 241.628906 C 162.871094 241.710938 162.753906 241.902344 162.652344 242.042969 C 162.511719 242.257812 162.476562 242.382812 162.460938 242.734375 L 162.441406 243.160156 L 162.199219 243.28125 C 162.078125 243.339844 162.011719 243.371094 161.972656 243.371094 C 161.9375 243.371094 161.917969 243.351562 161.902344 243.316406 C 161.878906 243.269531 161.777344 243.1875 161.679688 243.140625 C 161.582031 243.089844 161.46875 242.964844 161.417969 242.855469 C 161.3125 242.613281 160.582031 241.855469 160.332031 241.726562 C 160.222656 241.675781 160.136719 241.609375 160.136719 241.578125 C 160.136719 241.550781 160.035156 241.480469 159.914062 241.425781 C 159.792969 241.367188 159.679688 241.304688 159.660156 241.277344 C 159.601562 241.191406 159.007812 240.925781 158.871094 240.925781 C 158.792969 240.925781 158.621094 240.855469 158.496094 240.761719 C 158.175781 240.542969 158.011719 240.472656 157.707031 240.425781 C 157.542969 240.410156 157.386719 240.339844 157.300781 240.25 C 157.210938 240.160156 157.085938 240.101562 156.984375 240.101562 C 156.878906 240.101562 156.792969 240.0625 156.753906 239.984375 C 156.71875 239.917969 156.550781 239.796875 156.378906 239.714844 C 156.207031 239.625 155.992188 239.496094 155.890625 239.425781 C 155.796875 239.355469 155.59375 239.257812 155.445312 239.210938 C 155.300781 239.171875 155.050781 239.042969 154.882812 238.9375 C 154.519531 238.6875 154.335938 238.617188 153.578125 238.425781 C 153.253906 238.335938 152.945312 238.238281 152.894531 238.195312 C 152.847656 238.15625 152.648438 238.046875 152.453125 237.953125 C 152.253906 237.867188 152.054688 237.761719 152.007812 237.71875 C 151.957031 237.683594 151.796875 237.601562 151.65625 237.546875 C 151.507812 237.488281 151.316406 237.394531 151.230469 237.328125 C 151.140625 237.269531 151.027344 237.21875 150.984375 237.21875 C 150.902344 237.21875 150.367188 236.976562 149.976562 236.769531 C 149.894531 236.722656 149.78125 236.6875 149.734375 236.6875 C 149.6875 236.6875 149.460938 236.582031 149.242188 236.453125 C 149.015625 236.324219 148.789062 236.21875 148.730469 236.21875 C 148.675781 236.21875 148.605469 236.183594 148.582031 236.140625 C 148.558594 236.09375 148.386719 235.964844 148.207031 235.847656 C 148.03125 235.726562 147.816406 235.582031 147.738281 235.527344 C 147.625 235.445312 147.425781 235.414062 146.878906 235.386719 C 146.484375 235.367188 145.960938 235.320312 145.71875 235.285156 C 144.9375 235.175781 142.992188 235.109375 141.460938 235.109375 C 140.558594 235.109375 139.796875 235.132812 139.503906 235.1875 C 139.03125 235.273438 138.316406 235.363281 137.636719 235.429688 C 137.308594 235.460938 136.964844 235.515625 136.871094 235.554688 C 136.777344 235.582031 136.5 235.613281 136.25 235.621094 C 136 235.621094 135.667969 235.652344 135.503906 235.683594 C 135.34375 235.714844 135.007812 235.769531 134.765625 235.800781 C 134.519531 235.828125 134.160156 235.886719 133.964844 235.921875 C 133.816406 235.953125 133.566406 235.972656 133.339844 235.972656 C 133.269531 235.972656 133.199219 235.96875 133.136719 235.964844 C 132.648438 235.9375 132.359375 235.851562 132.097656 235.648438 C 131.867188 235.472656 131 235.191406 130.347656 235.074219 C 130.023438 235.015625 129.691406 234.941406 129.609375 234.910156 C 129.382812 234.828125 128.585938 234.636719 128.457031 234.636719 C 128.339844 234.636719 128.09375 234.460938 127.632812 234.027344 C 127.460938 233.871094 127.222656 233.65625 127.097656 233.554688 C 126.972656 233.449219 126.65625 233.167969 126.394531 232.917969 C 126.09375 232.628906 125.855469 232.453125 125.742188 232.429688 C 125.632812 232.40625 125.546875 232.398438 125.472656 232.398438 Z M 125.472656 232.398438 " fill-opacity="1" fill-rule="nonzero"/></g><g clip-path="url(#id4)"><path fill="#ffffff" d="M 280.703125 288.222656 L 268.167969 250.984375 L 270.183594 251.386719 C 270.019531 252.089844 270.449219 252.792969 271.152344 252.96875 C 271.859375 253.140625 272.574219 252.710938 272.75 252.003906 C 272.925781 251.296875 272.496094 250.585938 271.785156 250.410156 C 271.171875 250.257812 270.554688 250.5625 270.285156 251.105469 L 253.277344 246.101562 L 237.375 241.425781 L 237.226562 238.710938 C 238.925781 238.652344 240.28125 237.261719 240.28125 235.554688 C 240.28125 233.808594 238.863281 232.394531 237.113281 232.394531 C 235.363281 232.394531 233.941406 233.808594 233.941406 235.554688 C 233.941406 237.097656 235.050781 238.382812 236.515625 238.660156 L 236.375 241.199219 L 220.617188 238.039062 L 202.910156 234.484375 C 202.933594 233.875 202.523438 233.308594 201.90625 233.15625 C 201.199219 232.980469 200.484375 233.414062 200.308594 234.121094 C 200.132812 234.824219 200.5625 235.539062 201.273438 235.714844 C 201.980469 235.890625 202.695312 235.460938 202.871094 234.753906 L 204.59375 235.261719 L 192.152344 272.363281 L 187.507812 272.363281 C 187.507812 272.363281 190.214844 278.292969 204.492188 278.292969 C 218.769531 278.292969 220.523438 272.363281 220.523438 272.363281 L 217.464844 272.363281 L 205.023438 235.390625 L 220.167969 239.84375 L 236.191406 244.554688 L 232.753906 307.234375 C 232.753906 307.234375 232.886719 310.0625 228.433594 310.734375 C 223.976562 311.410156 218.304688 311.679688 215.605469 313.160156 C 212.90625 314.640625 212.5 316.390625 212.5 316.390625 L 261.242188 316.390625 C 261.242188 316.390625 260.835938 314.640625 258.136719 313.160156 C 255.4375 311.679688 249.765625 311.410156 245.308594 310.734375 C 240.855469 310.0625 240.988281 307.234375 240.988281 307.234375 L 237.566406 244.84375 L 252.828125 247.910156 L 267.894531 250.933594 L 255.390625 288.226562 L 251.988281 288.226562 C 251.988281 288.226562 254.695312 294.15625 268.972656 294.15625 C 283.25 294.15625 285.003906 288.226562 285.003906 288.226562 L 280.703125 288.226562 Z M 216.441406 272.363281 L 193.171875 272.363281 L 204.789062 237.726562 Z M 256.410156 288.222656 L 268.023438 253.585938 L 279.679688 288.222656 Z M 256.410156 288.222656 " fill-opacity="1" fill-rule="nonzero"/></g></svg>