<svg xmlns="http://www.w3.org/2000/svg" xmlns:xlink="http://www.w3.org/1999/xlink" width="500" zoomAndPan="magnify" viewBox="0 0 375 374.999991" height="500" preserveAspectRatio="xMidYMid meet" version="1.0"><defs><clipPath id="id1"><path d="M 11.550781 7.03125 L 363.300781 7.03125 L 363.300781 358.78125 L 11.550781 358.78125 Z M 11.550781 7.03125 " clip-rule="nonzero"/></clipPath><clipPath id="id2"><path d="M 134 238 L 161 238 L 161 264.277344 L 134 264.277344 Z M 134 238 " clip-rule="nonzero"/></clipPath><clipPath id="id3"><path d="M 212 238 L 238 238 L 238 264.277344 L 212 264.277344 Z M 212 238 " clip-rule="nonzero"/></clipPath><clipPath id="id4"><path d="M 106 190 L 269.683594 190 L 269.683594 254 L 106 254 Z M 106 190 " clip-rule="nonzero"/></clipPath><clipPath id="id5"><path d="M 110 101.527344 L 266 101.527344 L 266 209 L 110 209 Z M 110 101.527344 " clip-rule="nonzero"/></clipPath></defs><rect x="-37.5" width="450" fill="#ffffff" y="-37.499999" height="449.999989" fill-opacity="1"/><rect x="-37.5" width="450" fill="#ffffff" y="-37.499999" height="449.999989" fill-opacity="1"/><rect x="-37.5" width="450" fill="#ffffff" y="-37.499999" height="449.999989" fill-opacity="1"/><g clip-path="url(#id1)"><path fill="#008037" d="M 187.425781 7.03125 C 90.292969 7.03125 11.550781 85.773438 11.550781 182.90625 C 11.550781 280.039062 90.292969 358.78125 187.425781 358.78125 C 284.558594 358.78125 363.300781 280.039062 363.300781 182.90625 C 363.300781 85.773438 284.558594 7.03125 187.425781 7.03125 " fill-opacity="1" fill-rule="nonzero"/></g><g clip-path="url(#id2)"><path fill="#ffffff" d="M 147.480469 238.707031 C 140.492188 238.707031 134.777344 244.414062 134.777344 251.386719 C 134.777344 258.363281 140.492188 264.070312 147.480469 264.070312 C 154.464844 264.070312 160.183594 258.363281 160.183594 251.386719 C 160.183594 244.414062 154.464844 238.707031 147.480469 238.707031 Z M 147.480469 258.996094 C 143.289062 258.996094 139.859375 255.574219 139.859375 251.386719 C 139.859375 247.203125 143.289062 243.777344 147.480469 243.777344 C 151.671875 243.777344 155.101562 247.203125 155.101562 251.386719 C 155.101562 255.574219 151.671875 258.996094 147.480469 258.996094 Z M 147.480469 258.996094 " fill-opacity="1" fill-rule="nonzero"/></g><g clip-path="url(#id3)"><path fill="#ffffff" d="M 224.96875 238.707031 C 217.980469 238.707031 212.265625 244.414062 212.265625 251.386719 C 212.265625 258.363281 217.980469 264.070312 224.96875 264.070312 C 231.953125 264.070312 237.671875 258.363281 237.671875 251.386719 C 237.671875 244.414062 231.953125 238.707031 224.96875 238.707031 Z M 224.96875 258.996094 C 220.777344 258.996094 217.347656 255.574219 217.347656 251.386719 C 217.347656 247.203125 220.777344 243.777344 224.96875 243.777344 C 229.160156 243.777344 232.589844 247.203125 232.589844 251.386719 C 232.589844 255.574219 229.160156 258.996094 224.96875 258.996094 Z M 224.96875 258.996094 " fill-opacity="1" fill-rule="nonzero"/></g><path fill="#ffffff" d="M 191.941406 179.097656 C 191.941406 179.605469 191.84375 180.089844 191.648438 180.554688 C 191.457031 181.023438 191.179688 181.433594 190.824219 181.789062 C 190.464844 182.148438 190.054688 182.421875 189.585938 182.613281 C 189.121094 182.808594 188.632812 182.902344 188.128906 182.902344 C 187.625 182.902344 187.136719 182.808594 186.671875 182.613281 C 186.203125 182.421875 185.792969 182.148438 185.433594 181.789062 C 185.078125 181.433594 184.800781 181.023438 184.609375 180.554688 C 184.414062 180.089844 184.316406 179.605469 184.316406 179.097656 C 184.316406 178.59375 184.414062 178.109375 184.609375 177.644531 C 184.800781 177.175781 185.078125 176.765625 185.433594 176.410156 C 185.792969 176.050781 186.203125 175.777344 186.671875 175.585938 C 187.136719 175.390625 187.625 175.292969 188.128906 175.292969 C 188.632812 175.292969 189.121094 175.390625 189.585938 175.585938 C 190.054688 175.777344 190.464844 176.050781 190.824219 176.410156 C 191.179688 176.765625 191.457031 177.175781 191.648438 177.644531 C 191.84375 178.109375 191.941406 178.59375 191.941406 179.097656 Z M 191.941406 179.097656 " fill-opacity="1" fill-rule="nonzero"/><path fill="#ffffff" d="M 163.613281 154.625 L 165.519531 162.105469 L 181.777344 172.757812 L 171.105469 156.527344 Z M 163.613281 154.625 " fill-opacity="1" fill-rule="nonzero"/><g clip-path="url(#id4)"><path fill="#ffffff" d="M 268.792969 239.847656 L 255.710938 239.847656 C 254.3125 239.847656 253.167969 238.707031 253.167969 237.308594 C 253.167969 235.914062 254.3125 234.773438 255.710938 234.773438 L 268.792969 234.773438 C 268.921875 234.773438 269.046875 234.773438 269.175781 234.773438 C 269.429688 231.984375 269.683594 227.546875 268.792969 222.472656 C 267.394531 214.734375 256.597656 210.296875 233.734375 208.140625 C 228.144531 207.632812 223.316406 204.84375 217.855469 201.546875 C 209.46875 196.601562 199.054688 190.511719 181.777344 190.511719 C 155.226562 190.511719 125.25 201.292969 121.058594 202.816406 L 114.070312 202.816406 C 112.039062 202.816406 110.132812 204.082031 109.371094 205.859375 C 107.71875 209.917969 108.355469 214.734375 109.117188 218.035156 L 116.230469 218.035156 C 117.628906 218.035156 118.769531 219.175781 118.769531 220.570312 C 118.769531 221.964844 117.628906 223.105469 116.230469 223.105469 L 108.734375 223.105469 C 108.355469 223.105469 108.101562 222.980469 107.71875 222.851562 C 105.433594 229.828125 107.972656 243.269531 109.371094 246.695312 C 110.132812 248.46875 111.785156 249.867188 113.5625 250.246094 L 124.867188 253.164062 C 126.011719 253.417969 127.15625 253.289062 128.042969 252.527344 C 128.933594 251.894531 129.566406 250.878906 129.695312 249.738281 C 130.457031 240.609375 138.207031 233.378906 147.480469 233.378906 C 156.878906 233.378906 164.628906 240.734375 165.261719 249.992188 C 165.390625 252.019531 167.042969 253.542969 169.074219 253.542969 L 203.371094 253.542969 C 205.40625 253.542969 207.054688 252.023438 207.183594 249.992188 C 207.820312 240.609375 215.566406 233.378906 224.96875 233.378906 C 234.367188 233.378906 242.117188 240.734375 242.75 249.992188 C 242.878906 252.019531 244.53125 253.542969 246.5625 253.542969 L 248.59375 253.542969 C 258.121094 253.542969 264.472656 251.261719 267.523438 246.695312 C 269.300781 244.160156 269.554688 241.367188 269.300781 239.339844 C 269.175781 239.71875 269.046875 239.847656 268.792969 239.847656 Z M 135.410156 216.636719 L 135.410156 212.328125 C 135.664062 212.199219 156.117188 203.195312 181.777344 203.195312 C 195.625 203.195312 203.246094 207.761719 211.375 212.453125 C 213.789062 213.847656 216.203125 215.242188 218.742188 216.511719 L 135.410156 216.511719 Z M 135.410156 216.636719 " fill-opacity="1" fill-rule="nonzero"/></g><g clip-path="url(#id5)"><path fill="#ffffff" d="M 113.433594 197.867188 C 113.6875 197.867188 113.945312 197.867188 114.070312 197.867188 L 120.167969 197.867188 C 127.535156 195.078125 155.863281 185.441406 181.777344 185.441406 C 181.777344 185.441406 181.90625 185.441406 181.90625 185.441406 C 180.253906 183.792969 179.238281 181.636719 179.238281 179.097656 C 179.238281 178.464844 179.363281 177.832031 179.363281 177.324219 L 161.832031 165.785156 C 161.324219 165.402344 160.945312 164.894531 160.816406 164.261719 L 157.769531 151.832031 C 157.515625 150.945312 157.769531 150.058594 158.402344 149.421875 C 159.039062 148.789062 159.929688 148.535156 160.816406 148.789062 L 170.726562 151.199219 C 175.933594 147.902344 181.90625 146.253906 188.128906 146.253906 C 206.421875 146.253906 221.285156 161.089844 221.285156 179.351562 C 221.285156 183.03125 220.648438 186.582031 219.503906 190.007812 C 219.125 191.019531 218.109375 191.78125 217.09375 191.78125 C 216.835938 191.78125 216.582031 191.78125 216.328125 191.65625 C 215.058594 191.148438 214.296875 189.753906 214.804688 188.484375 C 215.820312 185.566406 216.328125 182.523438 216.328125 179.480469 C 216.328125 164.007812 203.753906 151.453125 188.257812 151.453125 C 183.9375 151.453125 179.617188 152.46875 175.808594 154.371094 L 186.476562 170.476562 C 186.859375 170.347656 187.492188 170.222656 188.128906 170.222656 C 193.082031 170.222656 197.019531 174.152344 197.019531 179.097656 C 197.019531 182.144531 195.496094 184.804688 193.210938 186.328125 C 205.40625 188.355469 213.917969 193.304688 220.394531 197.109375 C 225.601562 200.152344 229.667969 202.5625 234.242188 203.070312 C 243.261719 203.957031 252.535156 205.222656 259.902344 208.015625 C 260.664062 206.238281 261.425781 204.464844 261.550781 203.957031 C 264.21875 195.964844 265.617188 187.597656 265.617188 179.097656 C 265.617188 136.488281 230.8125 101.738281 188.128906 101.738281 C 145.445312 101.738281 110.640625 136.488281 110.640625 179.097656 C 110.640625 183.917969 111.148438 188.863281 112.039062 193.683594 C 112.039062 194.0625 112.671875 195.714844 113.433594 197.867188 Z M 240.210938 176.5625 L 252.914062 176.5625 C 254.3125 176.5625 255.453125 177.703125 255.453125 179.097656 C 255.453125 180.496094 254.3125 181.636719 252.914062 181.636719 L 240.210938 181.636719 C 238.8125 181.636719 237.671875 180.496094 237.671875 179.097656 C 237.671875 177.703125 238.8125 176.5625 240.210938 176.5625 Z M 223.1875 140.546875 L 232.207031 131.542969 C 233.226562 130.527344 234.75 130.527344 235.765625 131.542969 C 236.78125 132.554688 236.78125 134.078125 235.765625 135.09375 L 226.746094 144.097656 C 226.238281 144.605469 225.601562 144.859375 224.96875 144.859375 C 224.332031 144.859375 223.699219 144.605469 223.1875 144.097656 C 222.171875 143.082031 222.171875 141.558594 223.1875 140.546875 Z M 185.589844 114.421875 C 185.589844 113.027344 186.730469 111.882812 188.128906 111.882812 C 189.527344 111.882812 190.667969 113.027344 190.667969 114.421875 L 190.667969 127.101562 C 190.667969 128.496094 189.527344 129.640625 188.128906 129.640625 C 186.730469 129.640625 185.589844 128.496094 185.589844 127.101562 Z M 140.492188 131.542969 C 141.507812 130.527344 143.035156 130.527344 144.050781 131.542969 L 153.070312 140.546875 C 154.085938 141.558594 154.085938 143.082031 153.070312 144.097656 C 152.558594 144.605469 151.925781 144.859375 151.289062 144.859375 C 150.65625 144.859375 150.019531 144.605469 149.511719 144.097656 L 140.492188 135.09375 C 139.476562 134.203125 139.476562 132.554688 140.492188 131.542969 Z M 123.34375 176.5625 L 136.046875 176.5625 C 137.445312 176.5625 138.585938 177.703125 138.585938 179.097656 C 138.585938 180.496094 137.445312 181.636719 136.046875 181.636719 L 123.34375 181.636719 C 121.945312 181.636719 120.804688 180.496094 120.804688 179.097656 C 120.804688 177.703125 121.945312 176.5625 123.34375 176.5625 Z M 123.34375 176.5625 " fill-opacity="1" fill-rule="nonzero"/></g></svg>