<svg xmlns="http://www.w3.org/2000/svg" xmlns:xlink="http://www.w3.org/1999/xlink" width="500" zoomAndPan="magnify" viewBox="0 0 375 374.999991" height="500" preserveAspectRatio="xMidYMid meet" version="1.0"><defs><clipPath id="id1"><path d="M 11.550781 7.03125 L 363.300781 7.03125 L 363.300781 358.78125 L 11.550781 358.78125 Z M 11.550781 7.03125 " clip-rule="nonzero"/></clipPath><clipPath id="id2"><path d="M 89.054688 80.195312 L 284 80.195312 L 284 274.445312 L 89.054688 274.445312 Z M 89.054688 80.195312 " clip-rule="nonzero"/></clipPath><clipPath id="id3"><path d="M 151 268 L 251.101562 268 L 251.101562 291.539062 L 151 291.539062 Z M 151 268 " clip-rule="nonzero"/></clipPath></defs><rect x="-37.5" width="450" fill="#ffffff" y="-37.499999" height="449.999989" fill-opacity="1"/><rect x="-37.5" width="450" fill="#ffffff" y="-37.499999" height="449.999989" fill-opacity="1"/><rect x="-37.5" width="450" fill="#ffffff" y="-37.499999" height="449.999989" fill-opacity="1"/><g clip-path="url(#id1)"><path fill="#008037" d="M 187.425781 7.03125 C 90.292969 7.03125 11.550781 85.773438 11.550781 182.90625 C 11.550781 280.039062 90.292969 358.78125 187.425781 358.78125 C 284.558594 358.78125 363.300781 280.039062 363.300781 182.90625 C 363.300781 85.773438 284.558594 7.03125 187.425781 7.03125 " fill-opacity="1" fill-rule="nonzero"/></g><g clip-path="url(#id2)"><path fill="#ffffff" d="M 152.933594 80.195312 C 154.789062 80.195312 156.292969 81.695312 156.292969 83.546875 L 156.292969 93.59375 C 156.292969 95.441406 154.789062 96.941406 152.933594 96.941406 C 151.082031 96.941406 149.578125 95.441406 149.578125 93.59375 L 149.578125 83.546875 C 149.578125 81.695312 151.082031 80.195312 152.933594 80.195312 Z M 152.933594 113.6875 C 136.242188 113.6875 122.710938 127.183594 122.710938 143.828125 C 122.710938 160.476562 136.242188 173.972656 152.933594 173.972656 C 169.625 173.972656 183.152344 160.476562 183.152344 143.828125 C 183.152344 127.183594 169.625 113.6875 152.933594 113.6875 Z M 115.996094 143.828125 C 115.996094 123.484375 132.535156 106.988281 152.933594 106.988281 C 173.332031 106.988281 189.867188 123.484375 189.867188 143.828125 C 189.867188 164.175781 173.332031 180.671875 152.933594 180.671875 C 132.535156 180.671875 115.996094 164.175781 115.996094 143.828125 Z M 213.375 147.179688 C 215.230469 147.179688 216.734375 145.679688 216.734375 143.828125 C 216.734375 141.980469 215.230469 140.480469 213.375 140.480469 L 203.304688 140.480469 C 201.449219 140.480469 199.945312 141.980469 199.945312 143.828125 C 199.945312 145.679688 201.449219 147.179688 203.304688 147.179688 Z M 198.046875 188.824219 C 196.738281 190.132812 194.609375 190.132812 193.300781 188.824219 L 186.175781 181.722656 C 184.867188 180.414062 184.867188 178.292969 186.175781 176.984375 C 187.488281 175.675781 189.613281 175.675781 190.925781 176.984375 L 198.046875 184.089844 C 199.359375 185.398438 199.359375 187.515625 198.046875 188.824219 Z M 112.570312 188.824219 C 111.257812 190.132812 109.132812 190.132812 107.820312 188.824219 C 106.511719 187.515625 106.511719 185.398438 107.820312 184.089844 L 114.945312 176.984375 C 116.253906 175.675781 118.382812 175.675781 119.691406 176.984375 C 121.003906 178.292969 121.003906 180.414062 119.691406 181.722656 Z M 152.933594 190.71875 C 154.789062 190.71875 156.292969 192.21875 156.292969 194.066406 L 156.292969 204.113281 C 156.292969 205.964844 154.789062 207.464844 152.933594 207.464844 C 151.082031 207.464844 149.578125 205.964844 149.578125 204.113281 L 149.578125 194.066406 C 149.578125 192.21875 151.082031 190.71875 152.933594 190.71875 Z M 102.566406 147.179688 C 104.421875 147.179688 105.925781 145.679688 105.925781 143.828125 C 105.925781 141.980469 104.421875 140.480469 102.566406 140.480469 L 92.496094 140.480469 C 90.640625 140.480469 89.136719 141.980469 89.136719 143.828125 C 89.136719 145.679688 90.640625 147.179688 92.496094 147.179688 Z M 119.691406 110.675781 C 118.382812 111.984375 116.253906 111.984375 114.945312 110.675781 L 107.820312 103.570312 C 106.511719 102.261719 106.511719 100.140625 107.820312 98.832031 C 109.132812 97.527344 111.257812 97.527344 112.570312 98.832031 L 119.691406 105.9375 C 121.003906 107.246094 121.003906 109.367188 119.691406 110.675781 Z M 190.925781 110.675781 C 189.613281 111.984375 187.488281 111.984375 186.175781 110.675781 C 184.867188 109.367188 184.867188 107.246094 186.175781 105.9375 L 193.300781 98.835938 C 194.609375 97.527344 196.738281 97.527344 198.046875 98.835938 C 199.359375 100.140625 199.359375 102.261719 198.046875 103.570312 Z M 176.835938 217.511719 C 175.585938 217.511719 174.441406 218.203125 173.863281 219.304688 L 164.246094 237.605469 L 195.246094 237.605469 L 204.726562 217.511719 Z M 192.085938 244.304688 L 160.730469 244.304688 L 150.988281 262.84375 C 149.816406 265.074219 151.4375 267.746094 153.960938 267.746094 L 181.027344 267.746094 Z M 199.507812 244.304688 L 229.023438 244.304688 L 217.960938 267.746094 L 188.445312 267.746094 Z M 232.183594 237.605469 L 202.667969 237.605469 L 212.148438 217.511719 L 241.660156 217.511719 Z M 236.441406 244.304688 L 225.382812 267.746094 L 250.914062 267.746094 C 252.164062 267.746094 253.308594 267.054688 253.886719 265.953125 L 265.261719 244.304688 Z M 268.78125 237.605469 L 239.601562 237.605469 L 249.082031 217.511719 L 273.789062 217.511719 C 276.3125 217.511719 277.933594 220.183594 276.761719 222.414062 Z M 167.914062 216.195312 C 169.652344 212.886719 173.089844 210.8125 176.835938 210.8125 L 273.789062 210.8125 C 281.359375 210.8125 286.222656 218.832031 282.710938 225.523438 L 259.835938 269.0625 C 258.097656 272.371094 254.660156 274.445312 250.914062 274.445312 L 153.960938 274.445312 C 146.390625 274.445312 141.527344 266.425781 145.039062 259.734375 Z M 167.914062 216.195312 " fill-opacity="1" fill-rule="evenodd"/></g><g clip-path="url(#id3)"><path fill="#ffffff" d="M 250.6875 268.082031 L 153.089844 268.082031 C 152.222656 268.082031 151.515625 268.789062 151.515625 269.664062 C 151.515625 270.539062 152.222656 271.246094 153.089844 271.246094 L 199.527344 271.246094 L 199.527344 286.136719 C 197.6875 286.453125 196.253906 287.304688 195.773438 288.375 L 190.082031 288.375 C 189.210938 288.375 188.507812 289.082031 188.507812 289.957031 C 188.507812 290.832031 189.210938 291.539062 190.082031 291.539062 L 212.121094 291.539062 C 212.988281 291.539062 213.695312 290.832031 213.695312 289.957031 C 213.695312 289.082031 212.988281 288.375 212.121094 288.375 L 206.429688 288.375 C 205.949219 287.304688 204.515625 286.453125 202.675781 286.136719 L 202.675781 271.246094 L 250.6875 271.246094 C 251.554688 271.246094 252.261719 270.539062 252.261719 269.664062 C 252.261719 268.789062 251.554688 268.082031 250.6875 268.082031 Z M 250.6875 268.082031 " fill-opacity="1" fill-rule="nonzero"/></g></svg>