<svg xmlns="http://www.w3.org/2000/svg" xmlns:xlink="http://www.w3.org/1999/xlink" width="500" zoomAndPan="magnify" viewBox="0 0 375 374.999991" height="500" preserveAspectRatio="xMidYMid meet" version="1.0"><defs><clipPath id="id1"><path d="M 11.550781 7.03125 L 363.300781 7.03125 L 363.300781 358.78125 L 11.550781 358.78125 Z M 11.550781 7.03125 " clip-rule="nonzero"/></clipPath><clipPath id="id2"><path d="M 84.546875 79.695312 L 186 79.695312 L 186 187.695312 L 84.546875 187.695312 Z M 84.546875 79.695312 " clip-rule="nonzero"/></clipPath><clipPath id="id3"><path d="M 189 173 L 278 173 L 278 304.792969 L 189 304.792969 Z M 189 173 " clip-rule="nonzero"/></clipPath><clipPath id="id4"><path d="M 250 165.292969 L 308 165.292969 L 308 247 L 250 247 Z M 250 165.292969 " clip-rule="nonzero"/></clipPath></defs><rect x="-37.5" width="450" fill="#ffffff" y="-37.499999" height="449.999989" fill-opacity="1"/><rect x="-37.5" width="450" fill="#ffffff" y="-37.499999" height="449.999989" fill-opacity="1"/><rect x="-37.5" width="450" fill="#ffffff" y="-37.499999" height="449.999989" fill-opacity="1"/><g clip-path="url(#id1)"><path fill="#ffb200" d="M 187.425781 7.03125 C 90.292969 7.03125 11.550781 85.773438 11.550781 182.90625 C 11.550781 280.039062 90.292969 358.78125 187.425781 358.78125 C 284.558594 358.78125 363.300781 280.039062 363.300781 182.90625 C 363.300781 85.773438 284.558594 7.03125 187.425781 7.03125 " fill-opacity="1" fill-rule="nonzero"/></g><g clip-path="url(#id2)"><path fill="#ffffff" d="M 135.570312 185.445312 C 131.332031 185.882812 126.703125 186.121094 121.859375 186.121094 C 101.460938 186.121094 84.925781 181.882812 84.925781 176.660156 C 84.925781 175.515625 85.710938 174.421875 87.160156 173.410156 L 87.160156 150.738281 C 85.710938 149.726562 84.925781 148.632812 84.925781 147.492188 C 84.925781 146.351562 85.710938 145.257812 87.160156 144.242188 L 87.160156 121.578125 C 85.710938 120.5625 84.925781 119.46875 84.925781 118.328125 C 84.925781 117.179688 85.710938 116.089844 87.160156 115.074219 L 87.160156 92.40625 C 85.710938 91.394531 84.925781 90.300781 84.925781 89.160156 C 84.925781 83.933594 101.460938 79.695312 121.859375 79.695312 C 136.636719 79.695312 149.386719 81.917969 155.292969 85.132812 L 154.375 87.09375 C 152.238281 85.375 147.3125 84.105469 145.964844 83.785156 C 138.328125 81.984375 129.683594 81.433594 121.859375 81.433594 C 114.035156 81.433594 105.394531 81.984375 97.757812 83.785156 C 96.019531 84.195312 88.355469 86.179688 88.355469 88.679688 C 88.355469 91.179688 96.019531 93.164062 97.757812 93.574219 C 105.394531 95.375 114.035156 95.925781 121.859375 95.925781 C 129.683594 95.925781 138.328125 95.375 145.964844 93.574219 C 146.96875 93.335938 149.960938 92.574219 152.304688 91.484375 C 151.726562 92.703125 151.140625 93.910156 150.550781 95.121094 C 143.777344 97.253906 133.441406 98.625 121.859375 98.625 C 107.933594 98.625 95.808594 96.648438 89.515625 93.730469 C 95.808594 97.382812 107.933594 99.859375 121.859375 99.859375 C 133.320312 99.859375 143.5625 98.183594 150.335938 95.554688 C 145.769531 104.835938 140.769531 113.898438 135.972656 123.054688 C 135.234375 124.460938 134.5 125.871094 133.777344 127.285156 C 130.035156 127.609375 126.03125 127.785156 121.859375 127.785156 C 107.933594 127.785156 95.808594 125.8125 89.515625 122.894531 C 95.808594 126.550781 107.933594 129.027344 121.859375 129.027344 C 125.808594 129.027344 129.613281 128.824219 133.179688 128.457031 C 131.5625 131.667969 130.007812 134.902344 128.585938 138.207031 C 126.722656 142.542969 125.042969 147.070312 124.160156 151.71875 C 123.910156 153.042969 123.714844 154.359375 123.582031 155.671875 C 123.011719 155.679688 122.433594 155.683594 121.859375 155.683594 C 107.933594 155.683594 95.808594 153.707031 89.515625 150.789062 C 95.808594 154.441406 107.933594 156.917969 121.859375 156.917969 C 122.402344 156.917969 122.9375 156.914062 123.472656 156.90625 C 122.632812 168.007812 126.089844 178.519531 135.570312 185.445312 Z M 156.5625 92.589844 C 151.359375 103.644531 145.457031 114.261719 139.789062 125.074219 C 137.238281 129.9375 134.71875 134.875 132.550781 139.925781 C 130.832031 143.929688 129.214844 148.234375 128.402344 152.53125 C 126.234375 163.984375 128.621094 175.300781 138.558594 182.261719 C 143.777344 185.917969 150.226562 187.671875 156.5625 187.671875 C 162.890625 187.671875 169.339844 185.917969 174.558594 182.261719 C 184.5 175.300781 186.890625 163.984375 184.71875 152.53125 C 183.902344 148.234375 182.289062 143.929688 180.570312 139.925781 C 178.398438 134.875 175.878906 129.9375 173.328125 125.074219 C 167.660156 114.261719 161.757812 103.644531 156.5625 92.589844 Z M 157.210938 97.851562 C 164.742188 116.222656 171.75 131.625 173.589844 143.929688 C 177.734375 171.65625 165.28125 183.691406 141.910156 178.738281 C 146.339844 182.046875 151.832031 183.628906 157.210938 183.628906 C 162.59375 183.628906 168.085938 182.046875 172.515625 178.738281 C 180.957031 172.449219 182.929688 162.226562 181.089844 151.882812 C 179.609375 143.601562 174.863281 133.988281 171.191406 126.535156 C 166.484375 116.976562 161.589844 107.578125 157.210938 97.851562 Z M 154.851562 107.960938 C 151.414062 114.589844 147.847656 121.152344 144.378906 127.765625 C 126.492188 161.894531 134.183594 170.03125 143.074219 166.140625 C 140.253906 161.488281 140.3125 150.300781 147.53125 129.144531 C 149.949219 122.074219 152.464844 115.039062 154.851562 107.960938 Z M 108.640625 86.746094 C 105.683594 86.746094 102.367188 87.003906 99.507812 87.816406 C 98.746094 88.03125 95.988281 88.90625 95.988281 90.011719 C 95.988281 91.121094 98.746094 91.992188 99.507812 92.210938 C 102.367188 93.019531 105.683594 93.28125 108.640625 93.28125 C 111.597656 93.28125 114.910156 93.019531 117.773438 92.210938 C 118.53125 91.992188 121.289062 91.121094 121.289062 90.011719 C 121.289062 88.90625 118.53125 88.03125 117.773438 87.816406 C 114.910156 87.003906 111.597656 86.746094 108.640625 86.746094 Z M 108.640625 86.746094 " fill-opacity="1" fill-rule="evenodd"/></g><path fill="#ffffff" d="M 233.570312 301.367188 C 218.410156 301.367188 204.574219 293.046875 197.457031 279.648438 C 191.113281 267.707031 191.109375 253.332031 197.445312 241.191406 L 230.488281 178.996094 C 231.089844 177.867188 232.261719 177.160156 233.535156 177.160156 C 234.8125 177.160156 235.984375 177.867188 236.585938 178.996094 L 269.617188 241.171875 C 274.746094 250.828125 275.816406 261.90625 272.628906 272.367188 C 269.441406 282.828125 262.378906 291.417969 252.738281 296.558594 C 246.839844 299.703125 240.210938 301.367188 233.570312 301.367188 Z M 233.570312 301.367188 " fill-opacity="1" fill-rule="nonzero"/><g clip-path="url(#id3)"><path fill="#ffb200" d="M 233.539062 180.621094 L 266.570312 242.796875 C 276.277344 261.074219 269.359375 283.777344 251.117188 293.503906 C 245.519531 296.492188 239.5 297.90625 233.570312 297.90625 C 220.183594 297.90625 207.234375 290.691406 200.507812 278.023438 C 194.472656 266.667969 194.972656 253.394531 200.507812 242.796875 L 233.539062 180.621094 M 233.539062 173.699219 C 230.984375 173.699219 228.640625 175.109375 227.441406 177.367188 L 194.410156 239.546875 C 194.402344 239.558594 194.394531 239.574219 194.386719 239.589844 C 187.519531 252.742188 187.53125 268.324219 194.410156 281.277344 C 202.128906 295.804688 217.132812 304.828125 233.570312 304.828125 C 240.777344 304.828125 247.964844 303.023438 254.363281 299.613281 C 264.816406 294.039062 272.472656 284.722656 275.929688 273.375 C 279.386719 262.03125 278.226562 250.015625 272.664062 239.546875 L 239.632812 177.371094 C 238.433594 175.113281 236.089844 173.699219 233.539062 173.699219 Z M 233.539062 173.699219 " fill-opacity="1" fill-rule="nonzero"/></g><path fill="#ffffff" d="M 233.566406 286.714844 C 224.351562 286.714844 215.941406 281.65625 211.613281 273.511719 C 207.757812 266.253906 207.753906 257.515625 211.601562 250.140625 L 230.5 214.570312 C 231.101562 213.441406 232.273438 212.734375 233.550781 212.734375 C 234.824219 212.734375 235.996094 213.441406 236.597656 214.570312 L 255.484375 250.121094 C 261.921875 262.238281 257.320312 277.34375 245.222656 283.792969 C 241.636719 285.707031 237.605469 286.714844 233.566406 286.714844 Z M 233.566406 286.714844 " fill-opacity="1" fill-rule="nonzero"/><path fill="#ffb200" d="M 233.550781 216.195312 L 252.4375 251.746094 C 257.988281 262.195312 254.03125 275.175781 243.601562 280.738281 C 240.398438 282.445312 236.960938 283.257812 233.570312 283.257812 C 225.914062 283.257812 218.511719 279.128906 214.664062 271.886719 C 211.214844 265.394531 211.5 257.804688 214.664062 251.746094 L 233.550781 216.195312 M 233.550781 209.277344 C 230.996094 209.277344 228.652344 210.6875 227.453125 212.945312 L 208.566406 248.496094 C 208.558594 248.507812 208.550781 248.523438 208.542969 248.539062 C 204.164062 256.925781 204.171875 266.871094 208.566406 275.140625 C 213.492188 284.414062 223.074219 290.175781 233.566406 290.175781 C 238.171875 290.175781 242.761719 289.023438 246.847656 286.847656 C 260.621094 279.5 265.863281 262.296875 258.53125 248.496094 L 239.644531 212.945312 C 238.445312 210.6875 236.101562 209.277344 233.550781 209.277344 Z M 233.550781 209.277344 " fill-opacity="1" fill-rule="nonzero"/><path fill="#ffffff" d="M 278.964844 242.859375 C 269.738281 242.859375 261.3125 237.792969 256.980469 229.636719 C 253.121094 222.367188 253.113281 213.617188 256.96875 206.234375 L 275.898438 170.605469 C 276.496094 169.476562 277.667969 168.769531 278.945312 168.769531 C 280.222656 168.769531 281.394531 169.476562 281.996094 170.605469 L 300.910156 206.210938 C 304.035156 212.089844 304.683594 218.835938 302.746094 225.203125 C 300.804688 231.570312 296.503906 236.800781 290.636719 239.929688 C 287.046875 241.847656 283.011719 242.859375 278.964844 242.859375 Z M 278.964844 242.859375 " fill-opacity="1" fill-rule="nonzero"/><g clip-path="url(#id4)"><path fill="#ffb200" d="M 278.945312 172.230469 L 297.863281 207.835938 C 303.421875 218.304688 299.460938 231.304688 289.015625 236.878906 C 285.808594 238.589844 282.363281 239.398438 278.964844 239.398438 C 271.296875 239.398438 263.882812 235.265625 260.03125 228.011719 C 256.574219 221.507812 256.859375 213.90625 260.03125 207.835938 L 278.945312 172.230469 M 278.945312 165.308594 C 276.394531 165.308594 274.050781 166.722656 272.851562 168.980469 L 253.933594 204.585938 C 253.925781 204.601562 253.917969 204.617188 253.910156 204.628906 C 249.527344 213.027344 249.535156 222.984375 253.933594 231.261719 C 258.867188 240.550781 268.457031 246.316406 278.964844 246.316406 C 283.574219 246.316406 288.171875 245.164062 292.261719 242.984375 C 298.941406 239.421875 303.835938 233.464844 306.046875 226.210938 C 308.257812 218.960938 307.515625 211.28125 303.960938 204.585938 L 285.042969 168.976562 C 283.84375 166.722656 281.5 165.308594 278.945312 165.308594 Z M 278.945312 165.308594 " fill-opacity="1" fill-rule="nonzero"/></g><path fill="#ffffff" d="M 144.25 280.832031 L 146.027344 277.53125 L 149.328125 279.308594 L 147.550781 282.609375 M 147.804688 274.230469 L 149.582031 270.929688 L 152.886719 272.707031 L 151.105469 276.007812 M 151.363281 267.628906 L 153.140625 264.328125 L 156.441406 266.105469 L 154.664062 269.40625 M 154.917969 261.027344 L 156.695312 257.726562 L 159.996094 259.507812 L 158.21875 262.804688 M 158.472656 254.425781 L 160.25 251.125 L 163.554688 252.90625 L 161.773438 256.207031 M 162.027344 247.824219 L 163.808594 244.523438 L 167.109375 246.304688 L 165.332031 249.605469 M 165.585938 241.222656 L 167.363281 237.925781 L 170.664062 239.703125 L 168.886719 243.003906 M 169.140625 234.625 L 170.917969 231.324219 L 174.21875 233.101562 L 172.441406 236.402344 M 172.695312 228.023438 L 174.476562 224.722656 L 177.777344 226.5 L 176 229.800781 M 176.253906 221.421875 L 178.03125 218.121094 L 181.332031 219.898438 L 179.554688 223.199219 M 179.808594 214.820312 L 181.585938 211.519531 L 184.886719 213.296875 L 183.109375 216.597656 M 183.363281 208.21875 L 185.144531 204.917969 L 188.445312 206.695312 L 186.667969 209.996094 M 186.921875 201.617188 L 188.699219 198.316406 L 192 200.09375 L 190.222656 203.394531 M 190.476562 195.015625 L 192.253906 191.714844 L 195.554688 193.492188 L 193.777344 196.792969 M 194.03125 188.414062 L 195.808594 185.113281 L 199.113281 186.890625 L 197.332031 190.191406 M 197.589844 181.8125 L 199.367188 178.511719 L 202.667969 180.292969 L 200.890625 183.59375 M 201.144531 175.210938 L 202.921875 171.910156 L 206.222656 173.691406 L 204.445312 176.992188 M 204.699219 168.609375 L 206.476562 165.308594 L 209.78125 167.089844 L 208 170.390625 M 208.257812 162.007812 L 210.035156 158.710938 L 213.335938 160.488281 L 211.558594 163.789062 M 211.8125 155.410156 L 213.589844 152.109375 L 216.890625 153.886719 L 215.113281 157.1875 M 215.367188 148.808594 L 217.144531 145.507812 L 220.445312 147.285156 L 218.667969 150.585938 M 218.921875 142.207031 L 220.703125 138.90625 L 224.003906 140.683594 L 222.226562 143.984375 M 222.480469 135.605469 L 224.257812 132.304688 L 227.558594 134.082031 L 225.78125 137.382812 M 226.035156 129.003906 L 227.8125 125.703125 L 231.113281 127.480469 L 229.335938 130.78125 M 229.589844 122.402344 L 231.371094 119.101562 L 234.671875 120.878906 L 232.894531 124.179688 M 233.148438 115.800781 L 234.925781 112.5 L 238.226562 114.277344 L 236.449219 117.578125 M 236.703125 109.199219 L 238.480469 105.898438 L 241.78125 107.675781 L 240.003906 110.976562 M 240.257812 102.597656 L 242.035156 99.296875 L 245.339844 101.078125 L 243.558594 104.378906 M 243.816406 95.996094 L 245.59375 92.695312 L 248.894531 94.476562 L 247.117188 97.777344 M 247.371094 89.394531 L 249.148438 86.09375 L 252.449219 87.875 L 250.671875 91.175781 " fill-opacity="1" fill-rule="nonzero"/></svg>