<svg xmlns="http://www.w3.org/2000/svg" xmlns:xlink="http://www.w3.org/1999/xlink" width="500" zoomAndPan="magnify" viewBox="0 0 375 374.999991" height="500" preserveAspectRatio="xMidYMid meet" version="1.0"><defs><clipPath id="id1"><path d="M 11.550781 7.03125 L 363.300781 7.03125 L 363.300781 358.78125 L 11.550781 358.78125 Z M 11.550781 7.03125 " clip-rule="nonzero"/></clipPath><clipPath id="id2"><path d="M 71.699219 76.359375 L 169.949219 76.359375 L 169.949219 174.609375 L 71.699219 174.609375 Z M 71.699219 76.359375 " clip-rule="nonzero"/></clipPath><clipPath id="id3"><path d="M 204 187.5 L 308 187.5 L 308 241 L 204 241 Z M 204 187.5 " clip-rule="nonzero"/></clipPath><clipPath id="id4"><path d="M 249 243 L 314.480469 243 L 314.480469 304 L 249 304 Z M 249 243 " clip-rule="nonzero"/></clipPath><clipPath id="id5"><path d="M 200.480469 237 L 246 237 L 246 304 L 200.480469 304 Z M 200.480469 237 " clip-rule="nonzero"/></clipPath><clipPath id="id6"><path d="M 89 190 L 166 190 L 166 291 L 89 291 Z M 89 190 " clip-rule="nonzero"/></clipPath><clipPath id="id7"><path d="M 93.691406 188.945312 L 173.660156 281.410156 L 147.5625 303.980469 L 67.597656 211.511719 Z M 93.691406 188.945312 " clip-rule="nonzero"/></clipPath><clipPath id="id8"><path d="M 93.691406 188.945312 L 173.660156 281.410156 L 147.5625 303.980469 L 67.597656 211.511719 Z M 93.691406 188.945312 " clip-rule="nonzero"/></clipPath><clipPath id="id9"><path d="M 93.691406 188.945312 L 173.660156 281.410156 L 147.5625 303.980469 L 67.597656 211.511719 Z M 93.691406 188.945312 " clip-rule="nonzero"/></clipPath><clipPath id="id10"><path d="M 93 213 L 95 213 L 95 214 L 93 214 Z M 93 213 " clip-rule="nonzero"/></clipPath><clipPath id="id11"><path d="M 93.691406 188.945312 L 173.660156 281.410156 L 147.5625 303.980469 L 67.597656 211.511719 Z M 93.691406 188.945312 " clip-rule="nonzero"/></clipPath><clipPath id="id12"><path d="M 93.691406 188.945312 L 173.660156 281.410156 L 147.5625 303.980469 L 67.597656 211.511719 Z M 93.691406 188.945312 " clip-rule="nonzero"/></clipPath><clipPath id="id13"><path d="M 93.691406 188.945312 L 173.660156 281.410156 L 147.5625 303.980469 L 67.597656 211.511719 Z M 93.691406 188.945312 " clip-rule="nonzero"/></clipPath><clipPath id="id14"><path d="M 206 88 L 296 88 L 296 179 L 206 179 Z M 206 88 " clip-rule="nonzero"/></clipPath><clipPath id="id15"><path d="M 293.289062 180.046875 L 198.402344 102.964844 L 220.15625 76.1875 L 315.042969 153.269531 Z M 293.289062 180.046875 " clip-rule="nonzero"/></clipPath><clipPath id="id16"><path d="M 293.289062 180.046875 L 198.402344 102.964844 L 220.15625 76.1875 L 315.042969 153.269531 Z M 293.289062 180.046875 " clip-rule="nonzero"/></clipPath><clipPath id="id17"><path d="M 293.289062 180.046875 L 198.402344 102.964844 L 220.15625 76.1875 L 315.042969 153.269531 Z M 293.289062 180.046875 " clip-rule="nonzero"/></clipPath><clipPath id="id18"><path d="M 288 155 L 289 155 L 289 157 L 288 157 Z M 288 155 " clip-rule="nonzero"/></clipPath><clipPath id="id19"><path d="M 293.289062 180.046875 L 198.402344 102.964844 L 220.15625 76.1875 L 315.042969 153.269531 Z M 293.289062 180.046875 " clip-rule="nonzero"/></clipPath><clipPath id="id20"><path d="M 293.289062 180.046875 L 198.402344 102.964844 L 220.15625 76.1875 L 315.042969 153.269531 Z M 293.289062 180.046875 " clip-rule="nonzero"/></clipPath><clipPath id="id21"><path d="M 293.289062 180.046875 L 198.402344 102.964844 L 220.15625 76.1875 L 315.042969 153.269531 Z M 293.289062 180.046875 " clip-rule="nonzero"/></clipPath></defs><rect x="-37.5" width="450" fill="#ffffff" y="-37.499999" height="449.999989" fill-opacity="1"/><rect x="-37.5" width="450" fill="#ffffff" y="-37.499999" height="449.999989" fill-opacity="1"/><rect x="-37.5" width="450" fill="#ffffff" y="-37.499999" height="449.999989" fill-opacity="1"/><g clip-path="url(#id1)"><path fill="#ffb200" d="M 187.425781 7.03125 C 90.292969 7.03125 11.550781 85.773438 11.550781 182.90625 C 11.550781 280.039062 90.292969 358.78125 187.425781 358.78125 C 284.558594 358.78125 363.300781 280.039062 363.300781 182.90625 C 363.300781 85.773438 284.558594 7.03125 187.425781 7.03125 " fill-opacity="1" fill-rule="nonzero"/></g><g clip-path="url(#id2)"><path fill="#ffffff" d="M 162.023438 123.027344 L 162.023438 103.296875 C 162.023438 103.089844 161.984375 102.886719 161.90625 102.691406 C 161.824219 102.5 161.710938 102.328125 161.5625 102.179688 C 161.414062 102.03125 161.242188 101.914062 161.046875 101.835938 C 160.851562 101.753906 160.652344 101.714844 160.441406 101.714844 L 157.269531 101.714844 L 157.269531 82.699219 C 157.269531 82.28125 157.230469 81.871094 157.148438 81.460938 C 157.066406 81.054688 156.949219 80.65625 156.789062 80.273438 C 156.628906 79.886719 156.433594 79.523438 156.203125 79.175781 C 155.972656 78.832031 155.710938 78.511719 155.414062 78.214844 C 155.121094 77.921875 154.800781 77.660156 154.453125 77.425781 C 154.109375 77.195312 153.742188 77 153.359375 76.839844 C 152.972656 76.683594 152.578125 76.5625 152.167969 76.480469 C 151.761719 76.398438 151.347656 76.359375 150.933594 76.359375 L 109.730469 76.359375 C 109.316406 76.359375 108.902344 76.398438 108.496094 76.480469 C 108.085938 76.5625 107.691406 76.683594 107.304688 76.839844 C 106.921875 77 106.554688 77.195312 106.210938 77.425781 C 105.863281 77.660156 105.542969 77.921875 105.25 78.214844 C 104.953125 78.511719 104.691406 78.832031 104.460938 79.175781 C 104.230469 79.523438 104.035156 79.886719 103.875 80.273438 C 103.714844 80.65625 103.59375 81.054688 103.515625 81.460938 C 103.433594 81.871094 103.390625 82.28125 103.390625 82.699219 L 103.390625 87.453125 L 98.636719 87.453125 C 97.910156 87.453125 97.1875 87.523438 96.472656 87.664062 C 95.761719 87.808594 95.066406 88.015625 94.394531 88.296875 C 93.71875 88.574219 93.082031 88.917969 92.476562 89.320312 C 91.871094 89.726562 91.308594 90.1875 90.792969 90.699219 C 90.28125 91.214844 89.820312 91.777344 89.414062 92.382812 C 89.011719 92.988281 88.667969 93.625 88.390625 94.300781 C 88.109375 94.972656 87.902344 95.667969 87.757812 96.378906 C 87.617188 97.09375 87.546875 97.816406 87.546875 98.542969 L 87.546875 100.257812 C 86.890625 100.351562 86.25 100.503906 85.625 100.710938 C 84.996094 100.921875 84.394531 101.183594 83.8125 101.5 C 83.234375 101.816406 82.683594 102.183594 82.171875 102.597656 C 81.65625 103.011719 81.183594 103.46875 80.75 103.96875 C 80.316406 104.46875 79.929688 105 79.59375 105.570312 C 79.253906 106.136719 78.972656 106.730469 78.738281 107.351562 C 78.507812 107.96875 78.332031 108.605469 78.214844 109.253906 C 78.097656 109.90625 78.039062 110.5625 78.039062 111.222656 L 78.039062 138.160156 L 76.453125 138.160156 C 76.242188 138.160156 76.039062 138.203125 75.847656 138.28125 C 75.652344 138.363281 75.480469 138.476562 75.332031 138.625 C 75.183594 138.773438 75.070312 138.945312 74.988281 139.140625 C 74.910156 139.332031 74.867188 139.535156 74.867188 139.746094 L 74.867188 144.5 L 73.285156 144.5 C 73.074219 144.5 72.871094 144.539062 72.675781 144.621094 C 72.484375 144.703125 72.3125 144.816406 72.164062 144.964844 C 72.015625 145.113281 71.898438 145.285156 71.820312 145.476562 C 71.738281 145.671875 71.699219 145.875 71.699219 146.085938 L 71.699219 152.421875 C 71.699219 152.632812 71.738281 152.835938 71.820312 153.03125 C 71.898438 153.222656 72.015625 153.394531 72.164062 153.542969 C 72.3125 153.691406 72.484375 153.808594 72.675781 153.886719 C 72.871094 153.96875 73.074219 154.007812 73.285156 154.007812 L 141.425781 154.007812 L 141.425781 157.175781 L 131.125 157.175781 C 130.761719 157.175781 130.398438 157.214844 130.042969 157.285156 C 129.683594 157.355469 129.339844 157.460938 129 157.601562 C 128.664062 157.738281 128.34375 157.910156 128.042969 158.113281 C 127.738281 158.316406 127.460938 158.542969 127.203125 158.800781 C 126.945312 159.058594 126.714844 159.339844 126.511719 159.644531 C 126.308594 159.945312 126.140625 160.265625 126 160.601562 C 125.859375 160.9375 125.753906 161.285156 125.683594 161.640625 C 125.613281 162 125.578125 162.359375 125.578125 162.722656 C 125.578125 163.039062 125.515625 163.34375 125.398438 163.632812 C 125.277344 163.925781 125.105469 164.183594 124.882812 164.40625 C 124.660156 164.628906 124.402344 164.800781 124.109375 164.921875 C 123.820312 165.039062 123.515625 165.101562 123.199219 165.101562 L 119.238281 165.101562 C 118.925781 165.101562 118.617188 165.132812 118.3125 165.191406 C 118.003906 165.253906 117.707031 165.34375 117.417969 165.464844 C 117.132812 165.582031 116.855469 165.730469 116.597656 165.902344 C 116.339844 166.074219 116.097656 166.273438 115.878906 166.492188 C 115.65625 166.714844 115.460938 166.953125 115.285156 167.214844 C 115.113281 167.472656 114.964844 167.746094 114.847656 168.035156 C 114.726562 168.324219 114.636719 168.621094 114.578125 168.925781 C 114.515625 169.234375 114.484375 169.542969 114.484375 169.855469 C 114.484375 170.167969 114.515625 170.476562 114.578125 170.78125 C 114.636719 171.089844 114.726562 171.386719 114.847656 171.675781 C 114.964844 171.960938 115.113281 172.238281 115.285156 172.496094 C 115.460938 172.753906 115.65625 172.996094 115.878906 173.214844 C 116.097656 173.4375 116.339844 173.632812 116.597656 173.808594 C 116.855469 173.980469 117.132812 174.128906 117.417969 174.246094 C 117.707031 174.367188 118.003906 174.457031 118.3125 174.519531 C 118.617188 174.578125 118.925781 174.609375 119.238281 174.609375 L 165.195312 174.609375 C 165.507812 174.609375 165.816406 174.578125 166.121094 174.519531 C 166.429688 174.457031 166.726562 174.367188 167.015625 174.246094 C 167.300781 174.128906 167.578125 173.980469 167.835938 173.808594 C 168.09375 173.632812 168.335938 173.4375 168.554688 173.214844 C 168.777344 172.996094 168.972656 172.753906 169.148438 172.496094 C 169.320312 172.238281 169.46875 171.960938 169.585938 171.675781 C 169.707031 171.386719 169.796875 171.089844 169.855469 170.78125 C 169.917969 170.476562 169.949219 170.167969 169.949219 169.855469 L 169.949219 137.890625 C 169.945312 136.425781 169.761719 134.980469 169.402344 133.554688 C 169.046875 132.132812 168.519531 130.773438 167.832031 129.476562 C 167.140625 128.183594 166.304688 126.988281 165.320312 125.898438 C 164.339844 124.808594 163.242188 123.851562 162.023438 123.027344 Z M 166.460938 134.992188 L 144.910156 134.992188 C 145.320312 132.964844 146.117188 131.105469 147.308594 129.414062 C 148.496094 127.71875 149.972656 126.335938 151.742188 125.261719 C 151.980469 125.121094 152.171875 124.925781 152.308594 124.683594 C 152.449219 124.441406 152.515625 124.179688 152.515625 123.898438 L 152.515625 120.730469 L 158.855469 120.730469 L 158.855469 123.898438 C 158.855469 124.179688 158.925781 124.441406 159.0625 124.683594 C 159.203125 124.925781 159.390625 125.121094 159.632812 125.261719 C 161.398438 126.335938 162.878906 127.71875 164.066406 129.414062 C 165.253906 131.105469 166.054688 132.964844 166.460938 134.992188 Z M 144.59375 138.160156 L 166.78125 138.160156 L 166.78125 161.933594 L 144.59375 161.933594 Z M 152.515625 111.222656 L 158.855469 111.222656 L 158.855469 117.5625 L 152.515625 117.5625 Z M 158.855469 108.050781 L 152.515625 108.050781 L 152.515625 104.882812 L 158.855469 104.882812 Z M 106.5625 82.699219 C 106.5625 82.277344 106.640625 81.875 106.804688 81.484375 C 106.964844 81.097656 107.191406 80.753906 107.488281 80.457031 C 107.785156 80.160156 108.128906 79.929688 108.519531 79.769531 C 108.90625 79.609375 109.3125 79.527344 109.730469 79.527344 L 150.933594 79.527344 C 151.351562 79.527344 151.757812 79.609375 152.144531 79.769531 C 152.535156 79.929688 152.875 80.160156 153.171875 80.457031 C 153.472656 80.753906 153.699219 81.097656 153.859375 81.484375 C 154.023438 81.875 154.101562 82.277344 154.101562 82.699219 L 154.101562 101.714844 L 150.933594 101.714844 C 150.722656 101.714844 150.519531 101.753906 150.324219 101.835938 C 150.132812 101.914062 149.960938 102.03125 149.8125 102.179688 C 149.664062 102.328125 149.550781 102.5 149.46875 102.691406 C 149.386719 102.886719 149.347656 103.089844 149.347656 103.296875 L 149.347656 123.027344 C 148.132812 123.851562 147.03125 124.808594 146.050781 125.898438 C 145.070312 126.988281 144.234375 128.183594 143.542969 129.476562 C 142.851562 130.773438 142.328125 132.132812 141.96875 133.554688 C 141.609375 134.980469 141.429688 136.425781 141.425781 137.890625 L 141.425781 144.5 L 135.085938 144.5 L 135.085938 139.746094 C 135.085938 139.535156 135.046875 139.332031 134.964844 139.140625 C 134.882812 138.945312 134.769531 138.773438 134.621094 138.625 C 134.472656 138.476562 134.300781 138.363281 134.109375 138.28125 C 133.914062 138.203125 133.710938 138.160156 133.5 138.160156 L 131.917969 138.160156 L 131.917969 111.222656 C 131.914062 110.5625 131.855469 109.90625 131.738281 109.253906 C 131.621094 108.605469 131.445312 107.96875 131.214844 107.351562 C 130.984375 106.730469 130.699219 106.136719 130.359375 105.570312 C 130.023438 105 129.636719 104.46875 129.203125 103.96875 C 128.773438 103.46875 128.296875 103.011719 127.785156 102.597656 C 127.269531 102.183594 126.722656 101.816406 126.140625 101.5 C 125.5625 101.183594 124.957031 100.921875 124.332031 100.710938 C 123.703125 100.503906 123.0625 100.351562 122.410156 100.257812 L 122.410156 98.542969 C 122.410156 97.816406 122.335938 97.09375 122.195312 96.378906 C 122.054688 95.667969 121.84375 94.972656 121.5625 94.300781 C 121.285156 93.625 120.945312 92.988281 120.539062 92.382812 C 120.132812 91.777344 119.675781 91.214844 119.160156 90.699219 C 118.644531 90.1875 118.085938 89.726562 117.476562 89.320312 C 116.871094 88.917969 116.234375 88.574219 115.5625 88.296875 C 114.886719 88.015625 114.195312 87.808594 113.480469 87.664062 C 112.765625 87.523438 112.042969 87.453125 111.316406 87.453125 L 106.5625 87.453125 Z M 120.824219 103.296875 C 121.277344 103.296875 121.726562 103.335938 122.171875 103.414062 C 122.621094 103.492188 123.058594 103.605469 123.484375 103.757812 C 123.910156 103.910156 124.320312 104.097656 124.71875 104.320312 C 125.113281 104.542969 125.484375 104.796875 125.835938 105.085938 C 126.1875 105.371094 126.511719 105.683594 126.808594 106.027344 C 127.105469 106.371094 127.371094 106.734375 127.605469 107.121094 C 127.839844 107.511719 128.039062 107.914062 128.207031 108.339844 C 128.371094 108.761719 128.496094 109.191406 128.589844 109.636719 L 113.058594 109.636719 C 113.148438 109.191406 113.277344 108.761719 113.441406 108.339844 C 113.605469 107.917969 113.804688 107.511719 114.039062 107.125 C 114.277344 106.734375 114.542969 106.371094 114.839844 106.027344 C 115.136719 105.6875 115.460938 105.371094 115.8125 105.085938 C 116.160156 104.796875 116.535156 104.542969 116.929688 104.320312 C 117.324219 104.097656 117.734375 103.910156 118.164062 103.757812 C 118.589844 103.605469 119.027344 103.492188 119.472656 103.414062 C 119.921875 103.335938 120.371094 103.296875 120.824219 103.296875 Z M 112.898438 112.808594 L 128.746094 112.808594 L 128.746094 119.144531 L 112.898438 119.144531 Z M 112.898438 122.316406 L 128.746094 122.316406 L 128.746094 128.652344 L 112.898438 128.652344 Z M 112.898438 131.824219 L 128.746094 131.824219 L 128.746094 138.160156 L 112.898438 138.160156 Z M 131.917969 141.332031 L 131.917969 144.5 L 109.730469 144.5 L 109.730469 141.332031 Z M 98.636719 90.621094 L 111.316406 90.621094 C 111.835938 90.621094 112.351562 90.671875 112.863281 90.773438 C 113.371094 90.875 113.867188 91.023438 114.347656 91.222656 C 114.828125 91.421875 115.285156 91.667969 115.71875 91.957031 C 116.148438 92.246094 116.550781 92.574219 116.917969 92.941406 C 117.285156 93.308594 117.613281 93.710938 117.902344 94.144531 C 118.191406 94.574219 118.4375 95.03125 118.636719 95.511719 C 118.835938 95.992188 118.984375 96.488281 119.085938 97 C 119.1875 97.507812 119.238281 98.023438 119.238281 98.542969 L 119.238281 100.257812 C 118.585938 100.351562 117.945312 100.503906 117.316406 100.710938 C 116.691406 100.921875 116.085938 101.183594 115.507812 101.5 C 114.925781 101.816406 114.378906 102.183594 113.863281 102.597656 C 113.347656 103.011719 112.875 103.46875 112.441406 103.96875 C 112.007812 104.46875 111.625 105 111.285156 105.570312 C 110.949219 106.136719 110.664062 106.730469 110.433594 107.351562 C 110.203125 107.96875 110.027344 108.605469 109.910156 109.253906 C 109.792969 109.90625 109.730469 110.5625 109.730469 111.222656 L 109.730469 138.160156 L 108.144531 138.160156 C 107.9375 138.160156 107.734375 138.203125 107.539062 138.28125 C 107.347656 138.363281 107.175781 138.476562 107.027344 138.625 C 106.878906 138.773438 106.761719 138.945312 106.683594 139.140625 C 106.601562 139.332031 106.5625 139.535156 106.5625 139.746094 L 106.5625 144.5 L 103.390625 144.5 L 103.390625 139.746094 C 103.390625 139.535156 103.351562 139.332031 103.273438 139.140625 C 103.191406 138.945312 103.078125 138.773438 102.929688 138.625 C 102.78125 138.476562 102.609375 138.363281 102.414062 138.28125 C 102.21875 138.203125 102.019531 138.160156 101.808594 138.160156 L 100.222656 138.160156 L 100.222656 111.222656 C 100.222656 110.5625 100.164062 109.90625 100.042969 109.253906 C 99.925781 108.605469 99.753906 107.96875 99.519531 107.351562 C 99.289062 106.730469 99.003906 106.136719 98.667969 105.570312 C 98.328125 105 97.945312 104.46875 97.511719 103.96875 C 97.078125 103.46875 96.605469 103.011719 96.089844 102.597656 C 95.574219 102.183594 95.027344 101.816406 94.449219 101.5 C 93.867188 101.183594 93.265625 100.921875 92.636719 100.710938 C 92.007812 100.503906 91.367188 100.351562 90.714844 100.257812 L 90.714844 98.542969 C 90.714844 98.023438 90.765625 97.507812 90.867188 97 C 90.96875 96.488281 91.117188 95.992188 91.316406 95.511719 C 91.515625 95.03125 91.761719 94.574219 92.050781 94.144531 C 92.339844 93.710938 92.667969 93.308594 93.035156 92.941406 C 93.402344 92.574219 93.804688 92.246094 94.234375 91.957031 C 94.667969 91.667969 95.125 91.421875 95.605469 91.222656 C 96.085938 91.023438 96.582031 90.875 97.09375 90.773438 C 97.601562 90.671875 98.117188 90.621094 98.636719 90.621094 Z M 97.054688 112.808594 L 97.054688 119.144531 L 81.207031 119.144531 L 81.207031 112.808594 Z M 97.054688 122.316406 L 97.054688 128.652344 L 81.207031 128.652344 L 81.207031 122.316406 Z M 89.128906 103.296875 C 89.582031 103.296875 90.035156 103.335938 90.480469 103.414062 C 90.925781 103.492188 91.363281 103.605469 91.789062 103.757812 C 92.21875 103.910156 92.628906 104.097656 93.023438 104.320312 C 93.417969 104.542969 93.792969 104.796875 94.140625 105.085938 C 94.492188 105.371094 94.816406 105.683594 95.113281 106.027344 C 95.410156 106.371094 95.679688 106.734375 95.914062 107.121094 C 96.148438 107.511719 96.347656 107.914062 96.511719 108.339844 C 96.675781 108.761719 96.804688 109.191406 96.894531 109.636719 L 81.367188 109.636719 C 81.457031 109.191406 81.582031 108.761719 81.75 108.339844 C 81.914062 107.917969 82.113281 107.511719 82.347656 107.125 C 82.582031 106.734375 82.847656 106.371094 83.144531 106.027344 C 83.441406 105.6875 83.765625 105.371094 84.117188 105.085938 C 84.46875 104.796875 84.839844 104.542969 85.234375 104.320312 C 85.632812 104.097656 86.042969 103.910156 86.46875 103.757812 C 86.894531 103.605469 87.332031 103.492188 87.78125 103.414062 C 88.226562 103.335938 88.675781 103.296875 89.128906 103.296875 Z M 81.207031 131.824219 L 97.054688 131.824219 L 97.054688 138.160156 L 81.207031 138.160156 Z M 78.039062 141.332031 L 100.222656 141.332031 L 100.222656 144.5 L 78.039062 144.5 Z M 74.867188 150.839844 L 74.867188 147.667969 L 141.425781 147.667969 L 141.425781 150.839844 Z M 117.65625 169.855469 C 117.65625 169.644531 117.695312 169.441406 117.773438 169.25 C 117.855469 169.054688 117.96875 168.882812 118.117188 168.734375 C 118.265625 168.585938 118.4375 168.472656 118.632812 168.390625 C 118.828125 168.3125 119.027344 168.269531 119.238281 168.269531 L 123.199219 168.269531 C 123.566406 168.269531 123.925781 168.234375 124.28125 168.164062 C 124.640625 168.09375 124.988281 167.988281 125.324219 167.847656 C 125.660156 167.707031 125.980469 167.539062 126.28125 167.335938 C 126.585938 167.132812 126.863281 166.902344 127.121094 166.644531 C 127.378906 166.386719 127.609375 166.109375 127.8125 165.804688 C 128.015625 165.503906 128.183594 165.183594 128.324219 164.847656 C 128.464844 164.511719 128.570312 164.164062 128.640625 163.804688 C 128.710938 163.449219 128.746094 163.089844 128.746094 162.722656 C 128.746094 162.410156 128.808594 162.105469 128.929688 161.8125 C 129.046875 161.523438 129.21875 161.265625 129.441406 161.042969 C 129.667969 160.820312 129.921875 160.648438 130.214844 160.527344 C 130.503906 160.40625 130.808594 160.347656 131.125 160.347656 L 141.425781 160.347656 L 141.425781 169.855469 C 141.429688 170.398438 141.523438 170.929688 141.710938 171.441406 L 119.238281 171.441406 C 119.027344 171.441406 118.828125 171.398438 118.632812 171.320312 C 118.4375 171.238281 118.265625 171.125 118.117188 170.976562 C 117.96875 170.828125 117.855469 170.65625 117.773438 170.460938 C 117.695312 170.265625 117.65625 170.066406 117.65625 169.855469 Z M 165.195312 171.441406 L 146.179688 171.441406 C 145.96875 171.441406 145.765625 171.398438 145.570312 171.320312 C 145.378906 171.238281 145.207031 171.125 145.058594 170.976562 C 144.910156 170.828125 144.792969 170.65625 144.714844 170.460938 C 144.632812 170.265625 144.59375 170.066406 144.59375 169.855469 L 144.59375 165.101562 L 166.78125 165.101562 L 166.78125 169.855469 C 166.78125 170.066406 166.738281 170.265625 166.660156 170.460938 C 166.578125 170.65625 166.464844 170.828125 166.316406 170.976562 C 166.167969 171.125 165.996094 171.238281 165.800781 171.320312 C 165.605469 171.398438 165.40625 171.441406 165.195312 171.441406 Z M 165.195312 171.441406 " fill-opacity="1" fill-rule="nonzero"/></g><path fill="#ffffff" d="M 162.023438 141.332031 L 149.347656 141.332031 C 149.136719 141.332031 148.9375 141.371094 148.742188 141.453125 C 148.546875 141.53125 148.375 141.644531 148.226562 141.796875 C 148.078125 141.945312 147.964844 142.113281 147.882812 142.308594 C 147.804688 142.503906 147.761719 142.707031 147.761719 142.914062 L 147.761719 157.175781 C 147.761719 157.386719 147.804688 157.589844 147.882812 157.785156 C 147.964844 157.976562 148.078125 158.148438 148.226562 158.296875 C 148.375 158.445312 148.546875 158.5625 148.742188 158.640625 C 148.9375 158.722656 149.136719 158.761719 149.347656 158.761719 L 162.023438 158.761719 C 162.234375 158.761719 162.4375 158.722656 162.632812 158.640625 C 162.824219 158.5625 162.996094 158.445312 163.144531 158.296875 C 163.292969 158.148438 163.410156 157.976562 163.488281 157.785156 C 163.570312 157.589844 163.609375 157.386719 163.609375 157.175781 L 163.609375 142.914062 C 163.609375 142.707031 163.570312 142.503906 163.488281 142.308594 C 163.410156 142.113281 163.292969 141.945312 163.144531 141.796875 C 162.996094 141.644531 162.824219 141.53125 162.632812 141.453125 C 162.4375 141.371094 162.234375 141.332031 162.023438 141.332031 Z M 160.441406 155.59375 L 150.933594 155.59375 L 150.933594 144.5 L 160.441406 144.5 Z M 160.441406 155.59375 " fill-opacity="1" fill-rule="nonzero"/><g clip-path="url(#id3)"><path fill="#ffffff" d="M 285.03125 224.003906 C 287.136719 224.003906 288.839844 225.722656 288.839844 227.90625 C 288.839844 230.089844 287.136719 231.808594 285.03125 231.808594 C 282.917969 231.808594 281.214844 230.089844 281.214844 227.90625 C 281.214844 225.722656 282.914062 224.003906 285.03125 224.003906 Z M 227.003906 224.003906 C 229.113281 224.003906 230.820312 225.722656 230.820312 227.90625 C 230.820312 230.089844 229.113281 231.808594 227.003906 231.808594 C 224.898438 231.808594 223.191406 230.089844 223.191406 227.90625 C 223.191406 225.722656 224.898438 224.003906 227.003906 224.003906 Z M 305.292969 212.277344 L 305.292969 216.941406 C 305.292969 217.476562 305.183594 217.710938 305.007812 217.894531 C 304.839844 218.078125 304.488281 218.289062 303.765625 218.398438 L 272.398438 223.175781 C 272.375 221.863281 272.273438 220.574219 272.082031 219.300781 L 301.742188 216.949219 C 302.167969 216.914062 302.546875 216.679688 302.765625 216.320312 Z M 206.738281 212.277344 L 209.265625 216.320312 C 209.484375 216.679688 209.867188 216.914062 210.289062 216.949219 L 239.941406 219.300781 C 239.75 220.578125 239.648438 221.863281 239.625 223.175781 L 208.265625 218.398438 C 207.539062 218.289062 207.191406 218.078125 207.023438 217.894531 C 206.847656 217.710938 206.738281 217.476562 206.738281 216.941406 Z M 267.105469 206.78125 L 275.425781 206.828125 C 275.921875 206.835938 276.074219 207.347656 276.074219 207.734375 C 276.074219 208.519531 275.664062 208.648438 275.21875 208.71875 L 269.09375 209.714844 C 268.539062 208.703125 267.878906 207.710938 267.105469 206.78125 Z M 244.933594 206.78125 C 244.160156 207.710938 243.5 208.703125 242.945312 209.714844 L 236.8125 208.71875 C 235.988281 208.585938 235.949219 208.261719 235.949219 207.734375 C 235.949219 207.199219 236.316406 206.835938 236.601562 206.828125 Z M 256.015625 204.109375 C 261.878906 204.109375 265.25 207.757812 267.199219 211.765625 C 268.121094 213.660156 268.773438 215.867188 269.238281 218.28125 C 269.765625 220.972656 269.941406 223.667969 269.628906 226.429688 C 268.902344 232.773438 263.363281 237.816406 256.015625 237.816406 C 248.675781 237.816406 243.136719 232.773438 242.417969 226.429688 C 242.101562 223.667969 242.265625 220.972656 242.789062 218.28125 C 243.257812 215.867188 243.917969 213.660156 244.835938 211.765625 C 246.78125 207.757812 250.152344 204.109375 256.015625 204.109375 Z M 256.015625 190.472656 C 256.59375 190.472656 257.171875 191.058594 257.316406 192.242188 L 258.488281 201.65625 C 257.707031 201.523438 256.878906 201.453125 256.015625 201.453125 C 255.15625 201.453125 254.328125 201.523438 253.539062 201.65625 L 254.722656 192.242188 C 254.875 191.066406 255.445312 190.472656 256.015625 190.472656 Z M 256.015625 187.535156 C 254.859375 187.535156 253.832031 188.144531 253.171875 188.976562 C 252.515625 189.8125 252.15625 190.867188 252.085938 191.996094 L 250.769531 202.441406 C 249.65625 202.878906 248.648438 203.453125 247.726562 204.117188 L 236.59375 204.175781 C 235.644531 204.183594 234.804688 204.660156 234.261719 205.273438 C 233.71875 205.890625 233.40625 206.636719 233.320312 207.441406 C 233.230469 208.246094 233.382812 209.132812 233.910156 209.882812 C 234.4375 210.628906 235.328125 211.175781 236.386719 211.347656 L 241.933594 212.246094 C 241.371094 213.675781 240.832031 215.117188 240.441406 216.664062 L 211.167969 214.339844 L 209.066406 210.941406 C 208.472656 209.980469 207.597656 209.699219 206.742188 209.6875 C 206.457031 209.6875 206.179688 209.71875 205.917969 209.761719 C 204.851562 209.9375 204.089844 211.050781 204.089844 212.277344 L 204.089844 216.941406 C 204.089844 217.949219 204.390625 218.96875 205.089844 219.71875 C 205.785156 220.457031 206.757812 220.859375 207.871094 221.027344 L 222.460938 223.253906 C 221.277344 224.449219 220.535156 226.097656 220.535156 227.90625 C 220.535156 231.511719 223.4375 234.476562 227 234.476562 C 230.566406 234.476562 233.460938 231.511719 233.460938 227.90625 C 233.460938 226.777344 233.152344 225.730469 232.65625 224.800781 L 239.714844 225.875 C 239.734375 226.164062 239.742188 226.449219 239.769531 226.734375 C 240.648438 234.445312 247.445312 240.472656 256.011719 240.472656 C 264.589844 240.472656 271.375 234.445312 272.257812 226.734375 C 272.285156 226.449219 272.292969 226.160156 272.3125 225.875 L 279.371094 224.800781 C 278.871094 225.730469 278.566406 226.777344 278.566406 227.90625 C 278.566406 231.511719 281.460938 234.476562 285.027344 234.476562 C 288.585938 234.476562 291.492188 231.511719 291.492188 227.90625 C 291.492188 226.097656 290.75 224.449219 289.566406 223.253906 L 304.164062 221.027344 C 305.269531 220.859375 306.242188 220.457031 306.933594 219.71875 C 307.636719 218.96875 307.9375 217.949219 307.9375 216.941406 L 307.9375 212.277344 C 307.9375 211.054688 307.175781 209.941406 306.109375 209.761719 C 305.84375 209.71875 305.566406 209.6875 305.28125 209.6875 C 304.433594 209.695312 303.550781 209.980469 302.957031 210.941406 L 300.859375 214.339844 L 271.585938 216.664062 C 271.191406 215.117188 270.664062 213.675781 270.09375 212.246094 L 275.644531 211.347656 C 276.695312 211.179688 277.59375 210.628906 278.121094 209.882812 C 278.636719 209.136719 278.792969 208.25 278.703125 207.445312 C 278.625 206.636719 278.3125 205.890625 277.761719 205.277344 C 277.222656 204.660156 276.394531 204.183594 275.445312 204.179688 L 264.304688 204.117188 C 263.382812 203.445312 262.375 202.875 261.253906 202.433594 L 259.945312 192 C 259.800781 190.878906 259.515625 189.816406 258.859375 188.980469 C 258.199219 188.144531 257.179688 187.535156 256.015625 187.535156 Z M 256.015625 187.535156 " fill-opacity="1" fill-rule="evenodd"/></g><path fill="#ffffff" d="M 296.84375 283.628906 C 296.125 283.9375 295.652344 284.113281 294.964844 284.496094 C 293.746094 285.167969 293.546875 286.457031 293.605469 287.8125 C 294.839844 287.519531 296.859375 287.042969 297.496094 286.671875 C 297.699219 286.550781 297.925781 286.148438 297.988281 285.542969 C 298.054688 284.925781 297.902344 284.195312 297.816406 283.886719 C 297.652344 283.355469 297.09375 283.519531 296.84375 283.628906 Z M 296.230469 281.59375 C 296.996094 281.359375 297.765625 281.359375 298.414062 281.644531 C 299.066406 281.9375 299.527344 282.476562 299.773438 283.066406 C 300.09375 283.84375 300.214844 284.789062 300.105469 285.777344 C 299.992188 286.773438 299.613281 287.890625 298.5625 288.507812 C 297.164062 289.324219 295.023438 289.664062 293.910156 289.929688 C 293.464844 290.042969 292.96875 290.046875 292.523438 289.828125 C 292.070312 289.609375 291.714844 289.203125 291.609375 288.789062 C 291.03125 286.503906 291.875 284.226562 293.625 282.839844 C 294.519531 282.144531 295.457031 281.828125 296.230469 281.59375 Z M 296.230469 281.59375 " fill-opacity="1" fill-rule="nonzero"/><path fill="#ffffff" d="M 276.761719 286.992188 L 287.046875 286.992188 C 287.464844 286.992188 287.667969 287.195312 287.710938 287.378906 L 288.238281 289.660156 C 288.378906 290.308594 288.277344 290.640625 288.164062 290.777344 C 288.058594 290.925781 287.808594 291.09375 287.132812 291.09375 L 276.679688 291.09375 C 276.003906 291.09375 275.753906 290.925781 275.644531 290.777344 C 275.527344 290.640625 275.425781 290.316406 275.570312 289.644531 L 276.097656 287.378906 C 276.183594 287.007812 276.585938 286.992188 276.761719 286.992188 Z M 276.761719 284.867188 C 276.191406 284.867188 275.605469 284.992188 275.09375 285.328125 C 274.574219 285.671875 274.1875 286.25 274.035156 286.898438 L 273.492188 289.195312 C 273.253906 290.242188 273.363281 291.292969 273.976562 292.082031 C 274.589844 292.871094 275.597656 293.210938 276.679688 293.210938 L 287.136719 293.210938 C 288.21875 293.210938 289.21875 292.871094 289.839844 292.082031 C 290.453125 291.292969 290.558594 290.242188 290.316406 289.195312 L 289.777344 286.898438 C 289.625 286.25 289.234375 285.675781 288.714844 285.328125 C 288.203125 284.992188 287.625 284.867188 287.050781 284.867188 Z M 276.761719 284.867188 " fill-opacity="1" fill-rule="nonzero"/><path fill="#ffffff" d="M 267.53125 255.027344 L 296.273438 255.027344 C 296.894531 260.394531 297.539062 271.984375 297.597656 276.839844 L 266.214844 276.839844 C 266.273438 271.984375 266.902344 260.394531 267.53125 255.027344 Z M 266.535156 252.902344 C 266 252.894531 265.546875 253.292969 265.476562 253.824219 C 264.765625 259.304688 264.035156 273.214844 264.035156 277.90625 C 264.042969 278.492188 264.511719 278.960938 265.097656 278.96875 L 298.714844 278.96875 C 299.300781 278.960938 299.765625 278.492188 299.777344 277.90625 C 299.777344 273.207031 299.039062 259.296875 298.320312 253.824219 C 298.253906 253.292969 297.804688 252.894531 297.265625 252.902344 Z M 266.535156 252.902344 " fill-opacity="1" fill-rule="nonzero"/><g clip-path="url(#id4)"><path fill="#ffffff" d="M 295.726562 298.101562 L 300.59375 298.101562 L 300.59375 300.644531 C 300.59375 300.785156 300.503906 300.863281 300.351562 300.863281 C 300.351562 300.863281 297.425781 300.863281 295.957031 300.863281 C 295.804688 300.863281 295.722656 300.769531 295.722656 300.667969 L 295.722656 298.101562 Z M 263.222656 298.101562 L 268.09375 298.101562 L 268.09375 300.644531 C 268.09375 300.773438 268.003906 300.863281 267.851562 300.863281 L 263.457031 300.863281 C 263.3125 300.863281 263.222656 300.785156 263.222656 300.644531 Z M 309.386719 255.503906 L 311.066406 255.804688 C 311.308594 255.871094 311.375 255.933594 311.453125 256.0625 C 311.542969 256.179688 311.644531 256.421875 311.644531 256.875 L 311.644531 262.222656 C 311.644531 262.992188 311.492188 263.0625 311.105469 263.261719 C 310.746094 263.453125 310.058594 263.539062 309.410156 263.554688 Z M 254.421875 255.503906 L 254.398438 263.554688 C 253.75 263.539062 253.070312 263.453125 252.703125 263.261719 C 252.324219 263.0625 252.164062 262.992188 252.164062 262.222656 L 252.164062 256.875 C 252.164062 256.417969 252.265625 256.175781 252.355469 256.0625 C 252.433594 255.9375 252.507812 255.871094 252.746094 255.804688 Z M 267.542969 246.488281 L 296.273438 246.488281 C 297.480469 246.488281 298.320312 246.933594 299.058594 247.742188 C 299.789062 248.546875 300.359375 249.753906 300.644531 251.117188 C 300.796875 251.851562 300.929688 252.554688 301.007812 253.175781 C 302.105469 261.765625 303.007812 278.289062 303.007812 282.070312 L 303.007812 292.367188 C 303.007812 293.414062 302.894531 293.980469 302.699219 294.359375 C 302.523438 294.695312 302.164062 295.027344 301.515625 295.445312 L 262.304688 295.445312 C 261.644531 295.027344 261.292969 294.695312 261.117188 294.359375 C 260.914062 293.980469 260.804688 293.414062 260.804688 292.367188 L 260.804688 282.070312 C 260.804688 278.289062 261.710938 261.789062 262.796875 253.191406 C 262.886719 252.496094 263.039062 251.757812 263.164062 251.117188 C 263.441406 249.757812 264.019531 248.546875 264.75 247.742188 C 265.488281 246.933594 266.335938 246.488281 267.542969 246.488281 Z M 267.542969 243.828125 C 265.605469 243.828125 263.945312 244.683594 262.792969 245.945312 C 261.644531 247.210938 260.941406 248.839844 260.578125 250.550781 C 260.496094 250.917969 260.429688 251.351562 260.359375 251.761719 L 252.179688 253.210938 C 252.132812 253.21875 252.097656 253.226562 252.058594 253.234375 C 251.308594 253.429688 250.605469 253.898438 250.152344 254.566406 C 249.703125 255.226562 249.515625 256.03125 249.515625 256.875 L 249.515625 262.222656 C 249.515625 263.789062 250.410156 265.054688 251.460938 265.601562 C 252.511719 266.160156 253.617188 266.234375 254.492188 266.234375 C 255.078125 266.234375 255.6875 266.109375 256.210938 265.699219 C 256.746094 265.289062 257.050781 264.5625 257.050781 263.933594 L 257.074219 255.035156 L 259.984375 254.523438 C 258.96875 263.574219 258.15625 278.121094 258.15625 282.070312 L 258.15625 292.367188 C 258.15625 293.574219 258.257812 294.628906 258.761719 295.597656 C 259.132812 296.304688 259.859375 296.789062 260.570312 297.304688 L 260.570312 300.644531 C 260.570312 302.21875 261.882812 303.519531 263.457031 303.519531 L 267.851562 303.519531 C 269.421875 303.519531 270.746094 302.226562 270.746094 300.644531 L 270.746094 298.101562 L 293.070312 298.101562 L 293.070312 300.621094 C 293.042969 302.226562 294.382812 303.523438 295.957031 303.523438 L 300.351562 303.523438 C 301.921875 303.523438 303.246094 302.21875 303.246094 300.644531 L 303.246094 297.289062 C 303.949219 296.785156 304.679688 296.300781 305.042969 295.597656 C 305.554688 294.632812 305.65625 293.574219 305.65625 292.367188 L 305.65625 282.070312 C 305.65625 278.121094 304.839844 263.574219 303.820312 254.523438 L 306.730469 255.035156 L 306.753906 263.933594 C 306.753906 264.566406 307.070312 265.289062 307.59375 265.699219 C 308.121094 266.109375 308.726562 266.234375 309.3125 266.234375 C 310.191406 266.234375 311.292969 266.160156 312.347656 265.605469 C 313.398438 265.054688 314.296875 263.789062 314.296875 262.222656 L 314.296875 256.875 C 314.296875 256.03125 314.105469 255.226562 313.652344 254.570312 C 313.199219 253.902344 312.5 253.433594 311.746094 253.234375 C 311.707031 253.226562 311.671875 253.21875 311.636719 253.210938 L 303.449219 251.761719 C 303.375 251.351562 303.308594 250.917969 303.230469 250.554688 C 302.863281 248.839844 302.164062 247.214844 301.011719 245.945312 C 299.867188 244.6875 298.207031 243.832031 296.269531 243.832031 L 267.542969 243.832031 Z M 267.542969 243.828125 " fill-opacity="1" fill-rule="nonzero"/></g><g clip-path="url(#id5)"><path fill="#ffffff" d="M 211.46875 293.199219 L 234.78125 293.199219 L 236.292969 296.621094 L 209.945312 296.621094 Z M 214.011719 287.460938 L 232.234375 287.460938 L 233.601562 290.542969 L 212.644531 290.542969 Z M 223.117188 240.359375 C 225.40625 240.359375 228.542969 240.4375 231.433594 240.695312 C 234.320312 240.953125 237.03125 241.464844 238.113281 242 C 241.394531 243.640625 242.921875 246.335938 242.921875 249.175781 L 242.921875 278.804688 C 242.921875 280.042969 242.265625 281.621094 241.183594 282.816406 C 240.09375 284.007812 238.652344 284.800781 237.167969 284.800781 L 209.0625 284.800781 C 207.582031 284.800781 206.136719 284.007812 205.054688 282.816406 C 203.96875 281.621094 203.316406 280.042969 203.316406 278.804688 L 203.316406 249.175781 C 203.316406 246.335938 204.835938 243.640625 208.121094 242 C 209.203125 241.464844 211.929688 240.953125 214.816406 240.695312 C 217.703125 240.4375 220.832031 240.359375 223.117188 240.359375 Z M 223.117188 237.707031 C 220.773438 237.707031 217.585938 237.78125 214.574219 238.042969 C 211.570312 238.316406 208.808594 238.6875 206.933594 239.625 C 202.886719 241.65625 200.660156 245.339844 200.660156 249.175781 L 200.660156 278.804688 C 200.660156 280.898438 201.613281 282.984375 203.097656 284.609375 C 204.582031 286.242188 206.671875 287.460938 209.0625 287.460938 L 211.101562 287.460938 L 204.792969 301.699219 C 204.078125 303.324219 206.503906 304.402344 207.21875 302.78125 L 208.769531 299.28125 L 237.46875 299.28125 L 239.019531 302.78125 C 239.707031 304.464844 242.226562 303.34375 241.4375 301.699219 L 235.136719 287.460938 L 237.167969 287.460938 C 239.5625 287.460938 241.667969 286.246094 243.148438 284.609375 C 244.632812 282.984375 245.574219 280.898438 245.574219 278.804688 L 245.574219 249.175781 C 245.574219 245.339844 243.355469 241.65625 239.296875 239.625 C 237.425781 238.6875 234.671875 238.316406 231.65625 238.042969 C 228.652344 237.78125 225.472656 237.707031 223.117188 237.707031 Z M 223.117188 237.707031 " fill-opacity="1" fill-rule="nonzero"/></g><path fill="#ffffff" d="M 224.179688 249.859375 L 236.773438 249.859375 C 237.710938 249.859375 238.433594 250.582031 238.433594 251.519531 L 238.433594 260.851562 C 238.433594 261.796875 237.710938 262.515625 236.773438 262.515625 L 224.179688 262.515625 Z M 209.457031 249.859375 L 222.0625 249.859375 L 222.0625 262.515625 L 209.457031 262.515625 C 208.523438 262.515625 207.796875 261.796875 207.796875 260.851562 L 207.796875 251.519531 C 207.796875 250.582031 208.523438 249.859375 209.457031 249.859375 Z M 209.457031 247.734375 C 207.378906 247.734375 205.683594 249.4375 205.683594 251.519531 L 205.683594 260.851562 C 205.683594 262.929688 207.378906 264.636719 209.457031 264.636719 L 236.777344 264.636719 C 238.851562 264.636719 240.5625 262.929688 240.5625 260.851562 L 240.5625 251.519531 C 240.5625 249.4375 238.851562 247.734375 236.777344 247.734375 Z M 209.457031 247.734375 " fill-opacity="1" fill-rule="evenodd"/><path fill="#ffffff" d="M 216.957031 280.203125 C 215.546875 280.28125 215.65625 282.40625 217.074219 282.332031 L 229.171875 282.332031 C 229.757812 282.332031 230.242188 281.855469 230.242188 281.269531 C 230.242188 280.679688 229.757812 280.203125 229.171875 280.203125 L 217.074219 280.203125 C 217.039062 280.203125 216.992188 280.203125 216.957031 280.203125 Z M 216.957031 280.203125 " fill-opacity="1" fill-rule="nonzero"/><path fill="#ffffff" d="M 209.386719 270.199219 C 210.277344 270.359375 211.300781 270.8125 212.167969 271.398438 C 213.046875 271.992188 213.753906 272.757812 214.097656 274.054688 C 214.269531 274.679688 214.113281 275.046875 213.929688 275.265625 C 213.753906 275.476562 213.550781 275.550781 213.285156 275.492188 L 208.492188 274.070312 C 208.183594 273.878906 207.914062 273.351562 207.824219 272.613281 C 207.746094 271.867188 207.863281 270.972656 208.058594 270.613281 C 208.425781 269.925781 208.863281 270.101562 209.386719 270.199219 Z M 210.007812 268.160156 C 209.136719 267.898438 208.292969 267.898438 207.582031 268.210938 C 206.871094 268.527344 206.371094 269.140625 206.105469 269.792969 C 205.746094 270.648438 205.605469 271.726562 205.730469 272.855469 C 205.855469 273.976562 206.144531 275.515625 207.425781 275.902344 L 212.792969 277.554688 C 213.808594 277.871094 214.902344 277.410156 215.5625 276.632812 C 216.21875 275.851562 216.46875 274.699219 216.15625 273.507812 C 215.664062 271.683594 214.542969 270.429688 213.355469 269.632812 C 212.164062 268.832031 210.90625 268.4375 210.007812 268.160156 Z M 210.007812 268.160156 " fill-opacity="1" fill-rule="nonzero"/><path fill="#ffffff" d="M 262.804688 212.929688 L 264.449219 218.453125 C 262.265625 219.148438 259.566406 219.71875 257.074219 219.96875 L 257.074219 214.519531 C 258.96875 214.246094 260.972656 213.648438 262.804688 212.929688 Z M 249.226562 212.929688 C 251.058594 213.648438 253.03125 214.167969 254.957031 214.402344 L 254.957031 219.859375 C 252.433594 219.632812 249.757812 219.140625 247.574219 218.453125 Z M 263.523438 210.59375 C 263.488281 210.59375 263.441406 210.59375 263.40625 210.597656 C 263.296875 210.613281 263.191406 210.644531 263.09375 210.695312 C 261.023438 211.644531 258.246094 212.347656 256.015625 212.515625 C 253.777344 212.347656 251.015625 211.644531 248.945312 210.695312 C 248.777344 210.621094 248.601562 210.585938 248.429688 210.597656 C 247.984375 210.628906 247.609375 210.925781 247.484375 211.351562 L 245.210938 218.949219 C 245.050781 219.484375 245.328125 220.050781 245.855469 220.25 C 248.734375 221.320312 252.660156 222.007812 256.015625 222.007812 C 259.378906 222.007812 263.289062 221.320312 266.171875 220.25 C 266.703125 220.058594 266.988281 219.484375 266.828125 218.949219 L 264.554688 211.351562 C 264.421875 210.898438 264 210.585938 263.523438 210.59375 Z M 263.523438 210.59375 " fill-opacity="1" fill-rule="evenodd"/><path fill="#ffffff" d="M 267.332031 283.628906 C 268.046875 283.9375 268.523438 284.113281 269.210938 284.496094 C 270.433594 285.167969 270.628906 286.457031 270.5625 287.8125 C 269.328125 287.519531 267.316406 287.042969 266.683594 286.671875 C 266.46875 286.550781 266.25 286.148438 266.183594 285.542969 C 266.117188 284.925781 266.273438 284.195312 266.359375 283.886719 C 266.519531 283.355469 267.082031 283.519531 267.332031 283.628906 Z M 267.945312 281.59375 C 267.171875 281.359375 266.410156 281.359375 265.761719 281.644531 C 265.109375 281.9375 264.644531 282.476562 264.402344 283.066406 C 264.082031 283.84375 263.964844 284.789062 264.070312 285.777344 C 264.183594 286.773438 264.5625 287.890625 265.613281 288.507812 C 267.011719 289.324219 269.152344 289.664062 270.265625 289.929688 C 270.710938 290.042969 271.207031 290.046875 271.652344 289.828125 C 272.105469 289.609375 272.464844 289.203125 272.566406 288.789062 C 273.144531 286.503906 272.296875 284.226562 270.550781 282.839844 C 269.65625 282.144531 268.722656 281.828125 267.945312 281.59375 Z M 267.945312 281.59375 " fill-opacity="1" fill-rule="nonzero"/><path fill="#ffffff" d="M 236.847656 270.199219 C 235.957031 270.359375 234.941406 270.8125 234.0625 271.398438 C 233.1875 271.992188 232.484375 272.757812 232.132812 274.054688 C 231.972656 274.679688 232.125 275.046875 232.300781 275.265625 C 232.484375 275.476562 232.691406 275.550781 232.945312 275.492188 L 237.738281 274.070312 C 238.046875 273.878906 238.324219 273.351562 238.402344 272.613281 C 238.484375 271.867188 238.375 270.972656 238.175781 270.613281 C 237.804688 269.925781 237.375 270.101562 236.847656 270.199219 Z M 236.226562 268.160156 C 237.097656 267.898438 237.945312 267.898438 238.652344 268.210938 C 239.363281 268.527344 239.867188 269.140625 240.136719 269.792969 C 240.488281 270.648438 240.636719 271.726562 240.507812 272.855469 C 240.386719 273.976562 240.085938 275.515625 238.804688 275.902344 L 233.441406 277.554688 C 232.425781 277.871094 231.335938 277.410156 230.675781 276.632812 C 230.011719 275.851562 229.761719 274.699219 230.085938 273.507812 C 230.570312 271.683594 231.691406 270.429688 232.886719 269.632812 C 234.070312 268.832031 235.335938 268.4375 236.226562 268.160156 Z M 236.226562 268.160156 " fill-opacity="1" fill-rule="nonzero"/><g clip-path="url(#id6)"><g clip-path="url(#id7)"><g clip-path="url(#id8)"><g clip-path="url(#id9)"><path fill="#ffffff" d="M 94.207031 191.074219 C 94.101562 191.082031 94.023438 191.140625 93.972656 191.234375 C 93.601562 191.234375 93.398438 190.667969 92.949219 190.933594 C 91.789062 190.84375 91.359375 191.628906 91.054688 192.539062 C 90.203125 195.09375 89.785156 197.734375 89.53125 200.402344 C 88.621094 209.960938 89.746094 219.273438 92.539062 228.476562 C 97.40625 244.550781 107.050781 257.144531 120.191406 267.242188 C 126.285156 271.921875 133.078125 275.453125 140.039062 278.664062 C 144.128906 280.554688 148.316406 282.191406 152.46875 283.929688 C 152.644531 283.925781 152.820312 283.921875 152.996094 283.917969 C 153.132812 284.0625 153.328125 284.1875 153.382812 284.355469 C 153.382812 284.355469 153.382812 284.355469 153.382812 284.363281 C 153.417969 284.496094 153.226562 284.550781 153.078125 284.488281 C 151.367188 284.929688 149.621094 285 147.871094 284.972656 C 146.675781 284.957031 145.511719 285.03125 144.382812 285.453125 C 141.804688 285.398438 140.21875 286.695312 139.878906 289.023438 C 144.417969 291.445312 149.210938 291.171875 154.058594 290.496094 C 155.863281 290.246094 157.675781 290.117188 159.492188 289.960938 C 163.835938 289.59375 163.183594 289.402344 164.714844 286.203125 C 165.058594 285.488281 165.230469 284.703125 165.320312 283.910156 C 165.355469 283.617188 165.359375 283.34375 165.15625 283.109375 C 165.5 282.269531 165.011719 281.6875 164.503906 281.144531 C 163 279.53125 161.480469 277.9375 159.960938 276.335938 C 159.851562 275.824219 159.480469 275.511719 159.089844 275.210938 C 159 274.691406 158.617188 274.382812 158.257812 274.0625 C 158.253906 273.683594 157.945312 273.46875 157.765625 273.1875 C 155.3125 269.390625 153.320312 265.375 152.023438 261.03125 C 151.925781 260.703125 151.800781 260.386719 151.6875 260.0625 C 151.558594 259.679688 151.414062 259.242188 150.953125 259.246094 C 150.601562 259.25 150.277344 259.613281 150.238281 259.910156 C 150.070312 261.21875 149.125 262.207031 148.847656 263.457031 C 148.726562 264.015625 148.839844 264.574219 148.964844 265.140625 C 149.914062 269.519531 151.609375 273.613281 153.726562 277.539062 C 153.917969 277.890625 154.167969 278.222656 154.277344 278.597656 C 154.40625 279.035156 154.0625 279.179688 153.691406 279.226562 C 153.433594 278.847656 153.089844 278.722656 152.65625 278.824219 C 152.355469 278.523438 152.042969 278.257812 151.570312 278.382812 C 151.539062 278.273438 151.472656 278.242188 151.367188 278.289062 C 151.089844 277.996094 150.789062 277.769531 150.347656 277.863281 C 150.117188 277.703125 149.902344 277.511719 149.648438 277.398438 C 146.863281 276.125 144.058594 274.902344 141.289062 273.601562 C 138.773438 272.417969 136.296875 271.160156 133.808594 269.933594 C 133.1875 269.53125 132.585938 269.105469 131.957031 268.726562 C 125.84375 265.027344 120.269531 260.648438 115.363281 255.441406 C 113.609375 253.582031 111.917969 251.671875 110.199219 249.785156 C 110.089844 249.242188 109.679688 248.933594 109.277344 248.621094 C 109.183594 248.097656 108.800781 247.800781 108.417969 247.496094 C 108.363281 246.992188 107.976562 246.730469 107.648438 246.417969 C 107.644531 246.082031 107.449219 245.875 107.175781 245.722656 C 107.164062 245.597656 107.105469 245.519531 106.984375 245.484375 C 106.972656 245.113281 106.679688 244.894531 106.503906 244.613281 C 105.660156 243.214844 104.570312 241.976562 103.894531 240.46875 C 103.703125 240.449219 103.347656 240.140625 103.539062 240.730469 C 103.664062 241.125 103.59375 241.214844 103.457031 241.199219 C 103.335938 241.183594 103.160156 241.085938 103.023438 241.027344 C 100.492188 236.527344 98.535156 231.777344 96.890625 226.894531 C 96.777344 226.425781 96.664062 225.957031 96.554688 225.488281 C 95.890625 222.699219 95.226562 219.90625 94.5625 217.117188 C 94.613281 217.007812 94.621094 216.90625 94.589844 216.8125 C 94.570312 216.746094 94.535156 216.6875 94.484375 216.628906 C 94.566406 216.449219 94.535156 216.292969 94.40625 216.152344 C 94.496094 215.972656 94.464844 215.816406 94.328125 215.671875 C 94.421875 215.496094 94.390625 215.339844 94.253906 215.195312 C 94.347656 215.015625 94.328125 214.855469 94.1875 214.714844 C 94.285156 214.539062 94.261719 214.378906 94.121094 214.238281 L 94.121094 214.230469 C 94.222656 214.0625 94.199219 213.898438 94.0625 213.761719 L 94.0625 213.753906 C 94.054688 213.597656 94.035156 213.4375 94.007812 213.285156 L 94.007812 213.265625 C 94.105469 213.097656 94.089844 212.941406 93.953125 212.796875 L 93.953125 212.78125 C 94.050781 212.613281 94.035156 212.457031 93.898438 212.3125 L 93.894531 212.296875 C 93.894531 212.296875 93.898438 212.289062 93.898438 212.289062 C 93.898438 212.289062 93.894531 212.296875 93.894531 212.296875 C 94 212.128906 93.984375 211.96875 93.847656 211.824219 L 93.84375 211.816406 C 93.949219 211.648438 93.933594 211.488281 93.796875 211.34375 L 93.796875 211.335938 C 93.898438 211.164062 93.882812 211.003906 93.75 210.855469 C 93.699219 209.367188 93.652344 207.882812 93.601562 206.394531 C 93.335938 205.625 93.457031 204.832031 93.46875 204.050781 C 93.550781 204.011719 93.632812 203.992188 93.710938 203.988281 C 93.839844 203.984375 93.953125 204.015625 94.074219 204.089844 C 94.144531 203.503906 94.261719 202.917969 94.058594 202.332031 C 93.980469 202.160156 93.929688 201.980469 93.953125 201.789062 C 93.988281 201.96875 94.023438 202.148438 94.058594 202.332031 C 94.121094 202.148438 94.15625 201.964844 93.992188 201.828125 C 94.179688 201.59375 94.191406 201.335938 94.097656 201.0625 C 94.21875 200.914062 94.242188 200.761719 94.117188 200.601562 C 94.199219 200.421875 94.234375 200.246094 94.113281 200.070312 C 94.167969 199.988281 94.191406 199.902344 94.15625 199.800781 C 94.328125 199.238281 94.375 198.671875 94.285156 198.09375 C 94.382812 197.6875 94.496094 197.285156 94.378906 196.867188 C 94.539062 196.636719 94.5 196.371094 94.488281 196.117188 C 94.886719 194.527344 94.988281 192.878906 95.71875 191.292969 C 95.105469 191.304688 94.734375 190.75 94.207031 191.074219 Z M 151.152344 278.550781 C 151.152344 278.550781 151.152344 278.550781 151.148438 278.546875 C 151.144531 278.546875 151.148438 278.550781 151.148438 278.550781 C 151.144531 278.546875 151.144531 278.542969 151.144531 278.542969 C 151.144531 278.542969 151.148438 278.546875 151.148438 278.546875 C 151.152344 278.542969 151.15625 278.539062 151.15625 278.535156 C 151.15625 278.542969 151.15625 278.546875 151.152344 278.550781 Z M 92.917969 212.007812 C 92.914062 212.046875 92.910156 212.085938 92.910156 212.121094 C 92.90625 212.113281 92.902344 212.101562 92.902344 212.09375 C 92.898438 212.0625 92.894531 212.027344 92.890625 211.992188 C 92.894531 211.996094 92.90625 212 92.917969 212.007812 Z M 94.542969 217.097656 C 94.542969 217.101562 94.539062 217.097656 94.535156 217.101562 C 94.523438 217.097656 94.507812 217.105469 94.496094 217.101562 L 94.453125 217.101562 L 94.539062 217.097656 C 94.542969 217.09375 94.539062 217.089844 94.542969 217.085938 C 94.539062 217.089844 94.542969 217.09375 94.542969 217.097656 Z M 92.757812 211.921875 C 92.800781 211.945312 92.847656 211.96875 92.882812 211.988281 C 92.886719 212.019531 92.890625 212.054688 92.894531 212.085938 C 92.878906 212.015625 92.832031 211.960938 92.757812 211.921875 Z M 92.910156 212.304688 C 92.914062 212.34375 92.917969 212.382812 92.917969 212.417969 C 92.914062 212.421875 92.917969 212.425781 92.914062 212.425781 C 92.914062 212.386719 92.914062 212.34375 92.910156 212.304688 Z M 92.527344 193.671875 C 92.523438 193.667969 92.523438 193.664062 92.519531 193.660156 C 92.519531 193.660156 92.519531 193.652344 92.519531 193.652344 C 92.523438 193.648438 92.523438 193.644531 92.527344 193.640625 C 92.53125 193.652344 92.527344 193.660156 92.527344 193.671875 Z M 92.351562 194.378906 C 92.347656 194.382812 92.339844 194.390625 92.339844 194.398438 C 92.347656 194.394531 92.347656 194.382812 92.351562 194.378906 Z M 93.785156 201.546875 C 93.753906 201.53125 93.722656 201.519531 93.679688 201.511719 C 93.695312 201.492188 93.707031 201.476562 93.722656 201.457031 C 93.742188 201.488281 93.765625 201.515625 93.785156 201.546875 Z M 94.011719 200.277344 C 94.007812 200.21875 94.023438 200.15625 94.0625 200.09375 C 94.0625 200.09375 94.0625 200.09375 94.0625 200.097656 C 94.035156 200.160156 94.011719 200.21875 94.011719 200.277344 Z M 94.011719 200.277344 " fill-opacity="1" fill-rule="nonzero"/></g></g></g></g><g clip-path="url(#id10)"><g clip-path="url(#id11)"><g clip-path="url(#id12)"><g clip-path="url(#id13)"><path fill="#ffffff" d="M 93.996094 213.257812 C 94.015625 213.414062 94.035156 213.570312 94.050781 213.726562 C 94.152344 213.554688 94.132812 213.398438 93.996094 213.257812 Z M 93.996094 213.257812 " fill-opacity="1" fill-rule="nonzero"/></g></g></g></g><g clip-path="url(#id14)"><g clip-path="url(#id15)"><g clip-path="url(#id16)"><g clip-path="url(#id17)"><path fill="#ffffff" d="M 292.410156 178.039062 C 292.511719 178.011719 292.578125 177.941406 292.609375 177.839844 C 292.976562 177.777344 293.273438 178.300781 293.675781 177.957031 C 294.828125 177.84375 295.113281 176.996094 295.257812 176.046875 C 295.648438 173.382812 295.597656 170.707031 295.386719 168.035156 C 294.613281 158.464844 291.875 149.496094 287.519531 140.917969 C 279.921875 125.941406 268.226562 115.226562 253.523438 107.578125 C 246.707031 104.035156 239.402344 101.746094 231.988281 99.796875 C 227.628906 98.648438 223.21875 97.769531 218.828125 96.78125 C 218.652344 96.816406 218.484375 96.851562 218.3125 96.886719 C 218.152344 96.769531 217.9375 96.683594 217.855469 96.523438 C 217.855469 96.523438 217.855469 96.523438 217.855469 96.515625 C 217.792969 96.390625 217.972656 96.304688 218.132812 96.339844 C 219.738281 95.605469 221.445312 95.234375 223.171875 94.953125 C 224.355469 94.757812 225.488281 94.484375 226.523438 93.871094 C 229.070312 93.476562 230.40625 91.921875 230.335938 89.570312 C 225.445312 87.976562 220.773438 89.082031 216.117188 90.59375 C 214.382812 91.15625 212.621094 91.597656 210.859375 92.070312 C 206.648438 93.191406 207.324219 93.269531 206.371094 96.683594 C 206.160156 97.449219 206.125 98.25 206.175781 99.046875 C 206.195312 99.34375 206.238281 99.609375 206.480469 99.808594 C 206.285156 100.691406 206.871094 101.179688 207.464844 101.625 C 209.226562 102.953125 211 104.253906 212.773438 105.566406 C 212.972656 106.054688 213.394531 106.296875 213.828125 106.523438 C 214.011719 107.019531 214.441406 107.257812 214.851562 107.511719 C 214.921875 107.882812 215.261719 108.042969 215.488281 108.285156 C 218.566406 111.59375 221.226562 115.203125 223.265625 119.253906 C 223.421875 119.558594 223.597656 119.847656 223.765625 120.144531 C 223.960938 120.503906 224.179688 120.90625 224.632812 120.820312 C 224.976562 120.757812 225.230469 120.34375 225.21875 120.042969 C 225.15625 118.726562 225.914062 117.585938 225.96875 116.308594 C 225.992188 115.738281 225.78125 115.207031 225.558594 114.671875 C 223.859375 110.523438 221.476562 106.792969 218.703125 103.292969 C 218.457031 102.980469 218.152344 102.703125 217.976562 102.351562 C 217.773438 101.941406 218.089844 101.738281 218.445312 101.628906 C 218.765625 101.957031 219.128906 102.019531 219.539062 101.84375 C 219.882812 102.085938 220.238281 102.292969 220.679688 102.085938 C 220.730469 102.191406 220.804688 102.210938 220.898438 102.144531 C 221.21875 102.386719 221.558594 102.554688 221.976562 102.386719 C 222.234375 102.503906 222.476562 102.65625 222.746094 102.722656 C 225.710938 103.488281 228.6875 104.203125 231.640625 105.003906 C 234.324219 105.726562 236.980469 106.53125 239.648438 107.304688 C 240.328125 107.597656 240.992188 107.910156 241.679688 108.171875 C 248.34375 110.746094 254.597656 114.085938 260.339844 118.355469 C 262.386719 119.878906 264.390625 121.464844 266.410156 123.023438 C 266.617188 123.539062 267.070312 123.769531 267.523438 124.007812 C 267.707031 124.507812 268.136719 124.734375 268.566406 124.964844 C 268.707031 125.453125 269.132812 125.644531 269.507812 125.890625 C 269.574219 126.222656 269.804688 126.390625 270.097656 126.496094 C 270.128906 126.613281 270.203125 126.679688 270.328125 126.695312 C 270.402344 127.058594 270.730469 127.222656 270.949219 127.46875 C 272.027344 128.699219 273.316406 129.730469 274.242188 131.09375 C 274.4375 131.082031 274.839844 131.324219 274.546875 130.777344 C 274.355469 130.410156 274.410156 130.308594 274.550781 130.300781 C 274.671875 130.292969 274.859375 130.359375 275.007812 130.390625 C 278.285156 134.382812 281.039062 138.71875 283.515625 143.238281 C 283.703125 143.679688 283.898438 144.121094 284.089844 144.5625 C 285.226562 147.195312 286.371094 149.828125 287.511719 152.457031 C 287.480469 152.574219 287.492188 152.675781 287.535156 152.765625 C 287.570312 152.824219 287.613281 152.878906 287.671875 152.925781 C 287.625 153.113281 287.683594 153.265625 287.832031 153.382812 C 287.777344 153.570312 287.835938 153.722656 287.992188 153.839844 C 287.933594 154.027344 287.988281 154.179688 288.148438 154.300781 C 288.089844 154.488281 288.136719 154.644531 288.300781 154.757812 C 288.234375 154.949219 288.285156 155.101562 288.449219 155.214844 L 288.449219 155.222656 C 288.378906 155.40625 288.429688 155.5625 288.589844 155.675781 L 288.59375 155.683594 C 288.628906 155.835938 288.671875 155.988281 288.726562 156.136719 L 288.730469 156.152344 C 288.664062 156.335938 288.707031 156.484375 288.867188 156.605469 L 288.871094 156.621094 C 288.800781 156.804688 288.84375 156.953125 289.003906 157.074219 L 289.007812 157.089844 C 289.007812 157.089844 289.007812 157.09375 289.007812 157.09375 C 289.007812 157.09375 289.007812 157.089844 289.007812 157.089844 C 288.933594 157.273438 288.980469 157.425781 289.140625 157.542969 L 289.144531 157.554688 C 289.070312 157.738281 289.113281 157.890625 289.273438 158.007812 L 289.277344 158.015625 C 289.207031 158.203125 289.246094 158.359375 289.40625 158.480469 C 289.714844 159.9375 290.019531 161.394531 290.328125 162.851562 C 290.726562 163.558594 290.746094 164.359375 290.871094 165.132812 C 290.796875 165.1875 290.71875 165.21875 290.640625 165.234375 C 290.519531 165.265625 290.398438 165.253906 290.265625 165.199219 C 290.300781 165.792969 290.289062 166.386719 290.589844 166.929688 C 290.695312 167.085938 290.777344 167.25 290.785156 167.445312 C 290.722656 167.277344 290.65625 167.101562 290.589844 166.929688 C 290.558594 167.121094 290.558594 167.304688 290.742188 167.414062 C 290.597656 167.675781 290.632812 167.929688 290.773438 168.1875 C 290.679688 168.355469 290.683594 168.507812 290.835938 168.644531 C 290.785156 168.835938 290.777344 169.011719 290.929688 169.164062 C 290.890625 169.253906 290.882812 169.34375 290.9375 169.4375 C 290.863281 170.019531 290.917969 170.585938 291.105469 171.144531 C 291.078125 171.558594 291.039062 171.972656 291.226562 172.363281 C 291.113281 172.621094 291.195312 172.875 291.25 173.125 C 291.136719 174.757812 291.324219 176.398438 290.882812 178.085938 C 291.484375 177.96875 291.945312 178.449219 292.410156 178.039062 Z M 221.0625 101.847656 C 221.066406 101.851562 221.066406 101.851562 221.070312 101.855469 C 221.070312 101.851562 221.066406 101.847656 221.066406 101.847656 C 221.070312 101.851562 221.074219 101.855469 221.074219 101.855469 C 221.074219 101.855469 221.070312 101.855469 221.070312 101.855469 C 221.066406 101.859375 221.0625 101.859375 221.0625 101.867188 C 221.058594 101.859375 221.0625 101.855469 221.0625 101.847656 Z M 290.023438 157.203125 C 290.019531 157.164062 290.015625 157.125 290.011719 157.085938 C 290.015625 157.097656 290.019531 157.105469 290.023438 157.117188 C 290.035156 157.148438 290.042969 157.175781 290.050781 157.210938 C 290.046875 157.210938 290.039062 157.207031 290.023438 157.203125 Z M 287.53125 152.476562 C 287.535156 152.472656 287.539062 152.472656 287.542969 152.472656 C 287.554688 152.46875 287.566406 152.460938 287.578125 152.460938 L 287.625 152.457031 L 287.539062 152.472656 C 287.535156 152.476562 287.539062 152.480469 287.535156 152.484375 C 287.539062 152.480469 287.535156 152.476562 287.53125 152.476562 Z M 290.195312 157.257812 C 290.148438 157.246094 290.101562 157.230469 290.0625 157.214844 C 290.050781 157.183594 290.042969 157.152344 290.03125 157.121094 C 290.0625 157.1875 290.113281 157.234375 290.195312 157.257812 Z M 289.976562 156.90625 C 289.96875 156.871094 289.957031 156.832031 289.949219 156.796875 C 289.953125 156.792969 289.949219 156.792969 289.953125 156.789062 C 289.960938 156.828125 289.96875 156.871094 289.976562 156.90625 Z M 293.609375 175.1875 C 293.613281 175.191406 293.617188 175.195312 293.617188 175.199219 C 293.617188 175.199219 293.621094 175.207031 293.621094 175.207031 C 293.617188 175.210938 293.617188 175.214844 293.613281 175.21875 C 293.609375 175.210938 293.613281 175.199219 293.609375 175.1875 Z M 293.65625 174.460938 C 293.664062 174.453125 293.667969 174.449219 293.664062 174.4375 C 293.660156 174.445312 293.660156 174.457031 293.65625 174.460938 Z M 290.996094 167.65625 C 291.027344 167.664062 291.0625 167.671875 291.105469 167.671875 C 291.09375 167.691406 291.085938 167.710938 291.074219 167.730469 C 291.046875 167.703125 291.019531 167.683594 290.996094 167.65625 Z M 290.992188 168.941406 C 291.007812 169 291.003906 169.066406 290.976562 169.132812 C 290.976562 169.132812 290.976562 169.132812 290.976562 169.128906 C 290.992188 169.0625 291.003906 169.003906 290.992188 168.941406 Z M 290.992188 168.941406 " fill-opacity="1" fill-rule="nonzero"/></g></g></g></g><g clip-path="url(#id18)"><g clip-path="url(#id19)"><g clip-path="url(#id20)"><g clip-path="url(#id21)"><path fill="#ffffff" d="M 288.742188 156.160156 C 288.699219 156.007812 288.648438 155.859375 288.609375 155.707031 C 288.539062 155.894531 288.585938 156.046875 288.742188 156.160156 Z M 288.742188 156.160156 " fill-opacity="1" fill-rule="nonzero"/></g></g></g></g></svg>