<svg xmlns="http://www.w3.org/2000/svg" xmlns:xlink="http://www.w3.org/1999/xlink" width="500" zoomAndPan="magnify" viewBox="0 0 375 374.999991" height="500" preserveAspectRatio="xMidYMid meet" version="1.0"><path fill="#7ac2e2" d="M 339.996094 147.667969 C 358.90625 196.890625 361.414062 253.769531 333.984375 299.484375 C 306.542969 345.203125 244.453125 374.902344 190.320312 358.660156 C 149.3125 346.34375 120.101562 310.597656 110.171875 272.132812 C 100.242188 233.667969 107.246094 192.984375 120.9375 155.5 C 143.09375 94.8125 186.609375 42.46875 238.8125 -0.0625 C 238.796875 -0.0625 321.082031 98.445312 339.996094 147.667969 Z M 339.996094 147.667969 " fill-opacity="1" fill-rule="nonzero"/><path stroke-linecap="round" transform="matrix(1.606823, 0, 0, 1.608062, -156.737416, -160.323741)" fill="none" stroke-linejoin="round" d="M 294.160163 236.360064 C 297.070118 263.350536 274.33017 296.729718 245.150397 300.188851 " stroke="#335894" stroke-width="1.5" stroke-opacity="1" stroke-miterlimit="10"/><path stroke-linecap="round" transform="matrix(1.606823, 0, 0, 1.608062, -156.737416, -160.323741)" fill-opacity="1" fill="#ffffff" fill-rule="nonzero" stroke-linejoin="round" d="M 185.069674 273.749799 C 164.320748 268.009678 155.790229 258.460623 150.660734 240.579526 C 154.489622 239.180326 158.109441 237.200555 161.369466 234.720376 C 162.679796 233.719559 164.080075 232.198901 163.569557 230.56893 C 163.260815 229.589976 162.349175 228.970538 161.500742 228.428834 C 150.779855 221.719475 139.268881 216.360733 127.330044 212.539654 C 125.509195 211.959083 123.420931 211.439241 121.818876 212.459491 C 120.600925 213.229537 119.990734 214.67975 119.460767 216.0498 C 115.060585 227.369717 111.219541 238.939839 107.99112 250.689719 C 107.269101 253.288927 106.600566 256.150486 107.641051 258.650098 C 107.840396 259.131073 108.12969 259.609619 108.589156 259.799094 C 109.01945 259.978853 109.500796 259.888974 109.950539 259.779661 C 115.998966 258.380461 121.889376 256.269515 127.458889 253.490548 C 130.539016 259.84039 133.098901 266.48902 137.63036 271.840474 C 148.689161 284.928825 171.470437 284.280238 188.089026 282.919904 " stroke="#335894" stroke-width="1.5" stroke-opacity="1" stroke-miterlimit="10"/><path stroke-linecap="round" transform="matrix(1.606823, 0, 0, 1.608062, -156.737416, -160.323741)" fill-opacity="1" fill="#ffffff" fill-rule="nonzero" stroke-linejoin="round" d="M 142.339284 217.079767 C 153.458861 200.741191 169.540191 195.771115 188.12063 194.950057 C 188.570372 199.150086 189.630305 203.27967 191.259102 207.180912 C 191.920345 208.750154 193.070227 210.530733 194.7598 210.409275 C 195.780837 210.338829 196.609821 209.568783 197.329409 208.840033 C 206.409343 199.660211 214.34912 189.360544 220.910497 178.249535 C 221.909654 176.558835 222.908812 174.579064 222.310776 172.711035 C 221.848878 171.299689 220.5896 170.330451 219.378942 169.451093 C 209.431126 162.251042 199.10893 155.570834 188.460975 149.449333 C 186.100435 148.089 183.489498 146.71895 180.810492 147.161058 C 180.299974 147.238791 179.760283 147.420979 179.458834 147.838796 C 179.179265 148.229891 179.159816 148.740016 179.150092 149.220991 C 179.060144 155.660713 179.718955 162.119867 181.090062 168.40898 C 174.19077 169.970934 167.118875 170.940172 160.839499 174.200114 C 145.489912 182.17021 138.401 195.690953 135.76089 212.780141 " stroke="#335894" stroke-width="1.5" stroke-opacity="1" stroke-miterlimit="10"/><path stroke-linecap="round" transform="matrix(1.606823, 0, 0, 1.608062, -156.737416, -160.323741)" fill-opacity="1" fill="#ffffff" fill-rule="nonzero" stroke-linejoin="round" d="M 210.420559 196.98084 C 216.050848 215.921054 209.749592 231.53088 198.63974 246.450823 C 195.100145 244.140685 191.22993 242.350389 187.179817 241.160097 C 185.55102 240.679122 183.440878 240.441064 182.461169 241.830547 C 181.870426 242.671039 181.940926 243.790885 182.050323 244.811135 C 183.431153 257.639565 186.389729 270.310099 190.850688 282.419496 C 191.528948 284.270521 192.430864 286.289159 194.259006 287.000904 C 195.639836 287.540179 197.200564 287.170946 198.630016 286.789567 C 210.500784 283.629221 222.198948 279.849437 233.671026 275.46965 C 236.209032 274.500412 238.929365 273.348987 240.281024 270.990266 C 240.541145 270.54087 240.74049 270.021028 240.609214 269.52062 C 240.490093 269.059078 240.101127 268.718995 239.738902 268.410491 C 234.799029 264.268761 229.389965 260.700315 223.640555 257.780457 C 226.791183 251.450048 230.510674 245.360127 231.959574 238.429714 C 235.489444 221.50085 228.509928 204.440812 216.930885 191.600236 " stroke="#335894" stroke-width="1.5" stroke-opacity="1" stroke-miterlimit="10"/></svg>