<svg xmlns="http://www.w3.org/2000/svg" xmlns:xlink="http://www.w3.org/1999/xlink" width="500" zoomAndPan="magnify" viewBox="0 0 375 374.999991" height="500" preserveAspectRatio="xMidYMid meet" version="1.0"><defs><clipPath id="id1"><path d="M 11.550781 7.03125 L 363.300781 7.03125 L 363.300781 358.78125 L 11.550781 358.78125 Z M 11.550781 7.03125 " clip-rule="nonzero"/></clipPath><clipPath id="id2"><path d="M 145.164062 295 L 241 295 L 241 345.234375 L 145.164062 345.234375 Z M 145.164062 295 " clip-rule="nonzero"/></clipPath><clipPath id="id3"><path d="M 159 237.234375 L 227 237.234375 L 227 318 L 159 318 Z M 159 237.234375 " clip-rule="nonzero"/></clipPath><clipPath id="id4"><path d="M 145.164062 295 L 241 295 L 241 345.234375 L 145.164062 345.234375 Z M 145.164062 295 " clip-rule="nonzero"/></clipPath><clipPath id="id5"><path d="M 38 87 L 107 87 L 107 187.46875 L 38 187.46875 Z M 38 87 " clip-rule="nonzero"/></clipPath><clipPath id="id6"><path d="M 85 80.96875 L 129.75 80.96875 L 129.75 143 L 85 143 Z M 85 80.96875 " clip-rule="nonzero"/></clipPath><clipPath id="id7"><path d="M 61 204 L 114 204 L 114 278 L 61 278 Z M 61 204 " clip-rule="nonzero"/></clipPath><clipPath id="id8"><path d="M 64.980469 202.683594 L 119.492188 271.449219 L 100.097656 286.824219 L 45.585938 218.058594 Z M 64.980469 202.683594 " clip-rule="nonzero"/></clipPath><clipPath id="id9"><path d="M 64.980469 202.683594 L 119.492188 271.449219 L 100.097656 286.824219 L 45.585938 218.058594 Z M 64.980469 202.683594 " clip-rule="nonzero"/></clipPath><clipPath id="id10"><path d="M 64.980469 202.683594 L 119.492188 271.449219 L 100.097656 286.824219 L 45.585938 218.058594 Z M 64.980469 202.683594 " clip-rule="nonzero"/></clipPath><clipPath id="id11"><path d="M 64 220 L 65 220 L 65 221 L 64 221 Z M 64 220 " clip-rule="nonzero"/></clipPath><clipPath id="id12"><path d="M 64.980469 202.683594 L 119.492188 271.449219 L 100.097656 286.824219 L 45.585938 218.058594 Z M 64.980469 202.683594 " clip-rule="nonzero"/></clipPath><clipPath id="id13"><path d="M 64.980469 202.683594 L 119.492188 271.449219 L 100.097656 286.824219 L 45.585938 218.058594 Z M 64.980469 202.683594 " clip-rule="nonzero"/></clipPath><clipPath id="id14"><path d="M 64.980469 202.683594 L 119.492188 271.449219 L 100.097656 286.824219 L 45.585938 218.058594 Z M 64.980469 202.683594 " clip-rule="nonzero"/></clipPath><clipPath id="id15"><path d="M 267 207 L 323 207 L 323 280 L 267 280 Z M 267 207 " clip-rule="nonzero"/></clipPath><clipPath id="id16"><path d="M 266.054688 278.945312 L 309.027344 202.4375 L 330.605469 214.558594 L 287.632812 291.066406 Z M 266.054688 278.945312 " clip-rule="nonzero"/></clipPath><clipPath id="id17"><path d="M 266.054688 278.945312 L 309.027344 202.4375 L 330.605469 214.558594 L 287.632812 291.066406 Z M 266.054688 278.945312 " clip-rule="nonzero"/></clipPath><clipPath id="id18"><path d="M 266.054688 278.945312 L 309.027344 202.4375 L 330.605469 214.558594 L 287.632812 291.066406 Z M 266.054688 278.945312 " clip-rule="nonzero"/></clipPath><clipPath id="id19"><path d="M 282 272 L 283 272 L 283 273 L 282 273 Z M 282 272 " clip-rule="nonzero"/></clipPath><clipPath id="id20"><path d="M 266.054688 278.945312 L 309.027344 202.4375 L 330.605469 214.558594 L 287.632812 291.066406 Z M 266.054688 278.945312 " clip-rule="nonzero"/></clipPath><clipPath id="id21"><path d="M 266.054688 278.945312 L 309.027344 202.4375 L 330.605469 214.558594 L 287.632812 291.066406 Z M 266.054688 278.945312 " clip-rule="nonzero"/></clipPath><clipPath id="id22"><path d="M 266.054688 278.945312 L 309.027344 202.4375 L 330.605469 214.558594 L 287.632812 291.066406 Z M 266.054688 278.945312 " clip-rule="nonzero"/></clipPath><clipPath id="id23"><path d="M 147 52 L 234 52 L 234 78 L 147 78 Z M 147 52 " clip-rule="nonzero"/></clipPath><clipPath id="id24"><path d="M 234.527344 72.949219 L 147.148438 80.988281 L 144.878906 56.339844 L 232.261719 48.300781 Z M 234.527344 72.949219 " clip-rule="nonzero"/></clipPath><clipPath id="id25"><path d="M 234.527344 72.949219 L 147.148438 80.988281 L 144.878906 56.339844 L 232.261719 48.300781 Z M 234.527344 72.949219 " clip-rule="nonzero"/></clipPath><clipPath id="id26"><path d="M 234.527344 72.949219 L 147.148438 80.988281 L 144.878906 56.339844 L 232.261719 48.300781 Z M 234.527344 72.949219 " clip-rule="nonzero"/></clipPath><clipPath id="id27"><path d="M 219 62 L 221 62 L 221 63 L 219 63 Z M 219 62 " clip-rule="nonzero"/></clipPath><clipPath id="id28"><path d="M 234.527344 72.949219 L 147.148438 80.988281 L 144.878906 56.339844 L 232.261719 48.300781 Z M 234.527344 72.949219 " clip-rule="nonzero"/></clipPath><clipPath id="id29"><path d="M 234.527344 72.949219 L 147.148438 80.988281 L 144.878906 56.339844 L 232.261719 48.300781 Z M 234.527344 72.949219 " clip-rule="nonzero"/></clipPath><clipPath id="id30"><path d="M 234.527344 72.949219 L 147.148438 80.988281 L 144.878906 56.339844 L 232.261719 48.300781 Z M 234.527344 72.949219 " clip-rule="nonzero"/></clipPath><clipPath id="id31"><path d="M 278 134.234375 L 346.679688 134.234375 L 346.679688 169 L 278 169 Z M 278 134.234375 " clip-rule="nonzero"/></clipPath><clipPath id="id32"><path d="M 284 170 L 331 170 L 331 194.234375 L 284 194.234375 Z M 284 170 " clip-rule="nonzero"/></clipPath><clipPath id="id33"><path d="M 271.679688 140 L 318 140 L 318 164 L 271.679688 164 Z M 271.679688 140 " clip-rule="nonzero"/></clipPath></defs><rect x="-37.5" width="450" fill="#ffffff" y="-37.499999" height="449.999989" fill-opacity="1"/><rect x="-37.5" width="450" fill="#ffffff" y="-37.499999" height="449.999989" fill-opacity="1"/><rect x="-37.5" width="450" fill="#ffffff" y="-37.499999" height="449.999989" fill-opacity="1"/><g clip-path="url(#id1)"><path fill="#0093c1" d="M 187.425781 7.03125 C 90.292969 7.03125 11.550781 85.773438 11.550781 182.90625 C 11.550781 280.039062 90.292969 358.78125 187.425781 358.78125 C 284.558594 358.78125 363.300781 280.039062 363.300781 182.90625 C 363.300781 85.773438 284.558594 7.03125 187.425781 7.03125 " fill-opacity="1" fill-rule="nonzero"/></g><g clip-path="url(#id2)"><path fill="#ffffff" d="M 234.828125 314.644531 L 234.832031 314.644531 Z M 151.371094 299.625 C 150.171875 301.890625 149.980469 304.449219 150.917969 306.378906 C 151.640625 307.867188 153.023438 309.113281 154.480469 310.429688 C 156.355469 312.121094 158.480469 314.039062 159.421875 316.820312 C 160.339844 319.523438 159.886719 322.277344 159.488281 324.707031 C 159.433594 325.03125 159.382812 325.355469 159.332031 325.679688 C 158.746094 329.449219 159.085938 332.152344 160.367188 333.945312 C 161.632812 335.710938 163.996094 336.769531 166.109375 337.625 C 175.335938 341.332031 182.484375 341.867188 187.953125 339.257812 C 189.164062 338.6875 190.316406 337.949219 191.535156 337.164062 C 193.164062 336.117188 194.851562 335.035156 196.792969 334.289062 C 200.761719 332.765625 204.902344 332.960938 208.90625 333.148438 C 210.074219 333.207031 211.175781 333.257812 212.277344 333.269531 C 215.460938 333.296875 221.175781 332.789062 223.476562 328.953125 C 224.234375 327.695312 224.597656 326.113281 224.984375 324.4375 C 225.488281 322.253906 226.0625 319.777344 227.667969 317.722656 C 228.765625 316.328125 230.113281 315.394531 231.414062 314.492188 C 232.132812 313.992188 232.808594 313.523438 233.394531 313.011719 C 236.050781 310.65625 237.160156 306.648438 236.089844 303.261719 C 235.691406 301.992188 235.03125 300.796875 234.078125 299.625 L 225.953125 299.625 L 226.675781 303.484375 C 226.832031 304.320312 226.488281 305.167969 225.800781 305.660156 L 209.921875 317.019531 C 209.492188 317.332031 208.960938 317.46875 208.433594 317.414062 L 191.292969 315.605469 C 189.96875 318.730469 186.898438 320.835938 183.359375 320.835938 C 178.738281 320.835938 174.953125 317.175781 174.738281 312.59375 L 161.019531 307.441406 C 160.066406 307.082031 159.488281 306.113281 159.628906 305.105469 L 160.382812 299.625 Z M 180.292969 345.238281 C 175.65625 345.238281 170.417969 344.046875 164.488281 341.664062 C 161.804688 340.582031 158.78125 339.203125 156.832031 336.480469 C 154.855469 333.714844 154.269531 329.964844 155.035156 325.011719 C 155.089844 324.679688 155.144531 324.339844 155.199219 324 C 155.546875 321.886719 155.871094 319.890625 155.308594 318.222656 C 154.730469 316.515625 153.195312 315.132812 151.574219 313.667969 C 149.867188 312.128906 148.105469 310.535156 147.011719 308.285156 C 145.238281 304.640625 145.757812 300.011719 148.359375 296.214844 C 148.765625 295.621094 149.4375 295.269531 150.152344 295.269531 L 162.878906 295.269531 C 163.507812 295.269531 164.105469 295.542969 164.515625 296.015625 C 164.929688 296.492188 165.117188 297.121094 165.03125 297.746094 L 164.171875 303.972656 L 177.808594 309.097656 C 178.832031 309.480469 179.414062 310.570312 179.164062 311.632812 C 179.09375 311.9375 179.078125 312.101562 179.078125 312.1875 C 179.078125 314.554688 181 316.480469 183.359375 316.480469 C 185.433594 316.480469 187.25 314.941406 187.582031 312.898438 C 187.769531 311.757812 188.808594 310.964844 189.957031 311.085938 L 208.070312 312.996094 L 222.148438 302.921875 L 221.199219 297.847656 C 221.082031 297.210938 221.25 296.554688 221.664062 296.054688 C 222.078125 295.558594 222.691406 295.269531 223.335938 295.269531 L 235.070312 295.269531 C 235.679688 295.269531 236.257812 295.523438 236.671875 295.972656 C 238.367188 297.824219 239.566406 299.832031 240.234375 301.949219 C 241.832031 307.007812 240.234375 312.765625 236.269531 316.277344 C 236.265625 316.277344 236.265625 316.277344 236.265625 316.277344 C 235.492188 316.960938 234.675781 317.527344 233.886719 318.074219 C 232.800781 318.824219 231.773438 319.535156 231.085938 320.414062 C 230.078125 321.703125 229.660156 323.507812 229.21875 325.417969 C 228.773438 327.351562 228.3125 329.351562 227.203125 331.199219 C 224.667969 335.417969 219.355469 337.695312 212.226562 337.625 C 211.046875 337.609375 209.855469 337.554688 208.703125 337.5 C 204.980469 337.324219 201.46875 337.160156 198.347656 338.359375 C 196.820312 338.941406 195.394531 339.859375 193.882812 340.832031 C 192.601562 341.652344 191.273438 342.503906 189.816406 343.195312 C 186.964844 344.554688 183.800781 345.238281 180.292969 345.238281 " fill-opacity="1" fill-rule="nonzero"/></g><g clip-path="url(#id3)"><path fill="#ffffff" d="M 191.914062 311.289062 L 208.070312 312.996094 L 222.148438 302.921875 L 221.199219 297.847656 L 215.757812 268.773438 L 208.136719 263.222656 C 207.792969 262.972656 207.527344 262.621094 207.378906 262.21875 L 200.296875 243.058594 L 186.125 241.824219 L 178.253906 273.355469 C 178.15625 273.761719 177.9375 274.132812 177.632812 274.417969 L 166.855469 284.496094 L 164.171875 303.972656 L 175.742188 308.320312 C 177.527344 304.253906 181.148438 299.417969 181.628906 298.78125 C 182.042969 298.238281 182.679688 297.921875 183.359375 297.921875 C 184.039062 297.921875 184.679688 298.238281 185.09375 298.78125 C 186.164062 300.199219 191.21875 307.050781 191.914062 311.289062 Z M 208.660156 317.425781 C 208.585938 317.425781 208.507812 317.421875 208.433594 317.414062 L 189.5 315.414062 C 188.898438 315.351562 188.355469 315.042969 187.992188 314.558594 C 187.628906 314.078125 187.480469 313.464844 187.585938 312.871094 C 187.625 312.65625 187.644531 312.425781 187.644531 312.1875 C 187.644531 310.789062 185.648438 307.179688 183.367188 303.832031 C 181.703125 306.273438 179.644531 309.613281 179.160156 311.644531 C 179.015625 312.25 178.617188 312.765625 178.066406 313.058594 C 177.515625 313.351562 176.867188 313.394531 176.285156 313.175781 L 161.019531 307.441406 C 160.066406 307.082031 159.488281 306.113281 159.628906 305.105469 L 162.652344 283.136719 C 162.722656 282.640625 162.957031 282.179688 163.324219 281.839844 L 174.195312 271.671875 L 182.355469 238.964844 C 182.617188 237.925781 183.589844 237.230469 184.652344 237.324219 L 202.042969 238.839844 C 202.878906 238.914062 203.601562 239.464844 203.894531 240.253906 L 211.226562 260.089844 L 219.011719 265.761719 C 219.460938 266.089844 219.765625 266.574219 219.871094 267.121094 L 225.472656 297.046875 L 226.675781 303.484375 C 226.832031 304.320312 226.488281 305.167969 225.800781 305.660156 L 209.921875 317.019531 C 209.554688 317.285156 209.109375 317.425781 208.660156 317.425781 " fill-opacity="1" fill-rule="nonzero"/></g><g clip-path="url(#id4)"><path fill="#ffffff" d="M 180.292969 345.238281 C 175.65625 345.238281 170.417969 344.046875 164.488281 341.664062 C 161.804688 340.582031 158.78125 339.203125 156.832031 336.480469 C 154.855469 333.714844 154.269531 329.964844 155.035156 325.015625 C 155.089844 324.679688 155.144531 324.339844 155.199219 324 C 155.546875 321.886719 155.871094 319.890625 155.308594 318.222656 C 154.730469 316.515625 153.195312 315.132812 151.574219 313.667969 C 149.867188 312.128906 148.105469 310.535156 147.011719 308.285156 C 145.238281 304.640625 145.757812 300.011719 148.359375 296.214844 C 149.039062 295.222656 150.394531 294.972656 151.382812 295.652344 C 152.371094 296.332031 152.625 297.6875 151.945312 298.679688 C 150.25 301.152344 149.847656 304.171875 150.917969 306.378906 C 151.640625 307.867188 153.023438 309.113281 154.480469 310.429688 C 156.355469 312.121094 158.480469 314.039062 159.421875 316.820312 C 160.339844 319.523438 159.886719 322.277344 159.488281 324.707031 C 159.433594 325.03125 159.382812 325.355469 159.332031 325.679688 C 158.746094 329.449219 159.085938 332.152344 160.367188 333.945312 C 161.632812 335.710938 163.996094 336.769531 166.109375 337.625 C 175.335938 341.332031 182.484375 341.867188 187.953125 339.257812 C 189.164062 338.6875 190.316406 337.949219 191.535156 337.164062 C 193.164062 336.117188 194.851562 335.035156 196.792969 334.289062 C 200.761719 332.765625 204.902344 332.960938 208.90625 333.148438 C 210.074219 333.207031 211.175781 333.257812 212.277344 333.269531 C 215.46875 333.296875 221.175781 332.789062 223.476562 328.953125 C 224.234375 327.695312 224.597656 326.113281 224.984375 324.4375 C 225.488281 322.253906 226.0625 319.777344 227.667969 317.722656 C 228.765625 316.328125 230.113281 315.394531 231.414062 314.492188 C 232.132812 313.992188 232.808594 313.523438 233.394531 313.007812 C 236.050781 310.660156 237.160156 306.648438 236.089844 303.261719 C 235.609375 301.738281 234.753906 300.316406 233.472656 298.921875 C 232.660156 298.035156 232.71875 296.65625 233.601562 295.84375 C 234.484375 295.03125 235.859375 295.089844 236.671875 295.972656 C 238.367188 297.824219 239.566406 299.832031 240.234375 301.949219 C 241.832031 307.007812 240.234375 312.765625 236.269531 316.277344 C 235.492188 316.960938 234.675781 317.527344 233.886719 318.074219 C 232.800781 318.824219 231.773438 319.535156 231.085938 320.414062 C 230.078125 321.703125 229.660156 323.507812 229.21875 325.417969 C 228.773438 327.351562 228.3125 329.351562 227.203125 331.199219 C 224.667969 335.417969 219.355469 337.695312 212.226562 337.625 C 211.046875 337.609375 209.855469 337.554688 208.703125 337.5 C 204.984375 337.324219 201.46875 337.160156 198.347656 338.359375 C 196.820312 338.941406 195.394531 339.859375 193.882812 340.832031 C 192.601562 341.652344 191.273438 342.503906 189.816406 343.195312 C 186.964844 344.554688 183.800781 345.238281 180.292969 345.238281 " fill-opacity="1" fill-rule="nonzero"/></g><path fill="#ffffff" d="M 198.480469 263.675781 C 196.199219 267.023438 194.199219 270.640625 194.199219 272.039062 C 194.199219 274.40625 196.121094 276.332031 198.480469 276.332031 C 200.84375 276.332031 202.761719 274.40625 202.761719 272.039062 C 202.761719 270.640625 200.761719 267.023438 198.480469 263.675781 Z M 198.480469 280.683594 C 193.722656 280.683594 189.851562 276.808594 189.851562 272.039062 C 189.851562 267.941406 195.597656 260.152344 196.75 258.632812 C 197.160156 258.089844 197.800781 257.769531 198.480469 257.769531 C 199.160156 257.769531 199.800781 258.089844 200.210938 258.632812 C 201.363281 260.152344 207.109375 267.941406 207.109375 272.039062 C 207.109375 276.808594 203.238281 280.683594 198.480469 280.683594 " fill-opacity="1" fill-rule="nonzero"/><path fill="#ffffff" d="M 183.367188 303.832031 C 181.703125 306.273438 179.644531 309.613281 179.160156 311.644531 C 179.09375 311.9375 179.078125 312.101562 179.078125 312.1875 C 179.078125 314.554688 181 316.480469 183.359375 316.480469 C 185.433594 316.480469 187.25 314.941406 187.582031 312.898438 C 187.582031 312.890625 187.585938 312.878906 187.585938 312.871094 C 187.625 312.65625 187.644531 312.425781 187.644531 312.1875 C 187.644531 310.789062 185.648438 307.179688 183.367188 303.832031 Z M 183.359375 320.835938 C 178.601562 320.835938 174.730469 316.957031 174.730469 312.1875 C 174.730469 311.722656 174.796875 311.214844 174.933594 310.636719 C 175.957031 306.351562 181.050781 299.542969 181.628906 298.78125 C 182.042969 298.238281 182.679688 297.921875 183.359375 297.921875 C 184.039062 297.921875 184.679688 298.238281 185.09375 298.78125 C 186.246094 300.300781 191.992188 308.09375 191.992188 312.1875 C 191.992188 312.675781 191.949219 313.15625 191.871094 313.617188 C 191.179688 317.800781 187.605469 320.835938 183.359375 320.835938 " fill-opacity="1" fill-rule="nonzero"/><path fill="#0093c1" d="M 72.695312 184.855469 C 61.117188 184.855469 50.542969 178.503906 45.105469 168.277344 C 40.261719 159.160156 40.257812 148.183594 45.097656 138.917969 L 70.34375 91.433594 C 70.800781 90.570312 71.695312 90.03125 72.671875 90.03125 C 73.644531 90.03125 74.542969 90.570312 75 91.433594 L 100.234375 138.898438 C 104.152344 146.269531 104.972656 154.730469 102.535156 162.714844 C 100.101562 170.703125 94.703125 177.261719 87.34375 181.183594 C 82.835938 183.585938 77.769531 184.855469 72.695312 184.855469 Z M 72.695312 184.855469 " fill-opacity="1" fill-rule="nonzero"/><g clip-path="url(#id5)"><path fill="#ffffff" d="M 72.671875 92.671875 L 97.90625 140.140625 C 105.324219 154.09375 100.039062 171.425781 86.101562 178.851562 C 81.824219 181.132812 77.226562 182.214844 72.695312 182.214844 C 62.46875 182.214844 52.578125 176.703125 47.4375 167.035156 C 42.828125 158.363281 43.210938 148.230469 47.4375 140.140625 L 72.671875 92.671875 M 72.671875 87.390625 C 70.722656 87.390625 68.929688 88.46875 68.015625 90.191406 L 42.777344 137.660156 C 42.773438 137.667969 42.765625 137.679688 42.761719 137.691406 C 37.515625 147.734375 37.523438 159.628906 42.777344 169.515625 C 48.675781 180.605469 60.136719 187.496094 72.695312 187.496094 C 78.203125 187.496094 83.695312 186.121094 88.582031 183.515625 C 96.566406 179.261719 102.417969 172.148438 105.058594 163.484375 C 107.699219 154.824219 106.8125 145.652344 102.5625 137.660156 L 77.328125 90.191406 C 76.414062 88.46875 74.621094 87.390625 72.671875 87.390625 Z M 72.671875 87.390625 " fill-opacity="1" fill-rule="nonzero"/></g><path fill="#0093c1" d="M 72.695312 173.671875 C 65.65625 173.671875 59.226562 169.808594 55.921875 163.589844 C 52.976562 158.046875 52.972656 151.378906 55.914062 145.75 L 70.351562 118.589844 C 70.808594 117.730469 71.707031 117.191406 72.679688 117.191406 C 73.65625 117.191406 74.550781 117.730469 75.007812 118.589844 L 89.4375 145.730469 C 94.355469 154.984375 90.839844 166.515625 81.601562 171.4375 C 78.859375 172.898438 75.78125 173.671875 72.695312 173.671875 Z M 72.695312 173.671875 " fill-opacity="1" fill-rule="nonzero"/><path fill="#ffffff" d="M 72.679688 119.832031 L 87.109375 146.972656 C 91.351562 154.949219 88.328125 164.859375 80.359375 169.109375 C 77.914062 170.410156 75.285156 171.03125 72.695312 171.03125 C 66.847656 171.03125 61.191406 167.878906 58.253906 162.351562 C 55.617188 157.394531 55.835938 151.597656 58.253906 146.972656 L 72.679688 119.832031 M 72.679688 114.550781 C 70.730469 114.550781 68.9375 115.625 68.023438 117.351562 L 53.59375 144.492188 C 53.589844 144.503906 53.582031 144.511719 53.578125 144.523438 C 50.230469 150.929688 50.238281 158.519531 53.59375 164.832031 C 57.359375 171.914062 64.675781 176.3125 72.695312 176.3125 C 76.210938 176.3125 79.71875 175.433594 82.839844 173.769531 C 93.363281 168.160156 97.367188 155.027344 91.765625 144.492188 L 77.335938 117.351562 C 76.421875 115.625 74.628906 114.550781 72.679688 114.550781 Z M 72.679688 114.550781 " fill-opacity="1" fill-rule="nonzero"/><path fill="#0093c1" d="M 107.378906 140.1875 C 100.328125 140.1875 93.890625 136.320312 90.582031 130.09375 C 87.632812 124.542969 87.628906 117.863281 90.574219 112.226562 L 105.035156 85.027344 C 105.492188 84.164062 106.386719 83.625 107.363281 83.625 C 108.339844 83.625 109.234375 84.164062 109.691406 85.027344 L 124.144531 112.210938 C 126.53125 116.699219 127.027344 121.847656 125.542969 126.710938 C 124.0625 131.570312 120.777344 135.566406 116.292969 137.953125 C 113.550781 139.414062 110.46875 140.1875 107.378906 140.1875 Z M 107.378906 140.1875 " fill-opacity="1" fill-rule="nonzero"/><g clip-path="url(#id6)"><path fill="#ffffff" d="M 107.363281 86.265625 L 121.816406 113.453125 C 126.0625 121.441406 123.035156 131.367188 115.054688 135.621094 C 112.605469 136.929688 109.972656 137.546875 107.378906 137.546875 C 101.519531 137.546875 95.855469 134.390625 92.910156 128.855469 C 90.273438 123.890625 90.492188 118.085938 92.910156 113.453125 L 107.363281 86.265625 M 107.363281 80.984375 C 105.414062 80.984375 103.621094 82.0625 102.707031 83.785156 L 88.253906 110.96875 C 88.246094 110.980469 88.242188 110.992188 88.234375 111.003906 C 84.886719 117.414062 84.894531 125.015625 88.253906 131.335938 C 92.023438 138.425781 99.351562 142.828125 107.378906 142.828125 C 110.898438 142.828125 114.410156 141.949219 117.535156 140.285156 C 122.636719 137.5625 126.378906 133.015625 128.066406 127.480469 C 129.753906 121.941406 129.1875 116.078125 126.472656 110.96875 L 112.019531 83.785156 C 111.105469 82.0625 109.3125 80.984375 107.363281 80.984375 Z M 107.363281 80.984375 " fill-opacity="1" fill-rule="nonzero"/></g><g clip-path="url(#id7)"><g clip-path="url(#id8)"><g clip-path="url(#id9)"><g clip-path="url(#id10)"><path fill="#ffffff" d="M 65.289062 204.230469 C 65.210938 204.234375 65.15625 204.273438 65.117188 204.339844 C 64.851562 204.328125 64.722656 203.914062 64.390625 204.089844 C 63.5625 203.992188 63.230469 204.539062 62.984375 205.183594 C 62.296875 206.988281 61.917969 208.871094 61.652344 210.777344 C 60.707031 217.601562 61.230469 224.308594 62.953125 230.996094 C 65.953125 242.667969 72.480469 251.996094 81.59375 259.636719 C 85.820312 263.183594 90.582031 265.921875 95.472656 268.441406 C 98.347656 269.921875 101.300781 271.222656 104.222656 272.597656 C 104.351562 272.601562 104.476562 272.601562 104.601562 272.605469 C 104.695312 272.714844 104.832031 272.808594 104.863281 272.929688 C 104.863281 272.929688 104.863281 272.929688 104.863281 272.9375 C 104.886719 273.035156 104.746094 273.066406 104.640625 273.015625 C 103.402344 273.28125 102.148438 273.277344 100.898438 273.203125 C 100.039062 273.15625 99.203125 273.171875 98.382812 273.441406 C 96.535156 273.320312 95.355469 274.203125 95.042969 275.859375 C 98.222656 277.738281 101.664062 277.6875 105.164062 277.355469 C 106.464844 277.230469 107.769531 277.195312 109.074219 277.140625 C 112.199219 277.007812 111.738281 276.851562 112.933594 274.605469 C 113.203125 274.101562 113.347656 273.546875 113.4375 272.980469 C 113.472656 272.769531 113.480469 272.574219 113.34375 272.398438 C 113.617188 271.808594 113.28125 271.378906 112.9375 270.972656 C 111.90625 269.769531 110.867188 268.582031 109.828125 267.386719 C 109.765625 267.011719 109.507812 266.777344 109.238281 266.550781 C 109.1875 266.175781 108.921875 265.941406 108.675781 265.699219 C 108.683594 265.429688 108.46875 265.265625 108.347656 265.058594 C 106.707031 262.261719 105.402344 259.320312 104.601562 256.167969 C 104.542969 255.929688 104.460938 255.699219 104.390625 255.464844 C 104.308594 255.183594 104.21875 254.867188 103.886719 254.855469 C 103.636719 254.847656 103.394531 255.097656 103.359375 255.308594 C 103.195312 256.242188 102.488281 256.921875 102.253906 257.808594 C 102.148438 258.203125 102.210938 258.609375 102.285156 259.019531 C 102.832031 262.1875 103.921875 265.171875 105.320312 268.054688 C 105.445312 268.3125 105.613281 268.558594 105.683594 268.832031 C 105.761719 269.148438 105.511719 269.242188 105.242188 269.261719 C 105.070312 268.984375 104.828125 268.882812 104.511719 268.941406 C 104.308594 268.71875 104.089844 268.519531 103.75 268.59375 C 103.730469 268.511719 103.683594 268.488281 103.605469 268.519531 C 103.417969 268.300781 103.207031 268.128906 102.886719 268.183594 C 102.726562 268.0625 102.578125 267.917969 102.398438 267.828125 C 100.441406 266.828125 98.46875 265.867188 96.523438 264.847656 C 94.753906 263.921875 93.019531 262.945312 91.273438 261.988281 C 90.839844 261.679688 90.421875 261.355469 89.980469 261.066406 C 85.714844 258.226562 81.851562 254.914062 78.492188 251.03125 C 77.292969 249.644531 76.136719 248.222656 74.964844 246.816406 C 74.898438 246.421875 74.617188 246.191406 74.335938 245.953125 C 74.285156 245.574219 74.019531 245.347656 73.753906 245.121094 C 73.734375 244.757812 73.460938 244.554688 73.238281 244.324219 C 73.246094 244.082031 73.109375 243.929688 72.917969 243.808594 C 72.917969 243.722656 72.875 243.664062 72.789062 243.632812 C 72.792969 243.367188 72.585938 243.203125 72.472656 242.996094 C 71.910156 241.964844 71.164062 241.042969 70.726562 239.941406 C 70.59375 239.921875 70.347656 239.691406 70.464844 240.117188 C 70.542969 240.402344 70.488281 240.46875 70.390625 240.449219 C 70.304688 240.4375 70.183594 240.363281 70.085938 240.316406 C 68.410156 237.011719 67.148438 233.542969 66.121094 229.992188 C 66.054688 229.65625 65.988281 229.316406 65.921875 228.976562 C 65.53125 226.957031 65.140625 224.933594 64.75 222.914062 C 64.789062 222.835938 64.796875 222.765625 64.78125 222.695312 C 64.765625 222.648438 64.742188 222.601562 64.710938 222.558594 C 64.773438 222.433594 64.753906 222.320312 64.667969 222.214844 C 64.734375 222.089844 64.71875 221.976562 64.625 221.871094 C 64.699219 221.746094 64.683594 221.632812 64.589844 221.523438 C 64.660156 221.402344 64.652344 221.285156 64.554688 221.179688 C 64.628906 221.054688 64.617188 220.941406 64.523438 220.835938 L 64.523438 220.832031 C 64.597656 220.710938 64.589844 220.59375 64.496094 220.492188 L 64.492188 220.484375 C 64.492188 220.375 64.484375 220.261719 64.46875 220.148438 L 64.46875 220.136719 C 64.542969 220.015625 64.539062 219.90625 64.445312 219.796875 L 64.445312 219.785156 C 64.519531 219.667969 64.515625 219.554688 64.421875 219.449219 L 64.417969 219.4375 C 64.417969 219.4375 64.417969 219.433594 64.417969 219.433594 C 64.417969 219.433594 64.417969 219.4375 64.417969 219.4375 C 64.5 219.320312 64.492188 219.203125 64.398438 219.097656 L 64.398438 219.089844 C 64.476562 218.972656 64.46875 218.859375 64.375 218.75 L 64.375 218.746094 C 64.453125 218.625 64.449219 218.507812 64.359375 218.398438 C 64.367188 217.332031 64.378906 216.265625 64.390625 215.195312 C 64.21875 214.636719 64.332031 214.074219 64.363281 213.511719 C 64.425781 213.484375 64.484375 213.476562 64.539062 213.476562 C 64.632812 213.472656 64.714844 213.5 64.796875 213.558594 C 64.867188 213.140625 64.96875 212.722656 64.839844 212.296875 C 64.789062 212.171875 64.757812 212.042969 64.78125 211.90625 C 64.800781 212.035156 64.820312 212.164062 64.839844 212.296875 C 64.890625 212.167969 64.921875 212.039062 64.808594 211.933594 C 64.949219 211.769531 64.964844 211.589844 64.90625 211.386719 C 65 211.285156 65.019531 211.175781 64.933594 211.058594 C 65 210.929688 65.03125 210.808594 64.949219 210.679688 C 64.988281 210.621094 65.007812 210.558594 64.984375 210.488281 C 65.125 210.089844 65.175781 209.683594 65.132812 209.265625 C 65.214844 208.980469 65.308594 208.695312 65.234375 208.390625 C 65.355469 208.226562 65.339844 208.039062 65.335938 207.855469 C 65.667969 206.726562 65.792969 205.546875 66.367188 204.4375 C 65.925781 204.421875 65.675781 204.015625 65.289062 204.230469 Z M 103.445312 268.703125 C 103.441406 268.699219 103.441406 268.699219 103.441406 268.695312 C 103.4375 268.699219 103.441406 268.703125 103.441406 268.703125 C 103.4375 268.699219 103.4375 268.695312 103.4375 268.695312 C 103.4375 268.695312 103.441406 268.695312 103.441406 268.695312 C 103.445312 268.695312 103.445312 268.691406 103.445312 268.6875 C 103.449219 268.695312 103.445312 268.699219 103.445312 268.703125 Z M 63.726562 219.199219 C 63.722656 219.226562 63.71875 219.253906 63.714844 219.28125 C 63.714844 219.273438 63.714844 219.265625 63.710938 219.257812 C 63.710938 219.238281 63.707031 219.214844 63.707031 219.1875 C 63.710938 219.191406 63.71875 219.191406 63.726562 219.199219 Z M 64.738281 222.898438 C 64.734375 222.898438 64.734375 222.898438 64.730469 222.898438 C 64.722656 222.898438 64.710938 222.902344 64.703125 222.902344 L 64.671875 222.898438 L 64.734375 222.898438 C 64.734375 222.894531 64.734375 222.894531 64.734375 222.890625 C 64.734375 222.894531 64.734375 222.894531 64.738281 222.898438 Z M 63.617188 219.132812 C 63.644531 219.148438 63.675781 219.167969 63.703125 219.183594 C 63.703125 219.207031 63.707031 219.230469 63.707031 219.253906 C 63.699219 219.203125 63.667969 219.160156 63.617188 219.132812 Z M 63.710938 219.414062 C 63.714844 219.441406 63.714844 219.46875 63.714844 219.492188 C 63.710938 219.496094 63.714844 219.496094 63.710938 219.5 C 63.714844 219.46875 63.714844 219.441406 63.710938 219.414062 Z M 64.003906 206.042969 C 64.003906 206.039062 64.003906 206.035156 64 206.03125 C 64 206.03125 64 206.027344 64 206.027344 C 64.003906 206.027344 64.003906 206.019531 64.007812 206.019531 C 64.007812 206.027344 64.003906 206.03125 64.003906 206.042969 Z M 63.859375 206.542969 C 63.855469 206.546875 63.847656 206.550781 63.851562 206.558594 C 63.855469 206.554688 63.855469 206.542969 63.859375 206.542969 Z M 64.667969 211.726562 C 64.644531 211.714844 64.621094 211.703125 64.59375 211.699219 C 64.601562 211.683594 64.613281 211.671875 64.625 211.660156 C 64.636719 211.683594 64.65625 211.703125 64.667969 211.726562 Z M 64.867188 210.824219 C 64.867188 210.78125 64.882812 210.734375 64.910156 210.691406 C 64.910156 210.691406 64.910156 210.691406 64.910156 210.695312 C 64.886719 210.738281 64.871094 210.78125 64.867188 210.824219 Z M 64.867188 210.824219 " fill-opacity="1" fill-rule="nonzero"/></g></g></g></g><g clip-path="url(#id11)"><g clip-path="url(#id12)"><g clip-path="url(#id13)"><g clip-path="url(#id14)"><path fill="#ffffff" d="M 64.460938 220.128906 C 64.46875 220.242188 64.480469 220.355469 64.484375 220.464844 C 64.5625 220.34375 64.554688 220.234375 64.460938 220.128906 Z M 64.460938 220.128906 " fill-opacity="1" fill-rule="nonzero"/></g></g></g></g><g clip-path="url(#id15)"><g clip-path="url(#id16)"><g clip-path="url(#id17)"><g clip-path="url(#id18)"><path fill="#ffffff" d="M 267.371094 278.074219 C 267.402344 278.144531 267.457031 278.183594 267.535156 278.195312 C 267.625 278.445312 267.289062 278.71875 267.578125 278.960938 C 267.800781 279.765625 268.433594 279.863281 269.125 279.847656 C 271.054688 279.800781 272.941406 279.4375 274.804688 278.960938 C 281.476562 277.25 287.488281 274.21875 293.023438 270.09375 C 302.6875 262.894531 308.84375 253.316406 312.460938 241.988281 C 314.140625 236.734375 314.871094 231.289062 315.347656 225.808594 C 315.628906 222.585938 315.714844 219.359375 315.878906 216.132812 C 315.832031 216.015625 315.785156 215.898438 315.742188 215.78125 C 315.804688 215.652344 315.839844 215.492188 315.945312 215.414062 C 315.945312 215.414062 315.945312 215.414062 315.949219 215.414062 C 316.03125 215.355469 316.113281 215.472656 316.105469 215.589844 C 316.820312 216.632812 317.292969 217.796875 317.699219 218.984375 C 317.980469 219.796875 318.3125 220.5625 318.875 221.222656 C 319.460938 222.976562 320.722656 223.730469 322.378906 223.394531 C 322.910156 219.738281 321.558594 216.570312 319.921875 213.460938 C 319.316406 212.304688 318.789062 211.113281 318.242188 209.925781 C 316.9375 207.082031 316.964844 207.570312 314.433594 207.3125 C 313.867188 207.253906 313.296875 207.332031 312.738281 207.464844 C 312.53125 207.511719 312.347656 207.574219 312.238281 207.769531 C 311.589844 207.742188 311.316406 208.214844 311.070312 208.6875 C 310.347656 210.097656 309.644531 211.511719 308.929688 212.925781 C 308.609375 213.125 308.488281 213.453125 308.382812 213.785156 C 308.054688 213.972656 307.9375 214.308594 307.808594 214.628906 C 307.554688 214.726562 307.484375 214.984375 307.339844 215.175781 C 305.371094 217.753906 303.144531 220.078125 300.53125 222.011719 C 300.332031 222.160156 300.148438 222.320312 299.957031 222.472656 C 299.730469 222.65625 299.46875 222.859375 299.585938 223.167969 C 299.671875 223.40625 300 223.535156 300.207031 223.488281 C 301.132812 223.285156 302.027344 223.679688 302.941406 223.5625 C 303.34375 223.511719 303.695312 223.296875 304.046875 223.074219 C 306.773438 221.367188 309.121094 219.226562 311.257812 216.839844 C 311.449219 216.625 311.609375 216.378906 311.839844 216.210938 C 312.105469 216.019531 312.28125 216.214844 312.40625 216.457031 C 312.210938 216.71875 312.210938 216.984375 312.386719 217.253906 C 312.257812 217.527344 312.152344 217.804688 312.351562 218.089844 C 312.285156 218.140625 312.28125 218.191406 312.339844 218.25 C 312.207031 218.507812 312.128906 218.769531 312.296875 219.042969 C 312.246094 219.238281 312.171875 219.429688 312.15625 219.628906 C 311.972656 221.820312 311.828125 224.011719 311.625 226.199219 C 311.4375 228.183594 311.191406 230.160156 310.96875 232.140625 C 310.847656 232.65625 310.707031 233.167969 310.605469 233.683594 C 309.59375 238.710938 307.992188 243.542969 305.671875 248.121094 C 304.84375 249.757812 303.964844 251.363281 303.109375 252.984375 C 302.769531 253.191406 302.660156 253.542969 302.546875 253.890625 C 302.21875 254.082031 302.109375 254.410156 301.996094 254.742188 C 301.671875 254.902344 301.585938 255.230469 301.457031 255.523438 C 301.230469 255.609375 301.140625 255.792969 301.101562 256.015625 C 301.023438 256.050781 300.984375 256.113281 300.988281 256.199219 C 300.742188 256.300781 300.664062 256.550781 300.515625 256.734375 C 299.777344 257.648438 299.207031 258.6875 298.355469 259.507812 C 298.386719 259.640625 298.265625 259.957031 298.617188 259.683594 C 298.851562 259.503906 298.929688 259.527344 298.953125 259.628906 C 298.972656 259.710938 298.949219 259.851562 298.945312 259.960938 C 296.519531 262.765625 293.789062 265.242188 290.894531 267.542969 C 290.605469 267.730469 290.316406 267.921875 290.027344 268.113281 C 288.304688 269.238281 286.582031 270.367188 284.863281 271.496094 C 284.777344 271.488281 284.707031 271.507812 284.648438 271.550781 C 284.609375 271.578125 284.578125 271.617188 284.550781 271.664062 C 284.410156 271.65625 284.3125 271.714844 284.246094 271.835938 C 284.105469 271.820312 284.007812 271.878906 283.945312 272.003906 C 283.800781 271.984375 283.703125 272.042969 283.636719 272.171875 C 283.496094 272.148438 283.390625 272.203125 283.332031 272.332031 C 283.1875 272.308594 283.085938 272.363281 283.023438 272.492188 L 283.019531 272.492188 C 282.882812 272.46875 282.777344 272.523438 282.71875 272.648438 L 282.710938 272.652344 C 282.609375 272.695312 282.507812 272.746094 282.410156 272.800781 L 282.398438 272.808594 C 282.257812 272.78125 282.160156 272.828125 282.09375 272.957031 L 282.082031 272.960938 C 281.945312 272.9375 281.84375 272.984375 281.78125 273.113281 L 281.769531 273.117188 C 281.769531 273.117188 281.765625 273.117188 281.765625 273.117188 C 281.765625 273.117188 281.769531 273.117188 281.769531 273.117188 C 281.628906 273.089844 281.527344 273.136719 281.464844 273.265625 L 281.457031 273.269531 C 281.316406 273.242188 281.214844 273.289062 281.152344 273.417969 L 281.144531 273.417969 C 281.003906 273.390625 280.898438 273.441406 280.832031 273.566406 C 279.839844 273.964844 278.847656 274.355469 277.855469 274.753906 C 277.402344 275.121094 276.839844 275.230469 276.308594 275.414062 C 276.261719 275.367188 276.230469 275.316406 276.207031 275.265625 C 276.171875 275.183594 276.164062 275.09375 276.1875 274.996094 C 275.773438 275.089844 275.347656 275.15625 275.003906 275.433594 C 274.90625 275.527344 274.796875 275.605469 274.664062 275.636719 C 274.773438 275.570312 274.890625 275.503906 275.003906 275.433594 C 274.863281 275.4375 274.734375 275.457031 274.679688 275.601562 C 274.476562 275.53125 274.300781 275.585938 274.136719 275.71875 C 274.007812 275.671875 273.898438 275.691406 273.820312 275.816406 C 273.679688 275.804688 273.554688 275.824219 273.464844 275.949219 C 273.394531 275.933594 273.332031 275.9375 273.273438 275.984375 C 272.851562 276.007812 272.457031 276.113281 272.085938 276.316406 C 271.789062 276.34375 271.492188 276.367188 271.238281 276.550781 C 271.042969 276.5 270.875 276.585938 270.703125 276.660156 C 269.535156 276.777344 268.394531 277.109375 267.148438 277.003906 C 267.304688 277.414062 267.023438 277.800781 267.371094 278.074219 Z M 312.566406 218.332031 C 312.566406 218.335938 312.566406 218.335938 312.566406 218.335938 C 312.566406 218.339844 312.570312 218.335938 312.570312 218.335938 C 312.566406 218.339844 312.5625 218.339844 312.5625 218.339844 C 312.5625 218.339844 312.566406 218.335938 312.566406 218.335938 C 312.5625 218.335938 312.558594 218.332031 312.554688 218.335938 C 312.5625 218.332031 312.5625 218.332031 312.566406 218.332031 Z M 281.8125 273.851562 C 281.839844 273.84375 281.867188 273.835938 281.890625 273.828125 C 281.886719 273.832031 281.878906 273.835938 281.875 273.839844 C 281.851562 273.851562 281.832031 273.859375 281.808594 273.871094 C 281.808594 273.867188 281.8125 273.859375 281.8125 273.851562 Z M 284.851562 271.511719 C 284.855469 271.511719 284.851562 271.515625 284.855469 271.515625 C 284.859375 271.527344 284.867188 271.535156 284.867188 271.542969 L 284.875 271.574219 L 284.851562 271.515625 C 284.851562 271.515625 284.847656 271.515625 284.847656 271.515625 C 284.847656 271.515625 284.851562 271.515625 284.851562 271.511719 Z M 281.792969 273.976562 C 281.796875 273.941406 281.800781 273.90625 281.808594 273.878906 C 281.828125 273.867188 281.851562 273.855469 281.871094 273.84375 C 281.828125 273.875 281.800781 273.917969 281.792969 273.976562 Z M 282.015625 273.78125 C 282.039062 273.769531 282.066406 273.757812 282.089844 273.746094 C 282.09375 273.75 282.09375 273.746094 282.097656 273.75 C 282.066406 273.757812 282.039062 273.769531 282.015625 273.78125 Z M 269.53125 278.578125 C 269.53125 278.582031 269.527344 278.582031 269.523438 278.585938 C 269.523438 278.585938 269.519531 278.585938 269.519531 278.585938 C 269.515625 278.585938 269.511719 278.585938 269.507812 278.585938 C 269.515625 278.582031 269.523438 278.582031 269.53125 278.578125 Z M 270.050781 278.523438 C 270.054688 278.527344 270.0625 278.53125 270.066406 278.527344 C 270.0625 278.523438 270.054688 278.523438 270.050781 278.523438 Z M 274.539062 275.808594 C 274.535156 275.835938 274.535156 275.859375 274.542969 275.890625 C 274.527344 275.886719 274.511719 275.878906 274.496094 275.875 C 274.511719 275.855469 274.523438 275.832031 274.539062 275.808594 Z M 273.628906 275.964844 C 273.589844 275.984375 273.542969 275.988281 273.492188 275.980469 C 273.492188 275.980469 273.492188 275.980469 273.492188 275.976562 C 273.542969 275.980469 273.589844 275.980469 273.628906 275.964844 Z M 273.628906 275.964844 " fill-opacity="1" fill-rule="nonzero"/></g></g></g></g><g clip-path="url(#id19)"><g clip-path="url(#id20)"><g clip-path="url(#id21)"><g clip-path="url(#id22)"><path fill="#ffffff" d="M 282.394531 272.816406 C 282.496094 272.765625 282.59375 272.714844 282.695312 272.667969 C 282.554688 272.640625 282.457031 272.691406 282.394531 272.816406 Z M 282.394531 272.816406 " fill-opacity="1" fill-rule="nonzero"/></g></g></g></g><g clip-path="url(#id23)"><g clip-path="url(#id24)"><g clip-path="url(#id25)"><g clip-path="url(#id26)"><path fill="#ffffff" d="M 233.066406 72.359375 C 233.105469 72.292969 233.105469 72.226562 233.070312 72.15625 C 233.226562 71.941406 233.640625 72.058594 233.675781 71.683594 C 234.210938 71.046875 233.929688 70.46875 233.527344 69.910156 C 232.390625 68.34375 231.027344 67 229.574219 65.734375 C 224.378906 61.214844 218.472656 57.984375 211.933594 55.769531 C 200.523438 51.894531 189.140625 52.261719 177.761719 55.714844 C 172.484375 57.3125 167.585938 59.800781 162.800781 62.519531 C 159.988281 64.117188 157.285156 65.878906 154.535156 67.574219 C 154.464844 67.675781 154.394531 67.78125 154.320312 67.886719 C 154.179688 67.90625 154.027344 67.96875 153.90625 67.925781 C 153.90625 67.925781 153.90625 67.925781 153.902344 67.925781 C 153.808594 67.890625 153.855469 67.757812 153.957031 67.695312 C 154.410156 66.511719 155.101562 65.464844 155.847656 64.457031 C 156.355469 63.765625 156.800781 63.054688 157.023438 62.21875 C 158.132812 60.742188 158.039062 59.273438 156.824219 58.101562 C 153.515625 59.738281 151.671875 62.648438 150.039062 65.757812 C 149.433594 66.914062 148.746094 68.027344 148.082031 69.152344 C 146.484375 71.839844 146.867188 71.539062 148.09375 73.769531 C 148.367188 74.269531 148.75 74.695312 149.179688 75.078125 C 149.335938 75.222656 149.492188 75.335938 149.714844 75.316406 C 150.058594 75.867188 150.605469 75.824219 151.132812 75.757812 C 152.703125 75.554688 154.265625 75.332031 155.835938 75.113281 C 156.183594 75.265625 156.519531 75.179688 156.855469 75.078125 C 157.199219 75.242188 157.539062 75.148438 157.875 75.070312 C 158.097656 75.226562 158.351562 75.136719 158.589844 75.148438 C 161.832031 75.304688 165.007812 75.820312 168.085938 76.875 C 168.316406 76.953125 168.554688 77.011719 168.789062 77.082031 C 169.066406 77.167969 169.382812 77.265625 169.574219 76.996094 C 169.71875 76.789062 169.640625 76.449219 169.484375 76.300781 C 168.792969 75.65625 168.609375 74.691406 167.996094 74.007812 C 167.722656 73.707031 167.347656 73.539062 166.964844 73.375 C 164.011719 72.097656 160.917969 71.378906 157.738281 70.976562 C 157.453125 70.941406 157.15625 70.949219 156.890625 70.855469 C 156.582031 70.746094 156.640625 70.488281 156.769531 70.25 C 157.097656 70.257812 157.316406 70.109375 157.4375 69.8125 C 157.738281 69.765625 158.023438 69.691406 158.148438 69.363281 C 158.226562 69.394531 158.269531 69.367188 158.285156 69.285156 C 158.574219 69.246094 158.832031 69.164062 158.964844 68.871094 C 159.152344 68.800781 159.355469 68.753906 159.527344 68.65625 C 161.433594 67.5625 163.320312 66.4375 165.234375 65.363281 C 166.976562 64.390625 168.742188 63.472656 170.5 62.53125 C 170.996094 62.339844 171.496094 62.164062 171.976562 61.957031 C 176.691406 59.933594 181.578125 58.511719 186.664062 57.824219 C 188.480469 57.578125 190.300781 57.386719 192.121094 57.171875 C 192.484375 57.335938 192.835938 57.226562 193.1875 57.121094 C 193.53125 57.285156 193.863281 57.1875 194.203125 57.089844 C 194.519531 57.269531 194.835938 57.152344 195.152344 57.089844 C 195.351562 57.226562 195.554688 57.199219 195.757812 57.105469 C 195.832031 57.152344 195.902344 57.148438 195.972656 57.09375 C 196.195312 57.242188 196.445312 57.160156 196.683594 57.175781 C 197.851562 57.269531 199.03125 57.148438 200.191406 57.386719 C 200.285156 57.28125 200.613281 57.203125 200.1875 57.070312 C 199.90625 56.980469 199.882812 56.898438 199.949219 56.824219 C 200.011719 56.761719 200.136719 56.699219 200.230469 56.640625 C 203.914062 57.046875 207.503906 57.890625 211.042969 58.96875 C 211.359375 59.097656 211.683594 59.226562 212 59.359375 C 213.90625 60.136719 215.8125 60.914062 217.71875 61.691406 C 217.761719 61.765625 217.816406 61.8125 217.886719 61.835938 C 217.933594 61.851562 217.980469 61.855469 218.035156 61.851562 C 218.105469 61.972656 218.210938 62.019531 218.347656 62.003906 C 218.414062 62.128906 218.519531 62.179688 218.660156 62.160156 C 218.722656 62.285156 218.828125 62.335938 218.96875 62.316406 C 219.035156 62.445312 219.136719 62.5 219.277344 62.476562 C 219.339844 62.609375 219.441406 62.660156 219.582031 62.636719 L 219.585938 62.640625 C 219.644531 62.769531 219.746094 62.824219 219.886719 62.800781 L 219.890625 62.804688 C 219.984375 62.863281 220.085938 62.921875 220.1875 62.96875 L 220.199219 62.976562 C 220.253906 63.105469 220.351562 63.160156 220.492188 63.140625 L 220.503906 63.144531 C 220.5625 63.273438 220.660156 63.332031 220.800781 63.3125 L 220.808594 63.316406 C 220.808594 63.316406 220.8125 63.320312 220.8125 63.320312 C 220.8125 63.320312 220.808594 63.316406 220.808594 63.316406 C 220.863281 63.449219 220.964844 63.503906 221.105469 63.484375 L 221.113281 63.488281 C 221.167969 63.617188 221.265625 63.675781 221.410156 63.65625 L 221.414062 63.660156 C 221.46875 63.789062 221.570312 63.847656 221.710938 63.832031 C 222.601562 64.425781 223.488281 65.019531 224.378906 65.609375 C 224.9375 65.773438 225.347656 66.175781 225.800781 66.507812 C 225.789062 66.574219 225.765625 66.628906 225.734375 66.679688 C 225.6875 66.753906 225.621094 66.808594 225.527344 66.847656 C 225.839844 67.132812 226.132812 67.445312 226.558594 67.574219 C 226.691406 67.601562 226.816406 67.644531 226.917969 67.738281 C 226.800781 67.683594 226.679688 67.625 226.558594 67.574219 C 226.640625 67.6875 226.730469 67.78125 226.878906 67.746094 C 226.9375 67.953125 227.082031 68.066406 227.285156 68.125 C 227.320312 68.257812 227.398438 68.335938 227.542969 68.328125 C 227.613281 68.453125 227.699219 68.546875 227.855469 68.546875 C 227.878906 68.613281 227.921875 68.664062 227.992188 68.683594 C 228.25 69.019531 228.5625 69.285156 228.9375 69.472656 C 229.132812 69.699219 229.320312 69.933594 229.613281 70.042969 C 229.683594 70.230469 229.851562 70.320312 230.007812 70.417969 C 230.765625 71.3125 231.6875 72.0625 232.304688 73.148438 C 232.554688 72.785156 233.035156 72.800781 233.066406 72.359375 Z M 158.222656 69.050781 C 158.226562 69.050781 158.226562 69.050781 158.230469 69.050781 C 158.230469 69.046875 158.226562 69.046875 158.226562 69.046875 C 158.230469 69.046875 158.234375 69.050781 158.234375 69.050781 C 158.234375 69.050781 158.230469 69.050781 158.230469 69.050781 C 158.230469 69.054688 158.230469 69.058594 158.234375 69.058594 C 158.226562 69.058594 158.226562 69.054688 158.222656 69.050781 Z M 221.386719 62.867188 C 221.367188 62.847656 221.347656 62.832031 221.324219 62.8125 C 221.332031 62.816406 221.339844 62.816406 221.34375 62.820312 C 221.367188 62.832031 221.386719 62.84375 221.40625 62.859375 C 221.402344 62.859375 221.398438 62.863281 221.386719 62.867188 Z M 217.738281 61.691406 C 217.738281 61.6875 217.742188 61.6875 217.742188 61.683594 C 217.746094 61.675781 217.75 61.667969 217.753906 61.660156 L 217.777344 61.632812 L 217.742188 61.6875 C 217.742188 61.691406 217.746094 61.691406 217.746094 61.691406 C 217.746094 61.691406 217.742188 61.691406 217.738281 61.691406 Z M 221.503906 62.808594 C 221.472656 62.824219 221.441406 62.839844 221.414062 62.855469 C 221.394531 62.84375 221.371094 62.832031 221.351562 62.820312 C 221.398438 62.839844 221.453125 62.835938 221.503906 62.808594 Z M 221.21875 62.738281 C 221.191406 62.722656 221.167969 62.710938 221.148438 62.695312 C 221.148438 62.691406 221.144531 62.691406 221.144531 62.691406 C 221.167969 62.707031 221.191406 62.722656 221.21875 62.738281 Z M 232.25 70.292969 C 232.253906 70.292969 232.257812 70.296875 232.261719 70.296875 C 232.261719 70.296875 232.265625 70.296875 232.265625 70.296875 C 232.265625 70.300781 232.269531 70.304688 232.269531 70.308594 C 232.261719 70.304688 232.257812 70.300781 232.25 70.292969 Z M 231.914062 69.898438 C 231.910156 69.890625 231.910156 69.886719 231.902344 69.882812 C 231.90625 69.890625 231.910156 69.894531 231.914062 69.898438 Z M 227.132812 67.742188 C 227.152344 67.730469 227.175781 67.714844 227.195312 67.695312 C 227.199219 67.710938 227.203125 67.726562 227.210938 67.742188 C 227.183594 67.738281 227.15625 67.742188 227.132812 67.742188 Z M 227.777344 68.402344 C 227.8125 68.425781 227.84375 68.460938 227.863281 68.507812 C 227.863281 68.507812 227.863281 68.507812 227.859375 68.507812 C 227.835938 68.464844 227.8125 68.429688 227.777344 68.402344 Z M 227.777344 68.402344 " fill-opacity="1" fill-rule="nonzero"/></g></g></g></g><g clip-path="url(#id27)"><g clip-path="url(#id28)"><g clip-path="url(#id29)"><g clip-path="url(#id30)"><path fill="#ffffff" d="M 220.207031 62.972656 C 220.109375 62.917969 220.007812 62.867188 219.914062 62.808594 C 219.96875 62.941406 220.070312 62.992188 220.207031 62.972656 Z M 220.207031 62.972656 " fill-opacity="1" fill-rule="nonzero"/></g></g></g></g><path fill="#ffffff" d="M 322.402344 110.457031 C 321.375 108.292969 319.621094 107.15625 317.601562 106.734375 C 318.128906 106.246094 318.570312 105.660156 318.972656 104.992188 C 319.941406 103.394531 320.367188 101.511719 320.40625 99.648438 C 320.488281 95.824219 318.933594 91.957031 316.554688 89.023438 C 312.019531 83.414062 303.773438 83.476562 297.785156 86.894531 C 298.429688 83.65625 298.003906 80.136719 296.191406 77.421875 C 294.074219 74.226562 290.484375 72.523438 286.792969 71.9375 C 279.03125 70.722656 269.355469 73.335938 264.3125 79.667969 C 262.457031 81.976562 261.734375 84.488281 261.953125 87.078125 C 261.351562 86.632812 260.703125 86.226562 260.140625 85.882812 C 258.507812 84.933594 256.710938 84.285156 254.835938 84.023438 C 250.984375 83.496094 246.773438 84.75 243.789062 87.261719 C 241.46875 89.203125 239.351562 92.140625 238.546875 95.074219 C 238.203125 96.289062 238.023438 97.765625 238.503906 98.960938 C 238.527344 99.019531 238.566406 99.082031 238.585938 99.164062 C 229.070312 95.15625 217.878906 110.863281 224.816406 119.34375 C 227.597656 122.746094 232.054688 124.039062 236.269531 124.605469 C 237.011719 130.578125 240.300781 135.78125 245.90625 138.332031 C 251.390625 140.839844 257.984375 140.578125 263.105469 137.320312 C 265.382812 135.859375 267.15625 133.9375 268.527344 131.710938 C 273.042969 138.371094 280.867188 142.722656 288.910156 139.261719 C 293.832031 137.136719 299.578125 131.691406 300.464844 125.902344 C 305.101562 129.242188 312.21875 129.34375 317.058594 126.589844 C 322.421875 123.535156 325.125 116.144531 322.402344 110.457031 Z M 318.308594 121.003906 C 316.210938 123.917969 312.601562 124.929688 309.195312 124.789062 C 305.484375 124.625 302.257812 122.765625 300.0625 119.808594 C 299.578125 119.160156 298.914062 118.9375 298.328125 119 C 297.28125 118.816406 296.050781 119.6875 296.453125 120.964844 C 297.5 124.179688 296.917969 127.035156 295.042969 129.808594 C 293.207031 132.5 290.425781 134.789062 287.398438 136.003906 C 280.222656 138.898438 273.125 133.757812 269.898438 127.460938 C 269.171875 126.042969 267.378906 126.652344 266.875 127.867188 C 264.253906 134.160156 257.761719 137.480469 251.128906 136.570312 C 244.394531 135.660156 239.171875 130.355469 238.707031 123.472656 C 238.667969 122.722656 238.164062 122.277344 237.4375 122.199219 C 231.769531 121.550781 224.453125 118.980469 225.058594 112.015625 C 225.460938 107.320312 229.007812 102.664062 233.261719 100.78125 C 235.683594 99.710938 238.503906 99.667969 240.722656 101.246094 C 241.003906 101.449219 241.367188 100.984375 241.105469 100.742188 C 240.964844 100.621094 240.84375 100.519531 240.703125 100.417969 C 240.664062 99.628906 240.140625 98.917969 240.140625 98.050781 C 240.117188 96.855469 240.582031 95.742188 241.085938 94.6875 C 242.136719 92.523438 243.726562 90.359375 245.683594 88.941406 C 248.222656 87.097656 251.710938 86.167969 254.796875 86.796875 C 256.347656 87.117188 257.78125 87.765625 259.089844 88.636719 C 260.5625 89.609375 261.632812 91.046875 263.0625 92.015625 C 264.234375 92.808594 265.421875 91.308594 264.878906 90.195312 C 264.617188 89.648438 264.234375 89.144531 263.789062 88.65625 C 263.46875 82.828125 268.589844 78.253906 273.851562 76.25 C 279.496094 74.101562 288.347656 73.03125 292.863281 78.089844 C 295.765625 81.328125 294.777344 85.640625 294.253906 89.507812 C 294.253906 89.527344 294.253906 89.546875 294.253906 89.566406 C 294.152344 89.667969 294.074219 89.75 293.972656 89.851562 C 293.449219 90.417969 294.132812 91.390625 294.820312 90.945312 C 294.839844 90.925781 294.878906 90.902344 294.898438 90.882812 C 295.425781 91.269531 296.171875 91.25 296.554688 90.480469 C 296.675781 90.257812 296.773438 90.011719 296.875 89.769531 C 302.28125 87.078125 309.738281 85.882812 313.875 90.882812 C 315.6875 93.070312 316.878906 96.023438 316.957031 98.878906 C 317.058594 102.160156 315.386719 104 313.167969 106.125 C 312.523438 106.734375 312.722656 107.523438 313.269531 107.96875 C 313.390625 108.25 313.652344 108.472656 314.074219 108.453125 C 320.929688 108.332031 321.433594 116.632812 318.308594 121.003906 Z M 318.308594 121.003906 " fill-opacity="1" fill-rule="nonzero"/><g clip-path="url(#id31)"><path fill="#ffffff" d="M 331.234375 134.175781 C 330.402344 134.175781 329.578125 134.257812 328.761719 134.417969 C 327.945312 134.582031 327.152344 134.820312 326.382812 135.140625 C 325.613281 135.457031 324.882812 135.847656 324.191406 136.308594 C 323.496094 136.773438 322.855469 137.296875 322.269531 137.882812 C 321.679688 138.472656 321.152344 139.113281 320.6875 139.804688 C 320.226562 140.496094 319.832031 141.226562 319.511719 141.992188 C 319.195312 142.761719 318.953125 143.554688 318.789062 144.371094 C 318.625 145.1875 318.539062 146.011719 318.539062 146.84375 C 318.539062 147.527344 318.609375 148.207031 318.746094 148.878906 C 318.878906 149.554688 319.078125 150.207031 319.34375 150.839844 C 319.605469 151.472656 319.925781 152.074219 320.308594 152.644531 C 320.691406 153.214844 321.125 153.742188 321.609375 154.226562 C 322.09375 154.710938 322.621094 155.144531 323.191406 155.527344 C 323.761719 155.90625 324.363281 156.230469 324.996094 156.492188 C 325.628906 156.757812 326.28125 156.957031 326.953125 157.089844 C 327.625 157.226562 328.304688 157.292969 328.992188 157.296875 C 329.558594 157.296875 330.121094 157.242188 330.679688 157.128906 C 331.234375 157.019531 331.777344 156.855469 332.300781 156.636719 C 332.828125 156.421875 333.324219 156.152344 333.796875 155.839844 C 334.269531 155.523438 334.707031 155.164062 335.109375 154.761719 C 335.511719 154.359375 335.867188 153.921875 336.183594 153.453125 C 336.5 152.980469 336.765625 152.480469 336.984375 151.957031 C 337.203125 151.429688 337.367188 150.890625 337.476562 150.332031 C 337.585938 149.773438 337.644531 149.210938 337.644531 148.644531 C 337.644531 148.171875 337.597656 147.703125 337.503906 147.238281 C 337.410156 146.773438 337.273438 146.324219 337.09375 145.886719 C 336.914062 145.449219 336.691406 145.035156 336.429688 144.640625 C 336.164062 144.25 335.867188 143.882812 335.53125 143.550781 C 335.199219 143.214844 334.835938 142.917969 334.441406 142.652344 C 334.046875 142.390625 333.632812 142.167969 333.195312 141.988281 C 332.757812 141.808594 332.308594 141.671875 331.84375 141.578125 C 331.378906 141.484375 330.910156 141.441406 330.4375 141.441406 C 330.039062 141.4375 329.644531 141.476562 329.253906 141.550781 C 328.863281 141.628906 328.480469 141.742188 328.113281 141.890625 C 327.742188 142.042969 327.394531 142.230469 327.0625 142.449219 C 326.730469 142.671875 326.421875 142.921875 326.140625 143.203125 C 325.855469 143.484375 325.605469 143.789062 325.382812 144.121094 C 325.160156 144.453125 324.972656 144.800781 324.820312 145.167969 C 324.664062 145.539062 324.550781 145.917969 324.472656 146.308594 C 324.394531 146.699219 324.355469 147.09375 324.355469 147.492188 C 324.355469 147.832031 324.386719 148.167969 324.453125 148.5 C 324.519531 148.832031 324.617188 149.15625 324.75 149.46875 C 324.878906 149.785156 325.039062 150.082031 325.226562 150.363281 C 325.414062 150.644531 325.628906 150.90625 325.867188 151.148438 C 326.109375 151.386719 326.371094 151.601562 326.652344 151.789062 C 326.933594 151.976562 327.230469 152.136719 327.546875 152.265625 C 327.859375 152.398438 328.183594 152.496094 328.515625 152.5625 C 328.847656 152.628906 329.183594 152.660156 329.523438 152.660156 C 329.71875 152.65625 329.902344 152.617188 330.082031 152.539062 C 330.261719 152.464844 330.421875 152.355469 330.558594 152.21875 C 330.695312 152.082031 330.804688 151.921875 330.878906 151.746094 C 330.957031 151.566406 330.996094 151.378906 331 151.183594 C 331 150.988281 330.960938 150.800781 330.886719 150.617188 C 330.8125 150.4375 330.707031 150.277344 330.566406 150.140625 C 330.429688 150 330.269531 149.894531 330.085938 149.820312 C 329.90625 149.746094 329.71875 149.707031 329.523438 149.707031 C 329.230469 149.703125 328.949219 149.644531 328.679688 149.53125 C 328.410156 149.417969 328.171875 149.257812 327.964844 149.050781 C 327.757812 148.84375 327.597656 148.605469 327.484375 148.335938 C 327.371094 148.066406 327.3125 147.785156 327.308594 147.492188 C 327.3125 147.082031 327.394531 146.683594 327.554688 146.304688 C 327.714844 145.925781 327.941406 145.589844 328.234375 145.300781 C 328.527344 145.007812 328.867188 144.785156 329.246094 144.628906 C 329.628906 144.472656 330.027344 144.394531 330.4375 144.394531 C 330.714844 144.394531 330.992188 144.421875 331.265625 144.480469 C 331.539062 144.535156 331.804688 144.617188 332.0625 144.722656 C 332.316406 144.832031 332.5625 144.964844 332.792969 145.117188 C 333.023438 145.273438 333.238281 145.449219 333.4375 145.648438 C 333.632812 145.84375 333.808594 146.058594 333.964844 146.289062 C 334.121094 146.519531 334.25 146.765625 334.359375 147.023438 C 334.464844 147.277344 334.546875 147.542969 334.601562 147.816406 C 334.660156 148.089844 334.6875 148.367188 334.691406 148.644531 C 334.6875 149.019531 334.648438 149.386719 334.574219 149.753906 C 334.5 150.121094 334.390625 150.476562 334.25 150.820312 C 334.105469 151.164062 333.929688 151.492188 333.71875 151.804688 C 333.511719 152.113281 333.277344 152.402344 333.011719 152.664062 C 332.75 152.929688 332.460938 153.167969 332.148438 153.375 C 331.839844 153.582031 331.511719 153.757812 331.167969 153.902344 C 330.824219 154.046875 330.46875 154.15625 330.101562 154.230469 C 329.734375 154.304688 329.363281 154.339844 328.992188 154.34375 C 328.5 154.34375 328.011719 154.296875 327.527344 154.199219 C 327.046875 154.101562 326.574219 153.960938 326.121094 153.773438 C 325.667969 153.585938 325.234375 153.351562 324.824219 153.078125 C 324.414062 152.804688 324.035156 152.496094 323.6875 152.148438 C 323.339844 151.796875 323.027344 151.417969 322.753906 151.011719 C 322.480469 150.601562 322.25 150.167969 322.0625 149.714844 C 321.875 149.257812 321.730469 148.789062 321.636719 148.308594 C 321.539062 147.824219 321.492188 147.335938 321.492188 146.84375 C 321.492188 146.203125 321.558594 145.574219 321.683594 144.945312 C 321.808594 144.320312 321.996094 143.714844 322.242188 143.125 C 322.488281 142.535156 322.789062 141.972656 323.144531 141.445312 C 323.5 140.914062 323.902344 140.421875 324.355469 139.972656 C 324.808594 139.523438 325.300781 139.117188 325.832031 138.765625 C 326.363281 138.410156 326.921875 138.113281 327.511719 137.867188 C 328.101562 137.625 328.710938 137.441406 329.339844 137.316406 C 329.964844 137.191406 330.597656 137.128906 331.234375 137.128906 C 332.058594 137.128906 332.871094 137.210938 333.679688 137.371094 C 334.484375 137.53125 335.265625 137.765625 336.027344 138.082031 C 336.785156 138.398438 337.507812 138.78125 338.191406 139.238281 C 338.875 139.695312 339.507812 140.214844 340.089844 140.796875 C 340.667969 141.378906 341.1875 142.007812 341.644531 142.691406 C 342.101562 143.375 342.488281 144.097656 342.800781 144.859375 C 343.117188 145.617188 343.355469 146.398438 343.515625 147.207031 C 343.675781 148.011719 343.753906 148.828125 343.753906 149.648438 C 343.753906 150.171875 343.730469 150.699219 343.679688 151.21875 C 343.625 151.742188 343.550781 152.261719 343.445312 152.777344 C 343.34375 153.292969 343.21875 153.800781 343.066406 154.304688 C 342.914062 154.804688 342.734375 155.300781 342.535156 155.785156 C 342.332031 156.269531 342.109375 156.742188 341.863281 157.207031 C 341.613281 157.667969 341.34375 158.121094 341.054688 158.554688 C 340.761719 158.992188 340.449219 159.414062 340.117188 159.820312 C 339.78125 160.226562 339.429688 160.613281 339.058594 160.984375 C 338.6875 161.355469 338.300781 161.710938 337.894531 162.042969 C 337.488281 162.375 337.066406 162.6875 336.628906 162.980469 C 336.191406 163.273438 335.742188 163.542969 335.28125 163.789062 C 334.816406 164.035156 334.34375 164.261719 333.855469 164.460938 C 333.371094 164.664062 332.878906 164.839844 332.375 164.992188 C 331.875 165.144531 331.363281 165.273438 330.847656 165.375 C 330.335938 165.476562 329.816406 165.554688 329.292969 165.605469 C 328.769531 165.65625 328.246094 165.683594 327.722656 165.683594 L 279.796875 165.683594 C 279.605469 165.6875 279.417969 165.726562 279.238281 165.800781 C 279.058594 165.878906 278.898438 165.984375 278.761719 166.121094 C 278.625 166.261719 278.519531 166.417969 278.441406 166.597656 C 278.367188 166.777344 278.324219 166.964844 278.320312 167.160156 C 278.320312 167.355469 278.359375 167.542969 278.433594 167.722656 C 278.507812 167.90625 278.617188 168.0625 278.753906 168.203125 C 278.894531 168.339844 279.050781 168.449219 279.234375 168.523438 C 279.414062 168.597656 279.601562 168.636719 279.796875 168.636719 L 327.722656 168.636719 C 328.34375 168.636719 328.964844 168.605469 329.582031 168.542969 C 330.203125 168.484375 330.816406 168.390625 331.425781 168.269531 C 332.035156 168.148438 332.636719 167.996094 333.234375 167.816406 C 333.828125 167.636719 334.414062 167.425781 334.988281 167.191406 C 335.5625 166.953125 336.125 166.6875 336.671875 166.394531 C 337.21875 166.101562 337.753906 165.78125 338.269531 165.433594 C 338.785156 165.089844 339.285156 164.71875 339.765625 164.324219 C 340.246094 163.929688 340.707031 163.511719 341.148438 163.074219 C 341.585938 162.632812 342.003906 162.175781 342.398438 161.691406 C 342.792969 161.210938 343.164062 160.714844 343.507812 160.195312 C 343.851562 159.679688 344.171875 159.148438 344.464844 158.597656 C 344.757812 158.050781 345.023438 157.488281 345.261719 156.914062 C 345.5 156.339844 345.710938 155.753906 345.890625 155.160156 C 346.070312 154.566406 346.222656 153.960938 346.34375 153.351562 C 346.464844 152.742188 346.554688 152.128906 346.617188 151.507812 C 346.675781 150.890625 346.707031 150.269531 346.707031 149.648438 C 346.707031 148.632812 346.605469 147.628906 346.40625 146.632812 C 346.207031 145.636719 345.910156 144.667969 345.523438 143.730469 C 345.132812 142.792969 344.65625 141.902344 344.089844 141.058594 C 343.527344 140.214844 342.886719 139.433594 342.167969 138.714844 C 341.449219 138 340.667969 137.355469 339.824219 136.792969 C 338.980469 136.226562 338.089844 135.75 337.152344 135.363281 C 336.214844 134.972656 335.246094 134.679688 334.25 134.476562 C 333.257812 134.277344 332.25 134.179688 331.234375 134.175781 Z M 331.234375 134.175781 " fill-opacity="1" fill-rule="nonzero"/></g><g clip-path="url(#id32)"><path fill="#ffffff" d="M 317.417969 170.554688 L 286.265625 170.554688 C 286.070312 170.558594 285.882812 170.597656 285.703125 170.675781 C 285.523438 170.75 285.367188 170.855469 285.230469 170.996094 C 285.089844 171.132812 284.984375 171.289062 284.910156 171.46875 C 284.832031 171.648438 284.792969 171.835938 284.789062 172.03125 C 284.789062 172.226562 284.824219 172.414062 284.902344 172.59375 C 284.976562 172.777344 285.082031 172.9375 285.222656 173.074219 C 285.359375 173.210938 285.519531 173.320312 285.699219 173.394531 C 285.878906 173.46875 286.070312 173.507812 286.265625 173.507812 L 317.417969 173.507812 C 318.066406 173.507812 318.710938 173.574219 319.351562 173.703125 C 319.988281 173.832031 320.609375 174.019531 321.207031 174.269531 C 321.808594 174.519531 322.378906 174.824219 322.921875 175.1875 C 323.460938 175.550781 323.964844 175.960938 324.421875 176.421875 C 324.882812 176.882812 325.292969 177.382812 325.65625 177.921875 C 326.019531 178.464844 326.324219 179.035156 326.574219 179.636719 C 326.824219 180.238281 327.015625 180.855469 327.140625 181.496094 C 327.269531 182.132812 327.335938 182.777344 327.335938 183.429688 C 327.335938 183.929688 327.285156 184.425781 327.1875 184.914062 C 327.085938 185.40625 326.941406 185.882812 326.746094 186.34375 C 326.554688 186.808594 326.316406 187.246094 326.039062 187.664062 C 325.757812 188.078125 325.441406 188.464844 325.085938 188.816406 C 324.734375 189.171875 324.347656 189.484375 323.929688 189.761719 C 323.511719 190.042969 323.074219 190.277344 322.609375 190.46875 C 322.148438 190.65625 321.667969 190.800781 321.179688 190.898438 C 320.6875 190.996094 320.191406 191.046875 319.691406 191.046875 C 319.300781 191.046875 318.917969 191.007812 318.539062 190.933594 C 318.15625 190.855469 317.789062 190.746094 317.429688 190.597656 C 317.070312 190.449219 316.730469 190.265625 316.410156 190.050781 C 316.085938 189.835938 315.789062 189.589844 315.515625 189.316406 C 315.238281 189.042969 314.996094 188.742188 314.78125 188.421875 C 314.5625 188.097656 314.382812 187.757812 314.234375 187.402344 C 314.085938 187.042969 313.972656 186.671875 313.898438 186.292969 C 313.824219 185.914062 313.785156 185.527344 313.785156 185.140625 C 313.785156 184.855469 313.816406 184.570312 313.875 184.292969 C 313.929688 184.011719 314.015625 183.742188 314.125 183.476562 C 314.234375 183.214844 314.371094 182.964844 314.53125 182.726562 C 314.691406 182.488281 314.871094 182.269531 315.074219 182.070312 C 315.277344 181.867188 315.496094 181.6875 315.734375 181.53125 C 315.972656 181.371094 316.226562 181.238281 316.488281 181.128906 C 316.753906 181.019531 317.023438 180.9375 317.304688 180.882812 C 317.585938 180.828125 317.867188 180.800781 318.15625 180.800781 L 318.480469 180.800781 C 317.964844 180.8125 317.476562 180.921875 317.003906 181.128906 C 316.535156 181.335938 316.125 181.625 315.769531 181.996094 C 315.414062 182.367188 315.144531 182.792969 314.960938 183.269531 C 314.773438 183.75 314.6875 184.242188 314.699219 184.757812 C 314.699219 185.050781 314.726562 185.339844 314.785156 185.625 C 314.84375 185.914062 314.925781 186.191406 315.039062 186.464844 C 315.152344 186.734375 315.289062 186.992188 315.453125 187.234375 C 315.613281 187.476562 315.796875 187.703125 316.003906 187.910156 C 316.210938 188.117188 316.4375 188.300781 316.679688 188.464844 C 316.925781 188.625 317.183594 188.765625 317.453125 188.875 C 317.722656 188.988281 318 189.074219 318.289062 189.128906 C 318.574219 189.1875 318.867188 189.214844 319.160156 189.214844 C 319.5 189.21875 319.839844 189.1875 320.175781 189.121094 C 320.511719 189.054688 320.839844 188.957031 321.15625 188.828125 C 321.472656 188.699219 321.773438 188.539062 322.058594 188.351562 C 322.34375 188.160156 322.609375 187.945312 322.851562 187.703125 C 323.09375 187.460938 323.3125 187.199219 323.503906 186.914062 C 323.695312 186.628906 323.855469 186.332031 323.988281 186.015625 C 324.117188 185.699219 324.21875 185.371094 324.285156 185.035156 C 324.351562 184.699219 324.386719 184.359375 324.386719 184.019531 C 324.386719 183.617188 324.34375 183.214844 324.265625 182.820312 C 324.1875 182.425781 324.070312 182.039062 323.917969 181.667969 C 323.761719 181.296875 323.574219 180.941406 323.351562 180.605469 C 323.125 180.269531 322.871094 179.960938 322.585938 179.675781 C 322.300781 179.390625 321.992188 179.136719 321.65625 178.910156 C 321.320312 178.6875 320.964844 178.5 320.59375 178.34375 C 320.222656 178.191406 319.835938 178.074219 319.441406 177.996094 C 319.046875 177.917969 318.644531 177.878906 318.242188 177.878906 C 317.761719 177.878906 317.289062 177.921875 316.816406 178.015625 C 316.347656 178.109375 315.890625 178.25 315.449219 178.429688 C 315.003906 178.613281 314.582031 178.839844 314.183594 179.105469 C 313.785156 179.371094 313.414062 179.671875 313.074219 180.011719 C 312.734375 180.351562 312.433594 180.71875 312.164062 181.117188 C 311.898438 181.515625 311.671875 181.933594 311.484375 182.378906 C 311.300781 182.820312 311.160156 183.277344 311.066406 183.746094 C 310.972656 184.214844 310.921875 184.691406 310.921875 185.171875 C 310.921875 185.75 310.976562 186.328125 311.089844 186.898438 C 311.203125 187.46875 311.371094 188.023438 311.59375 188.558594 C 311.816406 189.097656 312.089844 189.609375 312.414062 190.089844 C 312.738281 190.574219 313.105469 191.023438 313.515625 191.433594 C 313.925781 191.84375 314.375 192.210938 314.855469 192.535156 C 315.339844 192.859375 315.851562 193.132812 316.390625 193.355469 C 316.925781 193.578125 317.480469 193.746094 318.050781 193.859375 C 318.621094 193.972656 319.195312 194.027344 319.777344 194.027344 C 320.472656 194.027344 321.160156 193.960938 321.84375 193.824219 C 322.523438 193.691406 323.1875 193.488281 323.828125 193.222656 C 324.46875 192.960938 325.082031 192.632812 325.660156 192.25 C 326.238281 191.863281 326.773438 191.425781 327.265625 190.933594 C 327.753906 190.445312 328.195312 189.910156 328.582031 189.332031 C 328.96875 188.753906 329.296875 188.148438 329.5625 187.503906 C 329.832031 186.863281 330.03125 186.203125 330.171875 185.523438 C 330.308594 184.839844 330.378906 184.152344 330.378906 183.457031 C 330.378906 182.609375 330.296875 181.765625 330.128906 180.933594 C 329.964844 180.101562 329.71875 179.289062 329.390625 178.507812 C 329.066406 177.722656 328.664062 176.976562 328.191406 176.269531 C 327.71875 175.566406 327.179688 174.910156 326.578125 174.3125 C 325.976562 173.714844 325.320312 173.179688 324.613281 172.707031 C 323.90625 172.238281 323.160156 171.84375 322.371094 171.519531 C 321.585938 171.195312 320.777344 170.953125 319.941406 170.792969 C 319.109375 170.628906 318.265625 170.550781 317.417969 170.554688 Z M 321.433594 184.078125 C 321.429688 184.375 321.367188 184.664062 321.25 184.9375 C 321.132812 185.214844 320.96875 185.457031 320.757812 185.667969 C 320.542969 185.875 320.296875 186.039062 320.023438 186.152344 C 319.746094 186.265625 319.457031 186.320312 319.160156 186.320312 C 318.957031 186.320312 318.765625 186.285156 318.582031 186.207031 C 318.398438 186.128906 318.234375 186.023438 318.09375 185.878906 C 317.953125 185.738281 317.84375 185.578125 317.765625 185.390625 C 317.691406 185.207031 317.652344 185.015625 317.652344 184.816406 C 317.652344 184.5625 317.742188 184.347656 317.921875 184.167969 C 318.097656 183.988281 318.316406 183.902344 318.566406 183.902344 C 318.765625 183.902344 318.953125 183.863281 319.132812 183.789062 C 319.3125 183.714844 319.472656 183.605469 319.613281 183.46875 C 319.75 183.328125 319.855469 183.171875 319.933594 182.988281 C 320.007812 182.808594 320.042969 182.621094 320.042969 182.425781 C 320.042969 182.132812 319.960938 181.863281 319.800781 181.617188 C 319.640625 181.371094 319.425781 181.1875 319.160156 181.066406 C 319.484375 181.160156 319.789062 181.304688 320.066406 181.5 C 320.347656 181.691406 320.589844 181.921875 320.792969 182.195312 C 321 182.464844 321.15625 182.761719 321.265625 183.085938 C 321.375 183.40625 321.429688 183.738281 321.433594 184.078125 Z M 321.433594 184.078125 " fill-opacity="1" fill-rule="nonzero"/></g><g clip-path="url(#id33)"><path fill="#ffffff" d="M 317.121094 150.859375 C 317.121094 150.164062 317.054688 149.476562 316.917969 148.792969 C 316.78125 148.113281 316.582031 147.449219 316.3125 146.808594 C 316.046875 146.164062 315.71875 145.554688 315.332031 144.976562 C 314.945312 144.398438 314.507812 143.863281 314.015625 143.375 C 313.523438 142.882812 312.988281 142.445312 312.40625 142.058594 C 311.828125 141.675781 311.21875 141.347656 310.574219 141.085938 C 309.933594 140.820312 309.269531 140.621094 308.585938 140.488281 C 307.90625 140.351562 307.214844 140.285156 306.519531 140.289062 C 305.9375 140.289062 305.363281 140.34375 304.792969 140.457031 C 304.222656 140.570312 303.667969 140.738281 303.128906 140.960938 C 302.59375 141.183594 302.082031 141.457031 301.597656 141.78125 C 301.117188 142.105469 300.667969 142.472656 300.257812 142.882812 C 299.847656 143.292969 299.476562 143.742188 299.15625 144.226562 C 298.832031 144.707031 298.558594 145.21875 298.335938 145.757812 C 298.113281 146.292969 297.945312 146.847656 297.832031 147.417969 C 297.71875 147.988281 297.664062 148.566406 297.664062 149.148438 C 297.664062 149.625 297.710938 150.101562 297.800781 150.570312 C 297.894531 151.042969 298.035156 151.5 298.21875 151.941406 C 298.398438 152.386719 298.625 152.808594 298.890625 153.207031 C 299.15625 153.605469 299.457031 153.972656 299.796875 154.3125 C 300.136719 154.652344 300.503906 154.957031 300.902344 155.226562 C 301.300781 155.492188 301.71875 155.71875 302.164062 155.902344 C 302.605469 156.089844 303.0625 156.230469 303.53125 156.324219 C 304 156.417969 304.476562 156.46875 304.957031 156.46875 C 305.359375 156.46875 305.757812 156.429688 306.152344 156.351562 C 306.550781 156.273438 306.933594 156.15625 307.304688 156.003906 C 307.679688 155.847656 308.03125 155.660156 308.367188 155.433594 C 308.703125 155.210938 309.011719 154.957031 309.296875 154.671875 C 309.582031 154.386719 309.839844 154.074219 310.0625 153.738281 C 310.285156 153.40625 310.476562 153.050781 310.628906 152.679688 C 310.785156 152.304688 310.902344 151.921875 310.980469 151.527344 C 311.058594 151.128906 311.097656 150.730469 311.097656 150.328125 C 311.097656 149.988281 311.0625 149.648438 310.996094 149.3125 C 310.929688 148.980469 310.832031 148.652344 310.703125 148.339844 C 310.570312 148.023438 310.410156 147.722656 310.222656 147.441406 C 310.03125 147.15625 309.816406 146.894531 309.574219 146.652344 C 309.335938 146.410156 309.070312 146.195312 308.789062 146.007812 C 308.503906 145.816406 308.203125 145.65625 307.890625 145.527344 C 307.574219 145.394531 307.25 145.296875 306.914062 145.230469 C 306.578125 145.164062 306.242188 145.132812 305.902344 145.132812 C 305.605469 145.128906 305.316406 145.15625 305.027344 145.210938 C 304.742188 145.265625 304.460938 145.351562 304.191406 145.460938 C 303.917969 145.574219 303.660156 145.710938 303.417969 145.875 C 303.171875 146.035156 302.945312 146.21875 302.738281 146.429688 C 302.53125 146.636719 302.347656 146.859375 302.183594 147.105469 C 302.023438 147.347656 301.882812 147.605469 301.773438 147.878906 C 301.660156 148.148438 301.578125 148.429688 301.523438 148.71875 C 301.46875 149.003906 301.441406 149.296875 301.441406 149.589844 C 301.441406 150.097656 301.539062 150.589844 301.734375 151.058594 C 301.929688 151.527344 302.207031 151.945312 302.566406 152.304688 C 302.925781 152.664062 303.339844 152.941406 303.8125 153.136719 C 304.28125 153.332031 304.773438 153.429688 305.28125 153.429688 C 305.144531 153.441406 305.003906 153.441406 304.867188 153.429688 C 304.582031 153.429688 304.296875 153.398438 304.015625 153.34375 C 303.734375 153.289062 303.464844 153.203125 303.199219 153.09375 C 302.933594 152.984375 302.683594 152.851562 302.445312 152.691406 C 302.207031 152.53125 301.988281 152.347656 301.789062 152.144531 C 301.585938 151.941406 301.40625 151.722656 301.246094 151.484375 C 301.089844 151.246094 300.957031 150.992188 300.847656 150.726562 C 300.742188 150.464844 300.660156 150.191406 300.605469 149.910156 C 300.550781 149.628906 300.523438 149.34375 300.527344 149.058594 C 300.527344 148.671875 300.566406 148.285156 300.640625 147.90625 C 300.714844 147.527344 300.828125 147.15625 300.976562 146.796875 C 301.125 146.441406 301.304688 146.097656 301.523438 145.777344 C 301.738281 145.453125 301.980469 145.15625 302.257812 144.882812 C 302.53125 144.609375 302.828125 144.363281 303.152344 144.148438 C 303.472656 143.933594 303.8125 143.75 304.171875 143.601562 C 304.53125 143.453125 304.898438 143.339844 305.28125 143.265625 C 305.660156 143.191406 306.042969 143.152344 306.433594 143.152344 C 306.933594 143.152344 307.429688 143.203125 307.921875 143.296875 C 308.410156 143.394531 308.890625 143.539062 309.351562 143.730469 C 309.816406 143.921875 310.253906 144.15625 310.671875 144.433594 C 311.089844 144.714844 311.472656 145.027344 311.828125 145.382812 C 312.183594 145.734375 312.5 146.121094 312.78125 146.535156 C 313.058594 146.953125 313.296875 147.390625 313.488281 147.851562 C 313.683594 148.316406 313.828125 148.792969 313.929688 149.28125 C 314.027344 149.773438 314.078125 150.269531 314.078125 150.769531 C 314.078125 151.421875 314.011719 152.066406 313.882812 152.703125 C 313.753906 153.339844 313.566406 153.957031 313.316406 154.558594 C 313.066406 155.160156 312.761719 155.726562 312.398438 156.269531 C 312.035156 156.808594 311.625 157.308594 311.164062 157.765625 C 310.703125 158.226562 310.203125 158.636719 309.660156 158.996094 C 309.121094 159.355469 308.550781 159.660156 307.949219 159.910156 C 307.347656 160.160156 306.726562 160.347656 306.089844 160.472656 C 305.453125 160.597656 304.808594 160.664062 304.160156 160.664062 L 273.125 160.664062 C 272.929688 160.664062 272.742188 160.699219 272.558594 160.773438 C 272.378906 160.851562 272.21875 160.957031 272.082031 161.09375 C 271.941406 161.234375 271.835938 161.394531 271.761719 161.574219 C 271.6875 161.753906 271.648438 161.941406 271.648438 162.140625 C 271.648438 162.335938 271.6875 162.523438 271.761719 162.703125 C 271.835938 162.882812 271.941406 163.042969 272.082031 163.183594 C 272.21875 163.320312 272.378906 163.429688 272.558594 163.503906 C 272.742188 163.578125 272.929688 163.613281 273.125 163.613281 L 304.246094 163.613281 C 305.085938 163.613281 305.917969 163.535156 306.746094 163.371094 C 307.570312 163.207031 308.371094 162.964844 309.148438 162.648438 C 309.921875 162.328125 310.664062 161.933594 311.363281 161.46875 C 312.0625 161.003906 312.710938 160.476562 313.308594 159.886719 C 313.90625 159.292969 314.441406 158.652344 314.910156 157.953125 C 315.382812 157.257812 315.78125 156.523438 316.109375 155.75 C 316.433594 154.976562 316.683594 154.175781 316.855469 153.355469 C 317.023438 152.53125 317.113281 151.699219 317.121094 150.859375 Z M 305.308594 150.355469 C 305.191406 150.363281 305.078125 150.339844 304.964844 150.296875 C 304.855469 150.253906 304.757812 150.191406 304.675781 150.105469 C 304.589844 150.023438 304.527344 149.925781 304.484375 149.816406 C 304.441406 149.703125 304.421875 149.589844 304.425781 149.472656 C 304.425781 149.273438 304.460938 149.078125 304.539062 148.894531 C 304.617188 148.710938 304.722656 148.546875 304.867188 148.40625 C 305.007812 148.265625 305.167969 148.15625 305.355469 148.082031 C 305.539062 148.003906 305.730469 147.964844 305.929688 147.964844 C 306.226562 147.964844 306.515625 148.023438 306.789062 148.136719 C 307.0625 148.25 307.304688 148.414062 307.515625 148.621094 C 307.726562 148.832031 307.890625 149.074219 308.003906 149.351562 C 308.117188 149.625 308.175781 149.910156 308.175781 150.210938 C 308.167969 150.546875 308.109375 150.871094 308 151.1875 C 307.886719 151.503906 307.730469 151.796875 307.523438 152.0625 C 307.320312 152.328125 307.078125 152.554688 306.800781 152.742188 C 306.523438 152.929688 306.222656 153.070312 305.902344 153.164062 C 306.175781 153.050781 306.394531 152.871094 306.558594 152.621094 C 306.71875 152.375 306.796875 152.101562 306.785156 151.804688 C 306.78125 151.617188 306.746094 151.441406 306.675781 151.269531 C 306.605469 151.097656 306.503906 150.941406 306.375 150.808594 C 306.246094 150.675781 306.097656 150.570312 305.929688 150.492188 C 305.761719 150.414062 305.585938 150.367188 305.398438 150.355469 Z M 305.308594 150.355469 " fill-opacity="1" fill-rule="nonzero"/></g></svg>