<svg xmlns="http://www.w3.org/2000/svg" xmlns:xlink="http://www.w3.org/1999/xlink" width="500" zoomAndPan="magnify" viewBox="0 0 375 374.999991" height="500" preserveAspectRatio="xMidYMid meet" version="1.0"><defs><clipPath id="id1"><path d="M 11.550781 7.03125 L 363.300781 7.03125 L 363.300781 358.78125 L 11.550781 358.78125 Z M 11.550781 7.03125 " clip-rule="nonzero"/></clipPath><clipPath id="id2"><path d="M 161 157.105469 L 214 157.105469 L 214 188 L 161 188 Z M 161 157.105469 " clip-rule="nonzero"/></clipPath><clipPath id="id3"><path d="M 112.671875 249 L 141.5 249 L 141.5 277.835938 L 112.671875 277.835938 Z M 112.671875 249 " clip-rule="nonzero"/></clipPath><clipPath id="id4"><path d="M 193.0625 249 L 222.296875 249 L 222.296875 277.835938 L 193.0625 277.835938 Z M 193.0625 249 " clip-rule="nonzero"/></clipPath><clipPath id="id5"><path d="M 152.867188 249 L 182 249 L 182 277.835938 L 152.867188 277.835938 Z M 152.867188 249 " clip-rule="nonzero"/></clipPath><clipPath id="id6"><path d="M 233.257812 249 L 262.347656 249 L 262.347656 277.835938 L 233.257812 277.835938 Z M 233.257812 249 " clip-rule="nonzero"/></clipPath><clipPath id="id7"><path d="M 137 56 L 243.234375 56 L 243.234375 130.789062 L 137 130.789062 Z M 137 56 " clip-rule="nonzero"/></clipPath><clipPath id="id8"><path d="M 131.484375 54.289062 L 151 54.289062 L 151 105 L 131.484375 105 Z M 131.484375 54.289062 " clip-rule="nonzero"/></clipPath></defs><rect x="-37.5" width="450" fill="#ffffff" y="-37.499999" height="449.999989" fill-opacity="1"/><rect x="-37.5" width="450" fill="#ffffff" y="-37.499999" height="449.999989" fill-opacity="1"/><rect x="-37.5" width="450" fill="#ffffff" y="-37.499999" height="449.999989" fill-opacity="1"/><g clip-path="url(#id1)"><path fill="#7ed957" d="M 187.425781 7.03125 C 90.292969 7.03125 11.550781 85.773438 11.550781 182.90625 C 11.550781 280.039062 90.292969 358.78125 187.425781 358.78125 C 284.558594 358.78125 363.300781 280.039062 363.300781 182.90625 C 363.300781 85.773438 284.558594 7.03125 187.425781 7.03125 " fill-opacity="1" fill-rule="nonzero"/></g><g clip-path="url(#id2)"><path fill="#ffffff" d="M 211.578125 187.828125 L 163.4375 187.828125 C 162.144531 187.828125 161.097656 186.777344 161.097656 185.488281 L 161.097656 159.445312 C 161.097656 158.152344 162.144531 157.105469 163.4375 157.105469 L 211.578125 157.105469 C 212.867188 157.105469 213.917969 158.152344 213.917969 159.445312 L 213.917969 185.488281 C 213.917969 186.777344 212.867188 187.828125 211.578125 187.828125 Z M 165.777344 183.148438 L 209.238281 183.148438 L 209.238281 161.78125 L 165.777344 161.78125 L 165.777344 183.148438 " fill-opacity="1" fill-rule="evenodd"/></g><path fill="#ffffff" d="M 160.40625 226.980469 L 136.335938 226.980469 C 135.042969 226.980469 133.996094 225.933594 133.996094 224.640625 L 133.996094 200.570312 C 133.996094 199.28125 135.042969 198.230469 136.335938 198.230469 L 160.40625 198.230469 C 161.699219 198.230469 162.746094 199.28125 162.746094 200.570312 L 162.746094 224.640625 C 162.746094 225.933594 161.695312 226.980469 160.40625 226.980469 Z M 138.671875 222.300781 L 158.066406 222.300781 L 158.066406 202.910156 L 138.671875 202.910156 L 138.671875 222.300781 " fill-opacity="1" fill-rule="evenodd"/><path fill="#ffffff" d="M 238.679688 226.980469 L 214.609375 226.980469 C 213.320312 226.980469 212.273438 225.933594 212.273438 224.640625 L 212.273438 200.570312 C 212.273438 199.28125 213.320312 198.230469 214.609375 198.230469 L 238.679688 198.230469 C 239.972656 198.230469 241.019531 199.28125 241.019531 200.570312 L 241.019531 224.640625 C 241.019531 225.933594 239.972656 226.980469 238.679688 226.980469 Z M 216.949219 222.300781 L 236.339844 222.300781 L 236.339844 202.910156 L 216.949219 202.910156 L 216.949219 222.300781 " fill-opacity="1" fill-rule="evenodd"/><g clip-path="url(#id3)"><path fill="#ffffff" d="M 127.042969 277.835938 C 119.121094 277.835938 112.671875 271.390625 112.671875 263.464844 C 112.671875 255.539062 119.121094 249.089844 127.042969 249.089844 C 134.96875 249.089844 141.417969 255.539062 141.417969 263.464844 C 141.417969 271.390625 134.96875 277.835938 127.042969 277.835938 Z M 127.042969 253.765625 C 121.699219 253.765625 117.347656 258.117188 117.347656 263.464844 C 117.347656 268.808594 121.699219 273.160156 127.042969 273.160156 C 132.390625 273.160156 136.738281 268.808594 136.738281 263.464844 C 136.738281 258.117188 132.390625 253.765625 127.042969 253.765625 " fill-opacity="1" fill-rule="evenodd"/></g><g clip-path="url(#id4)"><path fill="#ffffff" d="M 207.664062 277.835938 C 199.738281 277.835938 193.289062 271.390625 193.289062 263.464844 C 193.289062 255.539062 199.738281 249.089844 207.664062 249.089844 C 215.589844 249.089844 222.035156 255.539062 222.035156 263.464844 C 222.035156 271.390625 215.589844 277.835938 207.664062 277.835938 Z M 207.664062 253.765625 C 202.316406 253.765625 197.964844 258.117188 197.964844 263.464844 C 197.964844 268.808594 202.316406 273.160156 207.664062 273.160156 C 213.007812 273.160156 217.359375 268.808594 217.359375 263.464844 C 217.359375 258.117188 213.007812 253.765625 207.664062 253.765625 " fill-opacity="1" fill-rule="evenodd"/></g><g clip-path="url(#id5)"><path fill="#ffffff" d="M 167.351562 277.835938 C 159.429688 277.835938 152.980469 271.390625 152.980469 263.464844 C 152.980469 255.539062 159.429688 249.089844 167.351562 249.089844 C 175.277344 249.089844 181.726562 255.539062 181.726562 263.464844 C 181.726562 271.390625 175.277344 277.835938 167.351562 277.835938 Z M 167.351562 253.765625 C 162.007812 253.765625 157.65625 258.117188 157.65625 263.464844 C 157.65625 268.808594 162.007812 273.160156 167.351562 273.160156 C 172.699219 273.160156 177.050781 268.808594 177.050781 263.464844 C 177.050781 258.117188 172.699219 253.765625 167.351562 253.765625 " fill-opacity="1" fill-rule="evenodd"/></g><g clip-path="url(#id6)"><path fill="#ffffff" d="M 247.972656 277.835938 C 240.046875 277.835938 233.597656 271.390625 233.597656 263.464844 C 233.597656 255.539062 240.046875 249.089844 247.972656 249.089844 C 255.898438 249.089844 262.347656 255.539062 262.347656 263.464844 C 262.347656 271.390625 255.898438 277.835938 247.972656 277.835938 Z M 247.972656 253.765625 C 242.625 253.765625 238.273438 258.117188 238.273438 263.464844 C 238.273438 268.808594 242.625 273.160156 247.972656 273.160156 C 253.316406 273.160156 257.667969 268.808594 257.667969 263.464844 C 257.667969 258.117188 253.316406 253.765625 247.972656 253.765625 " fill-opacity="1" fill-rule="evenodd"/></g><path fill="#ffffff" d="M 214.253906 214.921875 L 160.785156 214.921875 C 159.496094 214.921875 158.449219 213.871094 158.449219 212.582031 C 158.449219 211.289062 159.496094 210.242188 160.785156 210.242188 L 214.253906 210.242188 C 215.546875 210.242188 216.59375 211.289062 216.59375 212.582031 C 216.59375 213.871094 215.546875 214.921875 214.253906 214.921875 " fill-opacity="1" fill-rule="evenodd"/><path fill="#ffffff" d="M 187.507812 214.769531 C 186.214844 214.769531 185.167969 213.734375 185.167969 212.453125 L 185.167969 185.617188 C 185.167969 184.335938 186.214844 183.296875 187.507812 183.296875 C 188.800781 183.296875 189.847656 184.335938 189.847656 185.617188 L 189.847656 212.453125 C 189.847656 213.734375 188.800781 214.769531 187.507812 214.769531 " fill-opacity="1" fill-rule="evenodd"/><path fill="#ffffff" d="M 167.386719 253.589844 C 166.09375 253.589844 165.046875 252.542969 165.046875 251.25 L 165.046875 241.492188 L 148.324219 241.492188 C 147.03125 241.492188 145.984375 240.445312 145.984375 239.15625 L 145.984375 224.921875 C 145.984375 223.628906 147.03125 222.582031 148.324219 222.582031 C 149.613281 222.582031 150.660156 223.628906 150.660156 224.921875 L 150.660156 236.816406 L 167.386719 236.816406 C 168.675781 236.816406 169.722656 237.863281 169.722656 239.15625 L 169.722656 251.25 C 169.722656 252.542969 168.675781 253.589844 167.386719 253.589844 " fill-opacity="1" fill-rule="evenodd"/><path fill="#ffffff" d="M 127.042969 253.511719 C 125.753906 253.511719 124.707031 252.464844 124.707031 251.175781 L 124.707031 239.15625 C 124.707031 237.863281 125.753906 236.816406 127.042969 236.816406 L 148.324219 236.816406 C 149.613281 236.816406 150.660156 237.863281 150.660156 239.15625 C 150.660156 240.445312 149.613281 241.492188 148.324219 241.492188 L 129.382812 241.492188 L 129.382812 251.175781 C 129.382812 252.464844 128.335938 253.511719 127.042969 253.511719 " fill-opacity="1" fill-rule="evenodd"/><path fill="#ffffff" d="M 207.628906 253.488281 C 206.339844 253.488281 205.292969 252.441406 205.292969 251.148438 L 205.292969 238.769531 C 205.292969 237.480469 206.339844 236.429688 207.628906 236.429688 L 224.257812 236.429688 L 224.257812 224.78125 C 224.257812 223.488281 225.304688 222.441406 226.597656 222.441406 C 227.890625 222.441406 228.9375 223.488281 228.9375 224.78125 L 228.9375 238.769531 C 228.9375 240.0625 227.890625 241.109375 226.597656 241.109375 L 209.96875 241.109375 L 209.96875 251.148438 C 209.96875 252.441406 208.921875 253.488281 207.628906 253.488281 " fill-opacity="1" fill-rule="evenodd"/><path fill="#ffffff" d="M 247.972656 253.578125 C 246.679688 253.578125 245.632812 252.53125 245.632812 251.238281 L 245.632812 241.109375 L 226.597656 241.109375 C 225.304688 241.109375 224.257812 240.0625 224.257812 238.769531 C 224.257812 237.480469 225.304688 236.429688 226.597656 236.429688 L 247.972656 236.429688 C 249.261719 236.429688 250.308594 237.480469 250.308594 238.769531 L 250.308594 251.238281 C 250.308594 252.53125 249.261719 253.578125 247.972656 253.578125 " fill-opacity="1" fill-rule="evenodd"/><g clip-path="url(#id7)"><path fill="#ffffff" d="M 145.378906 60.421875 L 146.832031 62.542969 L 147.34375 63.316406 L 147.609375 63.980469 L 148.136719 64.226562 L 149.046875 63.980469 L 152.457031 64.492188 L 154.035156 64.878906 L 155.210938 65.003906 L 155.597656 65.003906 L 157.96875 63.316406 L 160.460938 62.261719 L 163.09375 62.125 L 163.484375 61.875 L 163.871094 62.261719 L 163.730469 63.316406 L 162.289062 67.105469 L 161.359375 69.195312 L 160.726562 70.125 L 159.921875 70.632812 L 159.671875 71.050781 L 160.183594 72.105469 L 160.460938 72.738281 L 160.460938 73.542969 L 160.183594 77.316406 L 159.535156 78.371094 L 159.023438 79.296875 L 158.867188 80.226562 L 158.480469 80.613281 L 158.480469 80.863281 L 160.851562 82.300781 L 166.097656 81.25 L 166.75 81.25 L 171.738281 81.789062 L 174.742188 81.667969 L 176.058594 82.300781 L 178.675781 82.964844 L 182.359375 82.054688 L 186.292969 81.914062 L 187.191406 82.175781 L 188.105469 82.300781 L 189.933594 83.230469 L 192.179688 84.792969 L 192.8125 84.792969 L 193.867188 84.003906 L 194.671875 83.738281 L 194.796875 83.617188 L 196.5 82.828125 L 198.453125 82.5625 L 202.664062 82.6875 L 206.070312 83.105469 L 207.636719 83.617188 L 208.300781 83.617188 L 211.570312 84.40625 L 213.148438 84.929688 L 214.589844 85.054688 L 215.128906 85.441406 L 216.429688 85.566406 L 217.207031 85.859375 L 223.261719 87.296875 L 227.039062 87.933594 L 228.757812 88.472656 L 234.78125 89.246094 L 238.328125 88.859375 L 241.351562 87.296875 L 242.789062 85.984375 L 243.175781 86.105469 L 242.648438 88.984375 L 242.402344 90.5625 L 239.242188 95.128906 L 235.046875 98.53125 L 231.390625 100.621094 L 229.023438 101.425781 L 226.652344 101.671875 L 225.210938 102.214844 L 222.457031 102.476562 L 217.871094 102.335938 L 216.429688 102.214844 L 213.9375 101.285156 L 211.445312 100.234375 L 210.390625 99.847656 L 210.265625 99.96875 L 209.742188 99.582031 L 206.859375 99.058594 L 203.191406 98.019531 L 200.820312 96.582031 L 198.871094 95.128906 L 197.816406 94.601562 L 197.816406 94.476562 L 197.554688 94.214844 L 197.554688 95.792969 L 197.675781 101.039062 L 198.992188 105.214844 L 200.046875 106.792969 L 203.703125 110.335938 L 204.367188 110.460938 L 205.015625 110.847656 L 206.070312 111.234375 L 206.738281 111.777344 L 207.246094 112.550781 L 207.898438 117.285156 L 209.074219 120.933594 L 210.128906 124.601562 L 208.6875 127.480469 L 207.386719 127.742188 L 207 128.023438 L 204.894531 128.023438 L 204.753906 128.144531 L 202.664062 128.144531 L 201.875 127.234375 L 202.386719 125.792969 L 203.578125 124.867188 L 204.628906 124.601562 L 205.019531 124.214844 L 204.894531 122.375 L 202.925781 117.40625 L 201.207031 115.039062 L 199.765625 114.113281 L 198.871094 114.113281 L 196.886719 113.476562 L 193.09375 112.550781 L 191.125 111.234375 L 185.628906 106.265625 L 185.628906 106.144531 L 185.363281 105.863281 L 185.242188 105.863281 L 185.363281 108.617188 L 186.804688 110.722656 L 188.246094 111.234375 L 188.632812 111.777344 L 187.859375 114.25 L 186.417969 117.144531 L 185.117188 120.796875 L 184.449219 122.652344 L 183.398438 125.40625 L 182.238281 126.179688 L 179.605469 126.429688 L 178.425781 126.429688 L 176.320312 126.304688 L 176.179688 125.917969 L 174.878906 125.269531 L 174.617188 124.988281 L 174.742188 124.09375 L 175.671875 123.164062 L 176.847656 122.511719 L 178.550781 122.113281 L 179.605469 121.988281 L 180.921875 119.898438 L 181.570312 118.058594 L 181.695312 116.480469 L 182.359375 114.777344 L 182.746094 112.285156 L 182.359375 111.898438 L 180.921875 111.777344 L 179.742188 111.375 L 176.988281 109.546875 L 174.878906 106.53125 L 174.878906 106.265625 L 173.828125 106.265625 L 170.808594 106.792969 L 169.753906 106.652344 L 167.664062 106.265625 L 166.996094 107.84375 L 165.976562 109.933594 L 165.976562 110.183594 L 165.695312 110.460938 L 165.695312 111.109375 L 165.433594 112.039062 L 164.257812 119.621094 L 164.535156 121.988281 L 164.394531 126.566406 L 163.480469 127.621094 L 162.164062 128.53125 L 161.5 128.917969 L 160.183594 130.359375 L 159.671875 130.496094 L 158.230469 130.777344 L 157.425781 130.496094 L 155.089844 129.460938 L 154.808594 129.058594 L 154.808594 127.867188 L 155.476562 126.847656 L 156.125 126.304688 L 158.480469 125.917969 L 159.53125 124.726562 L 160.183594 118.96875 L 160.058594 116.742188 L 159.53125 112.8125 L 158.742188 110.460938 L 156.914062 107.582031 L 155.351562 106.40625 L 153.773438 105.742188 L 153.773438 106.40625 L 153.894531 106.53125 L 154.160156 107.304688 L 154.035156 108.480469 L 152.207031 111.777344 L 151.929688 112.550781 L 151.15625 114.390625 L 149.046875 120.160156 L 148.523438 121.460938 L 148.273438 122.375 L 147.46875 124.988281 L 147.46875 125.917969 L 146.957031 126.566406 L 146.292969 127.234375 L 143.535156 128.144531 L 140.917969 127.742188 L 139.601562 127.621094 L 138.828125 126.566406 L 139.089844 125.269531 L 139.878906 124.339844 L 140.390625 123.8125 L 142.09375 123.285156 L 142.359375 123.039062 L 142.882812 123.039062 L 143.796875 122.109375 L 144.589844 120.546875 L 146.292969 114.917969 L 146.957031 110.988281 L 147.46875 108.898438 L 147.082031 104.6875 L 146.832031 104.300781 L 145.097656 103.777344 L 144.078125 103.25 L 141.832031 100.621094 L 140.65625 99.96875 L 138.703125 96.707031 L 137.773438 92.527344 L 137.511719 89.246094 L 137.773438 87.296875 L 137.773438 83.617188 L 138.023438 79.5625 L 138.5625 78.121094 L 139.214844 74.5625 L 140.390625 70.511719 L 140.777344 69.472656 L 140.65625 65.929688 L 140.265625 65.140625 L 140.390625 61.351562 L 141.195312 59.371094 L 141.832031 58.472656 L 142.21875 56.753906 L 142.636719 56.878906 L 145.378906 60.421875 " fill-opacity="1" fill-rule="nonzero"/></g><path fill="#ffffff" d="M 145.097656 64.878906 L 145.097656 65.140625 L 145.640625 65.542969 L 146.152344 65.003906 L 144.851562 62.542969 L 144.464844 61.492188 L 143.269531 59.125 L 144.851562 61.074219 L 146.414062 63.316406 L 147.46875 65.140625 L 149.046875 64.753906 L 149.574219 65.003906 L 151.929688 65.140625 L 154.421875 65.808594 L 154.964844 66.195312 L 155.472656 66.195312 L 157.703125 64.367188 L 159.53125 63.316406 L 160.847656 63.054688 L 157.703125 66.320312 L 157.300781 67.109375 L 157.039062 66.597656 L 156.789062 66.320312 L 156.402344 66.320312 L 156.125 66.859375 L 157.179688 69.351562 L 159.40625 72.105469 L 159.796875 73.792969 L 159.917969 73.792969 L 159.917969 74.984375 L 159.796875 74.984375 L 159.796875 74.703125 L 159.40625 74.316406 L 157.300781 74.316406 L 155.863281 75.371094 L 155.210938 77.320312 L 155.210938 78.914062 L 156.789062 82.828125 L 157.703125 84.003906 L 156.125 83.492188 L 155.472656 83.617188 L 155.210938 84.003906 L 155.210938 85.179688 L 155.472656 85.566406 L 155.738281 85.859375 L 155.738281 86.371094 L 154.808594 86.371094 L 152.332031 84.933594 L 151.664062 84.003906 L 150.613281 83.355469 L 149.574219 82.300781 L 147.605469 81.789062 L 146.539062 81.789062 L 146.539062 81.667969 L 145.378906 81.25 L 145.097656 81.511719 L 144.464844 81.25 L 144.324219 80.738281 L 143.65625 80.613281 L 143.535156 80.351562 L 142.882812 79.949219 L 142.882812 79.5625 L 142.355469 79.035156 L 142.21875 79.175781 L 142.21875 77.738281 L 141.96875 77.320312 L 141.582031 77.320312 L 141.445312 76.546875 L 140.917969 76.28125 L 140.917969 74.179688 L 140.390625 73.792969 L 140.53125 72.230469 L 141.582031 69.195312 L 141.320312 65.933594 L 140.917969 65.140625 L 140.917969 62.667969 L 141.445312 60.421875 L 142.480469 58.859375 L 143.023438 60.421875 L 145.097656 64.878906 " fill-opacity="1" fill-rule="nonzero"/><path fill="#ffffff" d="M 156.097656 75.183594 L 156.621094 73.945312 L 158.203125 73.15625 L 159.285156 73.050781 L 159.75 73.589844 L 159.796875 73.792969 L 159.921875 73.792969 L 159.921875 74.984375 L 159.796875 74.984375 L 159.796875 74.703125 L 159.410156 74.316406 L 157.304688 74.316406 L 156.097656 75.183594 " fill-opacity="1" fill-rule="nonzero"/><path fill="#ffffff" d="M 150.289062 73.648438 L 149.296875 72.953125 L 148.011719 72.859375 L 146.136719 72.550781 L 145.039062 72.550781 L 144.945312 73.542969 L 145.84375 75.027344 L 146.820312 75.816406 L 148.105469 76.898438 L 149.097656 77.101562 L 150.289062 73.648438 " fill-opacity="1" fill-rule="nonzero"/><path fill="#ffffff" d="M 141.566406 69.089844 C 141.753906 69.074219 142.09375 69.011719 142.171875 69.011719 L 142.171875 68.902344 L 142.960938 68.515625 L 142.960938 68.113281 L 143.164062 68.019531 C 143.164062 67.820312 143.457031 67.726562 143.457031 67.617188 L 143.660156 67.617188 L 143.75 67.417969 L 143.859375 67.324219 L 143.953125 67.324219 L 143.953125 67.230469 L 144.0625 67.121094 C 144.15625 67.121094 144.246094 67.03125 144.246094 66.921875 C 144.355469 66.921875 144.449219 66.828125 144.558594 66.828125 L 144.648438 66.734375 C 144.648438 66.628906 145.144531 66.039062 145.238281 66.039062 L 145.238281 65.746094 L 145.347656 65.746094 L 145.347656 65.3125 L 145.253906 65.25 L 145.238281 65.25 C 145.238281 65.25 145.238281 65.234375 145.222656 65.234375 L 145.097656 65.140625 L 145.097656 65.003906 C 145.023438 64.832031 144.960938 64.648438 144.898438 64.445312 L 143.023438 60.421875 L 142.480469 58.859375 L 141.445312 60.421875 L 140.917969 62.667969 L 140.917969 65.140625 L 141.320312 65.929688 L 141.566406 69.085938 " fill-opacity="1" fill-rule="nonzero"/><path fill="#ffffff" d="M 144.308594 66.921875 C 144.292969 66.425781 143.859375 65.929688 143.703125 65.496094 C 143.503906 64.957031 143.8125 63.871094 143.269531 63.515625 C 143.117188 63.46875 142.960938 63.269531 142.914062 63.175781 L 142.867188 63.175781 C 142.464844 62.679688 142.667969 61.785156 142.28125 61.398438 C 142.171875 61.398438 142.078125 61.488281 142.03125 61.535156 C 142.03125 61.644531 141.921875 61.9375 141.921875 62.09375 C 141.582031 63.425781 141.878906 65.25 142.328125 66.488281 C 142.464844 66.828125 142.714844 67.570312 142.714844 67.972656 C 142.714844 67.972656 142.867188 68.203125 142.867188 68.265625 C 142.898438 68.265625 142.929688 68.25 142.960938 68.25 L 142.960938 68.113281 L 143.164062 68.019531 C 143.164062 67.816406 143.457031 67.726562 143.457031 67.617188 L 143.65625 67.617188 L 143.75 67.414062 L 143.859375 67.324219 L 143.953125 67.324219 L 143.953125 67.230469 L 144.0625 67.121094 C 144.152344 67.121094 144.246094 67.027344 144.246094 66.921875 L 144.308594 66.921875 " fill-opacity="1" fill-rule="nonzero"/><path fill="#ffffff" d="M 143.273438 62.125 L 142.882812 62.789062 L 142.882812 62.929688 L 143.535156 63.179688 L 143.9375 64.105469 L 143.796875 64.492188 L 143.410156 64.492188 L 143.273438 63.84375 L 142.480469 63.441406 L 142.480469 62.667969 L 142.636719 62.125 L 141.96875 61.613281 L 142.359375 60.808594 L 142.480469 60.949219 L 143.273438 62.125 " fill-opacity="1" fill-rule="nonzero"/><path fill="#ffffff" d="M 161.625 67.105469 L 160.585938 69.070312 L 159.144531 70.246094 L 157.707031 68.546875 L 158.230469 67.105469 L 159.410156 65.542969 L 161.902344 63.5625 L 162.414062 63.441406 L 162.800781 63.441406 L 161.625 67.105469 " fill-opacity="1" fill-rule="nonzero"/><path fill="#ffffff" d="M 158.742188 73.125 L 157.179688 73.789062 L 156.265625 74.5625 L 156.125 74.5625 L 156.652344 73.789062 L 157.96875 72.875 L 158.617188 72.613281 L 158.742188 73 L 158.742188 73.125 " fill-opacity="1" fill-rule="nonzero"/><path fill="#ffffff" d="M 150.488281 73.542969 L 151.277344 74.5625 L 151.277344 74.980469 L 151.664062 75.367188 L 151.664062 76.542969 L 151.929688 76.929688 L 151.929688 77.441406 L 151.542969 77.734375 L 150.347656 77.320312 L 149.296875 77.320312 L 148.011719 76.421875 L 146.695312 74.5625 L 145.90625 73.929688 L 146.027344 73.542969 L 146.832031 73.542969 L 148.523438 73.265625 L 149.839844 73.542969 L 150.488281 73.542969 " fill-opacity="1" fill-rule="nonzero"/><path fill="#ffffff" d="M 150.769531 75.105469 L 150.890625 76.421875 L 149.296875 76.421875 L 148.277344 75.492188 L 148.277344 75.105469 L 147.609375 74.441406 L 148.011719 74.050781 L 150.101562 74.316406 L 150.769531 75.105469 " fill-opacity="1" fill-rule="nonzero"/><path fill="#ffffff" d="M 140.003906 75.878906 L 140.269531 77.054688 L 140.53125 77.320312 L 140.917969 78.632812 L 141.445312 78.757812 L 141.585938 79.808594 L 142.21875 80.351562 L 142.359375 81.667969 L 142.761719 82.054688 L 143.660156 82.054688 L 143.796875 81.914062 L 144.324219 82.441406 L 144.464844 82.300781 L 144.851562 82.300781 L 145.519531 82.964844 L 146.539062 82.6875 L 147.609375 82.6875 L 148.785156 83.492188 L 150.226562 85.179688 L 150.890625 85.566406 L 151.929688 86.882812 L 152.980469 87.546875 L 153.648438 88.195312 L 154.160156 88.195312 L 155.089844 88.476562 L 155.597656 88.476562 L 156.40625 87.808594 L 156.914062 87.019531 L 158.09375 86.371094 L 158.867188 85.320312 L 158.867188 84.128906 L 158.230469 83.355469 L 158.230469 81.914062 L 159.285156 82.179688 L 159.796875 82.566406 L 160.585938 83.617188 L 162.164062 83.230469 L 162.414062 82.964844 L 165.695312 82.179688 L 166.363281 82.179688 L 168.980469 82.300781 L 170.683594 82.566406 L 173.828125 82.300781 L 176.722656 83.355469 L 178.007812 84.003906 L 181.308594 83.230469 L 181.570312 82.964844 L 182.625 82.828125 L 184.453125 82.6875 L 186.417969 82.6875 L 186.804688 82.964844 L 187.578125 82.964844 L 189.300781 83.617188 L 191.125 85.054688 L 192.953125 86.109375 L 194.253906 87.160156 L 194.796875 86.496094 L 194.394531 85.859375 L 193.621094 85.566406 L 193.355469 85.320312 L 194.921875 84.265625 L 195.695312 83.878906 L 196.886719 83.355469 L 199.117188 83.105469 L 204.367188 83.492188 L 206.457031 83.878906 L 211.183594 84.933594 L 212.09375 85.320312 L 214.324219 85.722656 L 214.851562 85.984375 L 216.152344 86.109375 L 216.570312 86.496094 L 219.1875 86.882812 L 219.699219 87.300781 L 222.207031 87.6875 L 223.507812 88.074219 L 225.601562 88.195312 L 227.320312 88.863281 L 233.078125 89.636719 L 233.605469 89.914062 L 237.152344 89.789062 L 240.15625 88.738281 L 242.125 87.546875 L 241.859375 90.039062 L 239.644531 93.550781 L 237.152344 96.042969 L 237.539062 95.265625 L 237.277344 94.988281 L 235.835938 94.988281 L 235.714844 95.128906 L 235.449219 94.476562 L 234.785156 94.214844 L 234.273438 94.214844 L 233.46875 95.128906 L 233.46875 95.53125 L 233.730469 95.792969 L 234.273438 95.40625 L 234.519531 95.917969 L 235.292969 95.917969 L 236.101562 95.65625 L 236.222656 96.84375 L 233.996094 98.410156 L 230.199219 100.359375 L 227.707031 100.898438 L 226.917969 100.898438 L 224.5625 101.671875 L 216.433594 101.550781 L 211.957031 99.722656 L 208.441406 98.671875 L 206.738281 98.410156 L 203.4375 97.480469 L 199.503906 94.742188 L 198.328125 93.96875 L 197.429688 92.792969 L 196.113281 89.914062 L 195.988281 89.789062 L 195.570312 90.175781 L 196.765625 93.054688 L 196.765625 94.089844 L 197.011719 98.023438 L 197.289062 101.8125 L 198.605469 105.742188 L 200.820312 108.621094 L 203.824219 111.113281 L 206.070312 112.164062 L 206.738281 113.214844 L 207.25 117.144531 L 208.023438 119.496094 L 209.214844 124.09375 L 208.953125 125.113281 L 208.175781 126.707031 L 206.457031 127.09375 L 206.457031 126.183594 L 206.582031 126.042969 L 206.582031 125.65625 L 206.457031 125.53125 L 206.195312 125.53125 L 205.421875 126.570312 L 205.421875 127.09375 L 204.507812 127.234375 L 204.894531 126.183594 L 204.632812 125.917969 L 204.242188 125.917969 L 203.191406 127.480469 L 203.050781 127.480469 L 202.804688 127.234375 L 202.804688 126.304688 L 203.703125 125.53125 L 205.421875 124.992188 L 205.808594 124.214844 L 205.683594 122.652344 L 203.578125 117.285156 L 201.875 114.65625 L 200.699219 113.726562 L 196.625 112.675781 L 194.007812 112.164062 L 192.425781 111.5 L 189.6875 108.898438 L 188.246094 107.847656 L 184.3125 103.777344 L 182.238281 100.496094 L 179.324219 97.742188 L 178.425781 97.234375 L 178.164062 97.234375 L 178.007812 97.355469 L 178.007812 97.621094 L 179.605469 98.917969 L 182.75 102.601562 L 183.011719 103.113281 L 180.640625 103.375 L 178.289062 104.039062 L 174.355469 105.480469 L 170.421875 105.988281 L 169.367188 105.742188 L 168.4375 105.742188 L 167 105.214844 L 165.699219 103.917969 L 162.941406 98.671875 L 162.554688 97.621094 L 162.414062 97.480469 L 162.167969 97.480469 L 161.902344 97.742188 L 162.414062 99.460938 L 163.09375 100.777344 L 163.484375 101.164062 L 163.484375 101.550781 L 165.558594 105.214844 L 166.609375 106.269531 L 166.222656 107.585938 L 165.046875 109.9375 L 164.257812 114.53125 L 163.992188 115.164062 L 163.992188 115.832031 L 163.605469 118.722656 L 163.730469 122.375 L 163.484375 126.707031 L 160.183594 129.058594 L 160.183594 129.183594 L 159.796875 129.585938 L 159.671875 128.671875 L 159.535156 128.671875 L 159.144531 128.285156 L 158.480469 129.726562 L 157.96875 129.726562 L 157.84375 129.339844 L 158.234375 129.058594 L 158.09375 128.671875 L 157.84375 128.410156 L 156.917969 129.339844 L 156.792969 129.183594 L 156.652344 129.058594 L 156.917969 128.285156 L 156.917969 127.867188 L 156.792969 127.746094 L 156.40625 127.746094 L 155.601562 128.921875 L 155.601562 127.867188 L 156.125 127.09375 L 157.039062 126.707031 L 158.355469 126.847656 L 158.867188 126.707031 L 159.144531 126.304688 L 159.671875 125.65625 L 160.460938 124.339844 L 160.460938 121.988281 L 160.851562 119.234375 L 160.726562 116.867188 L 160.183594 113.339844 L 160.183594 112.164062 L 159.023438 109.285156 L 157.179688 106.65625 L 155.738281 105.742188 L 155.601562 105.867188 L 153.648438 104.550781 L 152.054688 104.304688 L 150.613281 102.863281 L 149.964844 101.671875 L 147.46875 97.621094 L 147.082031 96.304688 L 146.027344 95.40625 L 145.640625 94.742188 L 144.976562 94.480469 L 144.464844 94.480469 L 143.9375 94.988281 L 142.484375 92.128906 L 142.484375 91.863281 L 141.972656 91.355469 L 141.972656 92.667969 L 143.535156 95.917969 L 143.9375 96.042969 L 144.851562 95.40625 L 145.765625 96.582031 L 146.152344 96.582031 L 146.695312 97.355469 L 146.957031 98.671875 L 148.398438 100.359375 L 150.351562 103.917969 L 150.488281 104.042969 L 150.613281 104.042969 L 150.101562 104.304688 L 150.101562 104.164062 L 147.734375 103.917969 L 145.640625 103.375 L 144.203125 102.476562 L 142.886719 100.621094 L 141.707031 99.847656 L 141.320312 99.722656 L 139.726562 97.09375 L 139.214844 96.429688 L 138.410156 92.128906 L 138.410156 91.074219 L 138.164062 90.039062 L 138.410156 88.199219 L 138.566406 80.230469 L 139.882812 74.707031 L 140.003906 74.707031 L 140.003906 75.882812 " fill-opacity="1" fill-rule="nonzero"/><path fill="#ffffff" d="M 195.664062 90.390625 L 195.460938 95.464844 L 195.261719 99.613281 L 195.664062 102.96875 L 197.644531 107.71875 L 199.8125 110.492188 L 202.585938 112.457031 L 205.558594 114.050781 L 206.859375 114.140625 L 206.734375 113.214844 L 206.070312 112.160156 L 203.824219 111.109375 L 200.820312 108.617188 L 198.605469 105.738281 L 197.289062 101.808594 L 197.011719 98.019531 L 196.761719 94.089844 L 196.761719 93.054688 L 195.664062 90.390625 " fill-opacity="1" fill-rule="nonzero"/><path fill="#ffffff" d="M 158.355469 75.878906 L 157.425781 76.808594 L 156.652344 76.933594 L 156.527344 77.054688 L 156.265625 77.054688 L 156.40625 76.421875 L 156.652344 76.003906 L 157.84375 75.230469 L 158.480469 75.230469 L 158.355469 75.878906 " fill-opacity="1" fill-rule="nonzero"/><path fill="#ffffff" d="M 159.144531 77.734375 L 158.355469 79.035156 L 158.09375 80.070312 L 157.582031 81 L 157.582031 82.050781 L 157.425781 82.050781 L 156.125 78.910156 L 156.265625 77.984375 L 157.84375 77.734375 L 158.867188 76.808594 L 159.671875 75.492188 L 159.671875 76.28125 L 159.144531 77.734375 " fill-opacity="1" fill-rule="nonzero"/><path fill="#ffffff" d="M 154.546875 81.511719 L 153.894531 81.246094 L 152.84375 78.507812 L 152.980469 78.246094 L 154.546875 81.125 L 154.546875 81.511719 " fill-opacity="1" fill-rule="nonzero"/><path fill="#ffffff" d="M 154.59375 86.742188 L 155.675781 86.820312 L 155.597656 87.421875 L 154.035156 87.421875 L 151.402344 85.441406 L 149.839844 83.738281 L 149.839844 83.492188 L 151.976562 85.101562 L 153.554688 86.292969 L 154.59375 86.742188 " fill-opacity="1" fill-rule="nonzero"/><path fill="#ffffff" d="M 157.582031 84.667969 L 157.707031 84.667969 L 157.96875 84.929688 L 157.707031 85.71875 L 157.039062 86.105469 L 156.917969 86.246094 L 156.652344 86.246094 L 156.652344 85.566406 L 155.988281 84.929688 L 156.128906 84.40625 L 156.652344 84.265625 L 156.652344 84.40625 L 157.582031 84.667969 " fill-opacity="1" fill-rule="nonzero"/><path fill="#ffffff" d="M 235.710938 90.5625 L 235.710938 91.230469 L 234.660156 91.617188 L 234.519531 91.738281 L 234.660156 91.863281 L 234.90625 91.863281 L 234.78125 92.792969 L 235.046875 93.054688 L 235.046875 93.425781 L 234.394531 93.300781 L 233.605469 93.179688 L 233.46875 93.054688 L 233.730469 92.390625 L 232.832031 92.25 L 232.691406 92.125 L 232.691406 91.863281 L 233.855469 91.351562 L 234.660156 91.351562 L 234.90625 91.074219 L 234.90625 90.949219 L 233.34375 90.6875 L 232.554688 90.8125 L 232.554688 90.300781 L 235.292969 90.5625 L 235.710938 90.5625 " fill-opacity="1" fill-rule="nonzero"/><path fill="#ffffff" d="M 184.574219 105.355469 L 184.574219 107.425781 L 184.699219 108.355469 L 186.015625 110.984375 L 187.578125 111.898438 L 187.578125 112.8125 L 186.140625 116.09375 L 184.839844 119.621094 L 183.011719 124.476562 L 182.238281 125.265625 L 180.515625 125.53125 L 179.480469 125.53125 L 178.9375 125.652344 L 178.550781 125.652344 L 179.480469 124.988281 L 179.480469 124.726562 L 179.0625 124.339844 L 178.164062 124.726562 L 177.234375 125.53125 L 176.722656 125.265625 L 177.761719 124.214844 L 177.375 123.8125 L 176.445312 124.089844 L 175.792969 124.863281 L 175.671875 124.863281 L 175.671875 124.339844 L 176.570312 123.550781 L 178.8125 122.898438 L 179.992188 122.898438 L 180.796875 121.722656 L 180.796875 121.335938 L 181.183594 121.058594 L 182.082031 118.582031 L 182.082031 117.917969 L 182.359375 117.671875 L 183.539062 112.039062 L 183.257812 111.496094 L 181.695312 110.988281 L 179.867188 110.597656 L 179.199219 109.933594 L 178.8125 109.933594 L 177.496094 109.019531 L 175.40625 105.988281 L 178.8125 104.6875 L 180.128906 104.425781 L 182.746094 104.039062 L 183.800781 104.425781 L 184.574219 105.355469 " fill-opacity="1" fill-rule="nonzero"/><path fill="#ffffff" d="M 181.042969 104.289062 L 181.042969 107.925781 L 183.414062 111.46875 L 187.007812 114.113281 L 187.578125 112.8125 L 187.578125 111.902344 L 186.015625 110.988281 L 184.699219 108.359375 L 184.574219 107.429688 L 184.574219 105.355469 L 183.800781 104.425781 L 182.75 104.039062 L 181.042969 104.289062 " fill-opacity="1" fill-rule="nonzero"/><path fill="#ffffff" d="M 151.015625 104.96875 L 151.542969 105.214844 L 152.332031 105.355469 L 153.371094 107.429688 L 153.105469 108.742188 L 152.59375 109.285156 L 151.402344 111.652344 L 150.347656 114.917969 L 149.574219 116.601562 L 147.609375 121.988281 L 146.695312 124.601562 L 146.695312 125.65625 L 145.238281 126.96875 L 145.101562 126.847656 L 144.464844 127.09375 L 144.464844 126.96875 L 144.324219 126.847656 L 144.078125 127.234375 L 143.410156 127.234375 L 143.660156 126.429688 L 143.660156 125.917969 L 143.535156 125.792969 L 143.148438 125.792969 L 142.480469 126.847656 L 141.972656 127.09375 L 141.320312 126.96875 L 142.09375 125.65625 L 142.09375 125.53125 L 141.832031 125.269531 L 141.042969 125.65625 L 140.917969 125.53125 L 140.269531 126.707031 L 139.726562 126.707031 L 139.726562 126.566406 L 140.003906 126.304688 L 139.726562 125.917969 L 140.144531 125.53125 L 140.144531 125.113281 L 140.65625 124.726562 L 140.777344 124.867188 L 140.917969 124.726562 L 140.917969 124.476562 L 143.660156 123.550781 L 144.464844 122.652344 L 144.976562 121.847656 L 146.832031 115.550781 L 147.730469 110.847656 L 148.273438 108.355469 L 147.730469 104.828125 L 150.226562 105.214844 L 151.015625 104.96875 " fill-opacity="1" fill-rule="nonzero"/><path fill="#ffffff" d="M 149.464844 74.144531 L 149.777344 74.410156 L 149.898438 74.980469 L 149.714844 75.632812 L 149.386719 76.003906 L 148.847656 76.234375 L 148.117188 75.539062 L 148.117188 75.199219 L 147.605469 74.441406 L 148.011719 74.054688 L 148.785156 74.054688 L 149.464844 74.144531 " fill-opacity="1" fill-rule="nonzero"/><path fill="#ffffff" d="M 157.78125 75.136719 L 157.875 75.507812 L 157.828125 75.820312 L 157.765625 76.46875 L 157.425781 76.808594 L 156.652344 76.933594 L 156.527344 77.054688 L 156.265625 77.054688 L 156.40625 76.421875 L 156.527344 76.082031 L 156.699219 75.894531 L 157.78125 75.136719 " fill-opacity="1" fill-rule="nonzero"/><path fill="#ffffff" d="M 155.210938 84.636719 L 155.136719 84.511719 L 155.027344 84.511719 L 154.933594 84.21875 L 154.839844 84.21875 L 154.640625 83.816406 L 154.53125 83.816406 C 154.53125 83.816406 154.53125 83.632812 154.34375 83.632812 L 154.238281 83.523438 L 154.144531 83.429688 C 154.144531 83.335938 154.050781 83.230469 153.941406 83.230469 C 153.941406 83.027344 153.554688 82.84375 153.445312 82.734375 L 153.445312 82.640625 C 153.355469 82.640625 153.152344 82.53125 153.152344 82.347656 C 153.058594 82.347656 152.765625 82.144531 152.765625 82.054688 L 152.65625 81.945312 C 152.5625 81.945312 152.070312 81.652344 152.070312 81.558594 C 151.867188 81.558594 151.773438 81.449219 151.574219 81.449219 C 151.574219 81.0625 148.601562 80.660156 148.210938 80.460938 L 148.210938 80.367188 C 148.105469 80.367188 147.808594 80.273438 147.71875 80.273438 C 147.316406 79.375 144.742188 79.175781 143.753906 79.175781 C 143.753906 79.363281 143.023438 79.53125 142.886719 79.792969 L 142.886719 79.949219 L 143.535156 80.351562 L 143.660156 80.613281 L 144.324219 80.738281 L 144.464844 81.25 L 145.101562 81.511719 L 145.378906 81.25 L 146.539062 81.667969 L 146.539062 81.789062 L 147.609375 81.789062 L 149.574219 82.300781 L 150.613281 83.351562 L 151.664062 84.003906 L 152.332031 84.929688 L 154.808594 86.371094 L 155.738281 86.371094 L 155.738281 85.859375 L 155.476562 85.566406 L 155.210938 85.179688 L 155.210938 84.636719 " fill-opacity="1" fill-rule="nonzero"/><g clip-path="url(#id8)"><path fill="#ffffff" d="M 141.460938 78.835938 C 141.320312 79.25 140.65625 79.917969 140.300781 80.273438 L 140.300781 81.449219 L 139.898438 81.449219 C 139.105469 82.640625 140.6875 85.796875 139.898438 86.988281 L 139.511719 86.988281 C 138.84375 87.976562 138.488281 89.261719 138.332031 90.71875 L 138.410156 91.074219 L 138.410156 92.125 L 139.214844 96.425781 L 139.726562 97.089844 L 141.320312 99.722656 L 141.707031 99.847656 L 142.886719 100.621094 L 144.203125 102.476562 L 145.644531 103.375 L 147.734375 103.914062 L 150.101562 104.164062 L 150.101562 104.300781 L 150.613281 104.039062 L 150.488281 104.039062 L 150.351562 103.914062 L 148.398438 100.355469 L 146.960938 98.667969 L 146.695312 97.355469 L 146.152344 96.582031 L 145.765625 96.582031 L 144.851562 95.40625 L 143.9375 96.039062 L 143.535156 95.914062 L 141.972656 92.667969 L 141.972656 91.351562 L 142.484375 91.863281 L 142.484375 92.125 L 143.9375 94.988281 L 144.464844 94.476562 L 144.976562 94.476562 L 145.644531 94.738281 L 146.03125 95.40625 L 147.082031 96.300781 L 147.46875 97.617188 L 149.699219 101.238281 C 149.484375 100 148.925781 97.878906 148.601562 97.246094 L 148.214844 97.246094 L 148.214844 96.054688 L 147.8125 96.054688 C 147.8125 95.667969 147.421875 94.476562 147.421875 94.089844 L 147.019531 94.089844 C 146.230469 92.914062 144.652344 86.199219 145.441406 84.621094 L 145.84375 84.621094 L 146.292969 82.765625 L 145.519531 82.964844 L 144.851562 82.300781 L 144.464844 82.300781 L 144.328125 82.4375 L 143.800781 81.914062 L 143.660156 82.050781 L 142.761719 82.050781 L 142.359375 81.664062 L 142.21875 80.351562 L 141.585938 79.808594 L 141.460938 78.832031 Z M 150.984375 103.21875 L 150.984375 103.171875 L 150.9375 103.171875 Z M 131.628906 54.308594 C 131.613281 54.292969 131.582031 54.292969 131.566406 54.292969 L 131.550781 54.277344 Z M 141.167969 78.601562 L 140.996094 78.433594 L 141.136719 78.492188 L 141.167969 78.601562 " fill-opacity="1" fill-rule="nonzero"/></g><path fill="#ffffff" d="M 231.84375 89.464844 C 231.964844 89.574219 232.058594 89.667969 232.058594 89.757812 C 232.847656 89.757812 234.039062 90.144531 234.832031 90.144531 C 234.429688 90.546875 233.636719 90.933594 233.25 91.335938 L 232.460938 91.335938 L 232.058594 91.722656 L 232.058594 92.511719 L 235.21875 92.511719 L 234.039062 93.6875 C 234.039062 93.6875 234.210938 93.953125 234.304688 94.214844 L 234.785156 94.214844 L 235.449219 94.476562 L 235.714844 95.128906 L 235.835938 94.988281 L 237.277344 94.988281 L 237.539062 95.265625 L 237.152344 96.039062 L 239.648438 93.550781 L 241.863281 90.039062 L 242.125 87.546875 L 240.15625 88.738281 L 237.152344 89.789062 L 233.605469 89.914062 L 233.082031 89.636719 Z M 235.03125 95.917969 L 235.296875 95.917969 L 236.101562 95.652344 L 236.222656 96.84375 C 235.605469 96.628906 234.691406 96.457031 234.429688 96.457031 C 234.660156 96.457031 234.878906 96.210938 235.03125 95.917969 " fill-opacity="1" fill-rule="nonzero"/><path fill="#ffffff" d="M 147.097656 114.144531 C 147.175781 114.207031 147.285156 114.238281 147.421875 114.238281 C 147.421875 115.027344 147.019531 115.816406 147.019531 116.21875 L 147.8125 116.21875 L 147.8125 117.007812 L 147.019531 117.796875 L 147.019531 119.375 L 147.8125 120.566406 L 148.121094 120.566406 L 147.609375 121.988281 L 146.695312 124.605469 L 146.695312 125.65625 L 145.238281 126.972656 L 145.101562 126.847656 L 144.464844 127.09375 L 144.464844 126.972656 L 144.328125 126.847656 L 144.078125 127.234375 L 143.414062 127.234375 L 143.660156 126.429688 L 143.660156 125.917969 L 143.535156 125.792969 L 143.148438 125.792969 L 142.484375 126.847656 L 141.972656 127.09375 L 141.320312 126.972656 L 142.097656 125.65625 L 142.097656 125.53125 L 141.832031 125.269531 L 141.042969 125.65625 L 140.917969 125.53125 L 140.269531 126.707031 L 139.726562 126.707031 L 139.726562 126.570312 L 140.003906 126.304688 L 139.726562 125.917969 L 140.144531 125.53125 L 140.144531 125.113281 L 140.65625 124.726562 L 140.78125 124.867188 L 140.917969 124.726562 L 140.917969 124.480469 L 143.660156 123.550781 L 144.464844 122.652344 L 144.976562 121.847656 L 146.835938 115.550781 L 147.097656 114.144531 " fill-opacity="1" fill-rule="nonzero"/><path fill="#ffffff" d="M 181.554688 110.953125 C 182.5625 110.832031 183.566406 110.675781 183.816406 110.675781 C 183.816406 111.078125 185.394531 112.269531 185.78125 112.269531 C 185.78125 112.65625 185.394531 113.058594 185.394531 113.445312 L 187.285156 113.445312 L 186.140625 116.089844 L 184.839844 119.621094 L 183.011719 124.476562 L 182.238281 125.265625 L 180.515625 125.53125 L 179.480469 125.53125 L 178.9375 125.652344 L 178.550781 125.652344 L 179.480469 124.988281 L 179.480469 124.726562 L 179.0625 124.339844 L 178.164062 124.726562 L 177.234375 125.53125 L 176.722656 125.265625 L 177.761719 124.214844 L 177.375 123.8125 L 176.445312 124.089844 L 175.792969 124.863281 L 175.667969 124.863281 L 175.667969 124.339844 L 176.566406 123.550781 L 178.8125 122.898438 L 179.992188 122.898438 L 180.796875 121.722656 L 180.796875 121.335938 L 181.183594 121.058594 L 182.082031 118.582031 L 182.082031 117.917969 L 182.359375 117.671875 L 183.535156 112.039062 L 183.257812 111.496094 L 181.695312 110.984375 L 181.554688 110.953125 " fill-opacity="1" fill-rule="nonzero"/><path fill="#ffffff" d="M 160.042969 111.265625 C 160.304688 111.992188 161.066406 113.105469 161.066406 113.648438 C 161.453125 113.648438 162.054688 116.214844 162.054688 115.8125 C 162.335938 117.3125 161.746094 117.761719 162.847656 117.996094 L 162.847656 119.371094 C 163.0625 119.371094 163.328125 119.511719 163.636719 119.742188 L 163.730469 122.375 L 163.480469 126.707031 L 160.183594 129.058594 L 160.183594 129.179688 L 159.796875 129.582031 L 159.671875 128.671875 L 159.53125 128.671875 L 159.144531 128.285156 L 158.480469 129.722656 L 157.96875 129.722656 L 157.84375 129.335938 L 158.230469 129.058594 L 158.09375 128.671875 L 157.84375 128.40625 L 156.914062 129.335938 L 156.789062 129.179688 L 156.652344 129.058594 L 156.914062 128.285156 L 156.914062 127.867188 L 156.789062 127.742188 L 156.402344 127.742188 L 155.597656 128.917969 L 155.597656 127.867188 L 156.125 127.09375 L 157.039062 126.707031 L 158.355469 126.84375 L 158.867188 126.707031 L 159.144531 126.304688 L 159.671875 125.652344 L 160.460938 124.339844 L 160.460938 121.988281 L 160.847656 119.234375 L 160.722656 116.867188 L 160.042969 111.265625 " fill-opacity="1" fill-rule="nonzero"/><path fill="#ffffff" d="M 193.683594 111.867188 L 200.015625 112.269531 L 199.613281 111.867188 L 199.613281 111.078125 C 200.417969 111.464844 202.386719 112.65625 203.578125 112.65625 L 202.789062 111.867188 L 203.964844 112.269531 L 203.964844 112.65625 C 203.964844 112.65625 204.753906 112.65625 204.753906 113.445312 L 205.15625 113.847656 L 206.351562 113.847656 C 206.351562 113.570312 206.398438 113.199219 206.457031 112.765625 L 206.738281 113.214844 L 207.25 117.144531 L 208.023438 119.496094 L 209.214844 124.089844 L 208.953125 125.113281 L 208.179688 126.707031 L 206.457031 127.09375 L 206.457031 126.179688 L 206.582031 126.039062 L 206.582031 125.652344 L 206.457031 125.53125 L 206.195312 125.53125 L 205.421875 126.566406 L 205.421875 127.09375 L 204.507812 127.230469 L 204.894531 126.179688 L 204.632812 125.917969 L 204.246094 125.917969 L 203.191406 127.480469 L 203.050781 127.480469 L 202.804688 127.230469 L 202.804688 126.304688 L 203.703125 125.53125 L 205.421875 124.988281 L 205.808594 124.214844 L 205.683594 122.652344 L 203.578125 117.28125 L 201.875 114.652344 L 200.699219 113.722656 L 196.625 112.671875 L 194.007812 112.160156 L 193.542969 111.960938 C 193.574219 111.898438 193.621094 111.867188 193.683594 111.867188 " fill-opacity="1" fill-rule="nonzero"/><path fill="#ffffff" d="M 145.039062 67.617188 L 147.019531 65.34375 L 150.984375 65.25 L 154.4375 66.238281 L 156.21875 68.40625 L 157.414062 70.585938 L 158.203125 72.074219 L 155.832031 73.046875 L 153.554688 73.355469 L 151.371094 72.367188 L 149.003906 69.984375 L 145.84375 69.890625 L 145.039062 67.617188 " fill-opacity="1" fill-rule="nonzero"/><path fill="#ffffff" d="M 146.183594 67.386719 C 146.757812 66.738281 147.316406 66.085938 147.871094 65.453125 C 148.988281 65.421875 150.117188 65.390625 151.234375 65.359375 C 152.210938 65.636719 153.199219 65.917969 154.175781 66.210938 C 154.6875 66.8125 155.183594 67.433594 155.695312 68.050781 C 156.019531 68.671875 156.359375 69.289062 156.699219 69.894531 C 156.917969 70.324219 157.148438 70.742188 157.367188 71.160156 C 156.699219 71.441406 156.019531 71.71875 155.351562 71.996094 C 154.703125 72.089844 154.066406 72.167969 153.417969 72.246094 C 152.796875 71.964844 152.195312 71.6875 151.574219 71.410156 C 150.890625 70.742188 150.226562 70.0625 149.546875 69.398438 C 148.664062 69.367188 147.765625 69.335938 146.867188 69.304688 C 146.632812 68.671875 146.417969 68.019531 146.183594 67.386719 " fill-opacity="1" fill-rule="nonzero"/><path fill="#ffffff" d="M 147.328125 67.136719 C 147.792969 66.609375 148.257812 66.070312 148.722656 65.542969 C 149.636719 65.527344 150.566406 65.496094 151.480469 65.480469 C 152.300781 65.714844 153.105469 65.929688 153.910156 66.164062 C 154.328125 66.671875 154.746094 67.183594 155.148438 67.695312 C 155.429688 68.1875 155.707031 68.699219 155.984375 69.210938 C 156.171875 69.550781 156.359375 69.90625 156.542969 70.246094 C 155.984375 70.480469 155.429688 70.710938 154.886719 70.941406 C 154.34375 71.003906 153.816406 71.082031 153.292969 71.144531 C 152.78125 70.910156 152.269531 70.679688 151.757812 70.449219 C 151.214844 69.90625 150.660156 69.347656 150.101562 68.792969 C 149.359375 68.777344 148.628906 68.746094 147.886719 68.730469 C 147.699219 68.1875 147.515625 67.664062 147.328125 67.136719 " fill-opacity="1" fill-rule="nonzero"/><path fill="#ffffff" d="M 148.476562 66.890625 C 148.847656 66.472656 149.203125 66.054688 149.558594 65.636719 C 150.289062 65.621094 151.015625 65.605469 151.742188 65.589844 C 152.378906 65.777344 153.011719 65.945312 153.648438 66.132812 C 153.972656 66.535156 154.296875 66.9375 154.625 67.324219 C 154.839844 67.726562 155.058594 68.128906 155.273438 68.53125 C 155.429688 68.792969 155.566406 69.074219 155.707031 69.335938 C 155.273438 69.519531 154.839844 69.707031 154.40625 69.875 C 153.988281 69.9375 153.570312 69.984375 153.152344 70.046875 C 152.75 69.859375 152.363281 69.691406 151.960938 69.503906 C 151.527344 69.074219 151.09375 68.640625 150.660156 68.207031 C 150.070312 68.175781 149.496094 68.160156 148.910156 68.144531 C 148.769531 67.726562 148.628906 67.308594 148.476562 66.890625 " fill-opacity="1" fill-rule="nonzero"/><path fill="#ffffff" d="M 149.621094 66.65625 C 149.886719 66.347656 150.148438 66.039062 150.410156 65.746094 C 150.9375 65.730469 151.464844 65.714844 151.992188 65.699219 C 152.457031 65.835938 152.921875 65.960938 153.386719 66.101562 C 153.617188 66.394531 153.851562 66.671875 154.097656 66.964844 C 154.253906 67.261719 154.40625 67.539062 154.5625 67.832031 C 154.671875 68.035156 154.777344 68.234375 154.886719 68.4375 C 154.5625 68.5625 154.253906 68.699219 153.941406 68.824219 C 153.632812 68.871094 153.324219 68.902344 153.027344 68.945312 C 152.734375 68.808594 152.441406 68.683594 152.160156 68.546875 C 151.835938 68.234375 151.527344 67.910156 151.203125 67.601562 C 150.785156 67.585938 150.363281 67.570312 149.949219 67.554688 C 149.839844 67.261719 149.730469 66.953125 149.621094 66.65625 " fill-opacity="1" fill-rule="nonzero"/><path fill="#ffffff" d="M 150.769531 66.410156 L 151.265625 65.839844 L 152.253906 65.824219 L 153.121094 66.070312 L 153.554688 66.613281 L 153.867188 67.152344 L 154.050781 67.523438 L 153.464844 67.773438 L 152.890625 67.851562 L 152.347656 67.601562 L 151.757812 67 L 150.96875 66.984375 L 150.769531 66.410156 " fill-opacity="1" fill-rule="nonzero"/><path fill="#ffffff" d="M 156.417969 73.25 L 155.226562 75.136719 L 155.027344 78.292969 L 157.410156 83.632812 L 155.628906 83.429688 L 153.648438 79.46875 L 152.453125 76.3125 L 151.480469 73.542969 L 153.648438 73.839844 L 156.417969 73.25 " fill-opacity="1" fill-rule="nonzero"/><path fill="#ffffff" d="M 156.15625 73.929688 C 155.832031 74.457031 155.492188 74.996094 155.148438 75.523438 C 155.085938 76.421875 155.042969 77.316406 154.980469 78.214844 C 155.660156 79.730469 156.328125 81.230469 157.007812 82.75 C 156.496094 82.6875 155.984375 82.640625 155.492188 82.578125 C 154.933594 81.464844 154.359375 80.335938 153.800781 79.222656 C 153.476562 78.324219 153.136719 77.425781 152.796875 76.527344 C 152.515625 75.753906 152.238281 74.964844 151.960938 74.175781 C 152.578125 74.269531 153.183594 74.347656 153.800781 74.441406 C 154.59375 74.269531 155.382812 74.101562 156.15625 73.929688 " fill-opacity="1" fill-rule="nonzero"/><path fill="#ffffff" d="M 155.910156 74.613281 C 155.628906 75.042969 155.351562 75.492188 155.074219 75.925781 C 155.027344 76.667969 154.980469 77.398438 154.933594 78.140625 C 155.492188 79.378906 156.046875 80.628906 156.589844 81.867188 C 156.1875 81.820312 155.769531 81.777344 155.351562 81.730469 C 154.886719 80.816406 154.421875 79.886719 153.957031 78.976562 C 153.695312 78.230469 153.414062 77.488281 153.136719 76.761719 C 152.90625 76.113281 152.671875 75.460938 152.441406 74.8125 C 152.953125 74.890625 153.460938 74.953125 153.957031 75.03125 C 154.609375 74.890625 155.257812 74.75 155.910156 74.613281 " fill-opacity="1" fill-rule="nonzero"/><path fill="#ffffff" d="M 155.644531 75.292969 C 155.429688 75.632812 155.210938 75.972656 154.996094 76.328125 C 154.964844 76.902344 154.917969 77.488281 154.886719 78.0625 C 155.320312 79.035156 155.753906 80.011719 156.1875 81 C 155.863281 80.953125 155.539062 80.921875 155.210938 80.890625 C 154.855469 80.164062 154.484375 79.4375 154.128906 78.710938 C 153.910156 78.136719 153.695312 77.550781 153.476562 76.976562 C 153.292969 76.46875 153.105469 75.957031 152.921875 75.445312 C 153.324219 75.507812 153.726562 75.554688 154.128906 75.617188 C 154.625 75.507812 155.136719 75.398438 155.644531 75.292969 " fill-opacity="1" fill-rule="nonzero"/><path fill="#ffffff" d="M 155.382812 75.972656 C 155.226562 76.222656 155.074219 76.46875 154.917969 76.714844 C 154.886719 77.148438 154.855469 77.566406 154.839844 77.984375 C 155.152344 78.695312 155.476562 79.40625 155.785156 80.121094 C 155.554688 80.089844 155.304688 80.074219 155.074219 80.042969 C 154.808594 79.515625 154.546875 78.992188 154.28125 78.464844 C 154.128906 78.03125 153.957031 77.613281 153.804688 77.195312 C 153.679688 76.824219 153.539062 76.453125 153.414062 76.082031 C 153.695312 76.128906 153.988281 76.175781 154.28125 76.207031 C 154.65625 76.128906 155.027344 76.050781 155.382812 75.972656 " fill-opacity="1" fill-rule="nonzero"/><path fill="#ffffff" d="M 155.136719 76.652344 L 154.839844 77.117188 L 154.78125 77.90625 L 155.382812 79.238281 L 154.933594 79.191406 L 154.4375 78.199219 L 154.144531 77.410156 L 153.898438 76.714844 L 154.4375 76.792969 L 155.136719 76.652344 " fill-opacity="1" fill-rule="nonzero"/><path fill="#ffffff" d="M 157.707031 92.511719 L 151.773438 88.96875 L 153.742188 98.824219 L 158.882812 100.804688 L 163.234375 106.328125 L 166.007812 105.152344 L 161.65625 97.632812 L 157.707031 92.511719 " fill-opacity="1" fill-rule="nonzero"/><path fill="#ffffff" d="M 158.046875 93.207031 C 156.359375 92.203125 154.667969 91.195312 152.996094 90.191406 C 153.554688 92.992188 154.113281 95.777344 154.667969 98.578125 C 156.140625 99.132812 157.597656 99.691406 159.050781 100.25 C 160.277344 101.8125 161.515625 103.390625 162.753906 104.953125 C 163.527344 104.613281 164.316406 104.285156 165.109375 103.945312 C 163.867188 101.8125 162.628906 99.691406 161.40625 97.554688 C 160.277344 96.101562 159.160156 94.648438 158.046875 93.207031 " fill-opacity="1" fill-rule="nonzero"/><path fill="#ffffff" d="M 158.371094 93.890625 C 156.996094 93.070312 155.601562 92.25 154.222656 91.414062 C 154.6875 93.703125 155.152344 96.007812 155.601562 98.316406 C 156.808594 98.78125 158 99.226562 159.207031 99.691406 C 160.214844 100.992188 161.238281 102.277344 162.261719 103.574219 C 162.894531 103.296875 163.546875 103.019531 164.195312 102.742188 C 163.171875 100.992188 162.167969 99.226562 161.144531 97.480469 C 160.214844 96.289062 159.300781 95.082031 158.371094 93.890625 " fill-opacity="1" fill-rule="nonzero"/><path fill="#ffffff" d="M 158.710938 94.585938 C 157.628906 93.921875 156.527344 93.285156 155.445312 92.636719 C 155.816406 94.429688 156.171875 96.242188 156.527344 98.050781 C 157.472656 98.421875 158.417969 98.777344 159.363281 99.148438 C 160.167969 100.15625 160.957031 101.175781 161.765625 102.183594 C 162.257812 101.964844 162.769531 101.75 163.28125 101.53125 C 162.476562 100.15625 161.6875 98.777344 160.882812 97.402344 C 160.167969 96.457031 159.441406 95.515625 158.710938 94.585938 " fill-opacity="1" fill-rule="nonzero"/><path fill="#ffffff" d="M 159.054688 95.265625 C 158.261719 94.800781 157.472656 94.320312 156.667969 93.84375 C 156.929688 95.15625 157.195312 96.488281 157.472656 97.804688 C 158.15625 98.066406 158.835938 98.328125 159.515625 98.59375 C 160.105469 99.320312 160.679688 100.0625 161.265625 100.804688 C 161.640625 100.648438 161.996094 100.480469 162.367188 100.324219 C 161.792969 99.320312 161.207031 98.328125 160.632812 97.324219 C 160.105469 96.640625 159.578125 95.945312 159.054688 95.265625 " fill-opacity="1" fill-rule="nonzero"/><path fill="#ffffff" d="M 159.378906 95.960938 L 157.90625 95.0625 L 158.402344 97.539062 L 159.6875 98.035156 L 160.773438 99.410156 L 161.453125 99.117188 L 160.371094 97.246094 L 159.378906 95.960938 " fill-opacity="1" fill-rule="nonzero"/><path fill="#ffffff" d="M 166.410156 82.640625 L 159.6875 83.429688 L 165.21875 85.007812 L 170.761719 86.199219 L 176.691406 87.375 L 183.414062 87.375 L 187.75 91.722656 L 190.910156 96.457031 L 193.683594 100.015625 L 195.261719 93.6875 L 192.101562 88.566406 L 186.574219 83.429688 L 179.0625 83.816406 L 166.410156 82.640625 " fill-opacity="1" fill-rule="nonzero"/><path fill="#ffffff" d="M 169.273438 82.996094 C 167.074219 83.195312 164.875 83.398438 162.691406 83.597656 C 164.628906 84.125 166.578125 84.636719 168.515625 85.164062 C 170.125 85.503906 171.722656 85.84375 173.316406 86.199219 C 175.035156 86.539062 176.753906 86.878906 178.472656 87.21875 C 180.425781 87.328125 182.375 87.4375 184.34375 87.53125 C 185.582031 88.691406 186.820312 89.835938 188.058594 90.980469 C 188.972656 92.355469 189.886719 93.703125 190.800781 95.078125 C 191.714844 96.210938 192.628906 97.339844 193.542969 98.46875 C 193.976562 96.550781 194.410156 94.632812 194.828125 92.726562 C 193.898438 91.210938 192.953125 89.695312 192.007812 88.179688 C 190.382812 86.695312 188.773438 85.207031 187.144531 83.722656 C 184.929688 83.738281 182.6875 83.753906 180.441406 83.785156 C 176.722656 83.523438 172.992188 83.257812 169.273438 82.996094 " fill-opacity="1" fill-rule="nonzero"/><path fill="#ffffff" d="M 172.140625 83.351562 C 169.988281 83.492188 167.835938 83.628906 165.699219 83.769531 C 167.742188 84.28125 169.769531 84.808594 171.816406 85.316406 C 173.179688 85.609375 174.523438 85.90625 175.886719 86.183594 C 177.34375 86.476562 178.800781 86.773438 180.238281 87.050781 C 181.914062 87.265625 183.585938 87.484375 185.257812 87.683594 C 186.296875 88.535156 187.332031 89.386719 188.371094 90.238281 C 189.144531 91.398438 189.917969 92.558594 190.695312 93.6875 C 191.59375 94.769531 192.488281 95.855469 193.386719 96.921875 C 193.730469 95.203125 194.070312 93.472656 194.394531 91.769531 C 193.574219 90.4375 192.738281 89.125 191.917969 87.808594 C 190.523438 86.539062 189.128906 85.269531 187.734375 84.003906 C 185.769531 83.925781 183.800781 83.832031 181.835938 83.738281 C 178.597656 83.617188 175.363281 83.476562 172.140625 83.351562 " fill-opacity="1" fill-rule="nonzero"/><path fill="#ffffff" d="M 175.003906 83.707031 C 172.898438 83.785156 170.808594 83.863281 168.699219 83.941406 C 170.839844 84.449219 172.976562 84.960938 175.113281 85.472656 C 176.226562 85.71875 177.34375 85.953125 178.457031 86.183594 C 179.632812 86.417969 180.828125 86.664062 182.019531 86.894531 C 183.414062 87.207031 184.792969 87.53125 186.183594 87.839844 C 187.007812 88.398438 187.84375 88.9375 188.664062 89.496094 C 189.296875 90.4375 189.933594 91.382812 190.566406 92.328125 C 191.464844 93.332031 192.347656 94.367188 193.246094 95.390625 C 193.480469 93.859375 193.726562 92.328125 193.960938 90.796875 C 193.246094 89.664062 192.535156 88.550781 191.824219 87.421875 C 190.644531 86.386719 189.484375 85.332031 188.308594 84.296875 C 186.601562 84.09375 184.914062 83.894531 183.210938 83.707031 L 175.003906 83.707031 " fill-opacity="1" fill-rule="nonzero"/><path fill="#ffffff" d="M 177.871094 84.066406 C 175.8125 84.078125 173.765625 84.09375 171.707031 84.109375 C 173.953125 84.621094 176.183594 85.132812 178.414062 85.628906 C 179.28125 85.8125 180.148438 86 181.015625 86.183594 C 181.945312 86.371094 182.875 86.554688 183.800781 86.742188 C 184.902344 87.160156 186 87.578125 187.101562 87.996094 C 187.71875 88.242188 188.355469 88.503906 188.976562 88.753906 C 189.46875 89.480469 189.964844 90.222656 190.460938 90.949219 C 191.34375 91.925781 192.226562 92.882812 193.109375 93.84375 C 193.25 92.511719 193.386719 91.167969 193.527344 89.820312 C 192.925781 88.890625 192.335938 87.980469 191.730469 87.050781 C 190.785156 86.230469 189.84375 85.410156 188.898438 84.589844 C 187.457031 84.28125 186.03125 83.972656 184.59375 83.664062 C 182.347656 83.800781 180.117188 83.925781 177.871094 84.066406 " fill-opacity="1" fill-rule="nonzero"/><path fill="#ffffff" d="M 180.734375 84.421875 L 174.710938 84.28125 L 181.710938 85.796875 L 183.585938 86.183594 L 185.566406 86.570312 L 188.011719 88.148438 L 189.285156 88.011719 L 190.351562 89.574219 L 192.953125 92.328125 L 193.09375 88.863281 L 191.636719 86.664062 L 189.46875 84.871094 L 185.96875 83.617188 L 180.734375 84.421875 " fill-opacity="1" fill-rule="nonzero"/><path fill="#ffffff" d="M 181.042969 96.054688 L 180.640625 92.125 L 186.574219 94.089844 L 191.714844 101.980469 L 197.242188 109.5 L 194.875 111.078125 L 186.960938 105.539062 L 181.042969 96.054688 " fill-opacity="1" fill-rule="nonzero"/><path fill="#ffffff" d="M 181.523438 96.582031 C 181.402344 95.453125 181.292969 94.335938 181.183594 93.222656 C 182.855469 93.78125 184.542969 94.335938 186.230469 94.894531 C 187.671875 97.136719 189.128906 99.367188 190.585938 101.609375 C 192.148438 103.746094 193.710938 105.863281 195.292969 108 C 194.609375 108.449219 193.945312 108.898438 193.261719 109.347656 C 191.035156 107.769531 188.789062 106.207031 186.558594 104.640625 C 184.886719 101.949219 183.195312 99.257812 181.523438 96.582031 " fill-opacity="1" fill-rule="nonzero"/><path fill="#ffffff" d="M 181.988281 97.09375 C 181.894531 96.164062 181.800781 95.253906 181.710938 94.324219 C 183.101562 94.789062 184.480469 95.25 185.875 95.699219 C 187.050781 97.558594 188.246094 99.398438 189.453125 101.238281 C 190.738281 102.988281 192.039062 104.738281 193.324219 106.5 C 192.78125 106.855469 192.226562 107.226562 191.667969 107.597656 C 189.824219 106.316406 187.980469 105.015625 186.140625 103.730469 C 184.761719 101.519531 183.382812 99.304688 181.988281 97.09375 " fill-opacity="1" fill-rule="nonzero"/><path fill="#ffffff" d="M 182.46875 97.601562 C 182.390625 96.875 182.3125 96.148438 182.25 95.421875 C 183.335938 95.792969 184.417969 96.148438 185.519531 96.519531 C 186.449219 97.957031 187.378906 99.414062 188.324219 100.867188 C 189.34375 102.246094 190.351562 103.621094 191.375 105 C 190.941406 105.277344 190.507812 105.570312 190.074219 105.863281 C 188.617188 104.84375 187.160156 103.835938 185.734375 102.816406 C 184.636719 101.082031 183.550781 99.335938 182.46875 97.601562 " fill-opacity="1" fill-rule="nonzero"/><path fill="#ffffff" d="M 182.949219 98.113281 C 182.886719 97.585938 182.839844 97.058594 182.777344 96.535156 C 183.566406 96.796875 184.359375 97.058594 185.164062 97.324219 C 185.84375 98.375 186.527344 99.425781 187.191406 100.480469 C 187.933594 101.484375 188.679688 102.492188 189.40625 103.496094 C 189.097656 103.699219 188.785156 103.914062 188.460938 104.117188 C 187.410156 103.386719 186.371094 102.644531 185.316406 101.902344 C 184.527344 100.648438 183.738281 99.382812 182.949219 98.113281 " fill-opacity="1" fill-rule="nonzero"/><path fill="#ffffff" d="M 183.414062 98.625 L 183.320312 97.632812 L 184.808594 98.128906 L 186.09375 100.109375 L 187.457031 101.984375 L 186.867188 102.386719 L 184.902344 101.007812 L 183.414062 98.625 " fill-opacity="1" fill-rule="nonzero"/><path fill="#ffffff" d="M 174.710938 105.355469 L 182.53125 102.878906 L 179.851562 100.402344 L 176.289062 98.035156 L 169.179688 98.824219 L 162.445312 97.941406 L 167.089844 105.246094 L 170.855469 106.144531 L 174.710938 105.355469 " fill-opacity="1" fill-rule="nonzero"/><path fill="#ffffff" d="M 175.066406 105.230469 C 177.453125 104.472656 179.835938 103.699219 182.238281 102.941406 C 181.015625 102.292969 179.789062 101.65625 178.566406 101.023438 C 177.5625 100.339844 176.554688 99.675781 175.546875 99.011719 C 173.535156 99.226562 171.503906 99.460938 169.492188 99.675781 C 167.308594 99.351562 165.109375 99.011719 162.925781 98.6875 C 163.605469 99.816406 164.289062 100.960938 164.96875 102.089844 C 165.699219 103.15625 166.425781 104.242188 167.152344 105.308594 C 168.390625 105.570312 169.632812 105.835938 170.871094 106.097656 C 172.28125 105.804688 173.671875 105.523438 175.066406 105.230469 " fill-opacity="1" fill-rule="nonzero"/><path fill="#ffffff" d="M 175.421875 105.109375 C 177.589844 104.410156 179.757812 103.699219 181.925781 103.003906 C 180.378906 102.539062 178.828125 102.089844 177.28125 101.625 C 176.460938 101.085938 175.621094 100.527344 174.785156 99.96875 C 173.128906 100.15625 171.472656 100.34375 169.800781 100.527344 C 167.679688 100.171875 165.539062 99.800781 163.402344 99.445312 C 163.976562 100.480469 164.566406 101.53125 165.152344 102.585938 C 165.835938 103.511719 166.53125 104.441406 167.214844 105.371094 C 168.4375 105.601562 169.675781 105.835938 170.898438 106.066406 C 172.402344 105.742188 173.917969 105.433594 175.421875 105.109375 " fill-opacity="1" fill-rule="nonzero"/><path fill="#ffffff" d="M 175.777344 104.996094 C 177.730469 104.347656 179.679688 103.699219 181.632812 103.046875 C 179.757812 102.785156 177.882812 102.523438 175.996094 102.242188 C 175.34375 101.8125 174.695312 101.378906 174.042969 100.945312 C 172.726562 101.082031 171.425781 101.222656 170.125 101.378906 C 168.035156 100.976562 165.960938 100.589844 163.867188 100.1875 C 164.363281 101.144531 164.84375 102.121094 165.339844 103.078125 C 165.992188 103.851562 166.625 104.640625 167.277344 105.429688 C 168.484375 105.617188 169.707031 105.816406 170.914062 106.019531 C 172.539062 105.679688 174.152344 105.339844 175.777344 105 " fill-opacity="1" fill-rule="nonzero"/><path fill="#ffffff" d="M 176.132812 104.875 C 177.867188 104.285156 179.605469 103.699219 181.335938 103.109375 C 179.125 103.035156 176.925781 102.941406 174.710938 102.863281 C 174.246094 102.539062 173.765625 102.230469 173.285156 101.902344 C 172.339844 102.011719 171.394531 102.121094 170.433594 102.230469 C 168.40625 101.796875 166.378906 101.363281 164.347656 100.945312 C 164.734375 101.8125 165.136719 102.691406 165.527344 103.574219 C 166.128906 104.210938 166.734375 104.84375 167.335938 105.492188 C 168.53125 105.648438 169.738281 105.820312 170.929688 105.972656 C 172.664062 105.617188 174.398438 105.246094 176.132812 104.875 " fill-opacity="1" fill-rule="nonzero"/><path fill="#ffffff" d="M 176.492188 104.75 L 181.042969 103.171875 L 173.425781 103.46875 L 172.542969 102.878906 L 170.761719 103.082031 L 164.828125 101.6875 L 165.710938 104.070312 L 167.402344 105.539062 L 170.960938 105.941406 L 176.492188 104.75 " fill-opacity="1" fill-rule="nonzero"/><path fill="#ffffff" d="M 186.480469 113.449219 L 183.210938 119.976562 L 181.832031 123.535156 L 179.277344 124.542969 L 179.480469 124.726562 L 179.480469 124.992188 L 178.550781 125.65625 L 178.9375 125.65625 L 179.480469 125.53125 L 180.515625 125.53125 L 182.234375 125.269531 L 183.011719 124.480469 L 184.835938 119.621094 L 186.136719 116.09375 L 187.285156 113.449219 L 186.480469 113.449219 " fill-opacity="1" fill-rule="nonzero"/><path fill="#ffffff" d="M 199.023438 113.246094 L 202.988281 114.050781 L 204.953125 117.207031 L 206.347656 120.765625 L 207.136719 123.535156 L 206.734375 125.113281 L 204.398438 125.3125 L 205.417969 124.988281 L 205.808594 124.214844 L 205.683594 122.652344 L 203.578125 117.285156 L 201.871094 114.652344 L 200.695312 113.726562 L 199.039062 113.308594 L 199.023438 113.246094 " fill-opacity="1" fill-rule="nonzero"/><path fill="#ffffff" d="M 160.785156 117.964844 L 161.265625 120.5625 L 161.453125 124.324219 L 161.652344 126.101562 L 160.476562 126.691406 L 159.082031 126.394531 L 159.144531 126.304688 L 159.671875 125.652344 L 160.460938 124.339844 L 160.460938 121.988281 L 160.847656 119.234375 L 160.785156 117.964844 " fill-opacity="1" fill-rule="nonzero"/><path fill="#ffffff" d="M 147.019531 120.363281 L 145.640625 124.511719 L 143.550781 125.792969 L 143.65625 125.917969 L 143.65625 126.429688 L 143.410156 127.234375 L 144.078125 127.234375 L 144.324219 126.847656 L 144.464844 126.972656 L 144.464844 127.09375 L 145.097656 126.847656 L 145.238281 126.972656 L 146.695312 125.65625 L 146.695312 124.605469 L 147.605469 121.988281 L 148.117188 120.566406 L 147.808594 120.566406 L 147.605469 120.253906 Z M 142.945312 126.105469 L 141.832031 126.105469 L 141.320312 126.972656 L 141.96875 127.09375 L 142.480469 126.847656 Z M 140.605469 126.105469 L 139.863281 126.105469 L 140.003906 126.304688 L 139.722656 126.570312 L 139.722656 126.707031 L 140.265625 126.707031 L 140.605469 126.105469 " fill-opacity="1" fill-rule="nonzero"/><path fill="#ffffff" d="M 198.4375 92.714844 L 197.832031 90.347656 L 205.359375 93.117188 L 212.871094 95.671875 L 221.371094 97.046875 L 230.074219 97.046875 L 235.417969 96.257812 L 232.644531 98.828125 L 227.117188 101.007812 L 216.433594 100.808594 L 208.316406 98.625 L 200.804688 95.269531 L 198.4375 92.714844 " fill-opacity="1" fill-rule="nonzero"/><path fill="#ffffff" d="M 201.441406 93.984375 C 201.269531 93.300781 201.097656 92.652344 200.929688 91.972656 C 203.066406 92.761719 205.1875 93.535156 207.324219 94.308594 C 209.445312 95.035156 211.582031 95.761719 213.707031 96.488281 C 216.121094 96.890625 218.535156 97.277344 220.9375 97.664062 L 228.339844 97.664062 C 229.859375 97.449219 231.359375 97.21875 232.878906 97 C 232.089844 97.726562 231.3125 98.453125 230.523438 99.183594 C 228.960938 99.800781 227.378906 100.417969 225.816406 101.039062 C 222.796875 100.976562 219.761719 100.914062 216.742188 100.867188 C 214.433594 100.25 212.140625 99.628906 209.847656 99.011719 C 207.710938 98.066406 205.589844 97.109375 203.453125 96.164062 C 202.789062 95.4375 202.105469 94.710938 201.441406 93.984375 " fill-opacity="1" fill-rule="nonzero"/><path fill="#ffffff" d="M 204.445312 95.25 C 204.304688 94.695312 204.164062 94.136719 204.027344 93.597656 C 205.777344 94.230469 207.539062 94.878906 209.292969 95.53125 C 211.042969 96.132812 212.792969 96.722656 214.554688 97.324219 C 216.539062 97.648438 218.519531 97.976562 220.503906 98.300781 L 226.589844 98.300781 C 227.84375 98.113281 229.082031 97.929688 230.335938 97.742188 C 229.6875 98.347656 229.035156 98.933594 228.402344 99.539062 C 227.101562 100.046875 225.816406 100.558594 224.515625 101.054688 C 222.023438 101.007812 219.542969 100.960938 217.050781 100.914062 C 215.144531 100.417969 213.253906 99.910156 211.367188 99.398438 C 209.617188 98.609375 207.867188 97.835938 206.101562 97.046875 C 205.558594 96.445312 205 95.855469 204.445312 95.25 " fill-opacity="1" fill-rule="nonzero"/><path fill="#ffffff" d="M 207.449219 96.519531 C 207.34375 96.085938 207.234375 95.652344 207.125 95.222656 C 208.503906 95.730469 209.882812 96.242188 211.261719 96.738281 C 212.636719 97.21875 214.015625 97.679688 215.394531 98.160156 C 216.960938 98.410156 218.507812 98.65625 220.074219 98.917969 L 224.855469 98.917969 C 225.832031 98.765625 226.824219 98.625 227.800781 98.484375 C 227.289062 98.949219 226.777344 99.429688 226.265625 99.894531 C 225.261719 100.296875 224.238281 100.699219 223.230469 101.085938 C 221.265625 101.054688 219.3125 101.023438 217.347656 100.976562 C 215.859375 100.589844 214.375 100.1875 212.886719 99.785156 C 211.507812 99.167969 210.128906 98.546875 208.75 97.945312 C 208.316406 97.464844 207.882812 97 207.449219 96.519531 " fill-opacity="1" fill-rule="nonzero"/><path fill="#ffffff" d="M 210.453125 97.804688 C 210.375 97.476562 210.300781 97.167969 210.222656 96.84375 C 211.226562 97.214844 212.21875 97.585938 213.226562 97.957031 C 214.234375 98.296875 215.238281 98.636719 216.230469 98.980469 C 217.359375 99.164062 218.507812 99.351562 219.636719 99.535156 L 223.121094 99.535156 C 223.835938 99.425781 224.546875 99.320312 225.257812 99.226562 C 224.886719 99.566406 224.515625 99.90625 224.144531 100.246094 C 223.402344 100.542969 222.671875 100.835938 221.929688 101.113281 C 220.503906 101.097656 219.078125 101.066406 217.65625 101.035156 C 216.570312 100.742188 215.503906 100.464844 214.417969 100.171875 C 213.410156 99.722656 212.40625 99.273438 211.414062 98.824219 C 211.089844 98.484375 210.777344 98.144531 210.453125 97.804688 " fill-opacity="1" fill-rule="nonzero"/><path fill="#ffffff" d="M 213.457031 99.074219 L 213.316406 98.484375 L 215.191406 99.167969 L 217.082031 99.816406 L 219.203125 100.15625 L 221.371094 100.15625 L 222.71875 99.972656 L 222.023438 100.605469 L 220.628906 101.148438 L 217.964844 101.101562 L 215.933594 100.558594 L 214.0625 99.722656 L 213.457031 99.074219 " fill-opacity="1" fill-rule="nonzero"/><path fill="#ffffff" d="M 195.074219 87.375 L 196.066406 89.152344 L 198.636719 86.585938 L 204.957031 86.199219 L 215.238281 87.1875 L 221.574219 87.976562 L 209.308594 84.621094 L 203.964844 83.429688 L 197.648438 83.226562 L 194.285156 85.410156 L 195.074219 87.375 " fill-opacity="1" fill-rule="nonzero"/><path fill="#ffffff" d="M 195.695312 86.929688 C 195.972656 87.4375 196.253906 87.933594 196.53125 88.445312 C 197.257812 87.71875 197.988281 86.988281 198.714844 86.261719 C 200.511719 86.140625 202.308594 86.03125 204.105469 85.921875 C 207.015625 86.199219 209.929688 86.480469 212.839844 86.757812 C 214.636719 86.988281 216.433594 87.207031 218.230469 87.4375 C 214.746094 86.480469 211.277344 85.535156 207.804688 84.574219 C 206.289062 84.234375 204.769531 83.910156 203.253906 83.570312 C 201.472656 83.507812 199.675781 83.460938 197.878906 83.398438 C 196.933594 84.019531 195.972656 84.636719 195.015625 85.242188 C 195.246094 85.8125 195.464844 86.371094 195.695312 86.925781 " fill-opacity="1" fill-rule="nonzero"/><path fill="#ffffff" d="M 196.3125 86.476562 C 196.546875 86.878906 196.777344 87.296875 197.011719 87.714844 C 197.613281 87.113281 198.203125 86.523438 198.804688 85.921875 C 200.277344 85.828125 201.765625 85.734375 203.234375 85.644531 C 205.636719 85.875 208.035156 86.105469 210.4375 86.339844 C 211.90625 86.523438 213.394531 86.710938 214.867188 86.878906 C 212 86.105469 209.152344 85.316406 206.285156 84.527344 C 205.03125 84.265625 203.792969 83.988281 202.539062 83.707031 C 201.066406 83.664062 199.597656 83.617188 198.109375 83.570312 C 197.335938 84.082031 196.546875 84.574219 195.753906 85.085938 C 195.941406 85.550781 196.128906 86.015625 196.3125 86.476562 " fill-opacity="1" fill-rule="nonzero"/><path fill="#ffffff" d="M 196.933594 86.011719 C 197.117188 86.335938 197.304688 86.664062 197.476562 86.988281 C 197.953125 86.523438 198.417969 86.058594 198.898438 85.578125 C 200.0625 85.503906 201.222656 85.441406 202.382812 85.363281 C 204.257812 85.546875 206.148438 85.71875 208.035156 85.90625 C 209.199219 86.058594 210.359375 86.199219 211.519531 86.335938 C 209.261719 85.71875 207.015625 85.117188 204.769531 84.496094 C 203.792969 84.28125 202.816406 84.0625 201.828125 83.847656 C 200.679688 83.800781 199.519531 83.769531 198.359375 83.738281 C 197.738281 84.125 197.117188 84.527344 196.5 84.929688 C 196.652344 85.285156 196.792969 85.65625 196.933594 86.011719 " fill-opacity="1" fill-rule="nonzero"/><path fill="#ffffff" d="M 197.570312 85.566406 C 197.691406 85.796875 197.832031 86.046875 197.957031 86.277344 L 198.992188 85.242188 C 199.832031 85.195312 200.683594 85.148438 201.519531 85.085938 C 202.898438 85.226562 204.257812 85.347656 205.636719 85.488281 C 206.472656 85.597656 207.324219 85.691406 208.160156 85.796875 C 206.535156 85.347656 204.894531 84.902344 203.253906 84.453125 C 202.539062 84.296875 201.828125 84.144531 201.117188 83.988281 C 200.277344 83.957031 199.441406 83.925781 198.589844 83.910156 C 198.140625 84.1875 197.691406 84.484375 197.242188 84.777344 C 197.351562 85.039062 197.460938 85.304688 197.570312 85.566406 " fill-opacity="1" fill-rule="nonzero"/><path fill="#ffffff" d="M 198.1875 85.101562 L 198.4375 85.550781 L 199.070312 84.914062 L 200.652344 84.804688 L 203.238281 85.054688 L 204.816406 85.253906 L 201.75 84.417969 L 200.417969 84.125 L 198.824219 84.0625 L 197.988281 84.621094 L 198.1875 85.101562 " fill-opacity="1" fill-rule="nonzero"/><path fill="#ffffff" d="M 201.796875 90.546875 L 199.023438 87.980469 L 203.175781 86.585938 L 212.480469 87.375 L 221.371094 88.96875 L 231.066406 90.933594 L 231.855469 95.066406 L 226.714844 96.84375 L 212.28125 95.066406 L 201.796875 90.546875 " fill-opacity="1" fill-rule="nonzero"/><path fill="#ffffff" d="M 203.671875 90.222656 C 202.894531 89.480469 202.121094 88.75 201.347656 88.007812 C 202.523438 87.636719 203.714844 87.25 204.894531 86.878906 C 207.511719 87.140625 210.144531 87.390625 212.777344 87.652344 C 215.285156 88.132812 217.792969 88.613281 220.316406 89.09375 C 223.042969 89.679688 225.785156 90.269531 228.511719 90.871094 C 228.726562 92.046875 228.929688 93.222656 229.144531 94.382812 C 227.691406 94.863281 226.21875 95.359375 224.761719 95.839844 C 220.675781 95.28125 216.601562 94.722656 212.527344 94.167969 C 209.570312 92.867188 206.628906 91.535156 203.667969 90.222656 " fill-opacity="1" fill-rule="nonzero"/><path fill="#ffffff" d="M 205.542969 89.898438 C 204.925781 89.277344 204.304688 88.660156 203.667969 88.058594 C 204.644531 87.761719 205.621094 87.46875 206.597656 87.175781 C 208.75 87.421875 210.917969 87.671875 213.070312 87.917969 C 215.128906 88.351562 217.1875 88.785156 219.25 89.21875 C 221.480469 89.742188 223.726562 90.269531 225.972656 90.796875 C 226.125 91.769531 226.28125 92.746094 226.433594 93.6875 C 225.226562 94.074219 224.019531 94.445312 222.8125 94.820312 C 219.464844 94.308594 216.105469 93.796875 212.761719 93.300781 C 210.359375 92.15625 207.960938 91.027344 205.542969 89.898438 " fill-opacity="1" fill-rule="nonzero"/><path fill="#ffffff" d="M 207.433594 89.589844 C 206.953125 89.078125 206.472656 88.582031 205.992188 88.085938 C 206.765625 87.886719 207.542969 87.667969 208.316406 87.46875 C 209.988281 87.699219 211.675781 87.949219 213.363281 88.195312 C 214.976562 88.566406 216.570312 88.953125 218.179688 89.339844 C 219.929688 89.804688 221.667969 90.269531 223.414062 90.71875 C 223.507812 91.492188 223.617188 92.25 223.710938 93.023438 C 222.765625 93.285156 221.804688 93.550781 220.84375 93.8125 C 218.242188 93.332031 215.625 92.867188 213.007812 92.402344 C 211.148438 91.460938 209.292969 90.515625 207.433594 89.589844 " fill-opacity="1" fill-rule="nonzero"/><path fill="#ffffff" d="M 209.308594 89.261719 C 208.980469 88.875 208.640625 88.503906 208.316406 88.132812 C 208.890625 88.007812 209.445312 87.886719 210.019531 87.761719 C 211.226562 87.992188 212.449219 88.226562 213.660156 88.457031 C 214.820312 88.796875 215.964844 89.121094 217.113281 89.464844 C 218.367188 89.867188 219.621094 90.253906 220.859375 90.65625 C 220.90625 91.210938 220.953125 91.769531 221 92.324219 C 220.304688 92.496094 219.589844 92.652344 218.894531 92.804688 C 217.019531 92.371094 215.128906 91.9375 213.257812 91.503906 C 211.941406 90.746094 210.625 90.003906 209.308594 89.261719 " fill-opacity="1" fill-rule="nonzero"/><path fill="#ffffff" d="M 211.179688 88.9375 L 210.640625 88.164062 L 211.722656 88.042969 L 213.953125 88.738281 L 216.042969 89.589844 L 218.320312 90.578125 L 218.289062 91.644531 L 216.941406 91.800781 L 213.503906 90.609375 L 211.179688 88.9375 " fill-opacity="1" fill-rule="nonzero"/><path fill="#ffffff" d="M 158.464844 69.425781 L 158.882812 69.011719 C 158.882812 68.808594 160.074219 67.617188 160.074219 67.617188 L 160.074219 67.230469 C 160.476562 67.230469 160.074219 67.03125 160.476562 67.03125 L 160.664062 66.441406 L 160.863281 66.441406 C 161.066406 66.242188 161.265625 65.453125 161.453125 65.453125 L 161.453125 64.847656 L 161.652344 64.847656 C 161.761719 64.738281 161.761719 64.230469 161.730469 63.703125 L 159.40625 65.542969 L 158.230469 67.105469 L 157.703125 68.546875 L 157.765625 68.609375 C 157.9375 68.640625 158.121094 68.808594 158.292969 68.808594 L 158.496094 69.011719 L 158.339844 69.304688 L 158.464844 69.425781 " fill-opacity="1" fill-rule="nonzero"/><path fill="#ffffff" d="M 150.410156 104.132812 C 150.320312 104.085938 150.488281 103.960938 150.195312 103.960938 C 150.195312 103.824219 150.164062 103.683594 150.132812 103.511719 L 148.398438 100.355469 L 146.957031 98.671875 L 146.726562 97.523438 C 146.601562 97.277344 146.449219 97.046875 146.230469 97.046875 C 146.230469 96.953125 146.136719 96.765625 146.042969 96.582031 L 145.765625 96.582031 L 144.851562 95.40625 L 143.9375 96.039062 L 143.535156 95.917969 L 142.078125 92.914062 L 142.078125 92.898438 L 141.972656 92.667969 L 141.972656 92.328125 L 141.878906 92.328125 L 141.878906 91.925781 C 141.675781 91.722656 141.492188 91.539062 141.492188 91.335938 L 140.886719 91.335938 C 140.886719 90.734375 140.6875 89.757812 140.6875 88.96875 C 140.5 88.769531 140.300781 88.367188 140.097656 88.367188 C 140.097656 88.007812 139.941406 87.5 139.910156 86.972656 C 139.910156 86.972656 139.910156 86.988281 139.894531 86.988281 L 139.742188 86.988281 C 139.539062 87.25 139.308594 87.667969 139.308594 87.980469 C 139.183594 88.085938 139 88.289062 138.8125 88.425781 C 138.578125 89.125 138.425781 89.882812 138.332031 90.71875 L 138.410156 91.074219 L 138.410156 92.125 L 139.214844 96.425781 L 139.726562 97.089844 L 141.320312 99.722656 L 141.707031 99.847656 L 142.886719 100.621094 L 144.203125 102.476562 L 145.640625 103.375 L 147.734375 103.914062 L 150.101562 104.164062 L 150.101562 104.300781 Z M 149.589844 101.070312 L 149.542969 100.992188 C 149.558594 101.007812 149.574219 101.007812 149.589844 101.007812 L 149.589844 101.070312 " fill-opacity="1" fill-rule="nonzero"/><path fill="#ffffff" d="M 232.058594 91.832031 C 233.484375 91.785156 234.984375 91.335938 236.410156 91.335938 C 236.117188 91.632812 235.621094 92.019531 235.21875 92.019531 L 235.125 92.125 C 235.621094 92.328125 236.613281 92.125 237.199219 92.125 C 236.90625 92.421875 236.316406 92.824219 236.007812 93.117188 L 237.109375 93.117188 C 237 93.300781 236.8125 93.597656 236.8125 93.6875 C 237.929688 93.6875 238.996094 93.332031 240.050781 92.929688 L 239.648438 93.550781 L 237.15625 96.039062 L 237.542969 95.265625 L 237.277344 94.988281 L 235.835938 94.988281 L 235.714844 95.128906 L 235.449219 94.476562 L 234.785156 94.214844 L 234.304688 94.214844 C 234.210938 93.953125 234.042969 93.6875 234.042969 93.6875 L 235.21875 92.511719 L 232.382812 92.511719 C 232.320312 92.171875 232.277344 91.832031 232.261719 91.523438 L 232.058594 91.722656 Z M 235.714844 96.691406 C 235.898438 96.738281 236.070312 96.785156 236.222656 96.84375 L 236.101562 95.652344 L 235.296875 95.917969 L 235.03125 95.917969 C 235 95.964844 234.96875 96.011719 234.953125 96.054688 C 235.140625 96.226562 235.328125 96.367188 235.328125 96.457031 L 235.511719 96.457031 L 235.621094 96.660156 C 235.652344 96.660156 235.683594 96.675781 235.714844 96.691406 " fill-opacity="1" fill-rule="nonzero"/></svg>