<svg xmlns="http://www.w3.org/2000/svg" xmlns:xlink="http://www.w3.org/1999/xlink" width="500" zoomAndPan="magnify" viewBox="0 0 375 374.999991" height="500" preserveAspectRatio="xMidYMid meet" version="1.0"><defs><clipPath id="id1"><path d="M 11.550781 7.03125 L 363.300781 7.03125 L 363.300781 358.78125 L 11.550781 358.78125 Z M 11.550781 7.03125 " clip-rule="nonzero"/></clipPath><clipPath id="id2"><path d="M 114 181 L 238 181 L 238 278.109375 L 114 278.109375 Z M 114 181 " clip-rule="nonzero"/></clipPath><clipPath id="id3"><path d="M 105.355469 102 L 129 102 L 129 132 L 105.355469 132 Z M 105.355469 102 " clip-rule="nonzero"/></clipPath><clipPath id="id4"><path d="M 217 96.609375 L 228 96.609375 L 228 107 L 217 107 Z M 217 96.609375 " clip-rule="nonzero"/></clipPath><clipPath id="id5"><path d="M 259 138 L 269.605469 138 L 269.605469 149 L 259 149 Z M 259 138 " clip-rule="nonzero"/></clipPath></defs><rect x="-37.5" width="450" fill="#ffffff" y="-37.499999" height="449.999989" fill-opacity="1"/><rect x="-37.5" width="450" fill="#ffffff" y="-37.499999" height="449.999989" fill-opacity="1"/><rect x="-37.5" width="450" fill="#ffffff" y="-37.499999" height="449.999989" fill-opacity="1"/><g clip-path="url(#id1)"><path fill="#7ed957" d="M 187.425781 7.03125 C 90.292969 7.03125 11.550781 85.773438 11.550781 182.90625 C 11.550781 280.039062 90.292969 358.78125 187.425781 358.78125 C 284.558594 358.78125 363.300781 280.039062 363.300781 182.90625 C 363.300781 85.773438 284.558594 7.03125 187.425781 7.03125 " fill-opacity="1" fill-rule="nonzero"/></g><path fill="#fdf061" d="M 258.21875 122.5625 C 258.21875 123.519531 258.125 124.472656 257.9375 125.414062 C 257.75 126.351562 257.472656 127.265625 257.101562 128.152344 C 256.734375 129.039062 256.285156 129.882812 255.75 130.679688 C 255.21875 131.476562 254.609375 132.214844 253.929688 132.894531 C 253.25 133.574219 252.511719 134.179688 251.714844 134.710938 C 250.914062 135.246094 250.070312 135.695312 249.183594 136.0625 C 248.296875 136.429688 247.382812 136.707031 246.4375 136.894531 C 245.496094 137.082031 244.542969 137.175781 243.585938 137.175781 C 242.625 137.175781 241.671875 137.082031 240.730469 136.894531 C 239.785156 136.707031 238.871094 136.429688 237.984375 136.0625 C 237.097656 135.695312 236.253906 135.246094 235.453125 134.710938 C 234.65625 134.179688 233.917969 133.574219 233.238281 132.894531 C 232.558594 132.214844 231.949219 131.476562 231.417969 130.679688 C 230.882812 129.882812 230.433594 129.039062 230.066406 128.152344 C 229.695312 127.265625 229.417969 126.351562 229.230469 125.414062 C 229.042969 124.472656 228.949219 123.519531 228.949219 122.5625 C 228.949219 121.601562 229.042969 120.652344 229.230469 119.710938 C 229.417969 118.769531 229.695312 117.855469 230.066406 116.96875 C 230.433594 116.082031 230.882812 115.238281 231.417969 114.441406 C 231.949219 113.644531 232.558594 112.90625 233.238281 112.226562 C 233.917969 111.550781 234.65625 110.945312 235.453125 110.410156 C 236.253906 109.878906 237.097656 109.425781 237.984375 109.058594 C 238.871094 108.691406 239.785156 108.414062 240.730469 108.226562 C 241.671875 108.042969 242.625 107.949219 243.585938 107.949219 C 244.542969 107.949219 245.496094 108.042969 246.4375 108.226562 C 247.382812 108.414062 248.296875 108.691406 249.183594 109.058594 C 250.070312 109.425781 250.914062 109.878906 251.714844 110.410156 C 252.511719 110.945312 253.25 111.550781 253.929688 112.226562 C 254.609375 112.90625 255.21875 113.644531 255.75 114.441406 C 256.285156 115.238281 256.734375 116.082031 257.101562 116.96875 C 257.472656 117.855469 257.75 118.769531 257.9375 119.710938 C 258.125 120.652344 258.21875 121.601562 258.21875 122.5625 Z M 258.21875 122.5625 " fill-opacity="1" fill-rule="nonzero"/><path fill="#e8d941" d="M 243.585938 107.949219 C 242.230469 107.953125 240.902344 108.140625 239.597656 108.511719 C 238.296875 108.886719 237.070312 109.429688 235.917969 110.144531 C 234.769531 110.859375 233.738281 111.714844 232.824219 112.71875 C 231.914062 113.71875 231.15625 114.824219 230.554688 116.039062 C 232.605469 114.984375 234.78125 114.449219 237.085938 114.4375 C 238.046875 114.4375 239 114.53125 239.941406 114.71875 C 240.882812 114.902344 241.800781 115.179688 242.6875 115.546875 C 243.574219 115.914062 244.417969 116.367188 245.214844 116.898438 C 246.015625 117.433594 246.753906 118.039062 247.433594 118.714844 C 248.113281 119.394531 248.71875 120.132812 249.253906 120.929688 C 249.789062 121.730469 250.238281 122.570312 250.605469 123.457031 C 250.972656 124.34375 251.25 125.257812 251.4375 126.199219 C 251.625 127.140625 251.71875 128.089844 251.71875 129.050781 C 251.703125 131.351562 251.171875 133.527344 250.117188 135.574219 C 250.847656 135.210938 251.546875 134.789062 252.207031 134.308594 C 252.867188 133.828125 253.484375 133.296875 254.058594 132.710938 C 254.628906 132.128906 255.148438 131.5 255.613281 130.832031 C 256.082031 130.160156 256.488281 129.453125 256.835938 128.714844 C 257.183594 127.976562 257.46875 127.210938 257.6875 126.425781 C 257.90625 125.640625 258.058594 124.839844 258.140625 124.027344 C 258.226562 123.214844 258.242188 122.402344 258.191406 121.585938 C 258.136719 120.769531 258.015625 119.964844 257.828125 119.171875 C 257.640625 118.375 257.386719 117.601562 257.070312 116.851562 C 256.753906 116.097656 256.375 115.378906 255.933594 114.6875 C 255.496094 114 255 113.351562 254.453125 112.746094 C 253.902344 112.140625 253.308594 111.585938 252.667969 111.078125 C 252.023438 110.574219 251.34375 110.125 250.625 109.734375 C 249.910156 109.339844 249.164062 109.011719 248.390625 108.746094 C 247.617188 108.480469 246.828125 108.277344 246.019531 108.144531 C 245.214844 108.011719 244.402344 107.945312 243.585938 107.949219 Z M 243.585938 107.949219 " fill-opacity="1" fill-rule="nonzero"/><path fill="#54d195" d="M 160.789062 207.757812 C 160.207031 208.28125 159.578125 208.746094 158.902344 209.148438 C 158.230469 209.550781 157.523438 209.886719 156.785156 210.152344 C 156.046875 210.421875 155.289062 210.613281 154.515625 210.734375 C 153.738281 210.855469 152.957031 210.902344 152.171875 210.871094 C 151.386719 210.84375 150.613281 210.738281 149.847656 210.558594 C 149.085938 210.378906 148.34375 210.128906 147.628906 209.808594 C 146.910156 209.484375 146.234375 209.097656 145.589844 208.644531 C 144.949219 208.191406 144.359375 207.683594 143.816406 207.113281 C 135.386719 198.699219 137.933594 184.933594 137.933594 184.933594 C 137.933594 184.933594 151.71875 182.390625 160.144531 190.804688 C 160.714844 191.347656 161.226562 191.9375 161.679688 192.578125 C 162.132812 193.21875 162.519531 193.898438 162.84375 194.613281 C 163.164062 195.328125 163.414062 196.066406 163.59375 196.832031 C 163.773438 197.59375 163.878906 198.367188 163.910156 199.152344 C 163.9375 199.9375 163.894531 200.714844 163.773438 201.488281 C 163.652344 202.265625 163.457031 203.019531 163.191406 203.757812 C 162.921875 204.496094 162.585938 205.203125 162.183594 205.875 C 161.78125 206.546875 161.316406 207.175781 160.789062 207.757812 Z M 160.789062 207.757812 " fill-opacity="1" fill-rule="nonzero"/><path fill="#c98b52" d="M 210.71875 275.183594 L 140.539062 275.183594 C 141.046875 274.507812 141.574219 273.84375 142.121094 273.199219 C 142.667969 272.550781 143.230469 271.917969 143.816406 271.304688 C 144.398438 270.691406 145 270.09375 145.617188 269.515625 C 146.234375 268.933594 146.871094 268.375 147.519531 267.832031 C 148.171875 267.289062 148.835938 266.765625 149.519531 266.261719 C 150.199219 265.757812 150.894531 265.273438 151.601562 264.808594 C 152.3125 264.34375 153.035156 263.902344 153.769531 263.480469 C 154.503906 263.058594 155.25 262.65625 156.007812 262.277344 C 156.765625 261.898438 157.535156 261.542969 158.316406 261.207031 C 159.09375 260.875 159.882812 260.5625 160.679688 260.273438 C 161.476562 259.984375 162.28125 259.71875 163.09375 259.476562 C 163.90625 259.234375 164.722656 259.015625 165.546875 258.820312 C 166.375 258.625 167.203125 258.457031 168.039062 258.308594 C 168.875 258.164062 169.710938 258.039062 170.554688 257.941406 C 171.394531 257.84375 172.242188 257.769531 173.085938 257.722656 C 173.933594 257.671875 174.78125 257.648438 175.628906 257.648438 C 176.476562 257.648438 177.324219 257.671875 178.167969 257.722656 C 179.015625 257.769531 179.859375 257.84375 180.703125 257.941406 C 181.542969 258.039062 182.382812 258.164062 183.21875 258.308594 C 184.054688 258.457031 184.882812 258.625 185.707031 258.820312 C 186.53125 259.015625 187.351562 259.234375 188.164062 259.476562 C 188.976562 259.71875 189.78125 259.984375 190.578125 260.273438 C 191.375 260.5625 192.164062 260.875 192.941406 261.207031 C 193.722656 261.542969 194.488281 261.898438 195.246094 262.277344 C 196.003906 262.65625 196.753906 263.058594 197.488281 263.480469 C 198.222656 263.902344 198.945312 264.34375 199.652344 264.808594 C 200.363281 265.273438 201.058594 265.757812 201.738281 266.261719 C 202.417969 266.765625 203.085938 267.289062 203.734375 267.832031 C 204.386719 268.375 205.019531 268.933594 205.640625 269.515625 C 206.257812 270.09375 206.859375 270.691406 207.441406 271.304688 C 208.023438 271.917969 208.589844 272.550781 209.136719 273.199219 C 209.683594 273.84375 210.210938 274.507812 210.71875 275.183594 Z M 210.71875 275.183594 " fill-opacity="1" fill-rule="nonzero"/><path fill="#b87940" d="M 182.945312 258.324219 C 180.523438 257.894531 178.085938 257.671875 175.628906 257.648438 C 173.929688 257.644531 172.238281 257.742188 170.550781 257.933594 C 168.867188 258.128906 167.195312 258.417969 165.542969 258.808594 C 163.890625 259.195312 162.265625 259.679688 160.671875 260.257812 C 159.074219 260.832031 157.519531 261.5 156 262.261719 C 154.480469 263.019531 153.011719 263.863281 151.59375 264.792969 C 150.175781 265.722656 148.8125 266.730469 147.511719 267.820312 C 146.210938 268.90625 144.976562 270.066406 143.808594 271.300781 C 142.644531 272.53125 141.554688 273.824219 140.539062 275.183594 L 155.140625 275.183594 C 156.8125 272.957031 158.679688 270.910156 160.746094 269.042969 C 162.808594 267.171875 165.03125 265.515625 167.414062 264.070312 C 169.792969 262.628906 172.289062 261.421875 174.902344 260.457031 C 177.515625 259.488281 180.195312 258.777344 182.945312 258.324219 Z M 182.945312 258.324219 " fill-opacity="1" fill-rule="nonzero"/><path fill="#54d195" d="M 191.839844 229.765625 C 185.316406 223.277344 186.078125 211.964844 192.808594 205.273438 C 204.953125 193.117188 224.855469 196.796875 224.855469 196.796875 C 224.855469 196.796875 228.542969 216.671875 216.367188 228.800781 C 209.664062 235.523438 198.339844 236.285156 191.839844 229.765625 Z M 191.839844 229.765625 " fill-opacity="1" fill-rule="nonzero"/><path fill="#2bad64" d="M 224.855469 196.796875 C 223.082031 196.515625 221.296875 196.351562 219.5 196.308594 C 219.535156 198.476562 219.363281 200.632812 218.992188 202.769531 C 218.617188 204.910156 218.046875 206.996094 217.277344 209.023438 C 216.507812 211.054688 215.554688 212.996094 214.417969 214.847656 C 213.28125 216.699219 211.980469 218.425781 210.515625 220.03125 C 209.796875 220.769531 209.015625 221.445312 208.179688 222.050781 C 207.339844 222.65625 206.457031 223.183594 205.527344 223.636719 C 204.597656 224.089844 203.636719 224.460938 202.644531 224.746094 C 201.652344 225.035156 200.640625 225.234375 199.613281 225.347656 C 198.582031 225.460938 197.554688 225.484375 196.523438 225.417969 C 195.488281 225.355469 194.472656 225.203125 193.464844 224.960938 C 192.460938 224.71875 191.480469 224.394531 190.53125 223.984375 C 189.582031 223.574219 188.675781 223.085938 187.8125 222.519531 C 188.46875 225.316406 189.8125 227.730469 191.839844 229.765625 C 198.339844 236.285156 209.664062 235.523438 216.367188 228.800781 C 228.542969 216.671875 224.855469 196.796875 224.855469 196.796875 Z M 224.855469 196.796875 " fill-opacity="1" fill-rule="nonzero"/><g clip-path="url(#id2)"><path fill="#000000" d="M 208.375 276.9375 C 208.65625 277.296875 209.003906 277.578125 209.414062 277.785156 C 209.824219 277.988281 210.257812 278.097656 210.714844 278.109375 L 234.160156 278.109375 C 234.546875 278.109375 234.921875 278.035156 235.28125 277.886719 C 235.640625 277.738281 235.957031 277.527344 236.230469 277.25 C 236.503906 276.976562 236.714844 276.660156 236.863281 276.304688 C 237.011719 275.945312 237.085938 275.574219 237.085938 275.183594 C 237.085938 274.796875 237.011719 274.425781 236.863281 274.066406 C 236.714844 273.707031 236.503906 273.390625 236.230469 273.117188 C 235.957031 272.84375 235.640625 272.632812 235.28125 272.484375 C 234.921875 272.335938 234.546875 272.261719 234.160156 272.261719 L 212.074219 272.261719 C 210.050781 269.71875 207.78125 267.410156 205.273438 265.34375 C 202.761719 263.277344 200.0625 261.496094 197.171875 260 C 194.285156 258.503906 191.273438 257.328125 188.132812 256.46875 C 184.996094 255.605469 181.804688 255.085938 178.554688 254.898438 L 178.554688 247.171875 L 193.921875 231.828125 L 208.425781 217.339844 C 208.671875 217.0625 208.859375 216.746094 208.984375 216.398438 C 209.109375 216.046875 209.167969 215.6875 209.15625 215.316406 C 209.144531 214.941406 209.0625 214.585938 208.914062 214.246094 C 208.765625 213.90625 208.558594 213.601562 208.296875 213.339844 C 208.03125 213.078125 207.730469 212.875 207.386719 212.726562 C 207.042969 212.578125 206.6875 212.5 206.316406 212.488281 C 205.941406 212.476562 205.582031 212.535156 205.230469 212.664062 C 204.882812 212.789062 204.566406 212.976562 204.289062 213.222656 L 192.113281 225.382812 C 190.738281 223.050781 190.128906 220.53125 190.289062 217.828125 C 190.378906 215.859375 190.820312 213.972656 191.613281 212.167969 C 192.402344 210.363281 193.492188 208.761719 194.878906 207.359375 C 203.585938 198.644531 217.085938 198.9375 222.238281 199.429688 C 222.722656 204.574219 223.027344 218.058594 214.304688 226.746094 C 212.902344 228.132812 211.292969 229.222656 209.484375 230.011719 C 207.675781 230.804688 205.785156 231.246094 203.8125 231.339844 C 203.425781 231.347656 203.054688 231.425781 202.699219 231.582031 C 202.34375 231.738281 202.03125 231.953125 201.761719 232.234375 C 201.492188 232.511719 201.285156 232.832031 201.144531 233.195312 C 201.003906 233.554688 200.9375 233.929688 200.945312 234.316406 C 200.949219 234.703125 201.03125 235.074219 201.1875 235.429688 C 201.34375 235.785156 201.558594 236.097656 201.839844 236.367188 C 202.121094 236.636719 202.441406 236.839844 202.800781 236.984375 C 203.164062 237.125 203.539062 237.191406 203.925781 237.183594 L 204.042969 237.183594 C 206.746094 237.0625 209.339844 236.457031 211.820312 235.375 C 214.300781 234.289062 216.507812 232.796875 218.433594 230.898438 C 231.550781 217.8125 227.890625 197.148438 227.722656 196.273438 C 227.609375 195.679688 227.34375 195.167969 226.914062 194.742188 C 226.488281 194.3125 225.976562 194.042969 225.378906 193.933594 C 224.503906 193.769531 203.8125 190.132812 190.722656 203.226562 C 188.824219 205.148438 187.332031 207.347656 186.25 209.820312 C 185.164062 212.292969 184.558594 214.875 184.433594 217.574219 C 184.308594 219.714844 184.542969 221.8125 185.136719 223.875 C 185.726562 225.9375 186.644531 227.839844 187.886719 229.589844 L 178.554688 238.910156 L 178.554688 202.117188 C 178.554688 201.730469 178.480469 201.355469 178.332031 201 C 178.183594 200.640625 177.972656 200.324219 177.699219 200.050781 C 177.421875 199.777344 177.105469 199.566406 176.75 199.417969 C 176.390625 199.269531 176.015625 199.195312 175.628906 199.195312 C 175.238281 199.195312 174.867188 199.269531 174.507812 199.417969 C 174.148438 199.566406 173.832031 199.777344 173.558594 200.050781 C 173.285156 200.324219 173.074219 200.640625 172.925781 201 C 172.777344 201.355469 172.703125 201.730469 172.703125 202.117188 L 172.703125 215.519531 L 164.703125 207.53125 C 165.132812 206.796875 165.503906 206.03125 165.808594 205.234375 C 166.109375 204.4375 166.347656 203.621094 166.515625 202.785156 C 166.683594 201.949219 166.785156 201.105469 166.8125 200.253906 C 166.84375 199.402344 166.800781 198.554688 166.6875 197.707031 C 166.578125 196.863281 166.394531 196.03125 166.144531 195.21875 C 165.894531 194.402344 165.582031 193.613281 165.199219 192.851562 C 164.820312 192.085938 164.378906 191.359375 163.875 190.667969 C 163.375 189.980469 162.820312 189.335938 162.210938 188.738281 C 152.8125 179.347656 138.039062 181.953125 137.414062 182.070312 C 136.816406 182.179688 136.308594 182.449219 135.878906 182.878906 C 135.453125 183.304688 135.183594 183.816406 135.070312 184.410156 C 134.953125 185.03125 132.347656 199.789062 141.746094 209.175781 C 143.230469 210.65625 144.941406 211.796875 146.878906 212.597656 C 148.816406 213.402344 150.832031 213.804688 152.929688 213.808594 C 155.675781 213.824219 158.21875 213.109375 160.554688 211.664062 L 172.703125 223.792969 L 172.703125 254.898438 C 169.453125 255.085938 166.261719 255.605469 163.121094 256.46875 C 159.984375 257.328125 156.972656 258.503906 154.082031 260 C 151.195312 261.496094 148.496094 263.277344 145.984375 265.34375 C 143.472656 267.410156 141.207031 269.71875 139.183594 272.261719 L 117.097656 272.261719 C 116.707031 272.261719 116.335938 272.335938 115.976562 272.484375 C 115.617188 272.632812 115.300781 272.84375 115.027344 273.117188 C 114.753906 273.390625 114.539062 273.707031 114.390625 274.066406 C 114.242188 274.425781 114.167969 274.796875 114.167969 275.183594 C 114.167969 275.574219 114.242188 275.945312 114.390625 276.304688 C 114.539062 276.660156 114.753906 276.976562 115.027344 277.25 C 115.300781 277.527344 115.617188 277.738281 115.976562 277.886719 C 116.335938 278.035156 116.707031 278.109375 117.097656 278.109375 L 194.152344 278.109375 C 194.542969 278.109375 194.914062 278.035156 195.273438 277.886719 C 195.632812 277.738281 195.949219 277.527344 196.222656 277.25 C 196.496094 276.976562 196.707031 276.660156 196.859375 276.304688 C 197.007812 275.945312 197.082031 275.574219 197.082031 275.183594 C 197.082031 274.796875 197.007812 274.425781 196.859375 274.066406 C 196.707031 273.707031 196.496094 273.390625 196.222656 273.117188 C 195.949219 272.84375 195.632812 272.632812 195.273438 272.484375 C 194.914062 272.335938 194.542969 272.261719 194.152344 272.261719 L 147.035156 272.261719 C 148.070312 271.246094 149.160156 270.289062 150.296875 269.386719 C 151.4375 268.484375 152.621094 267.648438 153.847656 266.875 C 155.074219 266.101562 156.339844 265.394531 157.644531 264.753906 C 158.949219 264.113281 160.28125 263.542969 161.648438 263.046875 C 163.011719 262.550781 164.398438 262.125 165.808594 261.777344 C 167.21875 261.425781 168.640625 261.152344 170.082031 260.953125 C 171.519531 260.757812 172.964844 260.636719 174.417969 260.589844 C 175.867188 260.546875 177.316406 260.582031 178.765625 260.691406 C 180.214844 260.800781 181.652344 260.988281 183.082031 261.253906 C 184.507812 261.515625 185.917969 261.855469 187.3125 262.269531 C 188.703125 262.683594 190.070312 263.167969 191.410156 263.726562 C 192.75 264.289062 194.054688 264.917969 195.328125 265.617188 C 196.601562 266.3125 197.835938 267.078125 199.027344 267.90625 C 200.21875 268.738281 201.359375 269.628906 202.457031 270.582031 C 203.554688 271.53125 204.59375 272.539062 205.582031 273.601562 C 206.570312 274.664062 207.5 275.777344 208.371094 276.9375 Z M 160.34375 203.1875 L 154.285156 197.148438 C 154.007812 196.882812 153.691406 196.679688 153.335938 196.535156 C 152.980469 196.394531 152.609375 196.324219 152.226562 196.328125 C 151.84375 196.332031 151.472656 196.40625 151.121094 196.554688 C 150.765625 196.703125 150.453125 196.914062 150.183594 197.183594 C 149.910156 197.457031 149.699219 197.765625 149.550781 198.121094 C 149.402344 198.472656 149.328125 198.84375 149.324219 199.226562 C 149.320312 199.609375 149.390625 199.976562 149.53125 200.335938 C 149.675781 200.691406 149.878906 201.003906 150.144531 201.28125 L 156.207031 207.335938 C 155.328125 207.65625 154.417969 207.847656 153.484375 207.910156 C 152.546875 207.96875 151.625 207.898438 150.707031 207.695312 C 149.792969 207.492188 148.925781 207.164062 148.105469 206.714844 C 147.285156 206.261719 146.542969 205.703125 145.882812 205.039062 C 140.484375 199.652344 140.320312 191.410156 140.589844 187.570312 C 144.429688 187.300781 152.644531 187.441406 158.070312 192.863281 C 158.734375 193.527344 159.292969 194.269531 159.742188 195.089844 C 160.191406 195.910156 160.519531 196.777344 160.71875 197.691406 C 160.921875 198.609375 160.992188 199.53125 160.925781 200.46875 C 160.863281 201.402344 160.667969 202.308594 160.34375 203.1875 Z M 160.34375 203.1875 " fill-opacity="1" fill-rule="nonzero"/></g><path fill="#000000" d="M 261.148438 122.5625 C 261.148438 121.988281 261.121094 121.414062 261.066406 120.84375 C 261.007812 120.269531 260.925781 119.703125 260.8125 119.140625 C 260.699219 118.578125 260.558594 118.019531 260.394531 117.472656 C 260.226562 116.921875 260.03125 116.382812 259.8125 115.851562 C 259.59375 115.320312 259.347656 114.800781 259.074219 114.292969 C 258.804688 113.789062 258.507812 113.296875 258.191406 112.820312 C 257.871094 112.339844 257.527344 111.878906 257.164062 111.4375 C 256.800781 110.992188 256.414062 110.566406 256.007812 110.160156 C 255.601562 109.753906 255.175781 109.371094 254.730469 109.003906 C 254.285156 108.640625 253.824219 108.300781 253.34375 107.980469 C 252.867188 107.660156 252.375 107.367188 251.867188 107.09375 C 251.359375 106.824219 250.839844 106.578125 250.308594 106.359375 C 249.777344 106.140625 249.238281 105.945312 248.6875 105.78125 C 248.136719 105.613281 247.578125 105.472656 247.015625 105.363281 C 246.453125 105.25 245.882812 105.164062 245.3125 105.109375 C 244.738281 105.054688 244.164062 105.023438 243.589844 105.023438 C 243.015625 105.023438 242.441406 105.054688 241.867188 105.109375 C 241.296875 105.164062 240.726562 105.25 240.164062 105.363281 C 239.601562 105.472656 239.042969 105.613281 238.492188 105.78125 C 237.941406 105.945312 237.402344 106.140625 236.871094 106.359375 C 236.339844 106.578125 235.820312 106.824219 235.3125 107.09375 C 234.804688 107.367188 234.3125 107.660156 233.835938 107.980469 C 233.355469 108.300781 232.894531 108.640625 232.449219 109.003906 C 232.003906 109.371094 231.578125 109.753906 231.171875 110.160156 C 230.765625 110.566406 230.382812 110.992188 230.015625 111.4375 C 229.652344 111.878906 229.308594 112.339844 228.988281 112.820312 C 228.671875 113.296875 228.375 113.789062 228.105469 114.292969 C 227.832031 114.800781 227.585938 115.320312 227.367188 115.851562 C 227.148438 116.382812 226.953125 116.921875 226.785156 117.472656 C 226.621094 118.019531 226.480469 118.578125 226.367188 119.140625 C 226.253906 119.703125 226.171875 120.269531 226.113281 120.84375 C 226.058594 121.414062 226.03125 121.988281 226.03125 122.5625 C 226.03125 123.136719 226.058594 123.707031 226.113281 124.28125 C 226.171875 124.851562 226.253906 125.417969 226.367188 125.980469 C 226.480469 126.546875 226.621094 127.101562 226.785156 127.652344 C 226.953125 128.203125 227.148438 128.742188 227.367188 129.273438 C 227.585938 129.800781 227.832031 130.320312 228.105469 130.828125 C 228.375 131.335938 228.671875 131.828125 228.988281 132.304688 C 229.308594 132.78125 229.652344 133.242188 230.015625 133.6875 C 230.382812 134.128906 230.765625 134.554688 231.171875 134.960938 C 231.578125 135.367188 232.003906 135.753906 232.449219 136.117188 C 232.894531 136.480469 233.355469 136.824219 233.835938 137.140625 C 234.3125 137.460938 234.804688 137.757812 235.3125 138.027344 C 235.820312 138.296875 236.339844 138.542969 236.871094 138.761719 C 237.402344 138.980469 237.941406 139.175781 238.492188 139.34375 C 239.042969 139.507812 239.601562 139.648438 240.164062 139.761719 C 240.726562 139.871094 241.296875 139.957031 241.867188 140.011719 C 242.441406 140.070312 243.015625 140.097656 243.589844 140.097656 C 244.164062 140.097656 244.738281 140.066406 245.308594 140.011719 C 245.882812 139.953125 246.449219 139.871094 247.015625 139.757812 C 247.578125 139.644531 248.136719 139.503906 248.683594 139.335938 C 249.234375 139.171875 249.777344 138.976562 250.304688 138.757812 C 250.835938 138.539062 251.355469 138.292969 251.863281 138.019531 C 252.371094 137.75 252.863281 137.453125 253.339844 137.136719 C 253.820312 136.816406 254.28125 136.476562 254.722656 136.109375 C 255.167969 135.746094 255.59375 135.359375 256 134.957031 C 256.40625 134.550781 256.792969 134.125 257.15625 133.679688 C 257.523438 133.238281 257.863281 132.777344 258.183594 132.300781 C 258.503906 131.820312 258.800781 131.328125 259.070312 130.824219 C 259.339844 130.316406 259.585938 129.800781 259.808594 129.269531 C 260.027344 128.738281 260.222656 128.199219 260.390625 127.648438 C 260.554688 127.101562 260.695312 126.542969 260.808594 125.980469 C 260.921875 125.417969 261.007812 124.851562 261.0625 124.28125 C 261.121094 123.707031 261.148438 123.136719 261.148438 122.5625 Z M 243.589844 134.253906 C 242.820312 134.253906 242.058594 134.175781 241.304688 134.027344 C 240.550781 133.878906 239.820312 133.65625 239.109375 133.363281 C 238.398438 133.070312 237.726562 132.707031 237.085938 132.28125 C 236.445312 131.855469 235.855469 131.371094 235.3125 130.828125 C 234.769531 130.285156 234.285156 129.695312 233.855469 129.054688 C 233.429688 128.417969 233.070312 127.746094 232.773438 127.035156 C 232.480469 126.324219 232.257812 125.59375 232.109375 124.84375 C 231.957031 124.089844 231.882812 123.328125 231.882812 122.5625 C 231.882812 121.792969 231.957031 121.035156 232.109375 120.28125 C 232.257812 119.527344 232.480469 118.796875 232.773438 118.085938 C 233.070312 117.378906 233.429688 116.703125 233.855469 116.066406 C 234.285156 115.429688 234.769531 114.835938 235.3125 114.292969 C 235.855469 113.75 236.445312 113.265625 237.085938 112.839844 C 237.726562 112.414062 238.398438 112.054688 239.109375 111.761719 C 239.820312 111.464844 240.550781 111.246094 241.304688 111.09375 C 242.058594 110.945312 242.820312 110.871094 243.589844 110.871094 C 244.359375 110.871094 245.121094 110.945312 245.875 111.09375 C 246.628906 111.246094 247.359375 111.464844 248.070312 111.761719 C 248.78125 112.054688 249.453125 112.414062 250.09375 112.839844 C 250.734375 113.265625 251.324219 113.75 251.867188 114.292969 C 252.410156 114.835938 252.894531 115.429688 253.324219 116.066406 C 253.75 116.703125 254.109375 117.378906 254.40625 118.085938 C 254.699219 118.796875 254.921875 119.527344 255.070312 120.28125 C 255.222656 121.035156 255.296875 121.792969 255.296875 122.5625 C 255.296875 123.328125 255.222656 124.089844 255.070312 124.84375 C 254.921875 125.59375 254.699219 126.324219 254.40625 127.035156 C 254.109375 127.746094 253.75 128.417969 253.324219 129.054688 C 252.894531 129.695312 252.410156 130.285156 251.867188 130.828125 C 251.324219 131.371094 250.734375 131.855469 250.09375 132.28125 C 249.453125 132.707031 248.78125 133.070312 248.070312 133.363281 C 247.359375 133.65625 246.628906 133.878906 245.875 134.027344 C 245.121094 134.175781 244.359375 134.253906 243.589844 134.253906 Z M 243.589844 134.253906 " fill-opacity="1" fill-rule="nonzero"/><path fill="#000000" d="M 152.214844 175.8125 C 152.601562 175.8125 152.976562 175.738281 153.335938 175.589844 C 153.695312 175.441406 154.011719 175.230469 154.285156 174.957031 C 154.558594 174.683594 154.769531 174.367188 154.917969 174.007812 C 155.066406 173.652344 155.140625 173.277344 155.140625 172.890625 L 155.140625 165.339844 L 156 166.195312 C 156.277344 166.460938 156.59375 166.667969 156.953125 166.8125 C 157.308594 166.957031 157.683594 167.03125 158.070312 167.03125 C 158.453125 167.03125 158.828125 166.957031 159.183594 166.8125 C 159.542969 166.667969 159.859375 166.460938 160.136719 166.195312 C 160.410156 165.921875 160.625 165.605469 160.773438 165.246094 C 160.921875 164.886719 160.996094 164.515625 160.996094 164.128906 C 160.996094 163.742188 160.921875 163.367188 160.773438 163.007812 C 160.625 162.652344 160.410156 162.335938 160.136719 162.0625 L 154.285156 156.214844 C 154.007812 155.949219 153.6875 155.742188 153.332031 155.59375 C 152.972656 155.449219 152.597656 155.378906 152.210938 155.378906 C 151.824219 155.378906 151.453125 155.449219 151.09375 155.59375 C 150.734375 155.742188 150.417969 155.949219 150.140625 156.214844 L 144.289062 162.0625 C 144.011719 162.335938 143.800781 162.652344 143.652344 163.007812 C 143.503906 163.367188 143.429688 163.742188 143.429688 164.128906 C 143.429688 164.515625 143.503906 164.886719 143.652344 165.246094 C 143.800781 165.605469 144.011719 165.921875 144.289062 166.195312 C 144.566406 166.460938 144.882812 166.664062 145.242188 166.808594 C 145.597656 166.953125 145.972656 167.023438 146.355469 167.023438 C 146.742188 167.023438 147.113281 166.953125 147.472656 166.808594 C 147.828125 166.664062 148.148438 166.460938 148.425781 166.195312 L 149.289062 165.339844 L 149.289062 172.890625 C 149.289062 173.277344 149.363281 173.652344 149.511719 174.007812 C 149.660156 174.367188 149.871094 174.683594 150.144531 174.957031 C 150.421875 175.230469 150.738281 175.441406 151.09375 175.589844 C 151.453125 175.738281 151.828125 175.8125 152.214844 175.8125 Z M 152.214844 175.8125 " fill-opacity="1" fill-rule="nonzero"/><path fill="#000000" d="M 178.554688 155.355469 C 178.941406 155.355469 179.316406 155.28125 179.675781 155.132812 C 180.035156 154.984375 180.351562 154.773438 180.625 154.496094 C 180.898438 154.222656 181.109375 153.90625 181.257812 153.550781 C 181.40625 153.191406 181.480469 152.820312 181.480469 152.429688 L 181.480469 144.878906 L 182.339844 145.734375 C 182.617188 146.003906 182.933594 146.207031 183.292969 146.351562 C 183.648438 146.496094 184.023438 146.570312 184.40625 146.570312 C 184.792969 146.570312 185.164062 146.496094 185.523438 146.351562 C 185.882812 146.207031 186.199219 146.003906 186.476562 145.734375 C 186.75 145.460938 186.960938 145.144531 187.113281 144.789062 C 187.261719 144.429688 187.335938 144.054688 187.335938 143.667969 C 187.335938 143.28125 187.261719 142.910156 187.113281 142.550781 C 186.960938 142.191406 186.75 141.875 186.476562 141.601562 L 180.625 135.757812 C 180.347656 135.488281 180.027344 135.28125 179.671875 135.132812 C 179.3125 134.988281 178.9375 134.914062 178.550781 134.914062 C 178.164062 134.914062 177.792969 134.988281 177.433594 135.132812 C 177.074219 135.28125 176.757812 135.488281 176.480469 135.757812 L 170.625 141.601562 C 170.351562 141.875 170.140625 142.191406 169.992188 142.550781 C 169.84375 142.910156 169.769531 143.28125 169.769531 143.667969 C 169.769531 144.054688 169.84375 144.429688 169.992188 144.789062 C 170.140625 145.144531 170.351562 145.460938 170.625 145.734375 C 170.90625 146 171.222656 146.203125 171.582031 146.347656 C 171.941406 146.488281 172.3125 146.558594 172.695312 146.558594 C 173.082031 146.558594 173.453125 146.488281 173.808594 146.347656 C 174.167969 146.203125 174.484375 146 174.765625 145.734375 L 175.628906 144.878906 L 175.628906 152.429688 C 175.628906 152.820312 175.703125 153.191406 175.851562 153.550781 C 176 153.90625 176.210938 154.222656 176.484375 154.496094 C 176.761719 154.773438 177.078125 154.984375 177.433594 155.132812 C 177.792969 155.28125 178.167969 155.355469 178.554688 155.355469 Z M 178.554688 155.355469 " fill-opacity="1" fill-rule="nonzero"/><path fill="#000000" d="M 201.96875 184.582031 C 202.355469 184.582031 202.730469 184.507812 203.085938 184.359375 C 203.445312 184.210938 203.761719 184 204.039062 183.726562 C 204.3125 183.449219 204.523438 183.136719 204.671875 182.777344 C 204.820312 182.417969 204.894531 182.046875 204.894531 181.660156 L 204.894531 174.105469 L 205.75 174.960938 C 206.027344 175.230469 206.347656 175.4375 206.703125 175.585938 C 207.0625 175.730469 207.433594 175.804688 207.820312 175.804688 C 208.207031 175.804688 208.578125 175.730469 208.9375 175.585938 C 209.296875 175.4375 209.613281 175.230469 209.890625 174.960938 C 210.164062 174.6875 210.375 174.371094 210.523438 174.015625 C 210.671875 173.65625 210.746094 173.285156 210.746094 172.894531 C 210.746094 172.507812 210.671875 172.136719 210.523438 171.777344 C 210.375 171.417969 210.164062 171.105469 209.890625 170.828125 L 204.035156 164.984375 C 203.757812 164.714844 203.441406 164.507812 203.082031 164.363281 C 202.722656 164.21875 202.351562 164.144531 201.964844 164.144531 C 201.578125 164.144531 201.207031 164.21875 200.847656 164.363281 C 200.488281 164.507812 200.171875 164.714844 199.894531 164.984375 L 194.039062 170.828125 C 193.765625 171.105469 193.554688 171.417969 193.40625 171.777344 C 193.257812 172.136719 193.183594 172.507812 193.183594 172.894531 C 193.183594 173.285156 193.257812 173.65625 193.40625 174.015625 C 193.554688 174.371094 193.765625 174.6875 194.039062 174.960938 C 194.316406 175.230469 194.632812 175.4375 194.992188 175.585938 C 195.351562 175.730469 195.722656 175.804688 196.109375 175.804688 C 196.496094 175.804688 196.867188 175.730469 197.226562 175.585938 C 197.582031 175.4375 197.902344 175.230469 198.179688 174.960938 L 199.042969 174.105469 L 199.042969 181.660156 C 199.042969 182.046875 199.117188 182.417969 199.265625 182.777344 C 199.414062 183.136719 199.625 183.449219 199.898438 183.726562 C 200.171875 184 200.488281 184.210938 200.847656 184.359375 C 201.207031 184.507812 201.578125 184.582031 201.96875 184.582031 Z M 201.96875 184.582031 " fill-opacity="1" fill-rule="nonzero"/><g clip-path="url(#id3)"><path fill="#000000" d="M 117.097656 131.972656 C 117.863281 131.972656 118.625 131.898438 119.378906 131.746094 C 120.132812 131.597656 120.867188 131.375 121.574219 131.082031 C 122.285156 130.789062 122.960938 130.429688 123.601562 130.003906 C 124.238281 129.574219 124.832031 129.089844 125.375 128.546875 C 125.917969 128.003906 126.402344 127.414062 126.828125 126.777344 C 127.257812 126.136719 127.617188 125.464844 127.910156 124.753906 C 128.207031 124.046875 128.425781 123.316406 128.578125 122.5625 C 128.726562 121.808594 128.800781 121.050781 128.800781 120.28125 L 128.800781 114.4375 C 128.800781 113.667969 128.726562 112.910156 128.578125 112.15625 C 128.425781 111.402344 128.207031 110.671875 127.910156 109.960938 C 127.617188 109.253906 127.257812 108.578125 126.828125 107.941406 C 126.402344 107.304688 125.917969 106.710938 125.375 106.167969 C 124.832031 105.625 124.238281 105.140625 123.601562 104.714844 C 122.960938 104.289062 122.285156 103.929688 121.574219 103.636719 C 120.867188 103.339844 120.132812 103.121094 119.378906 102.96875 C 118.625 102.820312 117.863281 102.746094 117.097656 102.746094 C 116.328125 102.746094 115.566406 102.820312 114.8125 102.96875 C 114.058594 103.121094 113.328125 103.339844 112.617188 103.636719 C 111.90625 103.929688 111.230469 104.289062 110.59375 104.714844 C 109.953125 105.140625 109.363281 105.625 108.820312 106.167969 C 108.273438 106.710938 107.789062 107.304688 107.363281 107.941406 C 106.933594 108.578125 106.574219 109.253906 106.28125 109.960938 C 105.988281 110.671875 105.765625 111.402344 105.613281 112.15625 C 105.464844 112.910156 105.390625 113.667969 105.390625 114.4375 L 105.390625 120.28125 C 105.390625 121.050781 105.464844 121.808594 105.613281 122.5625 C 105.765625 123.316406 105.988281 124.046875 106.28125 124.753906 C 106.574219 125.464844 106.933594 126.136719 107.363281 126.777344 C 107.789062 127.414062 108.273438 128.003906 108.820312 128.546875 C 109.363281 129.089844 109.953125 129.574219 110.59375 130.003906 C 111.230469 130.429688 111.90625 130.789062 112.617188 131.082031 C 113.328125 131.375 114.058594 131.597656 114.8125 131.746094 C 115.566406 131.898438 116.328125 131.972656 117.097656 131.972656 Z M 111.242188 114.4375 C 111.242188 114.050781 111.28125 113.671875 111.355469 113.296875 C 111.429688 112.917969 111.542969 112.554688 111.6875 112.199219 C 111.835938 111.84375 112.015625 111.507812 112.230469 111.1875 C 112.441406 110.871094 112.683594 110.574219 112.957031 110.304688 C 113.230469 110.03125 113.523438 109.789062 113.84375 109.574219 C 114.164062 109.363281 114.5 109.183594 114.855469 109.035156 C 115.210938 108.890625 115.578125 108.777344 115.953125 108.703125 C 116.332031 108.628906 116.710938 108.589844 117.097656 108.589844 C 117.480469 108.589844 117.859375 108.628906 118.238281 108.703125 C 118.613281 108.777344 118.980469 108.890625 119.335938 109.035156 C 119.691406 109.183594 120.027344 109.363281 120.347656 109.574219 C 120.667969 109.789062 120.964844 110.03125 121.234375 110.304688 C 121.507812 110.574219 121.75 110.871094 121.960938 111.1875 C 122.175781 111.507812 122.355469 111.84375 122.503906 112.199219 C 122.652344 112.554688 122.761719 112.917969 122.835938 113.296875 C 122.910156 113.671875 122.949219 114.050781 122.949219 114.4375 L 122.949219 120.28125 C 122.949219 120.664062 122.910156 121.046875 122.835938 121.421875 C 122.761719 121.796875 122.652344 122.164062 122.503906 122.519531 C 122.355469 122.875 122.175781 123.210938 121.960938 123.527344 C 121.75 123.847656 121.507812 124.144531 121.234375 124.414062 C 120.964844 124.6875 120.667969 124.929688 120.347656 125.140625 C 120.027344 125.355469 119.691406 125.535156 119.335938 125.683594 C 118.980469 125.828125 118.613281 125.941406 118.238281 126.015625 C 117.859375 126.089844 117.480469 126.125 117.097656 126.125 C 116.710938 126.125 116.332031 126.089844 115.953125 126.015625 C 115.578125 125.941406 115.210938 125.828125 114.855469 125.683594 C 114.5 125.535156 114.164062 125.355469 113.84375 125.140625 C 113.523438 124.929688 113.230469 124.6875 112.957031 124.414062 C 112.683594 124.144531 112.441406 123.847656 112.230469 123.527344 C 112.015625 123.210938 111.835938 122.875 111.6875 122.519531 C 111.542969 122.164062 111.429688 121.796875 111.355469 121.421875 C 111.28125 121.046875 111.242188 120.664062 111.242188 120.28125 Z M 111.242188 114.4375 " fill-opacity="1" fill-rule="nonzero"/></g><path fill="#000000" d="M 240.664062 148.867188 L 240.664062 154.710938 C 240.664062 155.097656 240.738281 155.472656 240.886719 155.828125 C 241.035156 156.1875 241.246094 156.503906 241.519531 156.777344 C 241.792969 157.050781 242.113281 157.261719 242.46875 157.410156 C 242.828125 157.558594 243.203125 157.632812 243.589844 157.632812 C 243.976562 157.632812 244.351562 157.558594 244.710938 157.410156 C 245.070312 157.261719 245.386719 157.050781 245.660156 156.777344 C 245.933594 156.503906 246.144531 156.1875 246.292969 155.828125 C 246.441406 155.472656 246.515625 155.097656 246.515625 154.710938 L 246.515625 148.867188 C 246.515625 148.476562 246.441406 148.105469 246.292969 147.746094 C 246.144531 147.390625 245.933594 147.074219 245.660156 146.800781 C 245.386719 146.523438 245.070312 146.3125 244.710938 146.164062 C 244.351562 146.015625 243.976562 145.941406 243.589844 145.941406 C 243.203125 145.941406 242.828125 146.015625 242.46875 146.164062 C 242.113281 146.3125 241.792969 146.523438 241.519531 146.800781 C 241.246094 147.074219 241.035156 147.390625 240.886719 147.746094 C 240.738281 148.105469 240.664062 148.476562 240.664062 148.867188 Z M 240.664062 148.867188 " fill-opacity="1" fill-rule="nonzero"/><path fill="#000000" d="M 220.828125 148.21875 C 221.636719 148.21875 222.324219 147.933594 222.894531 147.363281 L 227.035156 143.230469 C 227.316406 142.957031 227.535156 142.640625 227.691406 142.28125 C 227.84375 141.921875 227.925781 141.546875 227.925781 141.152344 C 227.929688 140.761719 227.859375 140.382812 227.710938 140.023438 C 227.5625 139.660156 227.347656 139.339844 227.070312 139.0625 C 226.792969 138.785156 226.472656 138.570312 226.109375 138.421875 C 225.746094 138.273438 225.367188 138.203125 224.976562 138.207031 C 224.582031 138.210938 224.207031 138.289062 223.847656 138.441406 C 223.484375 138.597656 223.167969 138.816406 222.894531 139.097656 L 218.757812 143.230469 C 218.339844 143.648438 218.074219 144.148438 217.957031 144.726562 C 217.839844 145.304688 217.898438 145.871094 218.125 146.414062 C 218.351562 146.960938 218.710938 147.398438 219.203125 147.726562 C 219.695312 148.054688 220.234375 148.21875 220.828125 148.21875 Z M 220.828125 148.21875 " fill-opacity="1" fill-rule="nonzero"/><path fill="#000000" d="M 217.25 125.484375 C 217.636719 125.484375 218.011719 125.410156 218.371094 125.261719 C 218.730469 125.113281 219.046875 124.902344 219.320312 124.628906 C 219.59375 124.355469 219.804688 124.039062 219.953125 123.679688 C 220.101562 123.320312 220.175781 122.949219 220.175781 122.5625 C 220.175781 122.171875 220.101562 121.800781 219.953125 121.441406 C 219.804688 121.085938 219.59375 120.769531 219.320312 120.496094 C 219.046875 120.21875 218.730469 120.007812 218.371094 119.859375 C 218.011719 119.710938 217.636719 119.636719 217.25 119.636719 L 211.398438 119.636719 C 211.007812 119.636719 210.636719 119.710938 210.277344 119.859375 C 209.917969 120.007812 209.601562 120.21875 209.328125 120.496094 C 209.054688 120.769531 208.84375 121.085938 208.695312 121.441406 C 208.542969 121.800781 208.46875 122.171875 208.46875 122.5625 C 208.46875 122.949219 208.542969 123.320312 208.695312 123.679688 C 208.84375 124.039062 209.054688 124.355469 209.328125 124.628906 C 209.601562 124.902344 209.917969 125.113281 210.277344 125.261719 C 210.636719 125.410156 211.007812 125.484375 211.398438 125.484375 Z M 217.25 125.484375 " fill-opacity="1" fill-rule="nonzero"/><g clip-path="url(#id4)"><path fill="#000000" d="M 227.035156 101.894531 L 222.894531 97.777344 C 222.625 97.496094 222.304688 97.277344 221.945312 97.121094 C 221.585938 96.96875 221.207031 96.886719 220.816406 96.882812 C 220.421875 96.882812 220.046875 96.953125 219.683594 97.101562 C 219.320312 97.25 219 97.464844 218.722656 97.742188 C 218.445312 98.019531 218.230469 98.335938 218.082031 98.699219 C 217.933594 99.0625 217.859375 99.441406 217.863281 99.832031 C 217.867188 100.222656 217.945312 100.601562 218.101562 100.960938 C 218.257812 101.320312 218.476562 101.636719 218.757812 101.910156 L 222.894531 106.042969 C 223.171875 106.3125 223.488281 106.519531 223.847656 106.664062 C 224.207031 106.808594 224.578125 106.882812 224.964844 106.882812 C 225.351562 106.882812 225.722656 106.808594 226.082031 106.664062 C 226.441406 106.519531 226.757812 106.3125 227.035156 106.042969 C 227.3125 105.769531 227.523438 105.449219 227.671875 105.089844 C 227.824219 104.730469 227.898438 104.359375 227.898438 103.96875 C 227.898438 103.578125 227.824219 103.203125 227.671875 102.84375 C 227.523438 102.484375 227.3125 102.167969 227.035156 101.894531 Z M 227.035156 101.894531 " fill-opacity="1" fill-rule="nonzero"/></g><g clip-path="url(#id5)"><path fill="#000000" d="M 264.285156 147.363281 C 264.5625 147.632812 264.878906 147.839844 265.234375 147.988281 C 265.59375 148.132812 265.964844 148.203125 266.351562 148.203125 C 266.738281 148.203125 267.113281 148.132812 267.46875 147.988281 C 267.828125 147.839844 268.144531 147.632812 268.421875 147.363281 C 268.695312 147.089844 268.90625 146.773438 269.054688 146.414062 C 269.203125 146.058594 269.277344 145.683594 269.277344 145.296875 C 269.277344 144.910156 269.203125 144.535156 269.054688 144.179688 C 268.90625 143.820312 268.695312 143.503906 268.421875 143.230469 L 264.285156 139.097656 C 264.011719 138.816406 263.695312 138.597656 263.335938 138.441406 C 262.972656 138.289062 262.597656 138.210938 262.203125 138.207031 C 261.8125 138.203125 261.433594 138.273438 261.070312 138.421875 C 260.707031 138.570312 260.386719 138.785156 260.109375 139.0625 C 259.832031 139.339844 259.617188 139.660156 259.46875 140.023438 C 259.320312 140.382812 259.25 140.761719 259.253906 141.152344 C 259.253906 141.546875 259.335938 141.921875 259.488281 142.28125 C 259.644531 142.640625 259.863281 142.957031 260.144531 143.230469 Z M 264.285156 147.363281 " fill-opacity="1" fill-rule="nonzero"/></g><path fill="#000000" d="M 135.675781 132.683594 C 135.210938 133.082031 134.902344 133.574219 134.753906 134.167969 C 134.601562 134.757812 134.628906 135.339844 134.84375 135.910156 C 135.054688 136.484375 135.414062 136.945312 135.914062 137.292969 C 136.414062 137.640625 136.972656 137.816406 137.582031 137.816406 L 146.363281 137.816406 C 146.75 137.816406 147.125 137.742188 147.480469 137.59375 C 147.839844 137.445312 148.15625 137.234375 148.429688 136.960938 C 148.707031 136.6875 148.917969 136.371094 149.066406 136.011719 C 149.214844 135.65625 149.289062 135.28125 149.289062 134.894531 C 149.289062 134.507812 149.214844 134.132812 149.066406 133.777344 C 148.917969 133.417969 148.707031 133.101562 148.429688 132.828125 C 148.15625 132.554688 147.839844 132.34375 147.480469 132.195312 C 147.125 132.046875 146.75 131.972656 146.363281 131.972656 L 144.53125 131.972656 C 145.863281 130.570312 146.933594 128.996094 147.746094 127.246094 C 148.558594 125.496094 149.074219 123.660156 149.289062 121.742188 C 149.289062 121.261719 149.242188 120.789062 149.148438 120.316406 C 149.054688 119.847656 148.914062 119.390625 148.730469 118.945312 C 148.546875 118.503906 148.324219 118.082031 148.054688 117.683594 C 147.789062 117.285156 147.484375 116.914062 147.144531 116.578125 C 146.804688 116.238281 146.4375 115.933594 146.035156 115.667969 C 145.636719 115.402344 145.214844 115.175781 144.773438 114.992188 C 144.328125 114.808594 143.871094 114.671875 143.398438 114.578125 C 142.929688 114.484375 142.453125 114.4375 141.972656 114.4375 C 141.492188 114.4375 141.015625 114.484375 140.542969 114.578125 C 140.074219 114.671875 139.617188 114.808594 139.171875 114.992188 C 138.726562 115.175781 138.308594 115.402344 137.90625 115.667969 C 137.507812 115.933594 137.136719 116.238281 136.796875 116.578125 C 136.457031 116.914062 136.15625 117.285156 135.890625 117.683594 C 135.621094 118.082031 135.398438 118.503906 135.210938 118.945312 C 135.027344 119.390625 134.890625 119.847656 134.796875 120.316406 C 134.703125 120.789062 134.65625 121.261719 134.65625 121.742188 C 134.65625 122.128906 134.730469 122.503906 134.878906 122.863281 C 135.027344 123.21875 135.238281 123.535156 135.511719 123.808594 C 135.789062 124.082031 136.105469 124.292969 136.460938 124.441406 C 136.820312 124.589844 137.195312 124.664062 137.582031 124.664062 C 137.96875 124.664062 138.34375 124.589844 138.703125 124.441406 C 139.0625 124.292969 139.378906 124.082031 139.652344 123.808594 C 139.925781 123.535156 140.136719 123.21875 140.285156 122.863281 C 140.433594 122.503906 140.507812 122.128906 140.507812 121.742188 C 140.507812 121.550781 140.546875 121.363281 140.621094 121.183594 C 140.695312 121.003906 140.800781 120.847656 140.9375 120.710938 C 141.074219 120.574219 141.234375 120.46875 141.414062 120.394531 C 141.589844 120.320312 141.777344 120.28125 141.972656 120.28125 C 142.167969 120.28125 142.351562 120.320312 142.53125 120.394531 C 142.710938 120.46875 142.871094 120.574219 143.007812 120.710938 C 143.144531 120.847656 143.25 121.003906 143.324219 121.183594 C 143.398438 121.363281 143.433594 121.550781 143.4375 121.742188 C 143.4375 124.691406 138.894531 129.925781 135.675781 132.683594 Z M 135.675781 132.683594 " fill-opacity="1" fill-rule="nonzero"/></svg>